<svg xmlns="http://www.w3.org/2000/svg" width="330" height="736" data-diagram-type="SEQUENCE" preserveAspectRatio="none" style="width:330px;height:736px;background:#fff" viewBox="0 0 330 736"><title>Client</title><path fill="none" d="M26.837 39.068h8v659.475h-8z"/><path d="M30 39.068v659.474" style="stroke:#181818;stroke-width:.5;stroke-dasharray:5,5"/><title>Server</title><path fill="none" d="M292.429 39.068h8v659.475h-8z"/><path d="M296.352 39.068v659.474" style="stroke:#181818;stroke-width:.5;stroke-dasharray:5,5"/><g class="participant participant-head" data-participant="C"><rect width="51.674" height="33.068" x="5" y="5" fill="#e2e2f0" rx="2.5" ry="2.5" style="stroke:#181818;stroke-width:.5"/><text x="12" y="26.966" font-family="sans-serif" font-size="14" textLength="37.674">Client</text></g><g class="participant participant-tail" data-participant="C"><rect width="51.674" height="33.068" x="5" y="697.542" fill="#e2e2f0" rx="2.5" ry="2.5" style="stroke:#181818;stroke-width:.5"/><text x="12" y="719.508" font-family="sans-serif" font-size="14" textLength="37.674">Client</text></g><g class="participant participant-head" data-participant="S"><rect width="56.154" height="33.068" x="268.352" y="5" fill="#e2e2f0" rx="2.5" ry="2.5" style="stroke:#181818;stroke-width:.5"/><text x="275.352" y="26.966" font-family="sans-serif" font-size="14" textLength="42.154">Server</text></g><g class="participant participant-tail" data-participant="S"><rect width="56.154" height="33.068" x="268.352" y="697.542" fill="#e2e2f0" rx="2.5" ry="2.5" style="stroke:#181818;stroke-width:.5"/><text x="275.352" y="719.508" font-family="sans-serif" font-size="14" textLength="42.154">Server</text></g><g class="message" data-participant-1="C" data-participant-2="S"><path fill="#181818" d="m284.43 121.892 10 4-10 4 4-4z" style="stroke:#181818;stroke-width:1"/><path d="M30.837 125.892h259.592" style="stroke:#181818;stroke-width:1"/><text x="37.837" y="66.965" font-family="sans-serif" font-size="13" textLength="24.375">SYN</text><text x="37.837" y="84.671" font-family="sans-serif" font-size="13" textLength="108.81">Seq=0 Win=65495</text><text x="37.837" y="102.377" font-family="sans-serif" font-size="13" textLength="111.111">Len=0 MSS=65495</text><text x="37.837" y="120.083" font-family="sans-serif" font-size="13" textLength="241.592">SACK_PERM TSval=3192259273 WS=128</text></g><g class="message" data-participant-1="S" data-participant-2="C"><path fill="#181818" d="m41.837 206.716-10 4 10 4-4-4z" style="stroke:#181818;stroke-width:1"/><path d="M35.837 210.716h259.592" style="stroke:#181818;stroke-width:1;stroke-dasharray:2,2"/><text x="47.837" y="151.789" font-family="sans-serif" font-size="13" textLength="55.809">SYN, ACK</text><text x="47.837" y="169.495" font-family="sans-serif" font-size="13" textLength="77.077">Seq=0 Ack=1</text><text x="47.837" y="187.201" font-family="sans-serif" font-size="13" textLength="142.155">Win=65483 MSS=65495</text><text x="47.837" y="204.907" font-family="sans-serif" font-size="13" textLength="241.592">SACK_PERM TSval=3192259273 WS=128</text></g><g class="message" data-participant-1="C" data-participant-2="S"><path fill="#181818" d="m284.43 273.834 10 4-10 4 4-4z" style="stroke:#181818;stroke-width:1"/><path d="M30.837 277.834h259.592" style="stroke:#181818;stroke-width:1"/><text x="37.837" y="236.613" font-family="sans-serif" font-size="13" textLength="24.57">ACK</text><text x="37.837" y="254.319" font-family="sans-serif" font-size="13" textLength="77.077">Seq=1 Ack=1</text><text x="37.837" y="272.025" font-family="sans-serif" font-size="13" textLength="68.094">Win=65536</text></g><g class="message" data-participant-1="C" data-participant-2="S"><path fill="#181818" d="m284.43 340.952 10 4-10 4 4-4z" style="stroke:#181818;stroke-width:1"/><path d="M30.837 344.952h259.592" style="stroke:#181818;stroke-width:1"/><text x="37.837" y="303.731" font-family="sans-serif" font-size="13" textLength="56.069">PSH, ACK</text><text x="37.837" y="321.437" font-family="sans-serif" font-size="13" textLength="77.077">Seq=1 Ack=1</text><text x="37.837" y="339.143" font-family="sans-serif" font-size="13" textLength="136.24">Len=14 (Data payload)</text></g><g class="message" data-participant-1="S" data-participant-2="C"><path fill="#181818" d="m41.837 408.07-10 4 10 4-4-4z" style="stroke:#181818;stroke-width:1"/><path d="M35.837 412.07h259.592" style="stroke:#181818;stroke-width:1;stroke-dasharray:2,2"/><text x="47.837" y="370.849" font-family="sans-serif" font-size="13" textLength="24.57">ACK</text><text x="47.837" y="388.555" font-family="sans-serif" font-size="13" textLength="84.513">Seq=1 Ack=15</text><text x="47.837" y="406.261" font-family="sans-serif" font-size="13" textLength="68.094">Win=65536</text></g><g class="message" data-participant-1="S" data-participant-2="C"><path fill="#181818" d="m41.837 475.188-10 4 10 4-4-4z" style="stroke:#181818;stroke-width:1"/><path d="M35.837 479.188h259.592" style="stroke:#181818;stroke-width:1;stroke-dasharray:2,2"/><text x="47.837" y="437.967" font-family="sans-serif" font-size="13" textLength="52.468">FIN, ACK</text><text x="47.837" y="455.673" font-family="sans-serif" font-size="13" textLength="84.513">Seq=1 Ack=15</text><text x="47.837" y="473.379" font-family="sans-serif" font-size="13" textLength="68.094">Win=65536</text></g><g class="message" data-participant-1="C" data-participant-2="S"><path fill="#181818" d="m284.43 542.306 10 4-10 4 4-4z" style="stroke:#181818;stroke-width:1"/><path d="M30.837 546.306h259.592" style="stroke:#181818;stroke-width:1"/><text x="37.837" y="505.085" font-family="sans-serif" font-size="13" textLength="24.57">ACK</text><text x="37.837" y="522.791" font-family="sans-serif" font-size="13" textLength="84.513">Seq=15 Ack=2</text><text x="37.837" y="540.497" font-family="sans-serif" font-size="13" textLength="68.094">Win=65536</text></g><g class="message" data-participant-1="C" data-participant-2="S"><path fill="#181818" d="m284.43 609.424 10 4-10 4 4-4z" style="stroke:#181818;stroke-width:1"/><path d="M30.837 613.424h259.592" style="stroke:#181818;stroke-width:1"/><text x="37.837" y="572.203" font-family="sans-serif" font-size="13" textLength="52.468">FIN, ACK</text><text x="37.837" y="589.909" font-family="sans-serif" font-size="13" textLength="84.513">Seq=15 Ack=2</text><text x="37.837" y="607.615" font-family="sans-serif" font-size="13" textLength="68.094">Win=65536</text></g><g class="message" data-participant-1="S" data-participant-2="C"><path fill="#181818" d="m41.837 676.542-10 4 10 4-4-4z" style="stroke:#181818;stroke-width:1"/><path d="M35.837 680.542h259.592" style="stroke:#181818;stroke-width:1;stroke-dasharray:2,2"/><text x="47.837" y="639.321" font-family="sans-serif" font-size="13" textLength="24.57">ACK</text><text x="47.837" y="657.027" font-family="sans-serif" font-size="13" textLength="84.513">Seq=2 Ack=16</text><text x="47.837" y="674.733" font-family="sans-serif" font-size="13" textLength="68.094">Win=65536</text></g></svg>