<svg xmlns="http://www.w3.org/2000/svg" width="297mm" height="210mm" viewBox="0 0 297 210"><path d="m94.921 6.674 1.905 14.986 13.424 6.927-13.664 6.442-2.44 14.908-10.348-11.004-14.933 2.286 7.268-13.243-6.789-13.495 14.841 2.82ZM232.112 93.438l-34.45-3.042-22.037 26.656-7.753-33.705-32.16-12.721 29.659-17.789 2.16-34.517 26.084 22.71 33.495-8.612-13.539 31.825zM79.348 115.315l-22.484 3.957-9.487 20.766-10.712-20.16-22.68-2.606 15.863-16.418-4.53-22.376 20.516 10.014 19.88-11.224-3.184 22.607ZM162.034 166.112l-25.34 2.622-12.207 22.36-10.324-23.29-25.039-4.699 18.96-17.015-3.268-25.265 22.042 12.774 23.019-10.916-5.338 24.91zM228.404 152.764l-16.385-4.27-12.806 11.078-1.003-16.903-14.492-8.756 15.765-6.177 3.85-16.49 10.746 13.086 16.871-1.435-9.123 14.265z" style="fill:#ffcb00;stroke:#636363;stroke-width:.15875;stroke-linecap:round;stroke-linejoin:round;paint-order:stroke fill markers;fill-opacity:1"/><path d="m281.798 125.326-16.277-4.049-12.562 11.113-1.18-16.73-14.45-8.515 15.547-6.291 3.632-16.375 10.788 12.843 16.695-1.606-8.88 14.228zM272.157 19.28l-9.273 4.578-1.487 10.234-7.219-7.406-10.193 1.748 4.813-9.153-4.813-9.154 10.193 1.748 7.219-7.405 1.487 10.234zM261.034 63.034 254.42 64.1l-2.87 6.052-3.058-5.96-6.643-.859 4.723-4.75-1.235-6.583 5.976 3.024 5.88-3.21-1.03 6.619zM274.382 182.427l-14.516-3.82-11.375 9.793-.853-14.985-12.829-7.793 13.989-5.442 3.447-14.609 9.498 11.622 14.959-1.236-8.118 12.625zM33.37 195.775l-2.334-16.97-15.303-7.697 15.418-7.465 2.592-16.933 11.864 12.357 16.905-2.767-8.086 15.101 7.856 15.223L45.42 183.6zM111.236 88.247 98.923 84.44l-10.118 7.985-.183-12.887-10.72-7.155 12.2-4.157 3.491-12.407 7.724 10.318 12.878-.513-7.426 10.534z" style="fill:#ffcb00;fill-opacity:1;stroke:#636363;stroke-width:.15875;stroke-linecap:round;stroke-linejoin:round;paint-order:stroke fill markers"/></svg>