<svg xmlns="http://www.w3.org/2000/svg" width="596" height="559" data-diagram-type="SEQUENCE" preserveAspectRatio="none" style="width:596px;height:559px;background:#fff" viewBox="0 0 596 559"><title>Client</title><path fill="none" d="M26.837 39.068h8v482.414h-8z"/><path d="M30 39.068v482.414" style="stroke:#181818;stroke-width:.5;stroke-dasharray:5,5"/><title>Server</title><path fill="none" d="M558.851 39.068h8v482.414h-8z"/><path d="M562.774 39.068v482.414" style="stroke:#181818;stroke-width:.5;stroke-dasharray:5,5"/><g class="participant participant-head" data-participant="Client"><rect width="51.674" height="33.068" x="5" y="5" fill="#e2e2f0" rx="2.5" ry="2.5" style="stroke:#181818;stroke-width:.5"/><text x="12" y="26.966" font-family="sans-serif" font-size="14" textLength="37.674">Client</text></g><g class="participant participant-tail" data-participant="Client"><rect width="51.674" height="33.068" x="5" y="520.482" fill="#e2e2f0" rx="2.5" ry="2.5" style="stroke:#181818;stroke-width:.5"/><text x="12" y="542.448" font-family="sans-serif" font-size="14" textLength="37.674">Client</text></g><g class="participant participant-head" data-participant="Server"><rect width="56.154" height="33.068" x="534.774" y="5" fill="#e2e2f0" rx="2.5" ry="2.5" style="stroke:#181818;stroke-width:.5"/><text x="541.774" y="26.966" font-family="sans-serif" font-size="14" textLength="42.154">Server</text></g><g class="participant participant-tail" data-participant="Server"><rect width="56.154" height="33.068" x="534.774" y="520.482" fill="#e2e2f0" rx="2.5" ry="2.5" style="stroke:#181818;stroke-width:.5"/><text x="541.774" y="542.448" font-family="sans-serif" font-size="14" textLength="42.154">Server</text></g><g class="message" data-participant-1="Client" data-participant-2="Server"><path d="m560.851 90.48-10-4M560.851 90.48l-10 4M30.837 90.48h531.014" style="stroke:#181818;stroke-width:1"/><text x="284.657" y="66.965" font-family="sans-serif" font-size="13" textLength="24.375">SYN</text><text x="62.707" y="84.671" font-family="sans-serif" font-size="13" textLength="468.274">Seq=0 Win=65495 Len=0 MSS=65495 SACK_PERM TSval=3192259273 WS=128</text></g><g class="message" data-participant-1="Server" data-participant-2="Client"><path d="m31.837 139.892 10-4M31.837 139.892l10 4M30.837 139.892h531.014" style="stroke:#181818;stroke-width:1"/><text x="268.94" y="116.377" font-family="sans-serif" font-size="13" textLength="55.809">SYN, ACK</text><text x="42.837" y="134.083" font-family="sans-serif" font-size="13" textLength="508.014">Seq=0 Ack=1 Win=65483 Len=0 MSS=65495 SACK_PERM TSval=3192259273 WS=128</text></g><g class="message" data-participant-1="Client" data-participant-2="Server"><path d="m560.851 189.304-10-4M560.851 189.304l-10 4M30.837 189.304h531.014" style="stroke:#181818;stroke-width:1"/><text x="284.559" y="165.789" font-family="sans-serif" font-size="13" textLength="24.57">ACK</text><text x="202.354" y="183.495" font-family="sans-serif" font-size="13" textLength="188.981">Seq=1 Ack=1 Win=65536 Len=0</text></g><g class="message" data-participant-1="Client" data-participant-2="Server"><path d="m560.851 256.422-10-4M560.851 256.422l-10 4M30.837 256.422h531.014" style="stroke:#181818;stroke-width:1"/><text x="268.81" y="215.201" font-family="sans-serif" font-size="13" textLength="56.069">PSH, ACK</text><text x="198.636" y="232.907" font-family="sans-serif" font-size="13" textLength="196.417">Seq=1 Ack=1 Win=65536 Len=14</text><text x="252.657" y="250.613" font-family="sans-serif" font-size="13" textLength="88.374">(Data payload)</text></g><g class="message" data-participant-1="Server" data-participant-2="Client"><path d="m31.837 305.834 10-4M31.837 305.834l10 4M30.837 305.834h531.014" style="stroke:#181818;stroke-width:1"/><text x="284.559" y="282.319" font-family="sans-serif" font-size="13" textLength="24.57">ACK</text><text x="198.636" y="300.025" font-family="sans-serif" font-size="13" textLength="196.417">Seq=1 Ack=15 Win=65536 Len=0</text></g><g class="message" data-participant-1="Server" data-participant-2="Client"><path d="m31.837 355.246 10-4M31.837 355.246l10 4M30.837 355.246h531.014" style="stroke:#181818;stroke-width:1"/><text x="270.61" y="331.731" font-family="sans-serif" font-size="13" textLength="52.468">FIN, ACK</text><text x="198.636" y="349.437" font-family="sans-serif" font-size="13" textLength="196.417">Seq=1 Ack=15 Win=65536 Len=0</text></g><g class="message" data-participant-1="Client" data-participant-2="Server"><path d="m560.851 404.658-10-4M560.851 404.658l-10 4M30.837 404.658h531.014" style="stroke:#181818;stroke-width:1"/><text x="284.559" y="381.143" font-family="sans-serif" font-size="13" textLength="24.57">ACK</text><text x="198.636" y="398.849" font-family="sans-serif" font-size="13" textLength="196.417">Seq=15 Ack=2 Win=65536 Len=0</text></g><g class="message" data-participant-1="Client" data-participant-2="Server"><path d="m560.851 454.07-10-4M560.851 454.07l-10 4M30.837 454.07h531.014" style="stroke:#181818;stroke-width:1"/><text x="270.61" y="430.555" font-family="sans-serif" font-size="13" textLength="52.468">FIN, ACK</text><text x="198.636" y="448.261" font-family="sans-serif" font-size="13" textLength="196.417">Seq=15 Ack=2 Win=65536 Len=0</text></g><g class="message" data-participant-1="Server" data-participant-2="Client"><path d="m31.837 503.482 10-4M31.837 503.482l10 4M30.837 503.482h531.014" style="stroke:#181818;stroke-width:1"/><text x="284.559" y="479.967" font-family="sans-serif" font-size="13" textLength="24.57">ACK</text><text x="198.636" y="497.673" font-family="sans-serif" font-size="13" textLength="196.417">Seq=2 Ack=16 Win=65536 Len=0</text></g></svg>