<svg xmlns="http://www.w3.org/2000/svg" width="256pt" height="2816pt" viewBox="0 0 256 2816"><g class="graph" transform="translate(4 2812.36)"><title>tcp_sequence</title><path fill="#fff" d="M-4 4v-2816.36h256.25V4z"/><g class="node"><title>Client</title><text xml:space="preserve" x="221.25" y="-2785.31" font-family="Times,serif" font-size="14" text-anchor="middle">Client</text></g><g class="node"><title>c1</title><circle cx="221.25" cy="-2484.36" r=".36" stroke="#000"/></g><g class="edge"><title>Client-&gt;c1</title><path fill="none" stroke="gray" stroke-width="2" d="M221.25-2772.47v287.51"/></g><g class="node"><title>Server</title><text xml:space="preserve" x="221.25" y="-2317.31" font-family="Times,serif" font-size="14" text-anchor="middle">Server</text></g><g class="node"><title>s1</title><circle cx="221.25" cy="-2016.36" r=".36" stroke="#000"/></g><g class="edge"><title>Server-&gt;s1</title><path fill="none" stroke="gray" stroke-width="2" d="M221.25-2304.47v287.51"/></g><g class="node"><title>c2</title><circle cx="221.25" cy="-1728.36" r=".36" stroke="#000"/></g><g class="edge"><title>c1-&gt;c2</title><path fill="none" stroke="gray" stroke-width="2" d="M220.94-2483.78c-4.19 7.79-49.13 92.63-62.69 167.42-45.8 252.55 57.93 572.6 62.82 587.46"/></g><g class="edge"><title>c1-&gt;s1</title><path fill="none" stroke="#000" d="M220.54-2484.01c-14.47 7.21-245.28 124.52-195.35 253.15 39.47 101.69 152.12 184.61 186.18 207.94"/><path stroke="#000" d="m212.94-2026.09 6.38 8.46-10.26-2.63z"/><text xml:space="preserve" x="70.12" y="-2262.26" font-family="Times,serif" font-size="8" text-anchor="middle">SYN</text><text xml:space="preserve" x="70.12" y="-2252.51" font-family="Times,serif" font-size="8" text-anchor="middle">Seq=0 Win=65495</text><text xml:space="preserve" x="70.12" y="-2242.76" font-family="Times,serif" font-size="8" text-anchor="middle">Len=0 MSS=65495</text><text xml:space="preserve" x="70.12" y="-2233.01" font-family="Times,serif" font-size="8" text-anchor="middle">SACK_PERM TSval=3192259273 WS=128</text></g><g class="node"><title>c3</title><circle cx="221.25" cy="-1440.36" r=".36" stroke="#000"/></g><g class="edge"><title>c2-&gt;c3</title><path fill="none" stroke="gray" stroke-width="2" d="M221.25-1727.52q-.54 143.16 0 286.32"/></g><g class="node"><title>s2</title><circle cx="221.25" cy="-1152.36" r=".36" stroke="#000"/></g><g class="edge"><title>c2-&gt;s2</title><path fill="none" stroke="#000" d="M220.74-1727.73c-8.24 10.26-114.36 144.15-146.8 272.75-31.71 125.69 102.16 260.79 138.45 294.61"/><path stroke="#000" d="m214.54-1163.14 5.06 9.31-9.76-4.13z"/><text xml:space="preserve" x="70.12" y="-1447.38" font-family="Times,serif" font-size="8" text-anchor="middle">ACK</text><text xml:space="preserve" x="70.12" y="-1437.63" font-family="Times,serif" font-size="8" text-anchor="middle">Seq=1 Ack=1</text><text xml:space="preserve" x="70.12" y="-1427.88" font-family="Times,serif" font-size="8" text-anchor="middle">Win=65536</text></g><g class="node"><title>c4</title><circle cx="221.25" cy="-576.36" r=".36" stroke="#000"/></g><g class="edge"><title>c3-&gt;c4</title><path fill="none" stroke="gray" stroke-width="2" d="M221.03-1439.59c-3.55 12.56-49.26 175.96-62.78 311.23-10.61 106.14-10.61 133.86 0 240 13.52 135.27 59.23 298.67 62.78 311.23"/></g><g class="edge"><title>c3-&gt;s2</title><path fill="none" stroke="#000" d="M221.25-1439.58v274.9"/><path stroke="#000" d="m224.75-1164.7-3.5 10-3.5-10z"/><text xml:space="preserve" x="203.62" y="-1303.38" font-family="Times,serif" font-size="8" text-anchor="middle">PSH, ACK</text><text xml:space="preserve" x="203.62" y="-1293.63" font-family="Times,serif" font-size="8" text-anchor="middle">Seq=1 Ack=1</text><text xml:space="preserve" x="203.62" y="-1283.88" font-family="Times,serif" font-size="8" text-anchor="middle">Len=14 (Data payload)</text></g><g class="node"><title>c5</title><circle cx="221.25" cy="-288.36" r=".36" stroke="#000"/></g><g class="edge"><title>c4-&gt;c5</title><path fill="none" stroke="gray" stroke-width="2" d="M221.25-575.52q-.54 143.16 0 286.32"/></g><g class="node"><title>s4</title><circle cx="221.25" cy="-.36" r=".36" stroke="#000"/></g><g class="edge"><title>c4-&gt;s4</title><path fill="none" stroke="#000" d="M220.72-575.9c-10.89 9.36-184.57 161.4-148.66 302.16 29 113.69 116.03 231.07 141.88 264.19"/><path stroke="#000" d="m216.49-11.95 3.49 10-8.97-5.65z"/><text xml:space="preserve" x="70.12" y="-295.38" font-family="Times,serif" font-size="8" text-anchor="middle">ACK</text><text xml:space="preserve" x="70.12" y="-285.63" font-family="Times,serif" font-size="8" text-anchor="middle">Seq=15 Ack=2</text><text xml:space="preserve" x="70.12" y="-275.88" font-family="Times,serif" font-size="8" text-anchor="middle">Win=65536</text></g><g class="edge"><title>c5-&gt;s4</title><path fill="none" stroke="#000" d="M221.25-287.58v274.9"/><path stroke="#000" d="m224.75-12.7-3.5 10-3.5-10z"/><text xml:space="preserve" x="203.62" y="-151.39" font-family="Times,serif" font-size="8" text-anchor="middle">FIN, ACK</text><text xml:space="preserve" x="203.62" y="-141.64" font-family="Times,serif" font-size="8" text-anchor="middle">Seq=15 Ack=2</text><text xml:space="preserve" x="203.62" y="-131.89" font-family="Times,serif" font-size="8" text-anchor="middle">Win=65536</text></g><g class="edge"><title>s1-&gt;c2</title><path fill="none" stroke="#000" d="M221.25-2015.58v274.9"/><path stroke="#000" d="m224.75-1740.7-3.5 10-3.5-10z"/><text xml:space="preserve" x="198.75" y="-1884.26" font-family="Times,serif" font-size="8" text-anchor="middle">SYN, ACK</text><text xml:space="preserve" x="198.75" y="-1874.51" font-family="Times,serif" font-size="8" text-anchor="middle">Seq=0 Ack=1</text><text xml:space="preserve" x="198.75" y="-1864.76" font-family="Times,serif" font-size="8" text-anchor="middle">Win=65483 MSS=65495</text><text xml:space="preserve" x="198.75" y="-1855.01" font-family="Times,serif" font-size="8" text-anchor="middle">SACK_PERM TSval=3192259273 WS=128</text></g><g class="edge"><title>s1-&gt;s2</title><path fill="none" stroke="gray" stroke-width="2" d="M221.03-2015.59c-3.55 12.56-49.26 175.96-62.78 311.23-10.61 106.14-10.61 133.86 0 240 13.52 135.27 59.23 298.67 62.78 311.23"/></g><g class="edge"><title>s2-&gt;c4</title><path fill="none" stroke="#000" d="M220.72-1151.9c-10.89 9.36-184.57 161.4-148.66 302.16 29 113.69 116.03 231.07 141.88 264.19"/><path stroke="#000" d="m216.49-587.95 3.49 10-8.97-5.65z"/><text xml:space="preserve" x="70.12" y="-871.38" font-family="Times,serif" font-size="8" text-anchor="middle">ACK</text><text xml:space="preserve" x="70.12" y="-861.63" font-family="Times,serif" font-size="8" text-anchor="middle">Seq=1 Ack=15</text><text xml:space="preserve" x="70.12" y="-851.88" font-family="Times,serif" font-size="8" text-anchor="middle">Win=65536</text></g><g class="node"><title>s3</title><circle cx="221.25" cy="-864.36" r=".36" stroke="#000"/></g><g class="edge"><title>s2-&gt;s3</title><path fill="none" stroke="gray" stroke-width="2" d="M221.25-1151.52q-.54 143.16 0 286.32"/></g><g class="edge"><title>s3-&gt;c4</title><path fill="none" stroke="#000" d="M221.25-863.58v274.9"/><path stroke="#000" d="m224.75-588.7-3.5 10-3.5-10z"/><text xml:space="preserve" x="203.62" y="-727.38" font-family="Times,serif" font-size="8" text-anchor="middle">FIN, ACK</text><text xml:space="preserve" x="203.62" y="-717.63" font-family="Times,serif" font-size="8" text-anchor="middle">Seq=1 Ack=15</text><text xml:space="preserve" x="203.62" y="-707.88" font-family="Times,serif" font-size="8" text-anchor="middle">Win=65536</text></g><g class="edge"><title>s3-&gt;s4</title><path fill="none" stroke="gray" stroke-width="2" d="M221.03-863.59c-3.55 12.56-49.26 175.96-62.78 311.23-10.61 106.14-10.61 133.86 0 240 13.52 135.27 59.23 298.67 62.78 311.23"/></g></g></svg>