<svg xmlns="http://www.w3.org/2000/svg" width="227.628" height="83.304" viewBox="0 0 227.628 83.304"><path d="m18.133 17.707.351-.105.36-.086.308-.059.375-.059.426-.054.488-.043.528-.016.543.004.519.031.457.055.371.102.313.285.008.328-.16.453-.293.562-.188.313-.199.328-.211.34-.438.703-.214.356-.204.351-.195.34-.176.328-.175.313-.161.296-.152.282-.137.269-.265.492-.254.446-.227.402-.172.32" style="fill:none;stroke:#33c;stroke-width:.85;stroke-linecap:round;stroke-linejoin:round;stroke-miterlimit:10;stroke-dasharray:none;stroke-opacity:1" transform="translate(-.627 -9.867)scale(1.33333)"/><path d="m17.539 21.215.133-.309.422-.14.429-.094.543-.09.309-.043.324-.035.344-.031.359-.028.379-.031.391-.031.406-.028.41-.035.414-.031.403-.023.406-.024.398-.023.399-.039M31.871 18.059l-.012-.332.25-.325.286-.218.371-.211.453-.184.519-.144.571-.079.601-.004.309.024.297.047.539.16.418.25.238.344.008.445-.254.57-.219.321-.266.343-.312.352-.352.371-.39.387-.426.402-.457.41-.481.426-.476.418-.457.406-.414.383-.356.352-.3.316-.235.285-.172.266-.156.433.109.321.387.176.645.031.41-.035.465-.067.519-.086.559-.097.59-.118.609-.113.625-.113.629-.102.621-.09.582-.07.551-.047.512-.031.461-.023.41-.024M46.395 16.852l.335-.086.379-.086.504-.094.301-.043.316-.043.34-.035.348-.031.344-.024.34-.012h.324l.57.067.457.16.309.293.125.43-.035.57-.067.328-.09.348-.113.363-.129.383-.137.387-.14.39-.145.387-.14.391-.141.378-.137.379-.14.371-.141.356-.137.348-.148.328-.141.312-.136.293-.141.274-.274.476-.226.356" style="fill:none;stroke:#33c;stroke-width:.85;stroke-linecap:round;stroke-linejoin:round;stroke-miterlimit:10;stroke-dasharray:none;stroke-opacity:1" transform="translate(-.627 -9.867)scale(1.33333)"/><path d="m46.559 21.25.246-.23.457-.032.312-.004.36-.007.398-.004.426-.008h1.879l.504.008h1.031l.516-.008.5-.008h.476l.453.008.41.008h.371M.895 42.668l.332.047h.324l.344.015.347.055.352.043.445.031.336.012h1.176l.851-.023.43-.028.441-.023.438-.035 1.336-.106.437-.039.418-.027.403-.024.773-.023.391-.008.406-.008.422-.011.445-.012.461-.012.485-.012.492-.011.488-.012.484-.012h1.391l.449-.004.446-.011.437-.016.441-.023.438-.012.418-.012h.402l.395.008.379.012.382.023.407.024.437.023.481.012.504.011.523.012.531.008h.532l.531-.008.519-.012 1.008-.046.5-.024.504-.031.512-.027.523-.028.531-.023.539-.024 1.086-.023h.567l.582.012h3.687l.457.007h.473l.484.012.512.012.543.012.574.011.571.016.562.027.578.024.586.027.571.035.55.043.539.051.512.047.496.043.492.035.493.023.492.012.508.012.539.004h3.726l.477-.004.48-.012.953-.047.461-.023.442-.028.433-.023.407-.023.382-.024.387-.023.379-.024.359-.023.352-.016.344-.008.312-.011.418-.016h.379l.359-.004.364-.043.433-.066.332-.059.336-.047.301-.043.34-.043M6.363 33.98l.008.364.039.375.028.324.027.375.012.437.015.485.02.5.027.496.023.473.02.437-.004.383-.035.328" style="fill:none;stroke:#33c;stroke-width:.85;stroke-linecap:round;stroke-linejoin:round;stroke-miterlimit:10;stroke-dasharray:none;stroke-opacity:1" transform="translate(-.627 -9.867)scale(1.33333)"/><path d="m2.977 36.262.168-.301h.382l.442.019.578.036.332.019.355.016.379.011.399.012.414.016.422.004.433.008h.871l.418-.008.399-.004h.379l.343.012.313.027.512.09M35.375 30.941l-.344.164-.277.215-.223.207-.265.282-.309.359-.359.449-.2.258-.207.273-.207.293-.199.309-.191.324-.188.34-.164.352-.144.367-.129.371-.098.383-.066.379-.035.39-.004.387.019.391.047.378.07.379.094.364.113.351.125.336.149.317.156.3.176.274.18.25.382.429.418.321.442.195.429.067.411-.047.375-.153.308-.23.242-.301.153-.344.05-.39-.05-.407-.168-.398-.278-.355-.386-.274-.477-.187-.547-.082-.57.011-.516.078-.433.133-.325.192-.207.238-.07.297.07.301.235.207M50.051 31.512l-.324-.176-.305-.094-.367-.054-.41.011-.446.102-.453.203-.449.301-.426.386-.351.442-.258.469-.121.457.027.437.18.375.332.281.488.157.309.023.332-.012.351-.047.352-.085.351-.114.332-.136.313-.157.285-.172.258-.191.234-.207.203-.223.328-.461.227-.468.137-.446.082-.363.05-.34.083.375.031.496.019.305.016.348.012.375.011.406.008.437v.453l-.012.473-.027.477-.039.484-.055.481-.074.464-.09.454-.121.437-.144.41-.172.391-.207.359-.242.32-.27.293-.312.266-.348.227-.371.203-.383.179-.398.153-.407.133-.41.101M50.684 47.344l-.301-.16-.324-.055-.293.074-.305.172-.266.203-.312.281-.34.352-.352.426-.371.484-.187.262-.176.281-.176.293-.156.297-.141.305-.121.304-.097.305-.075.305-.046.304-.028.301.028.567.128.527.204.476.281.418.332.356.375.277.398.199.403.125.375.055.351-.019.32-.082.379-.211.258-.25.133-.352-.094-.352-.242-.246-.406-.191-.348-.078-.383-.024-.398.043-.395.114-.363.164-.32.218-.258.254-.199.278-.133.293-.039.41" style="fill:none;stroke:#33c;stroke-width:.85;stroke-linecap:round;stroke-linejoin:round;stroke-miterlimit:10;stroke-dasharray:none;stroke-opacity:1" transform="translate(-.627 -9.867)scale(1.33333)"/><path d="m34.301 9.605.34.032.312-.199.242-.192.254-.226.239-.25.207-.262.218-.36.133-.324-.191.395-.086.304-.067.329-.035.347.016.348.047.332.078.336.097.328.11.316.133.383" style="fill:none;stroke:green;stroke-width:.85;stroke-linecap:round;stroke-linejoin:round;stroke-miterlimit:10;stroke-dasharray:none;stroke-opacity:1" transform="translate(-.627 -9.867)scale(1.33333)"/><path d="m35.402 47.691-.031-.339-.129-.282-.324-.168-.297.043-.355.172-.336.278-.192.23-.16.258-.113.383.039.339.191.25.321.102.398-.078.277-.141.262-.191.223-.215.281-.324.199-.246.324-.004.18.422.098.468.047.586v.328l-.02.348-.039.356-.058.367-.083.363-.089.363-.11.36-.117.351-.141.348-.152.34-.16.328-.172.316-.18.305-.183.289-.203.27-.203.25-.227.226-.238.203-.262.172-.277.141-.317.113-.347.074-.379.051-.399.012-.41-.031-.426-.079M18.379 47.441l.297-.136.472-.086.411-.028h.461l.468.036.426.089.344.164.219.27.074.371-.094.465-.23.539-.153.289-.168.285-.164.289-.168.289-.164.293-.16.289-.152.286-.141.281-.133.269-.238.5-.207.461-.172.426-.133.348" style="fill:none;stroke:#33c;stroke-width:.85;stroke-linecap:round;stroke-linejoin:round;stroke-miterlimit:10;stroke-dasharray:none;stroke-opacity:1" transform="translate(-.627 -9.867)scale(1.33333)"/><path d="m17.582 50.363.336-.179.367-.024.477-.012.566-.011.309-.008.32-.004h.672l.344.004.339.012.333.011.32.02.297.023.519.102.403.113M78.965 18.316l.265.157.383-.043.36-.039.425-.055.477-.047.5-.043.484-.031.438-.004.367.027.352.098.023.336-.191.289-.305.367-.367.418-.383.461-.188.238-.183.246-.18.25-.168.25-.156.258-.293.512-.262.508-.23.484-.207.442-.172.382-.133.325" style="fill:none;stroke:#33c;stroke-width:.85;stroke-linecap:round;stroke-linejoin:round;stroke-miterlimit:10;stroke-dasharray:none;stroke-opacity:1" transform="translate(-.627 -9.867)scale(1.33333)"/><path d="m77.988 21.566.426.051.352.035.429.024.5.004.535-.004.547-.031.524-.036.48-.027.43-.02M86.613 19.18l-.14.351-.078.375-.067.317-.066.355-.055.379-.047.402-.023.407v.386l.031.36.047.3.058.344" style="fill:none;stroke:#33c;stroke-width:.85;stroke-linecap:round;stroke-linejoin:round;stroke-miterlimit:10;stroke-dasharray:none;stroke-opacity:1" transform="translate(-.627 -9.867)scale(1.33333)"/><path d="m84.145 21.301-.239-.223.403-.094.371-.007.453.011.5.024.504.023.468.024.395.043.324.043M91.828 18.621l-.168-.254-.219-.234-.293-.192-.359-.086-.309.063-.328.18-.246.269-.097.367.191.258.34.035.297-.07.34-.148.343-.204.34-.238.313-.254.273-.242.231-.211.257-.215.266.235.023.386-.007.579-.016.347-.02.371-.023.375-.043.383-.059.383-.074.383-.09.371-.113.363-.129.348-.144.328-.153.305-.168.273-.179.246-.391.402-.449.274-.512.133h-.566l-.559-.141-.476-.285M95.738 20.422l.399-.063.304-.023.391-.024.465-.023.484-.023.442-.008.336.019M95.73 21.598l.391.199h.766l.383.004.359.019.34.028M108.898 17.91l-.343.035-.321.11-.379.222-.285.219-.316.293-.328.348-.297.386-.246.415-.18.421-.094.418.012.414.109.383.211.336.286.262.351.18.387.082.363-.004.332-.078.36-.215.148-.305-.102-.34-.339-.281-.317-.129-.348-.051-.316.012-.34.102-.097.316" style="fill:none;stroke:#33c;stroke-width:.85;stroke-linecap:round;stroke-linejoin:round;stroke-miterlimit:10;stroke-dasharray:none;stroke-opacity:1" transform="translate(-.627 -9.867)scale(1.33333)"/><path d="m101.781 19.34.172.262.359-.118.333-.199.351-.281.219-.219.191-.242.227-.32.16-.293-.016.347-.086.321-.105.402-.125.453-.133.496-.113.5-.086.504-.047.485-.016.453.016.418.039.382.055.297" style="fill:none;stroke:green;stroke-width:.85;stroke-linecap:round;stroke-linejoin:round;stroke-miterlimit:10;stroke-dasharray:none;stroke-opacity:1" transform="translate(-.627 -9.867)scale(1.33333)"/><path d="m79.621 28.328.172-.297.301-.07.312-.035.383.035.254.172-.035.359-.164.258-.258.301-.332.328-.359.34-.352.351-.32.352-.246.344-.165.304-.082.399.094.324.254.238.399.168.332.071.363.042.394.028.391.015.363.008.352-.004M84.707 29.086l.074.355.047.391.02.324.011.356v.379l-.004.379-.023.371-.031.347-.067.313-.164.387" style="fill:none;stroke:#33c;stroke-width:.85;stroke-linecap:round;stroke-linejoin:round;stroke-miterlimit:10;stroke-dasharray:none;stroke-opacity:1" transform="translate(-.627 -9.867)scale(1.33333)"/><path d="m82.629 30.914.281-.258.344-.019.437.015.485.028.492.047.453.062.391.082.304.07M92.02 28.301l-.379.011-.301.145-.383.25-.285.223-.305.261-.308.313-.286.359-.257.387-.219.406-.168.406-.098.395-.039.363.02.332.152.41.277.282.395.156.297.035.445-.019.371-.102.278-.16.183-.305-.043-.375-.183-.269-.321-.2-.293-.07-.324-.019-.32.043-.399.144-.25.203-.148.34M95.91 29.328l-.133.277-.031.317.004.406.035.305.047.32.059.324.05.313.024.441-.074.407" style="fill:none;stroke:#33c;stroke-width:.85;stroke-linecap:round;stroke-linejoin:round;stroke-miterlimit:10;stroke-dasharray:none;stroke-opacity:1" transform="translate(-.627 -9.867)scale(1.33333)"/><path d="m93.812 30.961.426-.059.352.024.43.027.503.039.567.047.586.035.551.035.488.047.406.032" style="fill:none;stroke:#33c;stroke-width:.85;stroke-linecap:round;stroke-linejoin:round;stroke-miterlimit:10;stroke-dasharray:none;stroke-opacity:1" transform="translate(-.627 -9.867)scale(1.33333)"/><path d="m101.535 29.785.317-.254.246-.219.265-.257.266-.293.262-.321.242-.343.207-.328.172-.297.168-.356.113-.285-.086.395-.074.304-.078.371-.067.43-.035.465v.492l.035.5.071.496.101.465.117.426.133.351.129.282.106.312" style="fill:none;stroke:green;stroke-width:.85;stroke-linecap:round;stroke-linejoin:round;stroke-miterlimit:10;stroke-dasharray:none;stroke-opacity:1" transform="translate(-.627 -9.867)scale(1.33333)"/><path d="m106.422 29.719.406-.008.457-.047.399-.023.453-.024.496-.012.504-.011.48-.008h.399l.359.031M107.551 30.633l.418.035.347-.023.411-.024.457-.012.472-.019.457-.012.434.012.402.008M115.758 28.309l.277-.149.16-.258-.183-.312-.301-.184-.316-.054-.379.078-.395.195-.316.293-.2.324-.062.305.148.281.297.067.461-.067.344-.109.359-.153.352-.179.305-.192.253-.175.266-.192.266.223.004.383-.032.539-.027.308-.031.328-.043.336-.043.34-.067.328-.082.317-.093.293-.239.523-.293.418-.343.309-.379.211-.387.105h-.371l-.356-.082-.32-.18-.254-.312M111.84 35.777l.398-.089.453-.043.364-.024.386-.016.364-.007.312.007.328.04.137.269-.156.352-.18.304-.195.344-.207.367-.391.766-.172.383-.152.363-.149.344-.125.316-.113.297-.133.359" style="fill:none;stroke:#33c;stroke-width:.85;stroke-linecap:round;stroke-linejoin:round;stroke-miterlimit:10;stroke-dasharray:none;stroke-opacity:1" transform="translate(-.627 -9.867)scale(1.33333)"/><path d="m110.949 37.457.328-.238.344.011.418.028.481.051.527.05.558.047.575.043.55.031.532.012.504.012.464.012" style="fill:none;stroke:#33c;stroke-width:.85;stroke-linecap:round;stroke-linejoin:round;stroke-miterlimit:10;stroke-dasharray:none;stroke-opacity:1" transform="translate(-.627 -9.867)scale(1.33333)"/><path d="m69.941 21.258.309-.11.309-.242.304-.304.258-.348.188-.336.125-.332-.227.32-.145.328-.152.395-.133.426-.101.441-.051.438-.016.418.036.371.058.308.094.352" style="fill:none;stroke:gray;stroke-width:.85;stroke-linecap:round;stroke-linejoin:round;stroke-miterlimit:10;stroke-dasharray:none;stroke-opacity:1" transform="translate(-.627 -9.867)scale(1.33333)"/><path d="m72.504 19.613-.109-.328-.125-.347-.141-.344-.164-.328-.219-.289-.285-.235-.367-.152-.422-.074-.481.023-.515.133-.539.246-.274.168-.269.195-.27.223-.258.25-.25.273-.242.301-.219.309-.199.332-.172.34-.14.351-.106.36-.07.363-.035.371.008.371.047.363.078.352.113.328.144.312.172.286.207.257.235.223.25.192.273.156.285.113.305.07.312.035.321-.007.332-.039.332-.078.324-.11.32-.14.313-.18.305-.223.293-.262.285-.304.269-.34.262-.371.238-.395.211-.406.188-.414.152-.41.113-.395.059-.379.012-.351-.039-.324-.094-.289-.336-.461-.473-.293-.515-.157M71.711 29.848l.301-.075.429-.007.332.035.309.078.316.187-.046.391-.313.277-.457.317-.258.16-.262.164-.457.309-.351.293-.219.261-.058.336.25.238.339.098.457.047h.512l.5-.043.449-.055.387-.082" style="fill:none;stroke:gray;stroke-width:.85;stroke-linecap:round;stroke-linejoin:round;stroke-miterlimit:10;stroke-dasharray:none;stroke-opacity:1" transform="translate(-.627 -9.867)scale(1.33333)"/><path d="m74.223 28.953-.231-.226-.226-.211-.352-.25-.406-.106-.32.024-.391.125-.453.234-.485.32-.25.199-.246.219-.238.246-.227.27-.207.285-.179.305-.153.316-.125.324-.093.321-.059.324-.027.312.058.582.215.524.356.43.511.32.309.121.324.082.344.051.351.015.368-.015.363-.051.359-.078.352-.113.347-.141.325-.168.312-.199.285-.227.258-.262.227-.293.199-.324.168-.343.133-.36.09-.363.046-.356v-.339l-.05-.317-.114-.285-.171-.254-.227-.203-.273-.16-.297-.125-.321-.098-.324-.07M72.23 38.551l.325-.129.386-.106.524-.105.312-.051.332-.039.348-.039.344-.027.332-.02.305-.012h.492l.312.032-.152.281-.348.184-.344.214-.265.246-.16.274-.047.305.062.328.11.355.113.356.066.347-.027.328-.125.305-.219.277-.293.227-.332.18-.363.125-.387.054-.379-.019-.351-.09-.297-.156" style="fill:none;stroke:gray;stroke-width:.85;stroke-linecap:round;stroke-linejoin:round;stroke-miterlimit:10;stroke-dasharray:none;stroke-opacity:1" transform="translate(-.627 -9.867)scale(1.33333)"/><path d="m76.574 36.613-.398-.226-.504-.18-.586-.117-.313-.031-.316-.012-.32.004-.313.031-.304.055-.301.078-.289.105-.293.137-.285.164-.282.191-.269.219-.266.25-.254.289-.234.317-.211.34-.191.363-.172.383-.149.394-.113.403-.078.394-.047.395-.008.386.027.375.059.371.094.352.125.336.16.316.195.293.223.27.262.238.285.211.316.172.34.133.371.09.395.046h.418l.445-.043.457-.082.457-.125.453-.164.438-.195.41-.227.394-.261.356-.293.332-.328.308-.36.278-.394.246-.43.211-.449.172-.465.136-.469.071-.453.015-.43-.062-.402-.133-.367-.203-.336-.274-.293-.339-.246-.383-.195-.414-.149-.418-.117-.406-.09M47.703 61.254l.285-.219.266-.246.219-.223.238-.226.273-.25.09.351-.051.348-.015.383.015.394.028.395.019.383.02.332" style="fill:none;stroke:gray;stroke-width:.85;stroke-linecap:round;stroke-linejoin:round;stroke-miterlimit:10;stroke-dasharray:none;stroke-opacity:1" transform="translate(-.627 -9.867)scale(1.33333)"/><path d="m50.883 59.258-.266-.266-.308-.242-.336-.188-.379-.144-.418-.078-.434-.008-.449.078-.457.168-.469.281-.476.387-.239.234-.238.258-.242.274-.223.293-.215.312-.183.321-.16.328-.133.336-.102.339-.058.336-.028.328.008.313.047.297.199.543.332.457.457.34.274.125.293.093.316.063.34.023.352-.019.367-.047.363-.086.367-.117.356-.149.347-.187.324-.219.305-.254.281-.285.25-.312.235-.34.203-.36.18-.375.152-.386.129-.391.094-.383.05-.363.008-.348-.047-.316-.101-.285-.317-.465-.445-.348M33.645 60.34l.351-.094.313-.035.332.039.285.211-.067.309-.207.277-.312.316-.363.336-.352.332-.285.317-.188.281-.101.359.14.274.34.168.317.047h.351l.36-.039.32-.075.34-.129" style="fill:none;stroke:gray;stroke-width:.85;stroke-linecap:round;stroke-linejoin:round;stroke-miterlimit:10;stroke-dasharray:none;stroke-opacity:1" transform="translate(-.627 -9.867)scale(1.33333)"/><path d="m34.312 59.152-.363-.054-.465.058-.359.129-.379.195-.379.27-.371.324-.351.367-.333.418-.277.469-.219.512-.128.547-.032.554.071.532.195.5.316.445.418.394.5.321.543.238.567.141.57.015.57-.121.551-.25.266-.172.246-.203.234-.238.203-.277.18-.309.152-.336.121-.359.086-.375.055-.387.012-.395-.02-.394-.054-.391-.086-.371-.118-.34-.152-.308-.18-.278-.207-.238-.234-.195-.508-.289M19.777 60.078l.34-.082.36-.074.363-.047.332-.02.359.02.098.324-.067.367v.36l.043.402.032.41-.02.414-.097.387-.18.359-.254.293-.359.227-.297.098-.332.039-.348-.012-.297-.059" style="fill:none;stroke:gray;stroke-width:.85;stroke-linecap:round;stroke-linejoin:round;stroke-miterlimit:10;stroke-dasharray:none;stroke-opacity:1" transform="translate(-.627 -9.867)scale(1.33333)"/><path d="m21.855 58.285-.238-.215-.273-.16-.285-.109-.36-.016-.304.063-.364.156-.445.258-.246.172-.258.203-.266.234-.261.258-.25.281-.235.297-.211.316-.187.329-.16.343-.125.352-.09.359-.07.364-.032.359v.351l.032.34.07.328.09.313.121.293.144.269.375.465.477.364.277.136.301.102.316.066.34.024.352-.012.367-.051.379-.09.375-.132.375-.168.352-.204.332-.238.304-.273.274-.313.246-.34.211-.371.183-.398.16-.422.133-.43.102-.433.058-.438.02-.426-.031-.398-.086-.371-.156-.336-.211-.297-.274-.258-.324-.207-.352-.168-.363-.133-.367-.093-.344-.075-.328-.046" style="fill:none;stroke:gray;stroke-width:.85;stroke-linecap:round;stroke-linejoin:round;stroke-miterlimit:10;stroke-dasharray:none;stroke-opacity:1" transform="translate(-.627 -9.867)scale(1.33333)"/><path d="m147.082 20.41.246.203.332-.125.344-.187.43-.246.492-.305.265-.164.274-.176.277-.18.289-.179.278-.176.277-.18.273-.179.258-.18.254-.168.438-.313.339-.238.297-.207.055.305-.16.43-.211.597-.113.348-.114.375-.105.394-.094.407-.082.41-.059.422-.046.41-.028.406-.004.395.02.371.039.347.066.321.094.293.285.492.399.328M159.691 18.391l-.093-.356.285-.265.387-.192.531-.176.293-.07.297-.059.57-.074.492-.004.352.051.273.195.027.329.02.445.137.367.281.434.184.238.203.254.211.262.218.273.211.281.2.293.179.293.16.293.125.289.102.285.086.539-.059.489-.207.425-.34.364-.457.297-.273.132-.285.114-.297.09-.32.07-.317.051-.336.027-.336.008-.332-.02-.34-.039M135.094 46.898l.168.286-.028.441-.027.367-.023.387-.016.406v.399l.016.398.023.379.027.367.036.34.042.328.047.309.043.39" style="fill:none;stroke:#33c;stroke-width:.85;stroke-linecap:round;stroke-linejoin:round;stroke-miterlimit:10;stroke-dasharray:none;stroke-opacity:1" transform="translate(-.627 -9.867)scale(1.33333)"/><path d="m133.035 50.418.227-.258.367-.035.457-.039.523-.027.586-.024.313-.012.324-.011.34-.012.344-.012.351-.015.352-.004h.351l.348.011.324.012.567.008M147.645 35.969l.285-.227.32-.269.277-.246.332-.286.368-.336.398-.371.426-.406.219-.215.222-.226.227-.227.226-.234.219-.231.215-.226.375-.414.293-.325.262-.304-.157.461-.218.437-.258.531-.133.297-.125.317-.121.343-.113.356-.09.371-.082.379-.059.379-.047.387-.027.375-.012.371v.363l.012.352.027.339.028.328.031.313.066.57.067.489.054.386M163.637 32.121l-.047-.336-.141-.387-.258-.355-.265-.172-.348-.094-.41.004-.438.114-.437.214-.398.293-.321.317-.219.316-.105.293.039.379.258.25.305.078.394-.012.449-.097.485-.172.492-.234.484-.274.453-.301.399-.293.34-.254.257-.191.286-.125.339.277.2.407.23.589.121.344.114.383.097.406.086.43.063.441.031.457v.446l-.031.445-.067.43-.101.41-.125.402-.16.383-.188.363-.211.348-.246.316-.277.286-.321.25-.343.21-.387.172-.41.145-.438.113-.469.078-.484.035-.512-.023M148.363 45.863l.344-.172.293-.109.344-.102.367-.066.363-.023.34.043.293.117.219.222.113.34v.449l-.121.54-.098.285-.113.293-.125.293-.133.293-.14.285-.133.281-.133.277-.246.524-.227.48-.203.43-.179.383-.176.332-.172.246" style="fill:none;stroke:#33c;stroke-width:.85;stroke-linecap:round;stroke-linejoin:round;stroke-miterlimit:10;stroke-dasharray:none;stroke-opacity:1" transform="translate(-.627 -9.867)scale(1.33333)"/><path d="m147.199 49.301.321-.219.476-.082.473-.031.586-.004.332.004.355.008.379.011.395.012.398.012.41.019.418.024.434.023.437.024.438.019.429.012M163.543 46.426l-.254-.215-.269-.16-.399-.074-.433.054-.34.102-.352.16-.336.227-.285.265-.215.274-.16.394.035.305.332.195.465-.113.398-.195.45-.27.472-.316.477-.348.465-.34.433-.305.379-.246.324-.156h.407l.218.223.18.441.07.313.067.363.055.414.039.441.027.465.016.473v.476l-.028.481-.054.476-.079.465-.113.457-.14.43-.161.41-.175.383-.2.352-.222.324-.231.293-.246.25-.258.218-.273.172-.293.129-.305.098-.32.055-.332.011-.344-.031-.359-.07-.36-.114-.351-.152-.336-.176-.309-.203-.285-.23M127.141 56.809l.332-.059.382-.023.336.007.411.02.312.027.336.024.367.011.383.012h.793l.398-.008.418-.004.43-.011.453-.02.449-.023.434-.024.406-.011.379-.012.356-.012.347-.008h1.348l.351.008.372.004h1.101l.348.008.312.012.418.023.36.035.328.047.64.109.336.055.379.039.426.027.438.016.425.02.379.011.348.004h.648l.391-.004h.434l.437-.007h.406l.356-.012.312-.024.309-.035.336-.047.433-.066.325-.035.332-.031.32-.02.316-.012h.313l.437.02.379.023.328.024.352.019.457.004h1.164l.449-.012.457-.015.434-.024.383-.027.336-.016.418-.035.375-.039.375-.047.402-.039.328-.027.352-.016.355-.011h1.125l.324-.012.313-.024.351-.043.368-.031.418-.015h.359l.371.015.352.031.304.036.352.054.312.047.352.035.359.008h.77l.39.012.399.023.367.032.305.035.34.043.296.039.352-.004.332-.031.34-.043.359-.059.297-.047.348-.047.422-.039.422-.012.468.012.461.031.422.047.375.047.316.039.368.039.336.02M162.422 65.867l.238-.238.25-.184.332-.203.332-.215.301-.215.246-.242.219-.261.226-.309.18-.246.203-.281.219-.305.227-.305.207-.273.218-.309.086.395-.097.48-.129.567-.067.3-.066.309-.067.313-.058.316-.055.316-.039.321-.031.32-.02.316-.007.305.027.578.066.504.098.387.141.273" style="fill:none;stroke:#33c;stroke-width:.85;stroke-linecap:round;stroke-linejoin:round;stroke-miterlimit:10;stroke-dasharray:none;stroke-opacity:1" transform="translate(-.627 -9.867)scale(1.33333)"/><path d="m148.867 9.195.028-.308.257-.164.387-.125.336-.012.32.074.219.293-.117.367-.235.309-.339.34-.391.359-.391.352-.351.336-.274.289-.207.34.129.304.403.106.394.019.457-.019.504-.028.512-.039.476-.023.414.012.336.031" style="fill:none;stroke:green;stroke-width:.85;stroke-linecap:round;stroke-linejoin:round;stroke-miterlimit:10;stroke-dasharray:none;stroke-opacity:1" transform="translate(-.627 -9.867)scale(1.33333)"/><path d="m132.785 12 .379-.012.356-.195.285-.18.3-.222.305-.239.285-.25.262-.25.227-.234.238-.273.18.296-.055.329-.055.39-.058.422-.067.449-.078.465-.094.484-.093.497" style="fill:none;stroke:#f0f;stroke-width:.85;stroke-linecap:round;stroke-linejoin:round;stroke-miterlimit:10;stroke-dasharray:none;stroke-opacity:1" transform="translate(-.627 -9.867)scale(1.33333)"/><path d="m147.617 64.297.129.285.379-.016.371-.191.285-.215.313-.281.304-.336.297-.359.262-.34.211-.297.207-.313.027.442-.132.551-.082.324-.086.34-.086.351-.078.36-.075.363-.058.367-.047.363-.039.36-.028.359-.015.352-.004.339v.325l.019.578.032.5.039.414M131.82 65.293l.328.176.418-.133.356-.184.414-.257.426-.317.402-.363.375-.395.316-.402.266-.383.199-.328.192-.352-.067.45-.183.582-.106.336-.109.351-.106.367-.093.371-.086.376-.067.371-.05.371-.04.363-.027.359-.016.352v.34l.008.328.02.312.047.567.066.508.067.394M82.41 38.285l.34-.152.352-.117.304-.09.344-.078.352-.063.336-.035.421.035.266.211.02.457-.133.438-.215.507-.254.543-.254.528-.246.484-.219.418-.203.344-.191.285-.25.266" style="fill:none;stroke:#33c;stroke-width:.85;stroke-linecap:round;stroke-linejoin:round;stroke-miterlimit:10;stroke-dasharray:none;stroke-opacity:1" transform="translate(-.627 -9.867)scale(1.33333)"/><path d="m82.594 40.836.312-.168.348-.07.301-.032.355-.015.402-.012h.43l.43.012.422.011M89.688 38.875l-.118.352-.054.41-.024.343v.368l.012.351.019.321.008.39" style="fill:none;stroke:#33c;stroke-width:.85;stroke-linecap:round;stroke-linejoin:round;stroke-miterlimit:10;stroke-dasharray:none;stroke-opacity:1" transform="translate(-.627 -9.867)scale(1.33333)"/><path d="m88.504 40.324-.098-.316.309-.199.449-.036.375.004.414.016.422.027.402.02M96.062 37.863l-.339-.211-.352.012-.293.129-.32.238-.32.344-.274.422-.199.484-.094.508.027.496.153.449.285.379.379.301.445.203.465.098.469-.016.472-.121.454-.215.394-.32.316-.41.219-.481.117-.519-.007-.512-.149-.465-.269-.394-.368-.309-.425-.25M103.848 37.789l.336.063.363-.004h1.445l.305.007M103.656 39.273l.227.207.453.032.394.019.438.02.426.031.379.035.304.024" style="fill:none;stroke:#33c;stroke-width:.85;stroke-linecap:round;stroke-linejoin:round;stroke-miterlimit:10;stroke-dasharray:none;stroke-opacity:1" transform="translate(-.627 -9.867)scale(1.33333)"/><path d="m133.145 33.027-.254-.222-.301-.039-.305.125-.277.183-.332.262-.367.348-.391.441-.203.254-.199.273-.2.286-.183.3-.172.309-.16.312-.137.321-.113.324-.086.312-.059.317-.035.308.035.582.156.512.313.391.453.25.555.109.574-.015M135.004 34.566l-.156.344.004.41.007.332.012.356.016.351.011.329-.031.425" style="fill:none;stroke:gray;stroke-width:.85;stroke-linecap:round;stroke-linejoin:round;stroke-miterlimit:10;stroke-dasharray:none;stroke-opacity:1" transform="translate(-.627 -9.867)scale(1.33333)"/><path d="m133.617 35.938.219-.25.371-.004.328.023.371.035.391.047.375.043M136.668 32.602l.352-.184.468.055.364.16.371.262.363.355.316.453.239.524.136.582.028.3v.313l-.028.312-.05.321-.082.324-.098.312-.117.309-.141.305-.16.289-.168.273-.188.262-.183.246-.391.422" style="fill:none;stroke:gray;stroke-width:.85;stroke-linecap:round;stroke-linejoin:round;stroke-miterlimit:10;stroke-dasharray:none;stroke-opacity:1" transform="translate(-.627 -9.867)scale(1.33333)"/></svg>