<svg xmlns="http://www.w3.org/2000/svg" width="270.493" height="160.816" viewBox="0 0 270.493 160.816"><path d="m19.113 89.418.371-.156.332-.098.442-.094.531-.09.59-.066.578-.023.484.043.344.128.176.395-.16.414-.328.524-.203.293-.227.312-.234.316-.231.325-.219.32-.199.324-.18.317-.168.304-.136.293-.129.281-.199.512-.164.481-.133.386" style="fill:none;stroke:#33c;stroke-width:.85;stroke-linecap:round;stroke-linejoin:round;stroke-miterlimit:10;stroke-dasharray:none;stroke-opacity:1" transform="translate(.197 -105.866)scale(1.33333)"/><path d="m18.883 92.699.117-.347.309-.122.461-.105.613-.09.359-.043.391-.035.41-.035.426-.031.426-.02.835-.023.399-.012M32.297 90.164l.355-.148.395-.133.398-.09.379-.02.336.055.305.223-.039.406-.238.375-.379.441-.227.235-.242.238-.266.246-.547.5-.265.246-.239.239-.218.226-.34.422-.192.355-.046.418.316.282.453.09.625.011.371-.011.406-.024.438-.031.457-.027.465-.032.472-.023.473-.02.465-.015.457-.024M45.77 89.812l.304-.05.391-.047.473-.043h.523l.539.055.496.125.379.214.207.325.012.429-.176.528-.152.297-.176.312-.18.32-.18.332-.171.329-.157.328-.14.32-.129.316-.106.301-.16.555-.09.465-.066.379-.055.375" style="fill:none;stroke:#33c;stroke-width:.85;stroke-linecap:round;stroke-linejoin:round;stroke-miterlimit:10;stroke-dasharray:none;stroke-opacity:1" transform="translate(.197 -105.866)scale(1.33333)"/><path d="m45.133 93.57.363-.09.453-.074.61-.07.367-.035.398-.035.43-.036.457-.031.48-.031.969-.047.473-.023.449-.024.434-.019.398-.016.363-.019.332-.032M2.906 108.113l.36.024.437-.024.426-.043.508-.066.574-.082.297-.047.304-.055.309-.054.305-.055.304-.051.579-.09.523-.062.434-.028.316-.011M36.59 102.395l-.324.019-.332.227-.207.218-.239.305-.277.391-.324.461-.176.254-.172.277-.172.285-.172.301-.168.308-.156.317-.141.324-.121.32-.097.325-.074.324-.047.316-.02.309.008.304.09.575.199.507.301.426.379.328.437.207.477.09.472-.011.438-.102.367-.152.285-.203.188-.243.05-.398-.246-.375-.324-.199-.43-.133-.48-.047-.449.023-.375.075-.344.164M49.848 102.203l-.207-.269-.36-.239-.332-.105-.39-.039-.418.062-.418.164-.387.278-.332.363-.246.418-.145.43-.043.406.063.359.144.293.36.27.324.058.379-.047.418-.136.433-.227.426-.301.403-.339.367-.352.324-.336.266-.285.214-.215.325-.168.269.32.102.438.047.301.039.34.031.375.027.406.02.426.008.441-.008.449-.02.446-.031.449-.047.441-.058.438-.083.418-.097.402-.121.375-.145.359-.172.332-.199.313-.242.281-.27.25-.304.215-.34.172-.371.133-.399.089-.414.055-.429.012-.442-.024-.449-.062-.457-.094M.43 113.609l.304-.015.313-.008.316-.031.36-.047.39-.055.414-.039.418-.035.407-.02h.382l.379.02.391.023.418.012.445-.008.445-.027.434-.051.402-.058.36-.059.312-.055.379-.047.391-.043.387-.023.371-.012h.769l.321-.011.324-.02.34-.016.339-.019.356-.008.359.008.36.019.339.016.325.035.371.051.32.051.336.051.348.015.359-.004.363-.019h1.145l.469.011.539.02.609.023.328.016.332.02.344.019.352.023.367.024.371.023.379.024.383.023.394.024.797.039.391.008.378.015.364.004.359.008h.344l.332-.008.328-.004.313-.008.304-.011.59-.02.586-.015.57-.02 1.141-.023.574-.004h.57l.571.004.57.011.586.012.59.012h1.129l.523-.012.492-.023.438-.016.398-.027.368-.024.339-.023.309-.035.434-.055.378-.07.317-.059.328-.063.305-.039.343-.054.426-.067.324-.043.395-.047.449-.046.504-.047.527-.051.532-.035.515-.035.504-.024.492-.019.481-.012.476-.004.477.004.488.019.477.024.484.023.492.035.504.032.504.027.528.027.55.024.578.027.598.039.598.035.582.036.57.035.555.031.523.035.496.024.485.023.465.023.445.02.418.012.387.023.351.024.324.023.426.035.36.043.351.047.305.043.277-.113.301-.118.301-.121.304-.046.297.035-.324.113" style="fill:none;stroke:#33c;stroke-width:.85;stroke-linecap:round;stroke-linejoin:round;stroke-miterlimit:10;stroke-dasharray:none;stroke-opacity:1" transform="translate(.197 -105.866)scale(1.33333)"/><path d="m75.074 92.75.039.312.383-.039.301-.093.34-.145.343-.176.325-.218.293-.231.238-.254.195-.238.199-.305-.195.235-.203.394-.227.488-.199.563-.082.301-.058.304-.039.305-.02.305.02.59.097.55.153.485.168.418.144.351" style="fill:none;stroke:gray;stroke-width:.85;stroke-linecap:round;stroke-linejoin:round;stroke-miterlimit:10;stroke-dasharray:none;stroke-opacity:1" transform="translate(.197 -105.866)scale(1.33333)"/><path d="m77.828 90.484-.164-.308-.312-.238-.454-.153-.605-.035-.344.031-.371.071-.394.109-.403.141-.418.187-.425.223-.426.254-.41.289-.399.308-.375.34-.328.367-.289.383-.231.399-.171.418-.106.429-.047.446.02.441.078.445.141.446.199.433.25.426.308.414.352.391.383.367.425.332.454.293.464.254.477.203.477.152.472.11.465.054h.453l.438-.054.433-.11.418-.152.399-.211.379-.25.355-.293.332-.328.309-.367.277-.399.258-.437.234-.465.211-.496.18-.516.152-.531.113-.535.075-.543.019-.535-.043-.512-.105-.492-.18-.453-.25-.407-.312-.359-.368-.297-.41-.246-.437-.184-.453-.132-.465-.082-.465-.043-.465-.008" style="fill:none;stroke:gray;stroke-width:.85;stroke-linecap:round;stroke-linejoin:round;stroke-miterlimit:10;stroke-dasharray:none;stroke-opacity:1" transform="translate(.197 -105.866)scale(1.33333)"/><path d="m88.422 91.32.269-.129.325-.109.386-.102.434-.07.43-.023.386.035.313.101.262.313v.316l-.137.395-.235.453-.285.488-.285.508-.258.516-.226.5-.172.461-.106.382-.074.305-.078.313" style="fill:none;stroke:#33c;stroke-width:.85;stroke-linecap:round;stroke-linejoin:round;stroke-miterlimit:10;stroke-dasharray:none;stroke-opacity:1" transform="translate(.197 -105.866)scale(1.33333)"/><path d="m88.285 94.078-.004-.324.317-.113.375-.059.476-.043.563-.023.308-.008.313-.004h.949l.582.016.512.031M94.551 94.195l.304.102.43-.07.36-.079.406-.082.418-.078.398-.078M101.66 91.816l-.226-.261-.219-.258-.36-.113-.39.023-.32.051-.336.047-.391.058-.426.102-.304.109-.309.149-.277.191-.219.223-.188.34v.304l.301.285.449.063.375-.043.399-.098.39-.14.364-.168.339-.18.305-.18.379-.215.305-.125.32.024.399.215.285.261.285.36.273.461.231.519.133.539.007.512-.125.477-.242.422-.328.363-.402.305-.449.234-.493.152-.515.074-.512.004-.453-.082M113.867 92.488l-.308-.008-.289.075-.387.16-.274.133-.316.168-.352.203-.359.226-.34.239-.285.238-.207.234-.156.293.125.309.351.176.321.074.343.066.36.047.359.031.352.02h.324l.312-.012.411-.027M118.652 91.398l-.191-.277-.324-.101-.348.125-.305.203-.359.304-.383.395-.195.23-.192.246-.179.262-.164.27-.153.277-.129.273-.183.543-.074.516.047.465.164.406.293.336.418.231.566.097.34-.008.371-.039.39-.078.411-.109.418-.141.414-.168.39-.191.371-.215.356-.234.316-.25.285-.27.254-.289.211-.293.172-.305.129-.308.078-.313.031-.308-.019-.305-.067-.293-.285-.531-.203-.235-.262-.207-.285-.195-.304-.172-.317-.156-.308-.137-.297-.117M128.344 94.961l-.336-.117-.352.082-.218.226-.211.336-.145.387-.027.383.125.328.273.226.418.075.34-.055.332-.125.289-.187.219-.231.179-.402.016-.399-.113-.359-.153-.285M127.254 88.992l.125.336.121.32.078.34.059.434.039.316.047.321.082.324.113.293.219.359.238.25.32.129.356-.094.281-.226.297-.34.207-.289.211-.34.226-.383.247-.418.246-.426.238-.41.215-.371.172-.32.16-.371.07-.317-.25-.222-.34.011-.312.043-.36.067-.39.09-.391.105-.379.113-.34.122-.293.128M86.672 101.492l-.332.156-.27.25-.332.329-.371.394-.359.438-.313.441-.234.438-.145.421-.039.414.067.383.172.344.285.281.387.199.484.094.535-.004.508-.066.441-.109" style="fill:none;stroke:#33c;stroke-width:.85;stroke-linecap:round;stroke-linejoin:round;stroke-miterlimit:10;stroke-dasharray:none;stroke-opacity:1" transform="translate(.197 -105.866)scale(1.33333)"/><path d="m87.012 104.844.312.144.41.207.309.211.277.274.219.304.125.313.016.308-.102.301-.199.282-.277.25-.332.222-.368.195-.355.149" style="fill:none;stroke:#33c;stroke-width:.85;stroke-linecap:round;stroke-linejoin:round;stroke-miterlimit:10;stroke-dasharray:none;stroke-opacity:1" transform="translate(.197 -105.866)scale(1.33333)"/><path d="m91.828 107.93.305-.211.316-.227.262-.191.285-.215.285-.234.258-.239.215-.222.23-.282.188-.254-.102.305-.125.309-.148.383-.145.429-.125.457-.086.465-.046.465-.016.449.023.41.032.379.039.356.047.308" style="fill:none;stroke:green;stroke-width:.85;stroke-linecap:round;stroke-linejoin:round;stroke-miterlimit:10;stroke-dasharray:none;stroke-opacity:1" transform="translate(.197 -105.866)scale(1.33333)"/><path d="m96.676 106.242.285-.133.363-.062.321-.039.351-.028.371-.019.367-.004.325.027.359.121.172.27-.067.449-.148.367-.191.414-.2.422-.199.434-.183.43-.176.406-.153.371-.144.34-.133.293" style="fill:none;stroke:#33c;stroke-width:.85;stroke-linecap:round;stroke-linejoin:round;stroke-miterlimit:10;stroke-dasharray:none;stroke-opacity:1" transform="translate(.197 -105.866)scale(1.33333)"/><path d="m96.934 108.938.203-.27.472-.035.407-.012h.464l.497.012.527.012.523.019.5.035.442.016M102.691 108.891l.317.039.379-.024.457-.027.34-.024.351-.027.34-.012.305-.023M110.348 106.734l.218-.222.098-.317-.137-.289-.339-.094-.372.071-.394.199-.324.273-.2.305-.066.293.145.293.289.098.418-.055.316-.113.32-.164.285-.184.247-.191.277-.246.34-.059.191.336.113.375.082.453.012.492-.058.489-.141.461-.207.417-.266.36-.332.293-.398.226-.445.137-.469.035-.5-.035-.457-.09M117.598 107.348l.285.109.437.035.399.016.461.015h.98l.481-.007.421-.008h.36M118.812 108.801l.348.101.449-.011.371-.02.418-.023.442-.02.418-.012h.363l.32.012M129.352 106.746l-.188-.355-.226-.262-.364-.18-.32-.043-.352.043-.332.121-.258.18-.226.328-.004.34.191.305.379.246.344.125.379.117.379.141.363.175.332.246.281.329.204.394.121.442.007.457-.105.429-.215.383-.277.328-.324.262-.329.187-.312.094-.402-.043-.289-.273-.106-.305-.019-.395.082-.488.164-.558.113-.293.125-.293.141-.293.14-.285.137-.274.262-.492.23-.398.172-.293.148-.27M49.473 119.676l-.336-.156-.418-.082-.309-.012-.398.047-.297.125-.238.25-.047.34.011.312.059.348.148.363.18.25.25.25.32.266.352.281.367.304.336.333.262.355.152.375.02.383-.121.387-.254.378-.336.344-.379.301-.387.242-.351.168-.317.09-.351-.012-.161-.332.114-.312.25-.426.176-.254.195-.289.223-.309.23-.328.234-.344.223-.343.219-.348.199-.336.187-.32.168-.305.153-.289.246-.523.164-.457.078-.383-.023-.305-.274-.305-.312-.089" style="fill:none;stroke:#33c;stroke-width:.85;stroke-linecap:round;stroke-linejoin:round;stroke-miterlimit:10;stroke-dasharray:none;stroke-opacity:1" transform="translate(.197 -105.866)scale(1.33333)"/><path d="m34.09 82.457.363.047.293-.18.34-.281.238-.234.219-.25.207-.262.18-.262.199-.379.137-.304.121-.282v.418l-.028.317-.027.39-.027.453-.024.485-.027.488-.016.484-.004.469v.446l-.019.418-.027.371-.016.304" style="fill:none;stroke:green;stroke-width:.85;stroke-linecap:round;stroke-linejoin:round;stroke-miterlimit:10;stroke-dasharray:none;stroke-opacity:1" transform="translate(.197 -105.866)scale(1.33333)"/><path d="m76.176 117.582.078-.316.285-.18.367-.106.418-.058.399.035.312.141.098.382-.133.293-.258.348-.367.371-.418.383-.437.371-.399.352-.305.316-.191.274-.039.335.266.239.328.09.414.035.449-.012.453-.047.426-.078.359-.078.383-.09" style="fill:none;stroke:gray;stroke-width:.85;stroke-linecap:round;stroke-linejoin:round;stroke-miterlimit:10;stroke-dasharray:none;stroke-opacity:1" transform="translate(.197 -105.866)scale(1.33333)"/><path d="m78.746 114.082-.387-.035-.363-.02-.359.024-.367.086-.391.148-.418.235-.457.304-.465.371-.234.203-.227.207-.219.223-.203.227-.199.23-.195.242-.18.243-.172.257-.16.27-.145.281-.132.293-.121.297-.098.301-.074.304-.055.305-.02.305.047.597.075.293.105.286.133.273.168.266.191.25.211.238.235.223.238.195.254.18.25.164.508.254.496.175.492.082.484-.007.477-.106.484-.223.5-.332.258-.203.266-.222.265-.239.274-.25.265-.269.266-.281.258-.301.246-.309.238-.324.219-.328.207-.332.191-.344.18-.344.16-.347.141-.348.117-.344.094-.336.066-.328.039-.316.016-.305-.094-.559-.254-.48-.437-.406-.278-.164-.32-.129-.336-.098-.348-.066-.343-.039-.332-.032" style="fill:none;stroke:gray;stroke-width:.85;stroke-linecap:round;stroke-linejoin:round;stroke-miterlimit:10;stroke-dasharray:none;stroke-opacity:1" transform="translate(.197 -105.866)scale(1.33333)"/><path d="m111.211 118.395.324-.172.352-.278.285-.218.301-.258.304-.274.293-.289.274-.285.238-.281.199-.246.199-.262-.093.41-.117.379-.114.43-.082.461-.039.465.008.464.051.446.094.406.113.355.113.305.172.301" style="fill:none;stroke:green;stroke-width:.85;stroke-linecap:round;stroke-linejoin:round;stroke-miterlimit:10;stroke-dasharray:none;stroke-opacity:1" transform="translate(.197 -105.866)scale(1.33333)"/><path d="m88.984 117.32.164-.32.274-.176.371-.101h.379l.312.211-.027.339-.18.317-.304.371-.371.41-.391.418-.359.418-.297.402-.223.375-.125.344-.047.309.106.394.359.281.371.114.481.047.55-.012.571-.039.543-.051.48-.035.391-.059M93.84 118.281l.305-.105.445.078.398.047.485.031.55.004h1.051M104.305 115.547l-.106-.281-.359-.02-.34.168-.293.188-.344.242-.39.304-.418.368-.422.422-.192.234-.339.484-.258.5-.16.496-.051.485.051.453.16.418.265.359.348.281.375.18.398.082.379-.012.34-.086.293-.164.238-.214.227-.375.031-.395-.172-.328-.398-.18h-.398l-.473.09-.465.152-.391.204-.257.242M121.504 118.164l.184-.246-.34.086-.391.203-.352.172-.425.191-.457.219-.453.234-.403.227-.32.215-.293.289-.047.355.215.27.25.176.32.152.36.141.378.117.399.101.398.079.399.054.383.028.328.019.363.02M127.5 117.512l-.312-.145-.34-.004-.418.16-.305.227-.309.316-.269.395-.207.437-.137.45-.062.445.019.437.102.399.164.359.238.293.301.192.363.074.442-.067.503-.199.274-.136.269-.161.266-.187.254-.203.23-.215.207-.231.18-.246.274-.507.117-.508-.059-.465-.258-.402-.441-.309-.551-.219-.57-.16M134.531 119.703l-.343.121-.254.215-.262.34-.129.289-.066.316.003.321.086.32.168.285.246.219.305.133.344.035.348-.059.316-.136.254-.211.164-.25.086-.414-.125-.356-.305-.258-.363-.101M135.328 114.887l-.144.293-.204.394-.144.332-.141.356-.097.367-.055.332-.004.402.066.297.403-.058.32-.161.93-.531.293-.176.308-.191.336-.207.344-.231.352-.238.359-.254.352-.269.339-.282.325-.273.296-.269.274-.258.246-.239.211-.214.32-.368.192-.273.093-.328-.324-.11-.351.043-.5.114-.297.086-.332.105-.36.125-.379.145-.386.16-.383.18-.371.191-.356.199-.328.195-.308.204-.278.203-.257.203-.235.199-.383.356M88.094 126.031l-.379.078-.27.203-.32.27-.352.328-.378.383-.387.43-.363.461-.313.484-.234.484-.125.473-.004.434.109.394.246.348.36.297.464.265.567.215.308.09.329.078.339.059.352.047.355.035.36.027.359.016.352.008h.656l.578-.032" style="fill:none;stroke:#33c;stroke-width:.85;stroke-linecap:round;stroke-linejoin:round;stroke-miterlimit:10;stroke-dasharray:none;stroke-opacity:1" transform="translate(.197 -105.866)scale(1.33333)"/><path d="m90.219 129.109.394.161.395.191.469.269.484.329.437.379.332.394.2.395.05.363-.093.328-.219.285-.316.254-.387.215-.418.168-.418.129-.387.078-.304-.012" style="fill:none;stroke:#33c;stroke-width:.85;stroke-linecap:round;stroke-linejoin:round;stroke-miterlimit:10;stroke-dasharray:none;stroke-opacity:1" transform="translate(.197 -105.866)scale(1.33333)"/><path d="m96.594 130.066.273-.191.297-.285.242-.235.242-.257.235-.25.258-.317.199-.246-.172.406-.133.371-.133.461-.105.508-.067.508-.015.481.027.437.067.379.093.309.2.312" style="fill:none;stroke:#f0f;stroke-width:.85;stroke-linecap:round;stroke-linejoin:round;stroke-miterlimit:10;stroke-dasharray:none;stroke-opacity:1" transform="translate(.197 -105.866)scale(1.33333)"/><path d="m130.555 130.203.316.121.418-.019.399-.032.464-.046.481-.059.445-.055.356-.027h.332M131.211 131.543l.351.141h.407l.312.007.332.008.332.012.325.012.437.035" style="fill:none;stroke:#33c;stroke-width:.85;stroke-linecap:round;stroke-linejoin:round;stroke-miterlimit:10;stroke-dasharray:none;stroke-opacity:1" transform="translate(.197 -105.866)scale(1.33333)"/><path d="m20.59 82.312.277-.175.305-.196.273-.179.313-.223.316-.242.309-.254.258-.238.277-.309.199-.266.035.395-.054.332-.067.398-.066.454-.067.492-.058.488-.039.461-.008.426.019.367.047.305" style="fill:none;stroke:#f0f;stroke-width:.85;stroke-linecap:round;stroke-linejoin:round;stroke-miterlimit:10;stroke-dasharray:none;stroke-opacity:1" transform="translate(.197 -105.866)scale(1.33333)"/><path d="m75.152 139.453.332-.121.379-.094.371-.07.321-.055.363-.051.391-.039.379-.019.339.008.36.047.031.312-.258.297-.113.359.058.344.094.289.121.32.114.36.066.383-.008.382-.074.375-.145.348-.211.313-.265.269-.309.215-.336.152-.351.09-.367.035-.344-.007" style="fill:none;stroke:gray;stroke-width:.85;stroke-linecap:round;stroke-linejoin:round;stroke-miterlimit:10;stroke-dasharray:none;stroke-opacity:1" transform="translate(.197 -105.866)scale(1.33333)"/><path d="m79.316 137.391-.16-.321-.25-.336-.347-.285-.293-.144-.352-.078-.418.011-.512.125-.293.114-.324.148-.351.191-.371.243-.399.277-.418.316-.433.356-.438.375-.43.394-.414.407-.39.418-.36.429-.312.446-.274.453-.23.465-.188.464-.136.473-.094.473-.047.465.008.468.051.453.105.442.152.418.204.394.25.371.3.34.332.305.371.269.391.235.418.191.426.149.433.105.43.063.426.015.418-.023.398-.059.387-.101.363-.137.352-.176.332-.207.32-.238.305-.27.293-.3.277-.329.266-.351.258-.383.246-.406.226-.418.211-.438.196-.441.164-.441.14-.45.114-.449.078-.441.039-.434.008-.426-.032-.414-.074-.386-.121-.364-.156-.336-.203-.297-.239-.257-.265-.215-.285-.18-.293-.156-.286-.137" style="fill:none;stroke:gray;stroke-width:.85;stroke-linecap:round;stroke-linejoin:round;stroke-miterlimit:10;stroke-dasharray:none;stroke-opacity:1" transform="translate(.197 -105.866)scale(1.33333)"/><path d="m89.609 139.574.317.141.367.031.305.024.332.023.32.043.379.094.176.277-.219.406-.285.375-.352.45-.183.242-.188.258-.18.257-.171.258-.168.258-.289.496-.247.469-.207.437-.168.407-.136.351" style="fill:none;stroke:#33c;stroke-width:.85;stroke-linecap:round;stroke-linejoin:round;stroke-miterlimit:10;stroke-dasharray:none;stroke-opacity:1" transform="translate(.197 -105.866)scale(1.33333)"/><path d="m88.18 142.762.418-.063.328-.015.402-.016.481-.023.515-.024.531-.031.52-.024.453-.007.356.027" style="fill:none;stroke:#33c;stroke-width:.85;stroke-linecap:round;stroke-linejoin:round;stroke-miterlimit:10;stroke-dasharray:none;stroke-opacity:1" transform="translate(.197 -105.866)scale(1.33333)"/><path d="m96.207 142.355.375-.062.356.035.308.004.359-.016.411-.043.437-.054.453-.067.426-.07.363-.066.344-.024M102.664 141.527l.316-.179.309-.203.363-.278.266-.219.266-.246.265-.273.239-.281.199-.262.199-.313-.047.454-.09.367-.082.418-.066.445-.047.473-.031.492-.02.488-.015.492-.012.469-.008.438.008.382.019.321.028.359" style="fill:none;stroke:#f0f;stroke-width:.85;stroke-linecap:round;stroke-linejoin:round;stroke-miterlimit:10;stroke-dasharray:none;stroke-opacity:1" transform="translate(.197 -105.866)scale(1.33333)"/><path d="m109.664 141.168.336.148.348.043.457.02h.511l.504-.016.446-.004.339.02M110.129 143.23l.363.172.426.067.359.027.399.008.422-.012.406-.012.359-.011M119.086 139.953l-.328-.176-.297-.109-.324-.047-.313.125-.285.25-.254.258-.273.328-.27.391-.238.441-.188.484-.113.5-.027.504.062.481.153.457.23.406.293.352.34.281.351.191.352.114.324.043.399-.067.254-.187.039-.387-.227-.305-.258-.172-.312-.132-.348-.075-.324-.015-.371.043-.211.238M22.309 118.828l-.274-.246-.363-.133h-.348l-.418.133-.297.184-.328.277-.351.367-.371.469-.184.269-.18.293-.172.317-.16.328-.14.34-.121.34-.094.336-.063.328-.043.316-.011.305.054.554.153.497.246.425.336.352.418.262.484.168.539.062.567-.031.562-.113.504-.176.414-.219.293-.246.164-.25.012-.379-.278-.316-.343-.129-.446-.043-.511.066-.512.149-.457.203-.367.246-.246.258M105.207 118.383l.313.039h.39l.414.016.309.011.332.012.332.019.308.012.352.016M102.559 128.184l.277-.2.352-.05h.378l.34.105.231.277.015.465-.16.426-.301.496-.191.262-.219.269-.246.266-.258.266-.265.254-.262.246-.25.238-.238.234-.219.223-.367.406-.246.352-.106.297.098.355.402.227.391.082.449.05.465.012.453-.012.398-.027.344-.023M106.344 130.984l.351-.039.344-.031.418-.019h.445l.387.027M114.238 127.723l-.332-.067-.347.102-.286.254-.218.254-.227.324-.203.387-.18.445-.133.476-.078.485-.015.472.054.45.114.406.172.363.211.305.246.23.257.157.418.078.301-.047.305-.121.293-.172.25-.211.262-.34.078-.32-.16-.356-.286-.14-.355-.02-.375.11-.305.203-.183.293-.024.316" style="fill:none;stroke:#33c;stroke-width:.85;stroke-linecap:round;stroke-linejoin:round;stroke-miterlimit:10;stroke-dasharray:none;stroke-opacity:1" transform="translate(.197 -105.866)scale(1.33333)"/><path d="m123.629 130.316.324-.171.352-.278.285-.219.301-.257.304-.278.293-.285.274-.289.238-.277.199-.246.199-.262-.093.41-.121.375-.114.434-.078.461-.039.464.008.465.051.442.093.406.114.359.113.305.172.301M117.625 130.305l.313.035h.39l.41.019.313.012.332.012.332.019.305.012.355.016" style="fill:none;stroke:green;stroke-width:.85;stroke-linecap:round;stroke-linejoin:round;stroke-miterlimit:10;stroke-dasharray:none;stroke-opacity:1" transform="translate(.197 -105.866)scale(1.33333)"/><path d="m138.82 129.105-.168-.289-.371-.046-.383.113-.293.137-.253.171-.258.309-.039.344.218.359.305.25.406.27.457.289.457.3.399.313.281.305.133.281-.086.406-.219.246-.32.207-.387.164-.41.102-.387.027-.336-.047-.359-.234" style="fill:none;stroke:#33c;stroke-width:.85;stroke-linecap:round;stroke-linejoin:round;stroke-miterlimit:10;stroke-dasharray:none;stroke-opacity:1" transform="translate(.197 -105.866)scale(1.33333)"/><path d="m137.785 129.324.391-.07.359-.047.43-.039.492-.039.527-.051.536-.035.511-.023.485-.004.445.004.398.019.34.035.313.031M34.488 118.801l-.308.019-.336.137-.274.188-.277.238-.262.269-.211.286-.152.285-.063.394.176.324.383.278.352.183.398.223.406.262.371.308.301.348.199.375.086.391-.035.394-.137.375-.218.348-.282.304-.316.247-.348.148-.363.047-.371-.043-.332-.141" style="fill:none;stroke:#33c;stroke-width:.85;stroke-linecap:round;stroke-linejoin:round;stroke-miterlimit:10;stroke-dasharray:none;stroke-opacity:1" transform="translate(.197 -105.866)scale(1.33333)"/><path d="m34.168 119.629.398-.09.352-.074.41-.07.461-.059.496-.063.527-.046.532-.036.543-.023.531-.023.492-.008h.801" style="fill:none;stroke:#33c;stroke-width:.85;stroke-linecap:round;stroke-linejoin:round;stroke-miterlimit:10;stroke-dasharray:none;stroke-opacity:1" transform="translate(.197 -105.866)scale(1.33333)"/><path d="m30.285 82.66.363.035h.411l.398-.011.414-.02.344-.012h.305" style="fill:none;stroke:green;stroke-width:.85;stroke-linecap:round;stroke-linejoin:round;stroke-miterlimit:10;stroke-dasharray:none;stroke-opacity:1" transform="translate(.197 -105.866)scale(1.33333)"/><path d="m16.305 82.133.312.019.379.004.391-.004.34-.011.32-.02h.324" style="fill:none;stroke:#f0f;stroke-width:.85;stroke-linecap:round;stroke-linejoin:round;stroke-miterlimit:10;stroke-dasharray:none;stroke-opacity:1" transform="translate(.197 -105.866)scale(1.33333)"/><path d="m50.453 152.238-.187-.254-.34.008-.34.121-.383.215-.273.219-.278.289-.257.344-.215.394-.153.418-.058.418.051.402.179.372.313.316.426.238.531.125.59.008.304-.047.309-.078.297-.109.277-.133.266-.152.445-.391.309-.473.144-.531-.008-.523-.144-.481-.266-.394-.34-.297-.359-.2-.336-.124-.387-.043M50.465 142.586l-.238.203-.075.469-.035.441-.019.531.007.586.047.59.075.563.089.496.114.43.121.355.121.277.156.305.285.176.309-.145.289-.226.375-.325.457-.433.266-.258.285-.289.301-.305.308-.32.32-.328.313-.336.312-.34.293-.336.278-.332.258-.324.242-.316.211-.313.183-.297.168-.289.141-.273.183-.496.075-.426-.047-.352-.184-.285-.336-.211-.504-.117-.316-.027-.359.007-.391.032-.422.058-.43.09-.437.106-.438.132-.433.149-.418.168-.391.187-.359.196-.32.203-.27.199M38.512 159.414l-.282-.125-.308-.047-.36.07-.285.141-.328.219-.371.293-.418.351-.453.414-.23.227-.235.246-.23.258-.227.266-.211.281-.199.293-.187.304-.165.313-.148.316-.125.321-.102.324-.078.324-.054.32-.024.325v.316l.024.309.054.308.075.297.093.285.239.528.289.453.328.371.344.289.367.184.379.078.382-.024.387-.121.344-.195.281-.246.172-.274.004-.433-.184-.266-.32-.23-.418-.161-.492-.093-.496-.008-.446.055-.339.121-.231.226M48.477 161.281l.113-.289-.227-.281-.297-.082-.464.012-.368.097-.382.172-.368.25-.296.301-.2.309-.093.304.058.395.285.261.313.075.406-.024.465-.109.484-.184.485-.238.453-.27.41-.289.379-.293.332-.269.258-.219.281-.187.34.254.109.394.102.602.039.375.027.422.012.445-.004.473-.027.484-.055.488-.078.496-.106.485-.14.468-.168.442-.192.41-.218.379-.247.34-.273.304-.289.27-.313.23-.332.192-.351.156-.379.113-.399.078-.417.036-.438.007-.453-.035-.457-.078-.473-.121M5.715 178.883l.371.066.297.035.418.047.359.031.414.024.473.019.496.004.504.012.492.031M19.418 174.391l.414.004.473.007.39.036.426.082.41.14.344.215.242.309.078.418-.097.496-.246.562-.168.293-.18.297-.184.305-.187.3-.184.297-.176.293-.171.282-.161.277-.296.496-.282.422-.285.351-.297.293-.281.188" style="fill:none;stroke:#ff8000;stroke-width:.85;stroke-linecap:round;stroke-linejoin:round;stroke-miterlimit:10;stroke-dasharray:none;stroke-opacity:1" transform="translate(.197 -105.866)scale(1.33333)"/><path d="m17.926 178.633.359-.203.289-.11.348-.07.418-.035h.492l.563.043.312.023.332.028.352.035.367.043.383.054.398.059.406.055.407.043M32.605 175.43l.18-.328.328-.227.356-.125.469-.086.562-.019.598.043.562.132.481.223.332.297.132.359-.113.41-.344.45-.246.234-.281.23-.297.239-.32.242-.664.476-.324.239-.305.238-.281.234-.246.235-.204.226-.285.422-.109.395.074.359.246.324.41.27.579.207.347.086.379.062.399.051.41.027.41.02.406.02.391.007.375.008.351-.012.325-.031M46.711 174.367l.195-.269.364-.036.371.024.484.059.586.121.312.074.325.098.324.109.32.125.305.14.285.157.262.168.398.371.219.41-.008.449-.238.473-.199.246-.246.242-.282.254-.297.254-.312.266-.297.261-.293.262-.273.266-.25.254-.243.253-.218.243-.203.226-.36.422-.308.379-.25.316" style="fill:none;stroke:#ff8000;stroke-width:.85;stroke-linecap:round;stroke-linejoin:round;stroke-miterlimit:10;stroke-dasharray:none;stroke-opacity:1" transform="translate(.197 -105.866)scale(1.33333)"/><path d="m45.508 178.621.301-.062.425-.028h.524l.625.028.344.027.375.027.382.032.391.035.398.035.395.035.383.039.367.039.359.043.344.035.332.024h.32M72.164 162.426l-.305.222-.347.18-.45.258-.265.16-.293.18-.313.203-.332.219-.359.242-.379.25-.394.262-.415.269-.417.274-.411.281-.398.277-.379.274-.355.261-.309.258-.281.238-.239.227-.363.391-.219.304-.093.305.39.133.426-.055.543-.113.301-.078.304-.086.313-.094.313-.102.304-.101.293-.102.535-.187.442-.153.324-.109.34-.078-.047.336-.18.305-.281.386-.371.461-.231.258-.254.273-.277.29-.301.296-.304.317-.313.328-.312.348-.305.359-.301.363-.285.364-.266.359-.246.348-.222.335-.207.309-.188.293-.172.27-.285.464-.207.348" style="fill:none;stroke:#ff8000;stroke-width:.85;stroke-linecap:round;stroke-linejoin:round;stroke-miterlimit:10;stroke-dasharray:none;stroke-opacity:1" transform="translate(.197 -105.866)scale(1.33333)"/><path d="m63.938 170.91-.219.371-.227.446-.281.519-.145.281-.144.285-.133.297-.113.301-.086.305-.067.305-.035.296.02.575.16.507.32.43.489.328.308.117.352.075.39.05.426.012.445-.023.457-.055.457-.078.454-.106.429-.132.414-.161.383-.187.367-.203.34-.227.313-.234.285-.242.25-.246.215-.239.289-.441.113-.379M78.066 171.258l.395.109h.332l.422-.023.519-.055.582-.07.317-.039.308-.035.313-.036.308-.031.547-.043.469-.004.371.02.391.07M78.461 172.715l.418-.024.309-.023.394-.035.465-.035.519-.036.536-.05.527-.059.496-.055.445-.062" style="fill:none;stroke:#ff8000;stroke-width:.85;stroke-linecap:round;stroke-linejoin:round;stroke-miterlimit:10;stroke-dasharray:none;stroke-opacity:1" transform="translate(.197 -105.866)scale(1.33333)"/><path d="m82.961 168.469-.231-.258.438-.043.43.113.527.203.277.141.278.152.281.18.258.199.234.215.199.227.286.496.097.543-.086.582-.105.289-.145.293-.176.289-.203.273-.226.262-.246.254-.258.238-.266.227-.265.215-.274.203-.273.191-.274.172-.269.156-.266.145-.519.25-.446.168M103.559 160.316l.332.051.359-.019.457-.024.531-.031.574-.016.563-.007.5.031.41.066.313.117.218.336-.046.348-.227.453-.172.262-.207.293-.238.316-.258.34-.266.367-.273.383-.266.379-.258.383-.246.383-.226.371-.211.363-.192.348-.179.336-.16.308-.149.289-.25.488-.226.379-.188.243" style="fill:none;stroke:#ff8000;stroke-width:.85;stroke-linecap:round;stroke-linejoin:round;stroke-miterlimit:10;stroke-dasharray:none;stroke-opacity:1" transform="translate(.197 -105.866)scale(1.33333)"/><path d="m102.848 163.797.3-.215.379-.043.352.016.437.054.543.075.313.039.34.043.351.046.379.055.399.055.418.055.433.046M116.035 161.441l.356-.179.304-.059.403-.043.492-.012.558.032.567.07.512.121.382.16.235.336-.168.297-.41.352-.274.191-.301.199-.308.207-.313.211-.308.215-.285.215-.258.207-.227.211-.351.406-.211.391-.067.367.078.34.258.312.442.274.293.121.343.105.391.098.426.082.453.074.465.059.457.054.437.055.418.051.387.043.359.031M132.332 160.98l.438.075.355.027.363.02.371.011h.36l.34.004.429.028.332.062.239.211-.059.34-.172.328-.258.414-.3.477-.153.261-.152.27-.16.281-.153.289-.144.289-.141.293-.133.289-.132.281-.239.52-.215.473-.183.418-.153.297" style="fill:none;stroke:#ff8000;stroke-width:.85;stroke-linecap:round;stroke-linejoin:round;stroke-miterlimit:10;stroke-dasharray:none;stroke-opacity:1" transform="translate(.197 -105.866)scale(1.33333)"/><path d="m130.727 165.066.144-.265.285-.141.418-.094.555-.058.316-.02.34-.004h.36l.371.012.379.016.382.023.391.031.402.036.403.043.406.043.398.039.391.039.371.035.348.039.316.043.559.07M91.156 178.309l.344.054.48.02.411.015.496.02.566.016.609.011h.633l.317.008.32.012.32.019.305.016.559-.004M122.234 174.645l-.16-.278-.254-.289-.359-.078-.344.211-.324.242-.406.32-.481.387-.25.215-.265.227-.266.238-.273.254-.266.254-.258.265-.246.274-.23.281-.215.281-.192.293-.172.293-.148.297-.113.301-.086.297-.059.3-.039.567.07.539.176.484.25.418.321.332.371.227.425.117.473.004.469-.094.426-.179.332-.25.207-.313.05-.34-.109-.34-.293-.312-.445-.25-.559-.176-.551-.102-.437-.027-.34.129M134.23 174.199l-.25-.359-.242-.211-.297-.164-.363-.098-.433-.004-.497.114-.539.218-.273.145-.258.168-.246.18-.406.386-.266.406-.105.383.047.328.191.25.328.153.449.039.539-.063.59-.156.301-.109.297-.125.293-.145.293-.152.277-.156.274-.161.257-.164.465-.316.406-.274.333-.21.378-.168.372.132.125.293.066.489.016.32v.352l-.016.382-.02.407-.039.421-.054.434-.071.434-.086.429-.109.418-.133.407-.152.382-.172.368-.188.339-.203.317-.226.293-.238.269-.262.239-.27.207-.285.175-.301.137-.312.102-.324.07-.332.047-.34.019-.344-.019-.352-.051-.367-.098M90.012 192.547l.379.098.464-.008.418-.012.493-.023.519-.012.496-.004h.797l.352.023" style="fill:none;stroke:#ff8000;stroke-width:.85;stroke-linecap:round;stroke-linejoin:round;stroke-miterlimit:10;stroke-dasharray:none;stroke-opacity:1" transform="translate(.197 -105.866)scale(1.33333)"/><path d="m95.348 190.582-.223-.285-.324-.27-.285-.168-.34-.148-.379-.125-.395-.09-.386-.066-.368-.043-.343-.016-.332.012-.332.058-.344.11-.379.164-.406.234-.434.285-.449.325-.445.359-.426.375-.383.383-.348.375-.293.367-.242.371-.195.367-.141.383-.078.383-.008.394.086.383.168.383.246.363.332.328.407.282.464.226.524.18.562.125.594.074.305.016h.312l.325-.012.332-.027.332-.043.339-.059.336-.074.332-.082.329-.098.324-.113.312-.125.305-.137.301-.148.289-.156.281-.168.266-.18.25-.192.242-.195.223-.203.386-.406.293-.406.192-.395.093-.395-.019-.394-.149-.379-.285-.344-.41-.3-.492-.25-.496-.192-.434-.125-.316-.09M107.406 189.891l-.109-.289-.285-.227-.371-.059-.399.055-.32.106-.352.168-.363.234-.371.297-.367.363-.352.426-.316.476-.262.508-.191.528-.106.531-.015.539.093.523.207.524.297.492.379.445.434.36.457.261.476.137.481.023.457-.082.41-.168.336-.246.223-.296.113-.332-.028-.333-.164-.316-.312-.269-.445-.192-.524-.109-.539-.016-.473.055-.363.117-.273.25.187.277M119.449 188.992l-.203-.219-.359.051-.301.145-.297.215-.246.269-.16.293-.055.309.082.316.231.336.414.363.265.192.293.207.313.207.308.215.293.222.266.227.227.226.312.45.106.422-.098.394-.281.348-.438.293-.551.207-.304.066-.321.035-.312.016-.578-.063-.496-.191" style="fill:none;stroke:#ff8000;stroke-width:.85;stroke-linecap:round;stroke-linejoin:round;stroke-miterlimit:10;stroke-dasharray:none;stroke-opacity:1" transform="translate(.197 -105.866)scale(1.33333)"/><path d="m119.023 189.375.34-.113.371-.09.442-.067.488-.039.527-.019.555.008.594.011.305.004.304.012.305.008.598.023.593.016M134.18 188.684l-.262-.192-.285-.097-.399-.043-.484.039-.523.117-.493.211-.398.269-.25.317-.09.363.094.406.265.449.387.473.219.242.227.246.23.25.238.258.242.258.231.258.215.25.191.246.285.465.133.41-.027.344-.188.281-.336.207-.453.125-.531.043-.578-.043-.555-.106-.453-.168-.301-.214-.086-.43.2-.395.386-.503.254-.293.27-.317.293-.34.3-.347.29-.352.281-.34.265-.336.239-.316.211-.297.179-.281.16-.266.227-.457.125-.371.016-.395M.277 184.086l.278.141.343.035.368.047.332.031.39.012h.438l.304.011.321.012.32.023.317.024.312.023.305.024.308.023.43.02h.391l.367-.012.359-.02.356-.015.375-.024.402-.043.301-.054.312-.067.34-.078.363-.086.391-.097.398-.09.414-.071.422-.062.434-.047.445-.043.457-.027.473-.02.477-.011h.492l.476.007.481.004.476.008h.473l.465-.008.465-.011.453-.012.449-.004h.902l.453.004 1.313.035.441.008h.446l.449-.012.465-.012.476-.019.481-.024.472-.023.457-.024.43-.023.426-.035.414-.039.398-.039.383-.051.387-.039.371-.039.371-.035.36-.024.343-.015.34-.012.313-.016h.445l.426.016.429.027.438.035.445.036.313.015.34.012.351.012.379.015.391.012.398.02.797.046.391.024.386.023.387.039.383.028.394.023.411.024.425.027.426.012.438.011.429.012 1.278.035.437.016.457.027.485.024.5.023.496.023.492.024.484.023.465.036.453.039.875.07.426.035.426.047.418.051.82.093.406.047.399.047.39.051.387.039.387.043.383.035.394.035.402.032.415.019.41.012.406.012.391.003h1.074l.34-.011.664-.024.32-.011.312-.012.305-.012.438-.015.418-.008.406-.02.387-.015.363-.02.34-.023.316-.032.332-.035.34-.035.332-.035.324-.035.321-.035.316-.051.32-.055.317-.051.3-.054.301-.047.305-.074M84.82 184.238l.278.192.406.047.426.027.324.016h.719l.359-.016.336-.012.309-.015.39-.043.371-.071.301-.09.344-.019.312.035.383.051.348.035.371.047.387.055.378.07.372.066.371.071.418.054.3.035.332.032.352.023.375.012.387.012h.789l.398-.004.414-.012.43-.016.453-.011.473-.012.488-.012.5-.012.504-.011.5-.004h1.453l.465.004h2.742l.324.008.321.003h.742l.437-.011.442-.032.437-.05.418-.067.391-.07.34-.066.312-.055.324-.047.352-.043.398-.055.438-.05.328-.039.688-.071.355-.023.352-.024.351-.011.36-.012.363-.012.387-.012.398-.015.402-.012.418-.012h2.817l.527-.004.551-.011.562-.008h1.129l.539.008.512.015.484.024.469.027.906.047.45.023.445.032.433.027.422.035.418.043.407.047.394.051.375.051.367.062.352.051.344.051.347.039.36.031.371.02.371.011.359.004h.36l.351.008.344.004.348.008h1.039l.718-.024.352-.023.344-.02.339-.011.333-.012.32-.012.324-.008.332-.011.32-.012.325-.02.312-.023.445-.024.407-.011.371.008.351.011.336.016h.309l.351-.004.313-.023.297-.024.351-.031.305-.008.313.016h.304l.313-.039.308-.039.317-.051.312-.024.321-.015.343-.032M5.84 193.195l-.246-.23-.305-.035-.332.062-.379.137-.297.183-.168.262.172.293.328.27.285.211.313.246.289.265.227.266.152.387-.106.347-.351.25-.324.09-.328.02-.391-.121-.219-.239-.008-.367M8.469 189.656l-.078.383-.028.352-.019.461-.008.543v.597l.008.313.008.316.003.317.008.308v.313l-.008.586-.039.535-.078.484-.113.383" style="fill:none;stroke:#ff8000;stroke-width:.85;stroke-linecap:round;stroke-linejoin:round;stroke-miterlimit:10;stroke-dasharray:none;stroke-opacity:1" transform="translate(.197 -105.866)scale(1.33333)"/><path d="m7.328 193.875.297-.086.375.031.316.055.344.082.36.098M10.98 193.953l-.367.012-.371.207-.226.211-.219.34-.047.3.254.207.297-.089.32-.231.301-.301.219-.25.171.25.094.286.223.312.379.121M15.477 188.707l-.329.184-.136.394-.168.551-.086.328-.094.359-.098.383-.101.395-.106.398-.097.403-.102.398-.094.391-.089.375-.082.359-.075.332-.058.316-.098.563-.074.484-.039.375M16.199 188.914l-.105.445-.082.418-.098.571-.055.336-.058.351-.059.367-.109.735-.043.363-.043.352-.031.343-.02.328-.016.309-.003.559-.008.468-.035.395" style="fill:none;stroke:#ff8000;stroke-width:.85;stroke-linecap:round;stroke-linejoin:round;stroke-miterlimit:10;stroke-dasharray:none;stroke-opacity:1" transform="translate(.197 -105.866)scale(1.33333)"/><path d="m12.945 192.984.086-.308.348-.031h.441l.5.035.496.07.465.121.407.125M18.336 193.703l-.309-.223-.379-.007-.3.109-.286.199-.234.242-.156.27-.11.375.055.34.324-.024.301-.195.36-.312.398-.407.199-.23.203-.258.207-.285.211-.32.223-.352.219-.375.218-.402.219-.41.207-.407.192-.394.172-.36.152-.32.211-.496.129-.324-.16.297-.227.605-.125.375-.133.414-.125.434-.129.449-.113.453-.105.449-.094.442-.078.437-.067.426-.054.406-.04.383-.027.355-.012.336-.007.317.035.551.097.371M21.453 194.824l.383-.078.398-.148.274-.137.34-.246.152-.336-.281-.227-.469.039-.379.153-.379.246-.34.308-.273.356-.172.363-.066.34.039.313.289.332M24.945 193.535l-.168-.316-.297-.137-.054.301.191.289.215.32.145.379-.02.395-.16.261-.289.27-.395.262-.425.214-.372.168-.296.098M27.223 193.664l.132-.297-.378-.035-.247.242-.144.332-.016.387.153.43.148.3.133.293.078.375-.113.336-.297.262-.414.125-.352-.004M28.496 194.531l.18.258.34.012.382-.09.293-.16.082-.301-.32-.152-.391.07-.292.156-.301.25-.27.321-.215.367-.132.371-.032.351.075.328.191.258M30.941 194.215l.305.097.305-.101.387-.141.429-.14.445-.121.407-.071.324-.008.312.157.083.351-.063.328-.117.383-.156.414-.172.418-.2.426-.21.418M40.066 193.559l.297.066.321.051.421.074.321.047.332.043.312.035" style="fill:none;stroke:#ff8000;stroke-width:.85;stroke-linecap:round;stroke-linejoin:round;stroke-miterlimit:10;stroke-dasharray:none;stroke-opacity:1" transform="translate(.197 -105.866)scale(1.33333)"/><path d="m42.223 191.633-.231-.242-.34-.203-.3-.102-.364-.063-.433-.011-.457.05-.446.118-.418.199-.39.285-.367.363-.317.418-.265.469-.18.496-.094.5.008.504.105.496.211.469.305.433.414.368.512.293.277.113.57.152.567.039.539-.058.508-.157.465-.25.425-.324.36-.379.304-.449.235-.504.144-.547.055-.593-.035-.59-.113-.551-.18-.484-.238-.375-.278-.266-.273-.188M49.359 189.879l-.199.238-.199.309-.25.429-.285.524-.153.277-.16.282-.304.562-.149.273-.265.516-.211.449-.149.375-.105.395.281.133.391-.243.324-.175.347-.176.325-.129.398-.09.277.149-.011.304-.16.407-.133.296-.117.293-.18.407-.113.336M51.016 193.879l-.227.332-.227.363-.16.297-.136.332-.102.332-.074.317-.039.406M51.613 194.629l.18-.293.352-.176.296-.09.301.121-.172.403-.187.285-.199.305-.18.304-.192.371-.121.282.254-.278.211-.293.192-.254.195-.269.238-.313.231-.226.273-.149.348-.089.164.308-.098.317-.121.398-.094.422-.097.402-.133.34M55.023 194.102l.227-.223.348-.113h.332l.312.089.176.313-.106.359-.179.282-.231.289-.246.3-.218.293-.168.258-.137.309-.008.304.25.211" style="fill:none;stroke:#ff8000;stroke-width:.85;stroke-linecap:round;stroke-linejoin:round;stroke-miterlimit:10;stroke-dasharray:none;stroke-opacity:1" transform="translate(.197 -105.866)scale(1.33333)"/><path d="m54.652 195.43.387.035.324.07M58.246 194.375l-.332.145-.332.261-.207.317-.039.324.207.316.34.078.441-.07.321-.133.304-.172.285-.203.239-.211.234-.25-.246.309-.078.371.004.371.054.348M63.332 190.613l-.363.114-.196.316-.199.449-.203.555-.113.308-.121.333-.125.339-.125.352-.129.363-.117.371-.114.375-.101.379-.094.375-.078.367-.074.344-.067.328-.051.313-.085.554-.043.414" style="fill:none;stroke:#ff8000;stroke-width:.85;stroke-linecap:round;stroke-linejoin:round;stroke-miterlimit:10;stroke-dasharray:none;stroke-opacity:1" transform="translate(.197 -105.866)scale(1.33333)"/><path d="m60.648 195.387.309.179.336.192.281.113.313.078M63.945 194.484l-.332.102-.261.25-.161.328-.023.34.156.308.367.016.36-.168.351-.269.274-.297.152-.285-.273.14-.106.36.012.375.105.304M66.387 194.598l.293-.11.207.235.097.324.036.316-.016.41-.066.504-.118.567-.082.293-.093.293-.098.293-.113.281-.239.519-.254.43-.238.328-.219.223-.3.082-.231-.215-.094-.285-.019-.391.066-.488.153-.598.105-.328.121-.328.125-.316.129-.289.223-.465.215-.328M69.648 194.031l-.293-.152-.324.129-.332.265-.179.247-.188.414-.066.296v.426l.105.352.18.281.246.18.391.047.347-.157M71.719 193.844l-.321.246-.296.301-.219.297.086.296.398-.035.371-.094.391-.132.375-.114.297-.078.32-.011.133.359-.121.406-.113.285-.192.414-.16.258M64.5 191.379l-.25.23-.062.34-.02.36M65.691 191.473l-.187.293-.113.339-.098.403-.082.387M52.031 190.852l.383.093M76.539 193.121l.133.305.387.012.296-.106.09-.293-.32-.098-.371.098-.305.203-.148.281M76.832 194.477l-.246.234-.066.316.3.18.332-.031-.195-.238-.297.054-.312.156.168.305.343-.008.25-.168-.328-.117M7.652 147.516l-.105-.301-.246-.227-.352-.031-.398.074-.297.094-.285.125-.332.199-.215.293.113.328.293.09.438-.047.339-.101.344-.141.321-.141.269-.136.301-.129.312.129.106.433.012.481-.059.601-.066.336-.086.348-.106.344-.121.336-.133.316-.144.297-.153.277-.304.477-.321.363-.32.246-.312.125-.422-.07-.246-.211-.207-.34-.133-.473M9.473 147.664l-.094.305-.039.351-.028.414-.003.375v.34l.183-.371.102-.285.125-.316.148-.317.156-.293.239-.359.261-.219.297-.078M11.969 147.734l-.289.215-.223.36-.059.425.114.387.273.27.41.058.313-.09.301-.183.242-.258.179-.305.106-.34.047-.347-.024-.317-.16-.359-.265-.195M15.621 147.371l.047.328.027.375-.011.406-.043.407-.059.367-.074.336-.067-.313.055-.339.074-.372.071-.328.047-.316.082-.324.144-.336.18-.352.152-.281.172-.297.195-.312.211-.321.231-.324.254-.313.273-.296.277-.27.274-.226.25-.172.301-.145.164.262-.137.355-.141.422-.039.43.074.402.125.364.098.359.027.363-.058.336-.106.285-.226.278-.332.129-.352.019-.394-.019M12.336 144.102l-.02.347-.015.371-.039.328M13.449 144.441l.11.332.031.368.035.316M20.621 148.207l.313-.059.3-.089.317-.133.285-.156.215-.239-.274-.148-.332.121-.351.266-.192.246-.148.269-.09.426.098.375.273.281M23.391 148.848l.039-.34.093-.395.172-.39.207-.297.325-.211M26.438 147.777l.312-.078.332-.133.281-.171.184-.258-.223-.262-.406-.004-.344.086-.347.156-.286.215-.187.25-.043.414.125.274.238.246.344.215.414.144M31.559 145.441l.257-.3.274-.153.332-.129.379-.093.398-.036.387.024.332.09.309.285-.032.48-.218.422-.332.485-.18.25-.18.257-.164.254-.266.469-.16.426-.058.359.07.399.238.234" style="fill:none;stroke:#ff8000;stroke-width:.85;stroke-linecap:round;stroke-linejoin:round;stroke-miterlimit:10;stroke-dasharray:none;stroke-opacity:1" transform="translate(.197 -105.866)scale(1.33333)"/><path d="m31.32 147.492.399-.062.426.008.531.027.582.055.308.031.582.047M36.426 147.391l-.324.105-.372.203-.246.199-.218.227-.243.34-.05.332.312.043.277-.113.313-.196.32-.254.293-.277.231-.281.211-.336-.211.238-.098.391.039.351.211.285M40.117 143.059l-.422.367-.406.445-.332.488-.207.496-.051.461.086.395.18.316.223.258.207.238.207.372.046.429-.043.328-.062.348-.066.332-.071.305-.043.34M43.5 144.609l.07-.328-.351.024-.293.211-.352.308-.363.406-.332.493-.149.269-.21.555-.098.562.023.536.129.484.199.426.27.32M7.762 154.852l-.18.277-.102.32-.07.414-.023.309.008.312.035.43.031.34M9.535 155.574l-.133.336-.214.305-.192.258.297-.157.32-.214.34-.223.293-.172.145.273.304-.011.352-.059.34.082.179.297-.027.352-.133.293M13.531 155.48l-.168.293-.218.274-.231.254.274-.215.324-.195.34-.172.289-.102-.118.34-.226.254-.188.266.332-.071.286-.133.347-.152.371-.164.367-.129.329-.098.394-.035.277.145-.066.359-.137.266-.207.269M18.539 156.566l.41-.14.352-.18.234-.223.031-.316-.324-.078-.39.098-.282.128-.269.176-.246.196-.282.304-.16.289.028.321M20.145 156.238l-.04.383-.078.34.352-.184.238-.226.278-.246.332-.262.367-.258.39-.246.379-.219.332-.187.364-.18M31.156 153.785l-.308-.055-.309.043-.293.215-.195.246-.211.375-.098.286-.035.425.152.34.34.192.324.019.387-.086.418-.172.383-.246.309-.297.175-.324.047-.336-.078-.305-.18-.25-.371-.246-.359-.07M34.609 151.121l-.246.242-.273.379-.207.332-.211.371-.192.379-.148.344-.105.301-.059.332.219.242.332.004.39.031.332.082.219.211-.117.281-.273.203-.379.172-.297.082-.301.051h-.352M35.742 154.566l.461.012.336-.043.359-.074.372-.109.351-.125.305-.133.32-.172-.113-.293-.336.082-.367.234-.219.235-.191.273-.133.301-.063.297.063.437.238.352M40.34 154.531l.375.059.273-.129.293-.129.293-.094.41-.07.321.051.207.258-.028.414-.152.375" style="fill:none;stroke:#ff8000;stroke-width:.85;stroke-linecap:round;stroke-linejoin:round;stroke-miterlimit:10;stroke-dasharray:none;stroke-opacity:1" transform="translate(.197 -105.866)scale(1.33333)"/><path d="m46.949 131.039.309-.168.285-.25.227-.211.23-.226.219-.219.238-.27-.125.453-.16.399-.141.449-.109.461-.074.438-.036.394.008.328.094.348.266.148" style="fill:none;stroke:gray;stroke-width:.85;stroke-linecap:round;stroke-linejoin:round;stroke-miterlimit:10;stroke-dasharray:none;stroke-opacity:1" transform="translate(.197 -105.866)scale(1.33333)"/><path d="m49.652 128.977-.132-.305-.192-.281-.238-.254-.293-.219-.344-.152-.406-.075-.453.024-.485.14-.515.231-.52.316-.254.188-.238.195-.23.215-.215.234-.199.246-.18.262-.164.281-.141.297-.117.313-.094.32-.066.332-.028.32.008.325.047.308.086.293.125.278.164.253.203.235.231.203.258.18.285.156.3.125.313.09.324.058.34.032.344-.008.359-.039.36-.074.359-.094.344-.121.324-.141.305-.168.285-.191.261-.223.239-.25.226-.289.203-.32.196-.352.172-.379.152-.394.121-.395.086-.387.047-.378v-.352l-.047-.32-.102-.289-.351-.461-.246-.172-.278-.137-.312-.113M32.582 128.93l.363-.102.34-.047.391.012.351.094.235.289-.082.34-.176.281-.234.305-.235.308-.183.293-.168.383.007.371.293.195.446.008.351-.058.36-.102" style="fill:none;stroke:gray;stroke-width:.85;stroke-linecap:round;stroke-linejoin:round;stroke-miterlimit:10;stroke-dasharray:none;stroke-opacity:1" transform="translate(.197 -105.866)scale(1.33333)"/><path d="m35.441 128.391-.269-.196-.586-.406-.285-.199-.274-.172-.39-.191-.418-.032-.332.102-.391.223-.441.339-.239.211-.238.231-.23.25-.235.277-.218.297-.207.32-.184.34-.168.352-.133.363-.105.371-.067.363-.027.36.019.347.067.329.113.312.168.293.211.266.266.242.304.215.34.183.367.149.383.121.399.082.406.051.41.004.418-.032.414-.058.399-.09.382-.117.368-.145.343-.168.321-.195.289-.231.265-.254.242-.293.211-.324.188-.351.164-.375.133-.399.101-.406.067-.406.027-.399-.016-.386-.058-.368-.11-.339-.156-.305-.207-.27-.25-.23-.301-.199-.324-.16-.351-.126-.36-.089-.351-.067M19.547 129.199l.371-.168.352-.121.406-.101.426-.063.382-.027.407.035.039.308-.235.34-.144.286-.078.328-.008.382.058.442.106.484.113.485.063.457-.028.41-.125.359-.222.293-.289.219-.352.156-.394.074-.403-.007-.422-.059-.375-.113" style="fill:none;stroke:gray;stroke-width:.85;stroke-linecap:round;stroke-linejoin:round;stroke-miterlimit:10;stroke-dasharray:none;stroke-opacity:1" transform="translate(.197 -105.866)scale(1.33333)"/><path d="m24.113 128.531-.23-.359-.367-.344-.477-.297-.273-.133-.278-.113-.285-.094-.578-.136-.578-.055-.59.035-.301.055-.297.078-.3.102-.297.125-.293.156-.285.172-.282.195-.269.223-.262.238-.25.266-.238.285-.227.308-.215.336-.191.352-.172.379-.148.386-.118.395-.085.394-.047.383-.008.375.035.367.086.344.125.324.18.305.226.281.274.25.316.227.359.199.399.172.437.145.465.117.485.086.503.054.512.024.512-.012.504-.043.484-.07.465-.102.441-.129.403-.152.371-.176.34-.203.304-.23.274-.266.246-.305.211-.34.187-.382.161-.418.132-.45.106-.464.074-.485.039-.488.008-.484-.035-.465-.078-.442-.129-.41-.164-.367-.207-.332-.246-.277-.286-.235-.304-.191-.321-.149-.316-.121-.312-.093" style="fill:none;stroke:gray;stroke-width:.85;stroke-linecap:round;stroke-linejoin:round;stroke-miterlimit:10;stroke-dasharray:none;stroke-opacity:1" transform="translate(.197 -105.866)scale(1.33333)"/><path d="m164.039 92.906-.211.239.352-.094.258-.176.332-.258.375-.32.394-.367.395-.387.371-.395.34-.394.293-.375.238-.34.183-.281.18-.278-.066.368-.153.476-.086.297-.093.332-.086.352-.078.375-.075.382-.058.391-.039.383-.028.375-.015.363.008.36.027.347.047.328.07.317.094.304.129.282.343.472M187.992 92.805l.344-.18.312-.258.379-.328.453-.394.239-.215.246-.227.246-.238.238-.246.235-.25.218-.258.2-.25.175-.246.309-.453.203-.371.133-.274.129-.277.031.301v.386l-.012.504-.015.586v2.809l.007.344.008.335.012.321.016.312.023.578.008.485M159.805 120.547l.363-.047.348-.023.464-.02.391-.012.465-.004.512-.007h.539l.535-.008h.949l.387.019.32.02M175.812 105.488l.313-.011.313-.125.414-.207.488-.27.519-.305.258-.164.485-.32.433-.324.36-.297.265-.238.238-.235-.16.496-.254.551-.136.332-.141.367-.125.387-.113.402-.094.411-.066.417-.032.418v.415l.039.394.071.375.113.352.152.328.18.304.219.27.261.234.293.192.317.144M187.516 104.02l.211-.235.359-.254.504-.258.301-.125.316-.113.332-.109.324-.09.321-.078.55-.102.407-.047.316.024-.133.336-.164.347.012.469.148.395.246.457.305.492.164.266.16.269.153.274.132.273.208.551.085.531-.046.492-.2.43-.351.363-.52.305-.312.125-.344.109-.363.09-.379.07-.379.067-.387.054-.379.036-.363.011-.367-.007M175.836 119.512l-.18.293.266.156.277-.125.344-.199.395-.25.41-.309.418-.379.207-.219.211-.238.207-.265.207-.282.199-.285.183-.281.172-.262.266-.429.168-.29-.215.528-.133.32-.144.371-.145.403-.14.429-.125.449-.11.465-.078.473-.055.476-.031.477-.008.481.02.472.043.461.058.445.079.43.109.406.125.379.144.34.168.297.184.258.461.347.57.083M191.543 118.121l-.258-.293-.293-.234-.324-.192-.379-.093-.449.058-.34.133-.34.184-.293.214-.219.219-.152.301.141.309.32-.008.289-.102.34-.168.34-.195.312-.215.27-.199.254-.168.386-.156.442.027.34.184.34.351.292.52.118.316.093.344.059.363.027.383-.007.394-.04.395-.066.395-.094.394-.117.383-.148.375-.164.359-.188.34-.203.316-.219.286-.234.257-.246.215-.25.176-.528.25-.543.121-.546.004-.528-.109-.492-.196-.437-.273M175.488 92.492l.391-.07.418-.25.351-.246.383-.297.371-.367.352-.43.316-.473.266-.461.195-.41.133-.328.106-.324-.168.418-.184.57-.113.332-.121.367-.118.383-.121.391-.113.406-.105.414-.094.418-.074.426-.051.422-.039.418-.024.406v.402l.024.387.031.379.047.352.055.328.05.312.094.555.035.383M156.41 128.152l.36.051h.304l.34-.008.379-.023.336-.02.394-.015.457-.032.34-.023.364-.035.386-.031.371-.024.364-.023.355-.024.344-.023.34-.02.324-.023.32-.02.305-.011.418-.012.363-.004.36-.012.386-.019.403-.012h.398l.387.012.371.019.379.016.379.019.379.024.379.035.398.024.41.019.399.016.398.027.398.016.399.019.398.004h.797l.399-.004.406-.019.445-.016.305-.016.609-.023.321-.023.32-.016.316-.02.305-.011.309-.012.437-.02.422-.011h.832l.434-.016.304-.012.317-.023.328-.016.332-.015.332-.024.316-.012.305-.011.418-.012.367-.008.324-.008.305-.003.309-.008.382-.012h.684l.375.012.363.019.352.012.305.012.378.019.34.024h.344l.34-.012.418-.024.437-.011.34-.008h1.434l.367-.012.316-.023.352-.035.32-.039.438-.036.39-.015h.434l.43.004.394.019.352.024.304.031.36.035.332.012.363-.024.32-.023.344-.027h.778l.398.007h.359l.453.008.317.012.308.023.391.047.352.047.332.035.316.031.352.012h.32l.312-.004h.321l-.434-.023" style="fill:none;stroke:#33c;stroke-width:.85;stroke-linecap:round;stroke-linejoin:round;stroke-miterlimit:10;stroke-dasharray:none;stroke-opacity:1" transform="translate(.197 -105.866)scale(1.33333)"/><path d="m176.629 80.305.441-.078.317-.047.32-.032.43-.015.312.027.235.223-.243.308-.261.235-.352.273-.394.301-.391.309-.359.312-.297.293-.235.27-.179.343.039.36.265.179.305.059.402.02.485-.02.543-.047 1.156-.133.543-.058.461-.032.363-.023" style="fill:none;stroke:green;stroke-width:.85;stroke-linecap:round;stroke-linejoin:round;stroke-miterlimit:10;stroke-dasharray:none;stroke-opacity:1" transform="translate(.197 -105.866)scale(1.33333)"/><path d="m192.566 132.469-.078-.301-.133-.27-.214-.277-.258-.168-.371-.09-.457.039-.34.11-.324.168-.286.195-.218.215-.16.316.078.344.3.125.457-.035.344-.121.36-.18.351-.223.328-.226.278-.203.359-.207.324-.035.391.238.34.383.199.254.207.289.211.32.199.348.18.367.152.386.113.399.067.414.019.426-.027.418-.07.41-.114.394-.152.379-.187.364-.207.339-.227.325-.242.293-.254.265-.266.242-.273.204-.277.164-.293.132-.305.102-.32.066-.332.032-.344-.012-.352-.063-.351-.101-.34-.137-.317-.168-.3-.191-.266-.207-.234-.227" style="fill:none;stroke:#33c;stroke-width:.85;stroke-linecap:round;stroke-linejoin:round;stroke-miterlimit:10;stroke-dasharray:none;stroke-opacity:1" transform="translate(.197 -105.866)scale(1.33333)"/><path d="m171.113 81.961.325-.051.312.031.352.008.398-.027.332-.024.379-.035.406-.035.403-.031.375-.016.417.016" style="fill:none;stroke:green;stroke-width:.85;stroke-linecap:round;stroke-linejoin:round;stroke-miterlimit:10;stroke-dasharray:none;stroke-opacity:1" transform="translate(.197 -105.866)scale(1.33333)"/><path d="m174.844 132.176.301-.114.41-.109.34-.066.378-.051.383-.024.367.012.317.059.351.238.141.449-.039.41-.152.469-.235.508-.285.531-.144.274-.145.281-.141.281-.132.281-.121.282-.114.281-.199.523-.16.461-.125.387-.117.324-.141.352" style="fill:none;stroke:#33c;stroke-width:.85;stroke-linecap:round;stroke-linejoin:round;stroke-miterlimit:10;stroke-dasharray:none;stroke-opacity:1" transform="translate(.197 -105.866)scale(1.33333)"/><path d="m174.445 135.211.371-.09.348-.043.418-.031.492-.012.555.008.309.004.316.015.332.012.68.024.336.011.328.012.308.02.586.035.52.012" style="fill:none;stroke:#33c;stroke-width:.85;stroke-linecap:round;stroke-linejoin:round;stroke-miterlimit:10;stroke-dasharray:none;stroke-opacity:1" transform="translate(.197 -105.866)scale(1.33333)"/><path d="m159.645 82.203.265-.148.399-.078.429-.055.336-.035.356-.035.379-.036.39-.035.375-.031.336-.023M165.375 82.078l.113-.308.18-.266.258-.34.199-.258.207-.273.191-.274.168-.254.18-.281-.082.391-.121.363-.133.43-.129.461-.109.48-.07.477-.036.465.016.429.039.403.059.347" style="fill:none;stroke:#f0f;stroke-width:.85;stroke-linecap:round;stroke-linejoin:round;stroke-miterlimit:10;stroke-dasharray:none;stroke-opacity:1" transform="translate(.197 -105.866)scale(1.33333)"/><path d="m164.238 132.539-.199-.238-.285-.203-.352-.125-.359.023-.313.102-.355.183-.398.278-.422.355-.422.438-.207.246-.199.257-.188.274-.172.285-.16.293-.137.301-.105.304-.082.309-.047.313-.012.304.094.59.105.281.153.266.191.242.238.223.282.195.316.168.359.137.395.098.422.054.445.012.453-.031.45-.067.445-.094.433-.132.418-.157.399-.183.379-.215.359-.238.336-.258.313-.281.285-.301.254-.32.211-.336.171-.352.137-.363.09-.379.055-.375.011-.375-.023-.371-.066-.36-.102-.336-.133-.308-.16-.281-.18-.25-.39-.414-.391-.286-.348-.168-.296-.097" style="fill:none;stroke:#33c;stroke-width:.85;stroke-linecap:round;stroke-linejoin:round;stroke-miterlimit:10;stroke-dasharray:none;stroke-opacity:1" transform="translate(.197 -105.866)scale(1.33333)"/><path d="m166.332 156.625.352-.168.238-.215.285-.262.324-.312.348-.356.351-.39.344-.406.313-.399.261-.355.192-.266.164-.254-.024.457-.113.418-.133.488-.129.551-.109.578-.09.586-.058.555-.032.508-.007.449.039.375.113.281M172.051 156.195l.308-.043.414.036.399.054.297.039.308.035.395.075M176.656 153.512l.207-.235.446-.097.312-.055.379-.02-.02.352-.222.219-.203.25-.153.281-.074.305v.343l.059.383.082.418.07.449.039.442-.019.406-.079.348-.125.293-.253.312-.34.184-.391.043-.43-.055M179.273 156.238l.297-.121.348-.004.445.028.371.035.407.031.39.031.344.016M185.574 154.004l.02-.313-.145-.293-.332-.207-.359-.062-.399.086-.351.207-.25.266-.137.343.102.313.324.047.371-.133.289-.153.277-.179.258-.18.324-.234.336-.16.266.148.184.449.121.485.058.296.059.325.055.34.046.351.028.352.011.347v.336l-.019.317-.039.297-.129.535-.191.441-.25.34-.321.25-.39.148-.465.063-.531-.035-.579-.164-.3-.149M195.059 154.512l.296-.11-.371.032-.316.07-.402.121-.457.164-.497.211-.5.25-.464.289-.403.297-.312.293-.215.269-.117.372.097.32.325.254.32.129.359.101.371.086.364.067.367.058.351.047.325.059.312.043M200.383 154.828l-.078-.359-.266-.274-.434-.129-.359.028-.391.129-.406.246-.371.336-.324.422-.234.484-.133.527-.004.532.133.507.293.465.449.391.273.16.297.133.32.094.325.066.328.027h.316l.313-.027.57-.148.48-.27.372-.379.269-.477.156-.542.02-.54-.113-.484-.246-.398-.36-.278-.476-.152" style="fill:none;stroke:gray;stroke-width:.85;stroke-linecap:round;stroke-linejoin:round;stroke-miterlimit:10;stroke-dasharray:none;stroke-opacity:1" transform="translate(.197 -105.866)scale(1.33333)"/><path d="m160.562 165.93.223.226.309-.043.285-.093.344-.149.39-.203.418-.242.414-.25.383-.246.32-.215.321-.219.277.113-.039.297-.066.395-.079.453-.082.492-.046.496-.012.485.019.441.059.387.102.312.179.336" style="fill:none;stroke:green;stroke-width:.85;stroke-linecap:round;stroke-linejoin:round;stroke-miterlimit:10;stroke-dasharray:none;stroke-opacity:1" transform="translate(.197 -105.866)scale(1.33333)"/><path d="M166.648 165.996h.329l.363-.187.312-.192.352-.25.359-.281.332-.281.278-.231.265-.234.008.305-.133.371-.144.453-.133.508-.102.527-.058.519-.016.489.028.461.066.453.094.402M171.969 166.664l.359-.023.36-.047.304-.051.36-.047.39-.047.379-.031.344-.012M176.391 164.156l.32.004.406-.043.344-.027.367-.02.328-.011.34.043-.055.355-.171.32-.02.387.102.305.152.347.137.383.074.41-.027.418-.145.418-.234.403-.297.359-.324.309-.352.246-.367.168-.364.07h-.359l-.332-.059M180.449 166.867h.332l.352-.008.437.008.328.012.344.012.332.023.313.031M186.637 165.195l-.203-.254-.282-.207-.297-.113-.386.059-.274.191-.23.293.027.324h.317l.379-.129.292-.129.293-.164.27-.175.359-.246.286-.161.304.004.223.324.144.383.125.489.086.562.008.586-.027.297-.125.582-.219.547-.312.496-.399.426-.476.347-.54.243-.558.132-.551.036-.496-.094M193.836 165.117l-.313-.008-.304.102-.246.18-.297.226-.27.203-.316.235-.352.257-.34.262-.273.258-.191.242-.098.344.117.285.359.227.34.113.391.102.406.078.41.054.379.047.321.047M199.824 164.727l-.219-.207-.398-.071-.449.141-.375.226-.422.325-.453.398-.227.223-.219.234-.199.238-.332.477-.199.473-.059.461.086.433.219.395.344.336.461.246.543.129.597.007.305-.043.301-.07.293-.098.285-.117.27-.144.261-.16.246-.18.43-.414.332-.469.211-.523.07-.532-.093-.488-.254-.43-.383-.328-.488-.203-.532-.121" style="fill:none;stroke:gray;stroke-width:.85;stroke-linecap:round;stroke-linejoin:round;stroke-miterlimit:10;stroke-dasharray:none;stroke-opacity:1" transform="translate(.197 -105.866)scale(1.33333)"/><path d="m161.398 175.586.192-.242.301-.071.297-.023.359.008.363.039.32.086.254.219-.109.371-.289.328-.414.379-.238.195-.239.199-.238.188-.234.191-.418.356-.321.308-.211.278-.121.328.207.339.387.18.332.09.379.055.398.035.383.035.379.023" style="fill:none;stroke:green;stroke-width:.85;stroke-linecap:round;stroke-linejoin:round;stroke-miterlimit:10;stroke-dasharray:none;stroke-opacity:1" transform="translate(.197 -105.866)scale(1.33333)"/><path d="m166.316 176.469.262-.262.371-.258.332-.207.364-.23.378-.219.352-.191.285-.149.32-.164-.066.402-.16.43-.106.34-.086.375-.054.402-.031.41-.028.414-.031.407-.055.402-.066.356M171.352 176.32l.324.118.312.054.391.078.445.09.321.059.332.062.332.039.324.032M176.359 175.305l.289-.25.329-.086.363-.071.351-.058.301-.043.313-.008-.192.266-.14.351.011.321.039.367-.003.429-.047.329-.086.339-.133.348-.18.328-.207.293-.219.25-.23.203-.387.211-.359.078-.313-.031M180.27 177.191l.32.098.39-.035.332-.02.36-.011h.359l.356.004.347.007.325-.007M186.152 175.793l.153-.305-.008-.328-.258-.18-.312-.035-.336.11-.282.23-.16.301v.367l.254.242.426-.074.41-.176.273-.14.391-.172.399-.071.445.051.324.141.313.199.261.27.18.316.09.348v.359l-.086.359-.164.34-.235.317-.292.273-.344.227-.391.176-.418.113-.433.058-.383-.011M192.215 176.332l.379-.008.406-.015.336-.012h.379l.387.004.363.023.34.043.425.082.286.11M192.84 177.867l.359.043.41-.012.36.012.379.016.363.023M199.867 175.711l.043-.324-.137-.297-.308-.176-.375.008-.301.078-.305.145-.277.171-.312.286-.149.269.141.293.34.024.316-.059.379-.125.406-.168.383-.191.348-.172.285-.153.344-.129.371.047.234.258.121.285.078.395.02.469-.047.511-.117.528-.176.5-.223.453-.261.406-.286.344-.324.261-.351.18-.372.082-.359-.012-.34-.093-.32-.223M158.648 105.637l.051-.364.028-.308-.27.183-.211.278-.238.344-.246.41-.231.461-.191.492-.145.508-.082.492-.011.457.054.418.106.379.144.332.18.281.344.262M160.898 107.68l.418-.059.454.035.351.02.371.012.356.011.324.012M164.348 105.062l.238-.257.297.054.426.203.359.247.371.339.34.43.266.516.171.566.055.57-.066.551-.172.524-.254.488-.301.445-.324.391-.344.348-.324.269" style="fill:none;stroke:gray;stroke-width:.85;stroke-linecap:round;stroke-linejoin:round;stroke-miterlimit:10;stroke-dasharray:none;stroke-opacity:1" transform="translate(.197 -105.866)scale(1.33333)"/></svg>