<?xml version="1.0" encoding="UTF-8" standalone="no"?>
<!-- Created with Inkscape (http://www.inkscape.org/) -->

<svg
   version="1.1"
   id="svg1"
   width="464.64398"
   height="107.27866"
   viewBox="0 0 464.644 107.27866"
   sodipodi:docname="grade_graphs.svg"
   inkscape:version="1.4.2 (f4327f4, 2025-05-13)"
   xmlns:inkscape="http://www.inkscape.org/namespaces/inkscape"
   xmlns:sodipodi="http://sodipodi.sourceforge.net/DTD/sodipodi-0.dtd"
   xmlns="http://www.w3.org/2000/svg"
   xmlns:svg="http://www.w3.org/2000/svg">
  <defs
     id="defs1" />
  <sodipodi:namedview
     id="namedview1"
     pagecolor="#ffffff"
     bordercolor="#000000"
     borderopacity="0.25"
     inkscape:showpageshadow="2"
     inkscape:pageopacity="0.0"
     inkscape:pagecheckerboard="0"
     inkscape:deskcolor="#d1d1d1"
     inkscape:zoom="0.79878967"
     inkscape:cx="120.18182"
     inkscape:cy="224.08903"
     inkscape:window-width="1440"
     inkscape:window-height="878"
     inkscape:window-x="-6"
     inkscape:window-y="-6"
     inkscape:window-maximized="1"
     inkscape:current-layer="g1">
    <inkscape:page
       x="6.1248005e-07"
       y="6.8156178e-06"
       inkscape:label="1"
       id="page1"
       width="464.64401"
       height="107.27866"
       margin="0"
       bleed="0" />
  </sodipodi:namedview>
  <g
     id="g1"
     inkscape:groupmode="layer"
     inkscape:label="1"
     transform="translate(-226.63599,-173.20933)">
    <path
       id="path439"
       d="m 204.605,145.188 -0.293,-0.094 -0.41,-0.067 -0.386,-0.027 -0.383,-0.012 -0.492,0.078 -0.438,0.082 -0.476,0.25 -0.52,0.293 -0.25,0.211 -0.254,0.25 -0.265,0.266 -0.278,0.359 -0.265,0.371 -0.321,0.372 -0.293,0.382 -0.289,0.414 -0.308,0.461 -0.317,0.411 -0.32,0.414 -0.305,0.437 -0.293,0.527 -0.277,0.52 -0.199,0.504 -0.172,0.488 -0.121,0.492 -0.106,0.45 -0.066,0.425 -0.028,0.383 0.028,0.426 0.039,0.344 0.082,0.316 0.144,0.332 0.2,0.371 0.187,0.321 0.199,0.265 0.278,0.289 0.32,0.36 0.289,0.316 0.309,0.266 0.355,0.226 0.399,0.238 0.371,0.184 0.371,0.148 0.441,0.106 0.488,0.078 0.481,0.039 0.449,0.027 h 0.492 l 0.493,-0.05 0.437,-0.055 0.398,-0.105 0.422,-0.145 0.414,-0.148 0.36,-0.184 0.328,-0.215 0.359,-0.211 0.36,-0.199 0.304,-0.25 0.293,-0.254 0.317,-0.25 0.293,-0.226 0.254,-0.25 0.222,-0.266 0.254,-0.277 0.254,-0.305 0.184,-0.348 0.16,-0.332 0.172,-0.344 0.172,-0.421 0.093,-0.454 0.106,-0.437 0.105,-0.422 0.11,-0.41 0.066,-0.438 0.039,-0.425 0.039,-0.371 0.028,-0.399 -0.028,-0.371 -0.039,-0.332 -0.066,-0.332 -0.106,-0.328 -0.148,-0.332 -0.16,-0.321 -0.211,-0.289 -0.25,-0.254 -0.293,-0.25 -0.293,-0.226 -0.321,-0.184 -0.304,-0.148 -0.332,-0.145 -0.332,-0.132 -0.317,-0.079 -0.558,-0.121 -0.305,-0.066 -0.516,-0.027 h -0.48 l -0.332,0.105 -0.293,0.148"
       style="fill:none;stroke:#3333cc;stroke-width:0.85;stroke-linecap:round;stroke-linejoin:round;stroke-miterlimit:10;stroke-dasharray:none;stroke-opacity:1"
       transform="scale(1.3333333)" />
    <path
       id="path440"
       d="m 276.387,145.531 h -0.371 l -0.426,0.012 -0.399,0.066 -0.398,0.121 -0.305,0.172 -0.359,0.266 -0.438,0.383 -0.226,0.238 -0.25,0.293 -0.281,0.277 -0.266,0.266 -0.289,0.32 -0.332,0.305 -0.332,0.289 -0.32,0.293 -0.317,0.316 -0.293,0.36 -0.265,0.332 -0.227,0.289 -0.199,0.332 -0.289,0.742 -0.121,0.359 -0.106,0.422 -0.066,0.438 -0.055,0.387 -0.066,0.355 -0.039,0.359 0.011,0.372 0.028,0.359 0.027,0.305 0.039,0.316 0.082,0.359 0.106,0.293 0.304,0.489 0.211,0.316 0.254,0.254 0.266,0.199 0.343,0.238 0.332,0.266 0.333,0.211 0.32,0.145 0.304,0.121 0.356,0.105 0.332,0.067 0.586,0.039 0.32,-0.039 0.289,-0.106 0.305,-0.144 0.387,-0.172 0.41,-0.149 0.437,-0.199 0.426,-0.238 0.41,-0.239 0.414,-0.238 0.36,-0.25 0.316,-0.265 0.305,-0.293 0.32,-0.317 0.25,-0.348 0.215,-0.382 0.184,-0.383 0.199,-0.426 0.172,-0.477 0.109,-0.476 0.106,-0.465 0.105,-0.41 0.055,-0.438 0.05,-0.437 v -0.797 l -0.066,-0.371 -0.078,-0.359 -0.106,-0.344 -0.132,-0.383 -0.16,-0.332 -0.172,-0.305 -0.188,-0.316 -0.226,-0.293 -0.278,-0.266 -0.293,-0.25 -0.332,-0.215 -0.355,-0.144 -0.399,-0.16 -0.398,-0.172 -0.371,-0.117 -0.309,-0.067 -0.316,-0.066 -0.571,-0.082 -0.414,0.105 -0.398,0.121"
       style="fill:none;stroke:#3333cc;stroke-width:0.85;stroke-linecap:round;stroke-linejoin:round;stroke-miterlimit:10;stroke-dasharray:none;stroke-opacity:1"
       transform="scale(1.3333333)" />
    <path
       id="path441"
       d="m 203.863,151.258 -0.359,-0.145 -0.426,-0.027 -0.437,0.027 -0.383,0.051 -0.36,0.133 -0.32,0.199 -0.305,0.211 -0.199,0.254 -0.16,0.289 -0.105,0.32 -0.039,0.371 0.078,0.305 0.254,0.199 0.332,-0.027 0.293,-0.106 0.421,-0.292 0.414,-0.399 0.372,-0.437 0.343,-0.395 0.293,-0.348 0.2,-0.355 0.21,-0.254 0.149,-0.355 -0.109,0.316 -0.079,0.41 -0.105,0.504 0.027,0.586 0.039,0.477 0.118,0.437 0.175,0.355 0.289,0.333 0.375,0.265"
       style="fill:none;stroke:#3333cc;stroke-width:0.85;stroke-linecap:round;stroke-linejoin:round;stroke-miterlimit:10;stroke-dasharray:none;stroke-opacity:1"
       transform="scale(1.3333333)" />
    <path
       id="path442"
       d="m 273.188,149.375 0.21,0.227 0.028,0.382 -0.028,0.305 -0.039,0.477 -0.039,0.398 -0.039,0.359 -0.027,0.372 v 0.398 l 0.105,0.316 0.36,0.012 0.293,-0.199 0.332,-0.289 0.304,-0.293 0.278,-0.211 0.371,-0.067 0.293,0.106 0.254,0.293 -0.082,0.41 -0.106,0.399 -0.133,0.316 -0.265,0.305 -0.332,0.132 -0.36,0.067 h -0.464 l -0.411,-0.067 -0.359,-0.132"
       style="fill:none;stroke:#3333cc;stroke-width:0.85;stroke-linecap:round;stroke-linejoin:round;stroke-miterlimit:10;stroke-dasharray:none;stroke-opacity:1"
       transform="scale(1.3333333)" />
    <path
       id="path443"
       d="m 241.211,161.637 -0.238,-0.266 -0.344,-0.121 -0.344,-0.051 -0.375,-0.039 -0.398,0.09 -0.356,0.094 -0.371,0.238 -0.332,0.227 -0.332,0.398 -0.32,0.438 -0.106,0.289 -0.144,0.293 -0.16,0.293 -0.172,0.332 -0.121,0.371 -0.145,0.371 -0.148,0.355 -0.133,0.36 -0.078,0.41 -0.106,0.383 -0.105,0.347 -0.082,0.395 -0.039,0.465 -0.028,0.437 v 0.387 l 0.039,0.383 0.11,0.343 0.105,0.344 0.133,0.293 0.184,0.293 0.226,0.266 0.227,0.222 0.211,0.215 0.504,0.356 0.371,0.121 0.398,0.105 0.465,0.078 0.481,0.094 0.437,0.039 h 0.371 l 0.359,-0.027 0.356,-0.039 0.309,-0.067 0.515,-0.222 0.277,-0.176 0.254,-0.184 0.477,-0.371 0.266,-0.254 0.281,-0.25 0.25,-0.25 0.226,-0.293 0.227,-0.304 0.211,-0.332 0.187,-0.36 0.184,-0.355 0.199,-0.344 0.149,-0.398 0.089,-0.399 0.11,-0.398 0.09,-0.438 0.043,-0.41 v -0.398 l -0.028,-0.399 -0.039,-0.41 -0.082,-0.465 -0.133,-0.41 -0.16,-0.383 -0.211,-0.304 -0.265,-0.333 -0.278,-0.32 -0.293,-0.262 -0.293,-0.214 -0.293,-0.211 -0.261,-0.2 -0.281,-0.171 -0.516,-0.227 -0.293,-0.09 -0.57,-0.082 -0.547,-0.039"
       style="fill:none;stroke:#3333cc;stroke-width:0.85;stroke-linecap:round;stroke-linejoin:round;stroke-miterlimit:10;stroke-dasharray:none;stroke-opacity:1"
       transform="scale(1.3333333)" />
    <path
       id="path444"
       d="m 240.922,164.645 -0.348,0.078 -0.437,0.109 -0.344,0.117 -0.398,0.172 -0.333,0.199 -0.343,0.239 -0.309,0.265 -0.25,0.36 -0.066,0.304 -0.039,0.383 0.105,0.293 0.25,0.199 0.399,0.145 0.558,0.133 h 1.008 l 0.332,-0.039 0.586,-0.133 0.543,-0.106 0.453,-0.148"
       style="fill:none;stroke:#3333cc;stroke-width:0.85;stroke-linecap:round;stroke-linejoin:round;stroke-miterlimit:10;stroke-dasharray:none;stroke-opacity:1"
       transform="scale(1.3333333)" />
    <path
       id="path445"
       d="m 207.379,146.988 0.293,-0.133 0.398,-0.183 0.293,-0.149 0.399,-0.117 0.383,-0.144 0.519,-0.149 0.289,-0.093 0.293,-0.106 0.332,-0.117 0.371,-0.106 0.399,-0.109 0.398,-0.117 0.438,-0.106 0.476,-0.082 0.465,-0.105 0.414,-0.106 0.449,-0.105 0.453,-0.106 0.399,-0.105 0.371,-0.094 0.398,-0.094 0.426,-0.078 0.399,-0.082 0.371,-0.078 0.41,-0.066 0.437,-0.067 0.399,-0.078 0.387,-0.066 0.382,-0.016 0.426,-0.051 0.359,-0.039 0.333,-0.039 0.332,-0.015 0.355,-0.051 0.332,-0.043 0.305,-0.012 0.359,-0.027 0.371,-0.039 0.36,-0.039 0.359,-0.028 0.398,-0.011 0.411,-0.028 0.398,-0.039 0.383,-0.027 0.375,-0.012 0.371,-0.027 0.332,-0.016 0.332,-0.023 h 0.355 l 0.399,-0.016 0.398,-0.027 0.371,-0.024 h 0.836 l 0.426,-0.015 0.399,-0.028 h 2.043 l 0.441,-0.011 h 4.351 l 0.399,0.011 0.426,0.028 h 0.73 l 0.399,0.015 0.41,0.051 0.398,0.039 0.371,0.016 0.399,0.039 0.437,0.027 0.399,0.024 0.359,0.015 0.371,0.039 0.399,0.028 0.359,0.012 0.332,0.027 0.328,0.039 0.359,0.039 0.36,0.027 0.332,0.016 0.359,0.051 0.383,0.039 0.359,0.015 0.332,0.039 0.36,0.067 0.398,0.066 0.356,0.039 0.304,0.028 0.332,0.039 0.36,0.039 0.32,0.015 0.598,0.106 0.355,0.066 0.332,0.024 0.321,0.015 0.359,0.039 0.371,0.067 0.356,0.039 0.332,0.027 0.359,0.039 0.398,0.055 0.344,0.051 0.32,0.015 0.333,0.039 0.371,0.094 0.332,0.039 0.32,0.012 0.316,0.039 0.332,0.094 0.332,0.039 0.321,0.016 0.304,0.05 0.317,0.082 0.586,0.106 0.597,0.105 0.571,0.094 0.582,0.133 0.465,0.105 0.48,0.157 0.41,0.109 0.438,0.172 0.426,0.117 0.437,0.172 0.344,0.148 0.437,0.184 0.426,0.187 0.438,0.172 0.398,0.117 0.453,0.172 0.399,0.16 0.398,0.172 0.355,0.149 0.399,0.183 0.332,0.121 0.359,0.172 0.332,0.118 0.332,0.148 0.332,0.133 0.399,0.117 0.355,0.133 0.36,0.121 0.304,0.078 0.321,0.078 0.371,0.133 0.359,0.187 0.332,0.172 0.36,0.2 0.371,0.144 0.332,0.188 0.355,0.171 0.293,0.184 0.227,0.254"
       style="fill:none;stroke:#228b22;stroke-width:0.85;stroke-linecap:round;stroke-linejoin:round;stroke-miterlimit:10;stroke-dasharray:none;stroke-opacity:1"
       transform="scale(1.3333333)" />
    <path
       id="path446"
       d="m 244.426,168.266 0.222,0.304 0.321,0.106 0.371,0.066 0.359,0.024 0.371,-0.024 0.438,-0.039 0.398,-0.133 0.504,-0.093 0.438,-0.172 0.519,-0.149 0.543,-0.183 0.32,-0.039 0.293,-0.094 0.582,-0.199 0.333,-0.067 0.304,-0.078 0.293,-0.105 0.293,-0.082 0.317,-0.028 0.519,-0.172 0.57,-0.078 0.504,-0.187 0.582,-0.106 0.559,-0.144 0.586,-0.106 0.543,-0.148 0.293,-0.078 0.332,-0.067 0.289,-0.078 0.574,-0.187 0.305,-0.039 0.531,-0.184 0.516,-0.215 0.476,-0.211 0.52,-0.199 0.504,-0.238 0.543,-0.16 0.464,-0.211 0.52,-0.211 0.477,-0.227 0.519,-0.144 0.438,-0.227 0.492,-0.238 0.398,-0.293 0.438,-0.184 0.383,-0.265 0.453,-0.172 0.382,-0.239 0.399,-0.171 0.398,-0.227 0.371,-0.172 0.348,-0.16 0.344,-0.133 0.32,-0.16 0.317,-0.129 0.304,-0.187 0.36,-0.122 0.293,-0.195 0.316,-0.187 0.348,-0.293 0.316,-0.25 0.293,-0.239 0.293,-0.277 0.25,-0.332 0.266,-0.254 0.238,-0.223 0.199,-0.226 0.254,-0.277"
       style="fill:none;stroke:#00c0ff;stroke-width:0.85;stroke-linecap:round;stroke-linejoin:round;stroke-miterlimit:10;stroke-dasharray:none;stroke-opacity:1"
       transform="scale(1.3333333)" />
    <path
       id="path447"
       d="m 205.652,156.691 0.188,0.332 0.144,0.293 0.176,0.289 0.195,0.305 0.176,0.281 0.25,0.223 0.293,0.293 0.332,0.266 0.332,0.289 0.383,0.32 0.332,0.266 0.399,0.277 0.347,0.227 0.422,0.316 0.332,0.227 0.399,0.289 0.332,0.226 0.398,0.32 0.359,0.196 0.399,0.293 0.344,0.238 0.437,0.305 0.359,0.281 0.438,0.305 0.359,0.277 0.438,0.293 0.359,0.223 0.41,0.254 0.36,0.199 0.449,0.277 0.398,0.184 0.481,0.215 0.437,0.144 0.532,0.199 0.476,0.145 0.559,0.199 0.488,0.145 0.52,0.187 0.437,0.145 0.504,0.16 0.414,0.105 0.465,0.172 0.437,0.121 0.45,0.117 0.386,0.106 0.45,0.133 0.425,0.109 0.453,0.117 0.383,0.106 0.399,0.121 0.332,0.105 0.343,0.078 0.321,0.055 0.316,0.078 0.442,0.082 0.304,0.067 h 0.317 l 0.304,0.039 0.321,-0.028 0.316,0.028 0.309,-0.028 0.355,0.028 0.321,-0.028 0.343,0.051 h 1.235 l 0.371,0.043 0.386,-0.027 0.332,-0.016 h 0.36 l 0.437,0.043 h 1.434 l 0.355,0.051 h 0.707 l 0.344,-0.078 0.332,-0.121 0.344,-0.024"
       style="fill:none;stroke:#ff8000;stroke-width:0.85;stroke-linecap:round;stroke-linejoin:round;stroke-miterlimit:10;stroke-dasharray:none;stroke-opacity:1"
       transform="scale(1.3333333)" />
    <path
       id="path448"
       d="m 389.086,148.402 -0.223,-0.316 h -0.472 l -0.555,0.094 -0.512,0.183 -0.293,0.11 -0.277,0.152 -0.262,0.164 -0.234,0.211 -0.266,0.191 -0.262,0.196 -0.265,0.222 -0.235,0.278 -0.25,0.261 -0.207,0.223 -0.332,0.512 -0.125,0.289 -0.183,0.5 -0.028,0.43 0.141,0.375 0.262,0.234 0.304,0.137 0.461,-0.055 0.469,-0.125 0.336,-0.125 0.277,-0.207 0.262,-0.207 0.305,-0.234 0.305,-0.223 0.265,-0.234 0.235,-0.266 0.261,-0.262 0.266,-0.262 0.195,-0.277 0.18,-0.293 0.191,-0.262 0.196,-0.234 0.222,-0.457 0.18,-0.391 0.043,-0.304 -0.027,-0.305 -0.168,0.266 -0.18,0.468 -0.125,0.539 -0.027,0.305 -0.043,0.555 0.086,0.543 0.152,0.496 0.305,0.5 0.343,0.375 0.489,0.305 0.414,0.152 0.527,0.082 0.402,-0.016"
       style="fill:none;stroke:#3333cc;stroke-width:0.85;stroke-linecap:round;stroke-linejoin:round;stroke-miterlimit:10;stroke-dasharray:none;stroke-opacity:1"
       transform="scale(1.3333333)" />
    <path
       id="path449"
       d="m 390.5,144.555 -0.375,-0.125 -0.457,-0.141 -0.582,-0.082 -0.305,-0.043 -0.304,-0.039 -0.332,-0.027 -0.364,-0.016 -0.359,-0.027 -0.348,-0.028 -0.347,0.028 -0.372,0.027 -0.363,0.043 -0.375,0.082 -0.387,0.152 -0.402,0.153 -0.387,0.179 -0.418,0.25 -0.414,0.375 -0.418,0.387 -0.386,0.414 -0.375,0.485 -0.348,0.5 -0.375,0.5 -0.348,0.496 -0.304,0.539 -0.262,0.609 -0.277,0.598 -0.266,0.582 -0.191,0.679 -0.141,0.637 -0.125,0.582 -0.109,0.539 -0.016,0.496 0.059,0.489 0.039,0.414 0.097,0.359 0.168,0.359 0.262,0.348 0.234,0.305 0.25,0.277 0.321,0.305 0.375,0.305 0.386,0.289 0.418,0.238 0.485,0.207 0.539,0.152 0.527,0.11 0.5,0.027 0.543,-0.07 0.609,-0.121 0.598,-0.196 0.567,-0.222 0.625,-0.235 0.679,-0.25 0.61,-0.277 0.57,-0.277 0.566,-0.305 0.543,-0.36 0.457,-0.316 0.414,-0.305 0.418,-0.347 0.387,-0.457 0.332,-0.528 0.305,-0.527 0.308,-0.512 0.262,-0.484 0.195,-0.457 0.153,-0.43 0.152,-0.441 0.137,-0.457 0.058,-0.43 0.028,-0.445 v -0.496 l -0.028,-0.539 -0.058,-0.571 -0.094,-0.511 -0.113,-0.485 -0.125,-0.387 -0.196,-0.402 -0.218,-0.348 -0.223,-0.261 -0.238,-0.196 -0.278,-0.164 -0.289,-0.113 h -0.57 l -0.305,0.016 -0.5,0.07"
       style="fill:none;stroke:#3333cc;stroke-width:0.85;stroke-linecap:round;stroke-linejoin:round;stroke-miterlimit:10;stroke-dasharray:none;stroke-opacity:1"
       transform="scale(1.3333333)" />
    <path
       id="path450"
       d="m 457.867,145.605 0.11,-0.304 0.168,0.469 -0.016,0.332 -0.055,0.347 -0.039,0.387 -0.043,0.418 -0.07,0.414 -0.055,0.387 -0.043,0.418 -0.027,0.386 -0.07,0.375 -0.082,0.332 -0.071,0.305 -0.012,0.305 -0.097,0.512 -0.016,0.511 -0.094,0.387 -0.015,0.391 -0.028,0.304 0.262,-0.277 0.309,-0.418 0.305,-0.414 0.261,-0.277 0.266,-0.223 0.344,-0.192 0.347,-0.042 0.348,0.167 0.262,0.219 0.152,0.266 0.027,0.305 -0.152,0.304 -0.344,0.36 -0.402,0.222 -0.391,0.192 -0.375,0.195 -0.304,0.137 -0.344,0.058 -0.375,0.094 -0.305,-0.066"
       style="fill:none;stroke:#3333cc;stroke-width:0.85;stroke-linecap:round;stroke-linejoin:round;stroke-miterlimit:10;stroke-dasharray:none;stroke-opacity:1"
       transform="scale(1.3333333)" />
    <path
       id="path451"
       d="m 462.93,143.816 -0.153,-0.261 -0.332,-0.278 -0.375,-0.261 -0.375,-0.196 -0.457,-0.179 -0.472,-0.082 -0.598,0.066 -0.305,0.059 -0.304,0.093 -0.321,0.098 -0.332,0.141 -0.304,0.164 -0.262,0.207 -0.305,0.211 -0.308,0.246 -0.305,0.25 -0.305,0.293 -0.316,0.304 -0.336,0.305 -0.305,0.344 -0.262,0.39 -0.277,0.372 -0.266,0.39 -0.25,0.485 -0.207,0.468 -0.222,0.5 -0.192,0.528 -0.152,0.539 -0.141,0.566 -0.097,0.527 -0.098,0.485 -0.039,0.512 0.027,0.543 0.043,0.593 0.082,0.567 0.153,0.515 0.222,0.457 0.223,0.442 0.234,0.386 0.305,0.348 0.375,0.305 0.348,0.262 0.371,0.238 0.461,0.207 0.511,0.152 0.528,0.098 0.527,0.094 0.567,0.058 0.613,0.028 h 0.539 l 0.5,-0.043 0.527,-0.071 0.528,-0.125 0.457,-0.136 0.429,-0.168 0.457,-0.219 0.485,-0.332 0.429,-0.348 0.375,-0.387 0.391,-0.484 0.402,-0.457 0.305,-0.457 0.262,-0.43 0.234,-0.429 0.238,-0.457 0.18,-0.457 0.125,-0.457 0.11,-0.528 0.113,-0.582 0.039,-0.609 v -0.594 l -0.012,-0.57 -0.055,-0.539 -0.097,-0.528 -0.141,-0.468 -0.152,-0.458 -0.192,-0.445 -0.238,-0.402 -0.262,-0.371 -0.304,-0.332 -0.336,-0.305 -0.344,-0.277 -0.336,-0.239 -0.305,-0.207 -0.277,-0.191 -0.305,-0.168 -0.304,-0.137 -0.289,-0.086"
       style="fill:none;stroke:#3333cc;stroke-width:0.85;stroke-linecap:round;stroke-linejoin:round;stroke-miterlimit:10;stroke-dasharray:none;stroke-opacity:1"
       transform="scale(1.3333333)" />
    <path
       id="path452"
       d="m 424.93,161.129 h -0.332 l -0.375,0.152 -0.387,0.25 -0.266,0.153 -0.261,0.152 -0.239,0.195 -0.191,0.235 -0.25,0.222 -0.238,0.207 -0.219,0.262 -0.195,0.332 -0.196,0.305 -0.191,0.277 -0.184,0.332 -0.125,0.348 -0.136,0.304 -0.125,0.528 0.07,0.469 0.191,0.418 0.348,0.332 0.445,0.191 0.305,0.043 h 0.305 l 0.304,-0.027 0.36,-0.043 0.418,-0.039 0.414,-0.071 0.418,-0.082 0.429,-0.086 0.485,-0.109 0.418,-0.109 0.375,-0.114 0.343,-0.109 0.375,-0.109 0.305,-0.098 0.5,-0.18"
       style="fill:none;stroke:#3333cc;stroke-width:0.85;stroke-linecap:round;stroke-linejoin:round;stroke-miterlimit:10;stroke-dasharray:none;stroke-opacity:1"
       transform="scale(1.3333333)" />
    <path
       id="path453"
       d="m 427.078,158.898 -0.191,-0.332 -0.266,-0.261 -0.344,-0.223 -0.433,-0.234 -0.485,-0.168 -0.527,-0.153 -0.566,-0.093 h -0.543 l -0.567,0.109 -0.304,0.043 -0.305,0.094 -0.309,0.152 -0.316,0.152 -0.332,0.168 -0.336,0.235 -0.305,0.293 -0.316,0.316 -0.336,0.332 -0.317,0.375 -0.304,0.387 -0.336,0.418 -0.305,0.414 -0.289,0.402 -0.238,0.485 -0.262,0.457 -0.266,0.484 -0.234,0.555 -0.195,0.609 -0.219,0.609 -0.195,0.567 -0.153,0.598 -0.113,0.621 -0.109,0.543 -0.082,0.511 -0.028,0.512 0.055,0.555 0.055,0.511 0.097,0.5 0.168,0.512 0.246,0.442 0.211,0.417 0.262,0.372 0.348,0.332 0.414,0.277 0.445,0.238 0.473,0.18 0.554,0.152 0.61,0.125 0.555,0.094 0.554,0.043 0.582,0.016 h 0.637 l 0.613,-0.043 0.567,-0.071 0.609,-0.082 0.625,-0.125 0.57,-0.136 0.512,-0.153 0.5,-0.195 0.512,-0.262 0.418,-0.32 0.359,-0.348 0.348,-0.398 0.359,-0.32 0.305,-0.348 0.25,-0.344 0.265,-0.359 0.247,-0.348 0.211,-0.359 0.152,-0.375 0.152,-0.387 0.153,-0.512 0.082,-0.515 0.07,-0.524 0.043,-0.57 0.039,-0.539 -0.027,-0.539 -0.043,-0.528 -0.039,-0.5 -0.071,-0.523 -0.097,-0.473 -0.137,-0.441 -0.153,-0.418 -0.152,-0.43 -0.222,-0.386 -0.239,-0.375 -0.234,-0.333 -0.195,-0.304 -0.262,-0.278 -0.266,-0.234 -0.262,-0.223 -0.539,-0.261 -0.293,-0.125"
       style="fill:none;stroke:#3333cc;stroke-width:0.85;stroke-linecap:round;stroke-linejoin:round;stroke-miterlimit:10;stroke-dasharray:none;stroke-opacity:1"
       transform="scale(1.3333333)" />
    <path
       id="path454"
       d="m 393.684,146.188 0.418,-0.126 0.414,-0.238 0.5,-0.262 0.418,-0.261 0.527,-0.223 0.527,-0.262 0.278,-0.125 0.332,-0.152 0.316,-0.152 0.309,-0.153 0.332,-0.14 0.386,-0.153 0.348,-0.152 0.332,-0.125 0.348,-0.109 0.375,-0.11 0.347,-0.125 0.332,-0.14 0.344,-0.098 0.363,-0.094 0.36,-0.113 0.32,-0.125 0.375,-0.125 0.387,-0.109 0.375,-0.11 0.348,-0.086 0.371,-0.066 0.39,-0.027 0.332,-0.059 0.305,-0.094 0.32,-0.043 h 0.36 l 0.304,-0.043 0.543,-0.066 h 0.332 l 0.555,-0.059 0.332,-0.027 0.375,0.027 0.359,-0.039 0.364,-0.07 0.386,-0.043 h 0.457 l 0.418,-0.039 0.375,-0.07 0.387,-0.071 0.414,-0.039 0.375,-0.07 0.348,-0.082 0.359,-0.07 0.403,-0.016 0.347,-0.066 0.348,-0.071 0.387,-0.043 h 0.402 l 0.348,-0.039 0.32,-0.043 0.359,-0.027 h 0.387 l 0.336,-0.043 0.305,-0.039 0.316,-0.028 0.375,0.028 0.305,-0.028 0.543,-0.058 0.343,0.015 0.309,-0.015 0.609,-0.067 0.36,0.028 0.32,-0.028 0.305,-0.042 0.332,-0.028 h 0.375 l 0.32,-0.015 0.305,-0.04 0.332,-0.027 0.375,0.027 h 0.305 l 0.539,-0.027 0.32,0.039 0.527,-0.012 0.61,0.04 h 0.304 l 0.61,-0.028 0.402,0.043 0.348,0.028 h 0.625 l 0.402,0.015 h 0.316 l 0.614,-0.015 0.375,0.07 0.332,0.012 h 0.625 l 0.371,0.042 0.336,0.028 h 0.305 l 0.343,0.015 0.418,0.094 0.348,0.043 0.316,0.016 0.364,0.054 0.386,0.083 0.332,0.043 0.582,0.039 0.348,0.07 0.305,0.043 0.597,0.066 0.321,0.086 0.554,0.067 0.582,0.113 0.305,0.039 0.594,0.059 0.308,0.093 0.497,0.059 0.57,0.137 0.472,0.054 0.528,0.141 0.43,0.152 0.484,0.153 0.414,0.109 0.461,0.109 0.414,0.059 0.457,0.109 0.418,0.11 0.387,0.113 0.347,0.125 0.332,0.137 0.305,0.125 0.305,0.136 0.277,0.125 0.402,0.196 0.418,0.222 0.61,0.219 0.359,0.195 0.305,0.125 0.347,0.137 0.375,0.195 0.262,0.153 0.418,0.207 0.277,0.14 0.376,0.192 0.289,0.18 0.32,0.25 0.25,0.222 0.348,0.153 0.304,0.082 h 0.305 l 0.414,0.152 0.363,0.18"
       style="fill:none;stroke:#228b22;stroke-width:0.85;stroke-linecap:round;stroke-linejoin:round;stroke-miterlimit:10;stroke-dasharray:none;stroke-opacity:1"
       transform="scale(1.3333333)" />
    <path
       id="path455"
       d="m 449.309,143.598 0.418,0.191 0.277,0.141 0.305,0.152 0.265,0.191 0.305,0.305 0.25,0.305 0.262,0.39 0.152,0.344 0.168,0.445 0.082,0.387 0.055,0.485 -0.028,0.402 -0.07,0.457 -0.164,0.402 -0.223,0.36 -0.304,0.332 -0.375,0.304 -0.43,0.262 -0.484,0.195 -0.571,0.196 -0.582,0.179 -0.305,0.055 -0.554,0.137 -0.516,0.043"
       style="fill:none;stroke:#228b22;stroke-width:0.85;stroke-linecap:round;stroke-linejoin:round;stroke-miterlimit:10;stroke-dasharray:none;stroke-opacity:1"
       transform="scale(1.3333333)" />
    <path
       id="path456"
       d="m 455.262,155.715 0.109,0.305 -0.277,0.304 -0.348,0.305 -0.305,0.289 -0.332,0.211 -0.265,0.246 -0.344,0.211 -0.305,0.246 -0.347,0.238 -0.293,0.235 -0.317,0.234 -0.308,0.293 -0.344,0.316 -0.293,0.305 -0.375,0.305 -0.359,0.293 -0.446,0.261 -0.429,0.235 -0.485,0.32 -0.472,0.289 -0.528,0.239 -0.457,0.289 -0.5,0.234 -0.457,0.238 -0.512,0.219 -0.472,0.266 -0.528,0.234 -0.527,0.262 -0.582,0.195 -0.289,0.109 -0.305,0.153 -0.32,0.113 -0.332,0.082 -0.305,0.109 -0.277,0.153 -0.305,0.113 -0.308,0.109 -0.289,0.125 -0.512,0.278 -0.293,0.097 -0.484,0.192 -0.516,0.238 -0.457,0.152 -0.484,0.125 -0.418,0.11 -0.387,0.098 -0.387,0.054 -0.375,0.043 -0.305,0.027 -0.375,0.028 -0.304,0.082 -0.391,0.043 -0.375,0.039 -0.387,0.07 -0.304,0.125 -0.446,0.098 -0.316,0.125 -0.336,0.109"
       style="fill:none;stroke:#00c0ff;stroke-width:0.85;stroke-linecap:round;stroke-linejoin:round;stroke-miterlimit:10;stroke-dasharray:none;stroke-opacity:1"
       transform="scale(1.3333333)" />
    <path
       id="path457"
       d="m 436.316,162.68 -0.152,0.304 -0.305,0.196 -0.418,0.304 -0.375,0.375 -0.386,0.344 -0.332,0.457 -0.418,0.43 -0.223,0.222 -0.191,0.235 -0.196,0.238 -0.386,0.442 -0.184,0.261 -0.387,0.418 -0.304,0.403 -0.293,0.332 -0.125,0.414 0.183,0.304 0.457,0.11 h 0.469 l 0.641,-0.028 0.304,-0.039 0.61,-0.125 0.375,-0.07 0.347,-0.082 0.344,-0.098 0.391,-0.109 0.441,-0.059 0.418,-0.093 0.387,-0.098 0.418,-0.113 0.429,-0.094 0.375,-0.086 0.348,-0.109 0.344,-0.082 0.375,-0.043 0.332,-0.043 0.57,-0.137"
       style="fill:none;stroke:#00c0ff;stroke-width:0.85;stroke-linecap:round;stroke-linejoin:round;stroke-miterlimit:10;stroke-dasharray:none;stroke-opacity:1"
       transform="scale(1.3333333)" />
    <path
       id="path458"
       d="m 391.742,155.355 0.113,0.344 0.083,0.321 0.25,0.375 0.195,0.234 0.316,0.305 0.375,0.261 0.457,0.239 0.461,0.246 0.262,0.168 0.457,0.289 0.266,0.152 0.277,0.168 0.262,0.18 0.511,0.386 0.278,0.223 0.277,0.207 0.266,0.223 0.289,0.222 0.32,0.192 0.293,0.222 0.277,0.208 0.289,0.222 0.305,0.196 0.277,0.191 0.293,0.195 0.278,0.18 0.332,0.18 0.5,0.32 0.277,0.152 0.305,0.153 0.293,0.136 0.512,0.207 0.289,0.141 0.281,0.125 0.289,0.109 0.305,0.11 0.347,0.125 0.332,0.113 0.61,0.152 0.347,0.137 0.321,0.082 0.593,0.125 0.321,0.098 0.554,0.097 0.61,0.11 0.304,0.07 0.528,0.07 0.5,0.082 0.457,0.043 0.457,0.067 0.347,-0.028 0.348,-0.011 0.387,-0.028 0.402,-0.07 h 0.391 l 0.344,0.07"
       style="fill:none;stroke:#ff8000;stroke-width:0.85;stroke-linecap:round;stroke-linejoin:round;stroke-miterlimit:10;stroke-dasharray:none;stroke-opacity:1"
       transform="scale(1.3333333)" />
    <path
       id="path459"
       d="m 409.285,161.684 -0.305,0.152 0.168,0.305 0.446,0.277 0.429,0.234 0.497,0.305 0.472,0.25 0.516,0.32 0.441,0.235 0.473,0.304 0.375,0.289 0.344,0.321 0.195,0.289 0.141,0.277 v 0.332 l -0.114,0.321 -0.277,0.332 -0.375,0.386 -0.25,0.196 -0.512,0.332 -0.261,0.195 -0.305,0.152 -0.293,0.11 -0.5,0.32 -0.278,0.137 -0.289,0.082 -0.461,0.222 -0.414,0.168"
       style="fill:none;stroke:#ff8000;stroke-width:0.85;stroke-linecap:round;stroke-linejoin:round;stroke-miterlimit:10;stroke-dasharray:none;stroke-opacity:1"
       transform="scale(1.3333333)" />
    <path
       id="path460"
       d="m 174.398,145.113 -0.316,-0.133 h -0.336 l -0.402,0.133 -0.285,0.117 -0.301,0.102 -0.485,0.367 -0.265,0.235 -0.27,0.214 -0.234,0.254 -0.184,0.317 -0.183,0.265 -0.352,0.469 -0.234,0.5 -0.133,0.453 -0.016,0.418 0.149,0.383 0.301,0.184 0.437,-0.067 0.434,-0.269 0.234,-0.231 0.199,-0.301 0.235,-0.285 0.269,-0.285 0.235,-0.351 0.214,-0.368 0.27,-0.382 0.285,-0.418 0.234,-0.45 0.215,-0.453 0.235,-0.469 0.269,-0.515 0.199,-0.602 0.184,-0.617 0.219,-0.601 0.234,-0.571 0.184,-0.601 0.148,-0.582 0.168,-0.551 0.152,-0.551 0.133,-0.555 0.102,-0.5 0.117,-0.433 0.066,-0.403 0.032,-0.367 v -0.765 l -0.215,-0.301 -0.235,0.281 -0.101,0.336 -0.168,0.398 -0.148,0.418 -0.137,0.469 -0.098,0.551 -0.101,0.504 -0.118,0.531 -0.066,0.621 -0.066,0.684 -0.051,0.652 -0.051,0.602 v 1.734 l 0.051,0.504 0.133,0.5 0.132,0.516 0.137,0.453 0.133,0.383 0.184,0.402 0.234,0.398 0.199,0.387 0.203,0.367 0.235,0.352 0.316,0.301 0.234,0.3 0.2,0.231 0.269,0.203 0.317,0.168 0.285,0.133 0.535,0.183"
       style="fill:none;stroke:#808080;stroke-width:0.85;stroke-linecap:round;stroke-linejoin:round;stroke-miterlimit:10;stroke-dasharray:none;stroke-opacity:1"
       transform="scale(1.3333333)" />
    <path
       id="path461"
       d="m 182.059,138.668 -0.301,-0.234 -0.285,0.132 -0.332,0.2 -0.305,0.234 -0.316,0.27 -0.25,0.316 -0.235,0.383 -0.269,0.367 -0.266,0.367 -0.234,0.453 -0.184,0.5 -0.219,0.5 -0.199,0.469 -0.184,0.469 -0.136,0.484 -0.133,0.434 -0.098,0.418 -0.051,0.402 0.016,0.414 v 0.688 l 0.051,0.316 0.168,0.336 0.098,0.281 0.269,0.485 0.234,0.25 0.215,0.218 0.469,0.285 0.32,0.165 0.602,0.101 0.367,0.035 h 0.418 l 0.402,-0.066 0.368,-0.051 0.386,-0.066"
       style="fill:none;stroke:#808080;stroke-width:0.85;stroke-linecap:round;stroke-linejoin:round;stroke-miterlimit:10;stroke-dasharray:none;stroke-opacity:1"
       transform="scale(1.3333333)" />
    <path
       id="path462"
       d="m 185.188,144.094 -0.321,0.035 -0.398,0.199 -0.254,0.168 -0.485,0.367 -0.285,0.199 -0.265,0.184 -0.336,0.469 -0.317,0.402 -0.152,0.383 -0.082,0.352 0.102,0.285 0.351,0.367 h 0.434 l 0.484,-0.133 0.418,-0.234 0.27,-0.153 0.367,-0.367 0.367,-0.402 0.25,-0.434 0.301,-0.398 0.183,-0.453 0.188,-0.368 0.047,-0.332 v 0.368 l 0.019,0.55 v 0.551 l 0.164,0.551 0.153,0.418 0.316,0.383 0.371,0.269"
       style="fill:none;stroke:#808080;stroke-width:0.85;stroke-linecap:round;stroke-linejoin:round;stroke-miterlimit:10;stroke-dasharray:none;stroke-opacity:1"
       transform="scale(1.3333333)" />
    <path
       id="path463"
       d="m 186.609,137.898 0.368,0.051 0.449,0.133 0.386,0.219 0.5,0.367 0.27,0.199 0.234,0.219 0.266,0.266 0.285,0.382 0.27,0.352 0.199,0.336 0.234,0.418 0.25,0.5 0.153,0.469 0.132,0.449 0.102,0.5 0.098,0.519 0.035,0.485 v 1.336 l -0.082,0.418 -0.203,0.734 -0.117,0.418 -0.149,0.367 -0.152,0.317 -0.168,0.336 -0.133,0.398 -0.133,0.32 -0.234,0.516 -0.184,0.418"
       style="fill:none;stroke:#808080;stroke-width:0.85;stroke-linecap:round;stroke-linejoin:round;stroke-miterlimit:10;stroke-dasharray:none;stroke-opacity:1"
       transform="scale(1.3333333)" />
    <path
       id="path464"
       d="m 193.969,140.688 0.265,0.152 h 0.469 l 0.352,-0.02 0.418,-0.066 0.5,-0.016 0.468,-0.101 0.371,-0.082 0.282,-0.102"
       style="fill:none;stroke:#808080;stroke-width:0.85;stroke-linecap:round;stroke-linejoin:round;stroke-miterlimit:10;stroke-dasharray:none;stroke-opacity:1"
       transform="scale(1.3333333)" />
    <path
       id="path465"
       d="m 193.969,143.027 h 0.351 l 0.332,-0.035 0.418,-0.097 0.504,-0.086 0.551,-0.149 0.285,-0.117 0.301,-0.051 0.469,-0.152"
       style="fill:none;stroke:#808080;stroke-width:0.85;stroke-linecap:round;stroke-linejoin:round;stroke-miterlimit:10;stroke-dasharray:none;stroke-opacity:1"
       transform="scale(1.3333333)" />
    <path
       id="path466"
       d="m 199.52,136.145 0.32,-0.184 0.398,-0.184 0.371,-0.183 h 0.383 l 0.285,0.101 0.266,0.164 0.184,0.286 0.136,0.417 -0.035,0.536 -0.117,0.601 -0.168,0.317 -0.184,0.3 -0.183,0.317 -0.184,0.367 -0.199,0.316 -0.219,0.27 -0.183,0.266 -0.102,0.285 -0.266,0.433 -0.101,0.453 -0.051,0.368 0.051,0.316 0.285,0.402 0.332,0.067 0.535,-0.067 0.321,-0.117 0.332,-0.101 0.371,-0.082 0.367,-0.137 0.367,-0.149 0.367,-0.132 0.418,-0.086 0.367,-0.117 0.352,-0.165 0.371,-0.136 0.398,-0.067 0.336,-0.132 0.317,-0.168 0.367,-0.098"
       style="fill:none;stroke:#808080;stroke-width:0.85;stroke-linecap:round;stroke-linejoin:round;stroke-miterlimit:10;stroke-dasharray:none;stroke-opacity:1"
       transform="scale(1.3333333)" />
    <path
       id="path467"
       d="m 230.695,180.875 -0.367,-0.098 -0.351,-0.136 -0.383,-0.047 -0.469,0.047 -0.301,0.05 -0.469,0.133 -0.468,0.367 -0.266,0.184 -0.234,0.234 -0.168,0.321 -0.184,0.316 -0.183,0.285 -0.153,0.317 -0.082,0.316 -0.137,0.285 -0.148,0.465 0.016,0.438 0.086,0.332 0.265,0.234 h 0.504 l 0.418,-0.184 0.551,-0.336 0.285,-0.23 0.266,-0.27 0.32,-0.285 0.332,-0.297 0.301,-0.386 0.25,-0.418 0.304,-0.399 0.282,-0.367 0.218,-0.402 0.184,-0.383 0.184,-0.402 0.203,-0.383 0.183,-0.403 0.133,-0.382 0.133,-0.403 0.152,-0.383 0.118,-0.402 0.066,-0.367 0.117,-0.336 0.117,-0.367 0.067,-0.367 0.015,-0.317 0.133,-0.402 -0.316,0.504 -0.149,0.418 -0.136,0.449 -0.098,0.469 -0.137,0.449 -0.133,0.418 -0.101,0.453 -0.067,0.5 -0.066,0.434 -0.082,0.402 -0.051,0.383 0.016,0.484 v 0.836 l 0.066,0.383 0.102,0.351 0.082,0.336 0.066,0.317 0.137,0.281 0.184,0.27 0.265,0.418"
       style="fill:none;stroke:#808080;stroke-width:0.85;stroke-linecap:round;stroke-linejoin:round;stroke-miterlimit:10;stroke-dasharray:none;stroke-opacity:1"
       transform="scale(1.3333333)" />
    <path
       id="path468"
       d="m 237.035,174.98 -0.402,0.516 -0.184,0.367 -0.183,0.403 -0.2,0.382 -0.218,0.403 -0.184,0.418 -0.148,0.449 -0.188,0.418 -0.164,0.387 -0.137,0.433 -0.097,0.485 -0.137,0.449 -0.133,0.402 -0.051,0.418 v 0.5 l -0.015,0.434 v 0.402 l 0.066,0.383 0.117,0.367 0.102,0.352 0.133,0.316 0.183,0.32 0.235,0.25 0.218,0.235 0.469,0.433 0.317,0.184 0.519,0.234 0.317,0.067"
       style="fill:none;stroke:#808080;stroke-width:0.85;stroke-linecap:round;stroke-linejoin:round;stroke-miterlimit:10;stroke-dasharray:none;stroke-opacity:1"
       transform="scale(1.3333333)" />
    <path
       id="path469"
       d="m 243.141,179.809 -0.368,-0.086 -0.32,0.05 -0.551,0.118 -0.586,0.285 -0.601,0.367 -0.235,0.234 -0.183,0.282 -0.219,0.269 -0.199,0.266 -0.184,0.301 -0.101,0.351 -0.133,0.332 -0.117,0.32 -0.016,0.582 V 184 l 0.184,0.5 0.199,0.367 0.402,0.285 0.453,0.168 0.602,0.016 0.316,-0.016 0.317,-0.05 0.336,-0.067"
       style="fill:none;stroke:#808080;stroke-width:0.85;stroke-linecap:round;stroke-linejoin:round;stroke-miterlimit:10;stroke-dasharray:none;stroke-opacity:1"
       transform="scale(1.3333333)" />
    <path
       id="path470"
       d="m 244.109,175.164 0.321,0.016 0.398,0.117 0.387,0.152 0.418,1.285 0.269,1.653 0.215,1.504 0.133,1.254 0.102,1.05 -0.032,0.887 -0.019,0.766 -0.031,0.687 -0.051,0.567 -0.102,0.453 -0.117,0.367 -0.051,0.332"
       style="fill:none;stroke:#808080;stroke-width:0.85;stroke-linecap:round;stroke-linejoin:round;stroke-miterlimit:10;stroke-dasharray:none;stroke-opacity:1"
       transform="scale(1.3333333)" />
    <path
       id="path471"
       d="m 249.328,179.906 0.254,0.219 0.348,0.016 0.371,0.035 0.383,-0.035 0.484,-0.051 h 0.555 l 0.515,-0.051 0.602,-0.031 0.504,-0.067 h 0.484 l 0.367,-0.035"
       style="fill:none;stroke:#808080;stroke-width:0.85;stroke-linecap:round;stroke-linejoin:round;stroke-miterlimit:10;stroke-dasharray:none;stroke-opacity:1"
       transform="scale(1.3333333)" />
    <path
       id="path472"
       d="m 249.695,182.445 0.188,0.367 0.418,0.067 0.418,-0.067 h 0.551 l 0.316,-0.015 0.602,-0.102 0.402,-0.031 0.336,-0.051 0.316,-0.051 0.403,-0.05 0.433,-0.067 0.418,-0.066 0.371,-0.117 0.399,-0.067"
       style="fill:none;stroke:#808080;stroke-width:0.85;stroke-linecap:round;stroke-linejoin:round;stroke-miterlimit:10;stroke-dasharray:none;stroke-opacity:1"
       transform="scale(1.3333333)" />
    <path
       id="path473"
       d="m 256.656,175.914 0.485,-0.316 0.285,-0.149 0.332,-0.137 0.32,-0.132 0.317,-0.133 0.351,-0.102 h 0.367 l 0.317,-0.05 0.57,0.035 0.316,0.117 0.418,0.25 0.235,0.199 0.219,0.27 0.183,0.265 0.285,0.551 0.051,0.301 v 0.351 l -0.051,0.336 -0.101,0.348 -0.184,0.336 -0.215,0.316 -0.203,0.285 -0.234,0.317 -0.215,0.367 -0.219,0.316 -0.234,0.27 -0.235,0.281 -0.183,0.371 -0.184,0.317 -0.183,0.281 -0.153,0.32 -0.117,0.332 -0.101,0.321 -0.149,0.531 v 0.437 l 0.016,0.399 0.183,0.285 0.321,0.316 0.449,0.133 0.555,0.051 h 0.332 l 0.402,-0.031 0.469,-0.02 0.484,-0.051 0.469,-0.046 0.453,-0.067 0.433,-0.07 0.45,-0.082 0.371,-0.082 0.351,-0.067 0.332,-0.086 0.368,-0.082 0.336,-0.101 0.3,-0.082"
       style="fill:none;stroke:#808080;stroke-width:0.85;stroke-linecap:round;stroke-linejoin:round;stroke-miterlimit:10;stroke-dasharray:none;stroke-opacity:1"
       transform="scale(1.3333333)" />
    <path
       id="path474"
       d="m 292.414,150.578 -0.266,-0.234 -0.32,-0.051 -0.516,0.066 -0.371,0.118 -0.367,0.132 -0.351,0.184 -0.301,0.199 -0.352,0.235 -0.332,0.234 -0.32,0.269 -0.266,0.332 -0.285,0.301 -0.301,0.25 -0.234,0.301 -0.152,0.367 -0.184,0.285 -0.234,0.5 -0.051,0.52 0.07,0.367 0.215,0.266 0.453,0.101 0.485,-0.132 0.586,-0.286 0.335,-0.234 0.317,-0.266 0.351,-0.285 0.368,-0.285 0.316,-0.316 0.254,-0.317 0.266,-0.316 0.269,-0.367 0.199,-0.387 0.184,-0.418 0.183,-0.449 0.219,-0.5 0.168,-0.555 0.098,-0.551 0.137,-0.582 0.148,-0.551 0.133,-0.554 0.086,-0.551 0.101,-0.516 0.133,-0.468 0.051,-0.45 0.031,-0.386 0.051,-0.352 0.066,-0.551 -0.066,-0.418 -0.234,0.418 -0.184,0.535 -0.066,0.434 -0.067,0.418 -0.117,0.418 -0.066,0.5 -0.036,0.586 -0.05,0.566 -0.051,0.555 v 0.582 l 0.051,0.602 0.035,0.55 0.015,0.469 0.051,0.485 0.133,0.484 0.102,0.433 0.117,0.368 0.133,0.367 0.183,0.387 0.153,0.316 0.316,0.52 0.199,0.265 0.254,0.219 0.469,0.367 0.265,0.149 0.551,0.101"
       style="fill:none;stroke:#808080;stroke-width:0.85;stroke-linecap:round;stroke-linejoin:round;stroke-miterlimit:10;stroke-dasharray:none;stroke-opacity:1"
       transform="scale(1.3333333)" />
    <path
       id="path475"
       d="m 300.176,143.211 -0.27,0.199 -0.281,0.27 -0.469,0.414 -0.269,0.285 -0.266,0.351 -0.285,0.368 -0.27,0.382 -0.234,0.485 -0.234,0.535 -0.266,0.535 -0.234,0.551 -0.184,0.652 -0.168,0.719 -0.148,0.668 -0.137,0.633 -0.051,0.637 v 1.285 l 0.035,0.55 0.117,0.551 0.184,0.551 0.184,0.52 0.218,0.468 0.266,0.485 0.32,0.418 0.317,0.367 0.285,0.316 0.316,0.317 0.418,0.25 0.336,0.218 0.317,0.133 0.402,0.102"
       style="fill:none;stroke:#808080;stroke-width:0.85;stroke-linecap:round;stroke-linejoin:round;stroke-miterlimit:10;stroke-dasharray:none;stroke-opacity:1"
       transform="scale(1.3333333)" />
    <path
       id="path476"
       d="m 303.906,145.648 -0.101,0.52 -0.219,0.516 -0.098,0.316 -0.152,0.484 -0.184,0.485 -0.168,0.504 -0.132,0.535 -0.118,0.551 -0.132,0.515 -0.118,0.469 -0.066,0.484 -0.086,0.5 -0.133,0.434 -0.101,0.402 -0.051,0.383 -0.031,0.402 -0.051,0.317 -0.082,0.601 v 0.336 l -0.051,0.301 -0.086,0.485 -0.016,0.433 -0.05,0.383 0.437,-0.383 0.266,-0.269 0.285,-0.266 0.316,-0.234 0.321,-0.235 0.281,-0.234 0.269,-0.184 0.286,-0.133 0.25,-0.168 0.433,-0.199 0.485,-0.031 0.32,0.047 0.25,0.219 0.234,0.449 -0.015,0.371 -0.086,0.414 -0.235,0.453 -0.332,0.383 -0.254,0.184 -0.5,0.32 -0.3,0.133 -0.368,0.097 -0.371,0.102 -0.367,0.117 -0.433,0.051 -0.434,0.015 -0.438,0.036 h -0.382 l -0.352,-0.036 -0.336,-0.05 -0.316,-0.051 -0.336,-0.133 -0.25,-0.25 0.035,-0.316 0.215,-0.485"
       style="fill:none;stroke:#808080;stroke-width:0.85;stroke-linecap:round;stroke-linejoin:round;stroke-miterlimit:10;stroke-dasharray:none;stroke-opacity:1"
       transform="scale(1.3333333)" />
    <path
       id="path477"
       d="m 307.352,144.328 0.316,0.184 0.453,0.285 0.266,0.183 0.25,0.219 0.304,0.266 0.317,0.367 0.285,0.316 0.266,0.301 0.3,0.418 0.321,0.551 0.265,0.551 0.235,0.535 0.234,0.57 0.219,0.617 0.133,0.567 0.101,0.551 0.082,0.586 0.051,0.617 -0.035,0.535 -0.051,0.469 -0.066,0.5 -0.118,0.519 -0.148,0.5 -0.168,0.418 -0.152,0.418 -0.184,0.399 -0.215,0.367 -0.183,0.336 -0.188,0.351 -0.199,0.281 -0.219,0.286 -0.316,0.453 -0.184,0.281"
       style="fill:none;stroke:#808080;stroke-width:0.85;stroke-linecap:round;stroke-linejoin:round;stroke-miterlimit:10;stroke-dasharray:none;stroke-opacity:1"
       transform="scale(1.3333333)" />
    <path
       id="path478"
       d="m 315.297,150.359 0.367,-0.066 0.352,-0.086 0.367,-0.082 0.566,-0.133 0.555,-0.152 0.316,-0.047 0.301,-0.051 0.469,-0.117 0.504,-0.102 0.367,-0.015 0.367,-0.035"
       style="fill:none;stroke:#808080;stroke-width:0.85;stroke-linecap:round;stroke-linejoin:round;stroke-miterlimit:10;stroke-dasharray:none;stroke-opacity:1"
       transform="scale(1.3333333)" />
    <path
       id="path479"
       d="m 314.375,152.312 0.316,0.02 0.418,-0.102 0.305,-0.085 0.5,-0.098 0.57,-0.102 0.352,-0.066 0.301,-0.051 0.347,-0.016 0.371,-0.035 0.317,-0.047 0.57,-0.019 h 0.317 l 0.5,-0.066"
       style="fill:none;stroke:#808080;stroke-width:0.85;stroke-linecap:round;stroke-linejoin:round;stroke-miterlimit:10;stroke-dasharray:none;stroke-opacity:1"
       transform="scale(1.3333333)" />
    <path
       id="path480"
       d="m 320.848,145.965 0.418,-0.25 0.3,-0.117 0.321,-0.118 0.301,-0.097 0.316,-0.102 0.367,-0.082 0.438,-0.035 0.382,-0.016 h 0.368 l 0.367,0.016 0.402,0.082 0.336,0.086 0.285,0.102 0.301,0.164 0.316,0.234 0.235,0.199 0.285,0.469 0.133,0.367 0.035,0.317 -0.035,0.32 -0.082,0.398 -0.102,0.438 -0.183,0.449 -0.219,0.418 -0.25,0.449 -0.27,0.453 -0.316,0.383 -0.317,0.367 -0.32,0.368 -0.316,0.367 -0.285,0.32 -0.235,0.266 -0.183,0.285 -0.133,0.367 -0.153,0.469 0.051,0.5 0.133,0.367 0.32,0.285 0.368,0.113 0.484,0.102 0.535,-0.082 0.637,-0.051 0.57,-0.183 0.317,-0.082 0.367,-0.051 0.351,-0.102 0.301,-0.133 0.367,-0.101 0.387,-0.051 0.332,-0.117 0.336,-0.117 0.367,-0.133"
       style="fill:none;stroke:#808080;stroke-width:0.85;stroke-linecap:round;stroke-linejoin:round;stroke-miterlimit:10;stroke-dasharray:none;stroke-opacity:1"
       transform="scale(1.3333333)" />
    <path
       id="path481"
       d="m 357.742,138.016 -0.285,0.132 -0.359,0.075 -0.282,0.164 -0.328,0.195 -0.449,0.418 -0.207,0.238 -0.301,0.492 -0.371,0.461 -0.269,0.493 -0.254,0.402 -0.043,0.371 0.043,0.418 0.301,0.285 0.402,-0.047 0.312,-0.117 0.371,-0.328 0.465,-0.375 0.207,-0.238 0.164,-0.254 0.196,-0.281 0.207,-0.329 0.195,-0.328 0.164,-0.328 0.18,-0.371 0.164,-0.418 0.121,-0.449 0.117,-0.445 0.149,-0.461 0.164,-0.45 0.136,-0.445 0.118,-0.449 0.136,-0.414 0.149,-0.375 0.058,-0.356 0.075,-0.3 0.148,-0.567 -0.027,-0.402 -0.137,-0.281 -0.238,0.269 -0.192,0.461 -0.121,0.328 -0.105,0.328 -0.075,0.356 -0.074,0.386 -0.074,0.403 -0.059,0.402 -0.031,0.449 v 1.7 l 0.031,0.371 0.016,0.359 0.043,0.328 0.074,0.297 0.09,0.328 0.148,0.52 0.18,0.523 0.164,0.418 0.285,0.402 0.266,0.266"
       style="fill:none;stroke:#ff00ff;stroke-width:0.85;stroke-linecap:round;stroke-linejoin:round;stroke-miterlimit:10;stroke-dasharray:none;stroke-opacity:1"
       transform="scale(1.3333333)" />
    <path
       id="path482"
       d="m 361.473,133.902 0.386,0.164 0.286,0.18 h 0.312 l 0.445,-0.047 0.328,-0.043 0.375,-0.074 0.461,-0.016 0.407,-0.031 h 0.371 l 0.328,0.09"
       style="fill:none;stroke:#ff00ff;stroke-width:0.85;stroke-linecap:round;stroke-linejoin:round;stroke-miterlimit:10;stroke-dasharray:none;stroke-opacity:1"
       transform="scale(1.3333333)" />
    <path
       id="path483"
       d="m 367.707,133.918 0.031,0.418 -0.207,0.312 -0.269,0.446 -0.375,0.465 -0.164,0.281 -0.133,0.359 -0.164,0.34 -0.164,0.359 -0.149,0.344 -0.121,0.328 -0.133,0.356 -0.148,0.344 -0.106,0.355 -0.074,0.328 -0.074,0.301 -0.074,0.312 -0.047,0.297 0.031,0.328 0.043,0.493 0.137,0.476 0.191,0.371 0.285,0.344 0.254,0.285 0.371,0.192 0.329,0.058"
       style="fill:none;stroke:#ff00ff;stroke-width:0.85;stroke-linecap:round;stroke-linejoin:round;stroke-miterlimit:10;stroke-dasharray:none;stroke-opacity:1"
       transform="scale(1.3333333)" />
    <path
       id="path484"
       d="m 369.828,138.434 -0.285,0.164 -0.281,0.207 -0.285,0.238 -0.207,0.285 -0.239,0.356 -0.121,0.328 -0.09,0.297 0.075,0.375 0.3,0.207 h 0.403 l 0.343,-0.164 0.403,-0.207 0.355,-0.286 0.328,-0.296 0.211,-0.372 0.133,-0.375 0.074,-0.355 0.078,-0.418 -0.121,-0.328 -0.328,0.222 -0.074,0.36 -0.059,0.371 0.012,0.418 0.047,0.387 0.148,0.343 0.164,0.282 0.223,0.3 0.27,0.192 0.343,0.195"
       style="fill:none;stroke:#ff00ff;stroke-width:0.85;stroke-linecap:round;stroke-linejoin:round;stroke-miterlimit:10;stroke-dasharray:none;stroke-opacity:1"
       transform="scale(1.3333333)" />
    <path
       id="path485"
       d="m 372.289,132.188 0.375,-0.118 h 0.418 l 0.356,0.118 0.3,0.21 0.328,0.403 0.164,0.254 0.165,0.25 0.195,0.285 0.117,0.359 0.074,0.34 0.059,0.359 0.105,0.403 0.09,0.429 0.074,0.481 0.047,0.488 0.012,0.508 0.031,0.523 v 0.493 l -0.043,0.461 -0.047,0.445 -0.105,0.449 -0.117,0.418 -0.106,0.402 -0.117,0.403 -0.121,0.414 -0.148,0.359 -0.137,0.328 -0.117,0.344 -0.075,0.356 -0.121,0.296 -0.101,0.286 -0.196,0.492 -0.195,0.418"
       style="fill:none;stroke:#ff00ff;stroke-width:0.85;stroke-linecap:round;stroke-linejoin:round;stroke-miterlimit:10;stroke-dasharray:none;stroke-opacity:1"
       transform="scale(1.3333333)" />
    <path
       id="path486"
       d="m 377.902,137.449 0.297,0.121 h 0.778 l 0.519,-0.015 0.449,-0.047 0.508,-0.074 0.402,-0.043 0.344,-0.047 h 0.434"
       style="fill:none;stroke:#ff00ff;stroke-width:0.85;stroke-linecap:round;stroke-linejoin:round;stroke-miterlimit:10;stroke-dasharray:none;stroke-opacity:1"
       transform="scale(1.3333333)" />
    <path
       id="path487"
       d="m 378.273,139.73 0.418,0.043 0.36,-0.074 0.328,-0.074 0.344,-0.09 0.429,-0.043 0.375,-0.09 0.328,-0.047 0.45,-0.058 0.582,-0.016 h 0.683"
       style="fill:none;stroke:#ff00ff;stroke-width:0.85;stroke-linecap:round;stroke-linejoin:round;stroke-miterlimit:10;stroke-dasharray:none;stroke-opacity:1"
       transform="scale(1.3333333)" />
    <path
       id="path488"
       d="m 354.277,166.555 -0.328,0.175 -0.418,0.165 -0.371,0.269 -0.359,0.281 -0.344,0.375 -0.281,0.418 -0.254,0.414 -0.195,0.403 -0.09,0.375 0.047,0.418 0.281,0.312 h 0.39 l 0.403,-0.121 0.476,-0.254 0.254,-0.191 0.403,-0.418 0.211,-0.238 0.238,-0.297 0.207,-0.317 0.164,-0.324 0.18,-0.375 0.211,-0.344 0.164,-0.386 0.117,-0.372 0.148,-0.371 0.164,-0.375 0.09,-0.402 0.074,-0.371 0.09,-0.344 0.153,-0.387 0.086,-0.343 0.046,-0.328 0.043,-0.329 0.075,-0.355 0.015,-0.328 0.031,-0.492 v -0.461 l -0.046,-0.301 -0.313,0.344 -0.164,0.582 -0.117,0.402 -0.09,0.402 -0.047,0.387 -0.027,0.445 -0.047,0.434 -0.043,0.387 -0.016,0.433 v 0.493 l -0.031,0.46 -0.027,0.45 0.027,0.445 0.074,0.445 0.063,0.418 0.074,0.375 0.09,0.34 0.148,0.36 0.117,0.296 0.243,0.551 0.175,0.301 0.164,0.25 0.317,0.359 0.387,0.328 0.328,0.18"
       style="fill:none;stroke:#808080;stroke-width:0.85;stroke-linecap:round;stroke-linejoin:round;stroke-miterlimit:10;stroke-dasharray:none;stroke-opacity:1"
       transform="scale(1.3333333)" />
    <path
       id="path489"
       d="m 358.277,162.336 h 0.778 l 0.492,-0.016 0.492,-0.031 0.566,0.031 h 0.883 l 0.356,-0.031 h 0.894"
       style="fill:none;stroke:#808080;stroke-width:0.85;stroke-linecap:round;stroke-linejoin:round;stroke-miterlimit:10;stroke-dasharray:none;stroke-opacity:1"
       transform="scale(1.3333333)" />
    <path
       id="path490"
       d="m 367.172,161.918 -0.195,0.297 -0.329,0.285 -0.46,0.402 -0.286,0.297 -0.297,0.313 -0.312,0.3 -0.285,0.325 -0.254,0.406 -0.238,0.34 -0.207,0.328 -0.168,0.375 -0.133,0.445 -0.149,0.434 -0.121,0.371 -0.011,0.387 v 0.73 l 0.132,0.625 0.118,0.328 0.285,0.492 0.238,0.223 0.27,0.211 0.285,0.164 0.281,0.133 0.328,0.148 0.402,0.137 0.36,0.086 0.344,0.078 0.402,0.074"
       style="fill:none;stroke:#808080;stroke-width:0.85;stroke-linecap:round;stroke-linejoin:round;stroke-miterlimit:10;stroke-dasharray:none;stroke-opacity:1"
       transform="scale(1.3333333)" />
    <path
       id="path491"
       d="m 371.59,166.18 -0.481,-0.075 h -0.371 l -0.297,0.09 -0.328,0.106 -0.39,0.207 -0.282,0.344 -0.226,0.355 -0.102,0.328 -0.062,0.301 0.09,0.371 0.254,0.313 0.312,0.089 0.418,-0.043 0.375,-0.152 0.359,-0.207 0.371,-0.297 0.254,-0.359 0.27,-0.387 0.164,-0.402 0.164,-0.297 0.09,-0.313 0.117,-0.285 -0.148,0.36 -0.016,0.609 0.016,0.328 0.031,0.328 0.074,0.594 0.164,0.555 0.18,0.488 0.164,0.254 0.238,0.344"
       style="fill:none;stroke:#808080;stroke-width:0.85;stroke-linecap:round;stroke-linejoin:round;stroke-miterlimit:10;stroke-dasharray:none;stroke-opacity:1"
       transform="scale(1.3333333)" />
    <path
       id="path492"
       d="m 374.215,161.516 0.297,0.371 0.285,0.48 0.164,0.535 0.148,0.297 0.164,0.375 0.165,0.324 0.164,0.317 0.164,0.34 0.164,0.449 0.136,0.402 0.118,0.371 0.089,0.45 0.075,0.461 0.047,0.429 v 0.391 l -0.032,0.414 -0.058,0.433 -0.106,0.344 -0.105,0.328 -0.117,0.328 -0.149,0.356 -0.164,0.301 -0.164,0.281 -0.254,0.535 -0.242,0.375"
       style="fill:none;stroke:#808080;stroke-width:0.85;stroke-linecap:round;stroke-linejoin:round;stroke-miterlimit:10;stroke-dasharray:none;stroke-opacity:1"
       transform="scale(1.3333333)" />
    <path
       id="path493"
       d="m 377.781,166.195 0.239,0.207 0.3,0.153 0.371,0.043 h 0.329 l 0.449,-0.032 0.445,-0.043 0.539,-0.015 0.402,-0.043 0.403,-0.074 0.461,-0.032"
       style="fill:none;stroke:#808080;stroke-width:0.85;stroke-linecap:round;stroke-linejoin:round;stroke-miterlimit:10;stroke-dasharray:none;stroke-opacity:1"
       transform="scale(1.3333333)" />
    <path
       id="path494"
       d="m 378.855,168.641 0.286,0.101 0.371,0.031 0.375,-0.046 0.328,-0.043 0.355,-0.106 0.36,-0.101 0.343,-0.106 0.403,-0.016 0.492,-0.031"
       style="fill:none;stroke:#808080;stroke-width:0.85;stroke-linecap:round;stroke-linejoin:round;stroke-miterlimit:10;stroke-dasharray:none;stroke-opacity:1"
       transform="scale(1.3333333)" />
    <path
       id="path495"
       d="m 473.992,139.594 -0.656,0.789 -0.566,0.926 -0.254,0.671 0.179,0.313 0.684,-0.449 0.238,-0.207 0.746,-0.774 0.242,-0.316 0.668,-0.981 0.196,-0.343 0.508,-1.059 0.148,-0.344 0.465,-1.086 0.148,-0.375 0.328,-1.16 0.09,-0.359 0.282,-0.817 0.136,-0.582 -0.226,1.059 -0.102,0.34 -0.269,1.195 -0.106,0.403 -0.207,1.191 -0.047,0.402 0.074,1.192 0.047,0.371 0.09,1.058 0.074,0.297 0.344,0.778 0.477,0.789 0.461,0.433"
       style="fill:none;stroke:#ff00ff;stroke-width:0.85;stroke-linecap:round;stroke-linejoin:round;stroke-miterlimit:10;stroke-dasharray:none;stroke-opacity:1"
       transform="scale(1.3333333)" />
    <path
       id="path496"
       d="m 480.191,134.125 0.18,0.313 0.414,0.136 0.317,-0.015 0.445,-0.032 0.582,-0.043 0.566,-0.046 0.465,-0.043"
       style="fill:none;stroke:#ff00ff;stroke-width:0.85;stroke-linecap:round;stroke-linejoin:round;stroke-miterlimit:10;stroke-dasharray:none;stroke-opacity:1"
       transform="scale(1.3333333)" />
    <path
       id="path497"
       d="m 488.918,132.324 -0.445,0.074 -0.477,0.133 -0.301,0.106 -0.312,0.133 -0.27,0.195 -0.269,0.207 -0.282,0.207 -0.269,0.242 -0.285,0.281 -0.266,0.328 -0.254,0.297 -0.254,0.301 -0.269,0.356 -0.254,0.402 -0.254,0.387 -0.207,0.386 -0.164,0.391 -0.121,0.414 -0.117,0.391 -0.09,0.34 -0.047,0.359 v 0.344 l -0.027,0.312 0.043,0.551 0.195,0.519 0.207,0.403 0.344,0.375 0.312,0.238 0.449,0.223 0.403,0.148 0.461,0.063 0.406,-0.047"
       style="fill:none;stroke:#ff00ff;stroke-width:0.85;stroke-linecap:round;stroke-linejoin:round;stroke-miterlimit:10;stroke-dasharray:none;stroke-opacity:1"
       transform="scale(1.3333333)" />
    <path
       id="path498"
       d="m 473.773,165.195 -0.418,0.016 -0.402,0.105 -0.461,0.164 -0.285,0.102 -0.477,0.285 -0.39,0.434 -0.356,0.414 -0.285,0.492 -0.179,0.387 -0.075,0.359 0.047,0.402 0.328,0.254 0.446,-0.074 0.492,-0.254 0.449,-0.359 0.285,-0.223 0.207,-0.312 0.18,-0.297 0.223,-0.301 0.222,-0.281 0.196,-0.313 0.136,-0.343 0.164,-0.356 0.223,-0.344 0.133,-0.386 0.121,-0.375 0.117,-0.371 0.137,-0.418 0.117,-0.418 0.09,-0.43 0.121,-0.449 0.117,-0.43 0.074,-0.449 0.063,-0.418 0.101,-0.356 0.121,-0.566 0.043,-0.418 -0.101,-0.297 -0.27,0.328 -0.148,0.371 -0.18,0.418 -0.164,0.418 -0.148,0.477 -0.075,0.504 -0.179,0.984 -0.074,0.524 -0.016,0.578 -0.074,0.523 -0.074,0.461 -0.047,0.539 0.015,0.535 v 0.938 l 0.059,0.449 0.121,0.418 0.059,0.371 0.105,0.328 0.133,0.328 0.195,0.328 0.164,0.266 0.328,0.391 0.223,0.207 0.434,0.238"
       style="fill:none;stroke:#808080;stroke-width:0.85;stroke-linecap:round;stroke-linejoin:round;stroke-miterlimit:10;stroke-dasharray:none;stroke-opacity:1"
       transform="scale(1.3333333)" />
    <path
       id="path499"
       d="m 478.609,160.277 0.27,0.164 0.461,0.09 0.492,0.074 0.449,0.016 0.418,0.031 0.403,-0.031 0.566,-0.016 h 0.582"
       style="fill:none;stroke:#808080;stroke-width:0.85;stroke-linecap:round;stroke-linejoin:round;stroke-miterlimit:10;stroke-dasharray:none;stroke-opacity:1"
       transform="scale(1.3333333)" />
    <path
       id="path500"
       d="m 487.578,160.98 -0.301,0.239 -0.386,0.371 -0.254,0.207 -0.285,0.211 -0.282,0.254 -0.269,0.312 -0.313,0.297 -0.3,0.313 -0.282,0.328 -0.269,0.386 -0.27,0.36 -0.265,0.328 -0.227,0.344 -0.223,0.429 -0.211,0.375 -0.164,0.34 -0.117,0.403 -0.058,0.402 -0.063,0.344 v 0.328 l 0.063,0.328 0.089,0.312 0.25,0.493 0.45,0.445 0.476,0.301 0.598,0.191 0.551,0.047 h 0.66 l 0.504,-0.121 0.316,-0.074 0.34,-0.09 0.375,-0.117 0.359,-0.137 0.328,-0.117"
       style="fill:none;stroke:#808080;stroke-width:0.85;stroke-linecap:round;stroke-linejoin:round;stroke-miterlimit:10;stroke-dasharray:none;stroke-opacity:1"
       transform="scale(1.3333333)" />
    <path
       id="path501"
       d="m 491.426,160.398 0.121,0.372 -0.09,0.375 -0.074,0.625 -0.074,0.402 -0.09,0.371 -0.09,0.375 -0.074,0.402 -0.075,0.356 -0.078,0.328 -0.043,0.328 -0.015,0.344 -0.164,0.535 -0.043,0.613 -0.063,0.52 0.031,0.508 -0.031,0.371 0.063,0.328 0.015,0.359 0.282,-0.152 0.328,-0.488 0.164,-0.254 0.402,-0.418 0.344,-0.403 0.387,-0.285 0.211,-0.25 0.328,-0.015 0.418,0.253 0.254,0.25 0.164,0.481 0.043,0.387 -0.102,0.402 -0.227,0.371 -0.343,0.328 -0.356,0.254 -0.285,0.207 -0.328,0.195 -0.281,0.118 -0.391,0.074 -0.355,-0.059 -0.329,-0.265 -0.121,-0.286 -0.043,-0.359"
       style="fill:none;stroke:#808080;stroke-width:0.85;stroke-linecap:round;stroke-linejoin:round;stroke-miterlimit:10;stroke-dasharray:none;stroke-opacity:1"
       transform="scale(1.3333333)" />
    <path
       id="path502"
       d="m 496.723,158.969 0.121,0.34 0.238,0.523 0.207,0.609 0.195,0.403 0.164,0.39 0.133,0.403 0.153,0.414 0.164,0.492 0.132,0.418 0.09,0.402 0.106,0.418 0.058,0.492 0.059,0.446 v 0.433 l -0.027,0.493 -0.032,0.503 -0.058,0.493 -0.106,0.464 -0.105,0.489 -0.102,0.523 -0.121,0.445 -0.133,0.403 -0.164,0.39 -0.136,0.403 -0.164,0.328 -0.165,0.281 -0.238,0.535 -0.195,0.36"
       style="fill:none;stroke:#808080;stroke-width:0.85;stroke-linecap:round;stroke-linejoin:round;stroke-miterlimit:10;stroke-dasharray:none;stroke-opacity:1"
       transform="scale(1.3333333)" />
    <path
       id="path503"
       d="m 502.828,164.629 0.266,0.164 0.328,-0.027 0.465,-0.047 0.359,-0.016 0.445,-0.074 0.508,-0.043 0.492,-0.09 h 0.434 l 0.387,-0.058"
       style="fill:none;stroke:#808080;stroke-width:0.85;stroke-linecap:round;stroke-linejoin:round;stroke-miterlimit:10;stroke-dasharray:none;stroke-opacity:1"
       transform="scale(1.3333333)" />
    <path
       id="path504"
       d="m 501.871,167.344 0.449,0.117 h 0.418 l 0.418,-0.074 0.551,-0.059 0.539,-0.164 0.492,-0.164 0.297,-0.074 0.313,-0.09 0.3,-0.074 0.567,-0.09 0.523,-0.121"
       style="fill:none;stroke:#808080;stroke-width:0.85;stroke-linecap:round;stroke-linejoin:round;stroke-miterlimit:10;stroke-dasharray:none;stroke-opacity:1"
       transform="scale(1.3333333)" />
    <path
       id="path505"
       d="m 491.172,132.203 0.226,0.223 v 0.328 l -0.046,0.375 -0.016,0.609 -0.074,0.582 v 0.371 l -0.043,0.329 -0.153,0.613 -0.043,0.402 -0.043,0.371 -0.078,0.328 -0.058,0.344 -0.043,0.356 -0.074,0.328 -0.075,0.297 -0.047,0.312 -0.043,0.508 -0.074,0.402 -0.078,0.344 -0.058,0.387 -0.075,0.297 0.285,-0.207 0.297,-0.36 0.403,-0.34 0.3,-0.238 0.356,-0.137 0.402,-0.117 0.344,0.059 0.359,0.148 0.254,0.164 0.239,0.211 0.207,0.297 -0.118,0.387 -0.253,0.269 -0.36,0.239 -0.344,0.238 -0.371,0.164 -0.359,0.164 -0.328,0.117 -0.328,0.016 -0.403,-0.043 -0.328,-0.074 -0.328,-0.164"
       style="fill:none;stroke:#ff00ff;stroke-width:0.85;stroke-linecap:round;stroke-linejoin:round;stroke-miterlimit:10;stroke-dasharray:none;stroke-opacity:1"
       transform="scale(1.3333333)" />
    <path
       id="path506"
       d="m 496.172,130.578 h 0.371 l 0.406,0.016 0.281,0.285 0.329,0.402 0.269,0.535 0.164,0.329 0.164,0.343 0.121,0.371 0.149,0.387 0.179,0.387 0.192,0.375 0.137,0.387 0.117,0.417 0.09,0.461 0.074,0.434 0.074,0.414 0.047,0.465 v 0.492 l -0.016,0.477 -0.031,0.429 -0.027,0.45 -0.047,0.445 -0.074,0.375 -0.09,0.355 -0.09,0.344 -0.09,0.387 -0.148,0.297 -0.282,0.539 -0.121,0.312 -0.254,0.418 -0.238,0.371 -0.211,0.297"
       style="fill:none;stroke:#ff00ff;stroke-width:0.85;stroke-linecap:round;stroke-linejoin:round;stroke-miterlimit:10;stroke-dasharray:none;stroke-opacity:1"
       transform="scale(1.3333333)" />
    <path
       id="path507"
       d="m 503.348,136.988 0.238,0.239 0.285,0.132 0.418,0.09 0.461,0.031 0.523,-0.031 h 0.329 l 0.359,-0.047 0.344,-0.011 h 0.683 l 0.508,-0.063 0.481,0.031 0.328,0.075"
       style="fill:none;stroke:#ff00ff;stroke-width:0.85;stroke-linecap:round;stroke-linejoin:round;stroke-miterlimit:10;stroke-dasharray:none;stroke-opacity:1"
       transform="scale(1.3333333)" />
    <path
       id="path508"
       d="m 503.348,139.609 0.3,0.133 0.344,0.078 0.387,-0.031 0.535,-0.047 0.316,-0.043 0.582,-0.015 h 0.313 l 0.535,-0.075 0.492,-0.043 0.407,-0.046 0.339,-0.028 h 0.375"
       style="fill:none;stroke:#ff00ff;stroke-width:0.85;stroke-linecap:round;stroke-linejoin:round;stroke-miterlimit:10;stroke-dasharray:none;stroke-opacity:1"
       transform="scale(1.3333333)" />
    <path
       id="path509"
       d="m 408.152,182.469 -0.074,-0.328 -0.375,-0.059 -0.355,0.207 -0.375,0.211 -0.282,0.176 -0.328,0.285 -0.211,0.269 -0.207,0.254 -0.211,0.25 -0.089,0.313 -0.043,0.344 0.253,0.359 0.329,0.043 0.371,-0.117 0.359,-0.121 0.344,-0.164 0.312,-0.18 0.297,-0.223 0.317,-0.222 0.265,-0.27 0.239,-0.254 0.242,-0.281 0.238,-0.344 0.18,-0.328 0.164,-0.355 0.164,-0.375 0.191,-0.403 0.164,-0.414 0.121,-0.402 0.118,-0.391 0.136,-0.429 0.133,-0.418 0.106,-0.372 0.089,-0.359 0.118,-0.387 0.089,-0.375 0.075,-0.324 0.121,-0.566 0.043,-0.418 -0.028,-0.36 0.149,0.477 -0.074,0.301 -0.075,0.297 -0.047,0.355 -0.074,0.344 -0.09,0.387 -0.074,0.418 -0.043,0.449 -0.047,0.414 -0.043,0.418 -0.031,0.449 0.031,0.445 v 0.789 l 0.043,0.387 0.121,0.344 0.075,0.301 0.179,0.566 0.149,0.281 0.207,0.446 0.301,0.449 0.148,0.344 0.328,0.281 0.449,0.211"
       style="fill:none;stroke:#ff00ff;stroke-width:0.85;stroke-linecap:round;stroke-linejoin:round;stroke-miterlimit:10;stroke-dasharray:none;stroke-opacity:1"
       transform="scale(1.3333333)" />
    <path
       id="path510"
       d="m 413.672,177.285 0.328,0.176 0.301,0.121 0.371,0.074 0.328,0.043 0.434,0.016 h 0.386 l 0.524,-0.016 0.449,-0.043 0.492,-0.047 0.328,-0.058"
       style="fill:none;stroke:#ff00ff;stroke-width:0.85;stroke-linecap:round;stroke-linejoin:round;stroke-miterlimit:10;stroke-dasharray:none;stroke-opacity:1"
       transform="scale(1.3333333)" />
    <path
       id="path511"
       d="m 424.773,176.762 -0.328,-0.074 -0.402,0.058 -0.43,0.137 -0.254,0.25 -0.328,0.359 -0.332,0.492 -0.207,0.282 -0.195,0.328 -0.164,0.344 -0.18,0.359 -0.207,0.371 -0.195,0.445 -0.164,0.449 -0.164,0.418 -0.164,0.403 -0.133,0.387 -0.074,0.371 -0.075,0.359 -0.047,0.328 0.032,0.328 0.043,0.297 0.121,0.492 0.328,0.446 0.328,0.328 0.492,0.254 0.492,0.148 0.551,0.047 0.434,-0.074 0.301,-0.063"
       style="fill:none;stroke:#ff00ff;stroke-width:0.85;stroke-linecap:round;stroke-linejoin:round;stroke-miterlimit:10;stroke-dasharray:none;stroke-opacity:1"
       transform="scale(1.3333333)" />
    <path
       id="path512"
       d="m 427.656,181.113 -0.195,-0.285 -0.387,-0.086 -0.449,0.238 -0.418,0.297 -0.477,0.356 -0.328,0.418 -0.285,0.418 -0.238,0.433 -0.09,0.387 v 0.328 l 0.09,0.313 0.359,0.343 0.371,0.118 0.493,0.047 0.57,-0.063 0.297,-0.059 0.359,-0.043 0.297,-0.089 0.566,-0.211"
       style="fill:none;stroke:#ff00ff;stroke-width:0.85;stroke-linecap:round;stroke-linejoin:round;stroke-miterlimit:10;stroke-dasharray:none;stroke-opacity:1"
       transform="scale(1.3333333)" />
    <path
       id="path513"
       d="m 429.535,176.629 0.254,0.223 0.195,0.355 0.282,0.328 0.39,0.492 0.239,0.285 0.207,0.329 0.195,0.328 0.164,0.328 0.164,0.387 0.133,0.429 0.121,0.449 0.09,0.43 0.101,0.449 0.063,0.446 0.074,0.418 0.043,0.371 0.031,0.406 -0.031,0.414 -0.043,0.391 -0.074,0.324 -0.09,0.328 -0.137,0.344 -0.164,0.312 -0.164,0.254 -0.191,0.254 -0.211,0.281 -0.192,0.254 -0.226,0.375"
       style="fill:none;stroke:#ff00ff;stroke-width:0.85;stroke-linecap:round;stroke-linejoin:round;stroke-miterlimit:10;stroke-dasharray:none;stroke-opacity:1"
       transform="scale(1.3333333)" />
    <path
       id="path514"
       d="m 435.727,180.457 0.406,0.105 0.371,0.043 0.418,0.047 0.535,0.012 0.57,-0.012 h 0.52 l 0.418,-0.047 0.375,-0.027"
       style="fill:none;stroke:#ff00ff;stroke-width:0.85;stroke-linecap:round;stroke-linejoin:round;stroke-miterlimit:10;stroke-dasharray:none;stroke-opacity:1"
       transform="scale(1.3333333)" />
    <path
       id="path515"
       d="m 436.219,183.168 0.359,0.152 0.344,0.012 0.449,-0.012 0.477,-0.047 0.55,-0.074 0.524,-0.043 0.535,-0.074 0.434,-0.047 0.464,-0.031 h 1.266"
       style="fill:none;stroke:#ff00ff;stroke-width:0.85;stroke-linecap:round;stroke-linejoin:round;stroke-miterlimit:10;stroke-dasharray:none;stroke-opacity:1"
       transform="scale(1.3333333)" />
    <path
       id="path516"
       d="m 410.004,195.418 -0.301,0.074 -0.433,0.164 -0.461,0.254 -0.461,0.402 -0.239,0.211 -0.375,0.415 -0.148,0.285 -0.164,0.254 -0.254,0.418 -0.164,0.476 -0.047,0.402 0.063,0.329 0.281,0.25 h 0.402 l 0.406,-0.207 0.461,-0.372 0.27,-0.226 0.222,-0.25 0.208,-0.285 0.242,-0.297 0.281,-0.301 0.211,-0.324 0.191,-0.328 0.211,-0.36 0.207,-0.371 0.164,-0.375 0.149,-0.371 0.168,-0.387 0.176,-0.386 0.152,-0.403 0.101,-0.402 0.122,-0.418 0.117,-0.359 0.078,-0.371 0.074,-0.344 0.059,-0.313 0.105,-0.492 0.043,-0.344 -0.164,0.254 -0.043,0.328 -0.062,0.36 -0.012,0.414 0.012,0.418 v 0.402 l -0.012,0.403 v 0.417 l 0.012,0.45 0.031,0.386 0.031,0.356 0.059,0.375 v 0.414 l 0.031,0.359 0.086,0.297 0.164,0.328 0.195,0.36 0.239,0.297 0.226,0.285 0.266,0.281 0.269,0.254 0.285,0.207 0.266,0.195 0.254,0.164"
       style="fill:none;stroke:#808080;stroke-width:0.85;stroke-linecap:round;stroke-linejoin:round;stroke-miterlimit:10;stroke-dasharray:none;stroke-opacity:1"
       transform="scale(1.3333333)" />
    <path
       id="path517"
       d="m 414.793,191.141 0.281,0.179 0.418,0.075 h 0.539 l 0.524,-0.075 h 0.328 l 0.328,-0.015 0.312,-0.059 0.297,-0.043 0.36,-0.015 0.386,-0.047 0.403,-0.075 0.418,-0.043 0.449,0.016 h 0.402 l 0.328,-0.016 h 0.329"
       style="fill:none;stroke:#808080;stroke-width:0.85;stroke-linecap:round;stroke-linejoin:round;stroke-miterlimit:10;stroke-dasharray:none;stroke-opacity:1"
       transform="scale(1.3333333)" />
    <path
       id="path518"
       d="m 424.863,190.055 -0.402,0.191 -0.461,0.375 -0.238,0.207 -0.239,0.195 -0.242,0.254 -0.207,0.297 -0.179,0.36 -0.165,0.355 -0.148,0.344 -0.09,0.355 -0.121,0.344 -0.086,0.328 -0.047,0.328 0.047,0.328 v 0.313 l 0.043,0.535 0.121,0.285 0.239,0.43 0.371,0.449 0.386,0.371 0.434,0.328 0.301,0.149 0.328,0.09 0.371,0.074 0.402,0.09 0.375,0.047 h 0.328 l 0.328,-0.016"
       style="fill:none;stroke:#808080;stroke-width:0.85;stroke-linecap:round;stroke-linejoin:round;stroke-miterlimit:10;stroke-dasharray:none;stroke-opacity:1"
       transform="scale(1.3333333)" />
    <path
       id="path519"
       d="m 429.82,193.543 -0.402,-0.121 -0.375,-0.016 -0.359,0.074 -0.329,0.18 -0.343,0.328 -0.313,0.446 -0.281,0.402 -0.164,0.391 -0.047,0.386 0.047,0.371 0.117,0.297 0.285,0.36 0.328,0.179 0.493,0.192 0.523,0.015 0.34,0.032 0.523,-0.075 0.328,-0.058"
       style="fill:none;stroke:#808080;stroke-width:0.85;stroke-linecap:round;stroke-linejoin:round;stroke-miterlimit:10;stroke-dasharray:none;stroke-opacity:1"
       transform="scale(1.3333333)" />
    <path
       id="path520"
       d="m 431.996,189.891 0.359,0.105 0.27,0.266 0.238,0.328 0.149,0.285 0.136,0.313 0.118,0.328 0.121,0.386 0.133,0.434 0.121,0.414 0.086,0.418 0.078,0.449 0.09,0.492 0.101,0.461 0.063,0.43 0.058,0.418 0.059,0.449 0.047,0.403 v 0.371 l -0.016,0.371 v 0.418 l -0.047,0.418 -0.074,0.371 -0.09,0.39 -0.101,0.329 -0.09,0.296 -0.18,0.536 -0.195,0.449 -0.196,0.281"
       style="fill:none;stroke:#808080;stroke-width:0.85;stroke-linecap:round;stroke-linejoin:round;stroke-miterlimit:10;stroke-dasharray:none;stroke-opacity:1"
       transform="scale(1.3333333)" />
    <path
       id="path521"
       d="m 437.25,193.75 0.328,0.195 0.434,0.086 0.328,0.047 0.418,0.059 0.371,0.047 0.449,0.011 0.36,-0.011 0.386,-0.032 h 0.641"
       style="fill:none;stroke:#808080;stroke-width:0.85;stroke-linecap:round;stroke-linejoin:round;stroke-miterlimit:10;stroke-dasharray:none;stroke-opacity:1"
       transform="scale(1.3333333)" />
    <path
       id="path522"
       d="m 438.027,196.445 0.356,0.078 0.449,-0.046 0.344,-0.043 0.402,-0.032 0.402,-0.074 0.403,-0.016 0.344,-0.042 0.375,0.011 0.328,-0.011"
       style="fill:none;stroke:#808080;stroke-width:0.85;stroke-linecap:round;stroke-linejoin:round;stroke-miterlimit:10;stroke-dasharray:none;stroke-opacity:1"
       transform="scale(1.3333333)" />
    <path
       id="path523"
       d="m 384.395,136.422 -0.09,-0.328 0.238,-0.254 0.375,-0.328 0.254,-0.192 0.281,-0.164 0.285,-0.136 0.492,-0.165 0.418,-0.164 0.403,-0.043 h 0.312 l 0.297,0.254 0.047,0.461 -0.121,0.434 -0.297,0.535 -0.195,0.297 -0.18,0.301 -0.238,0.312 -0.238,0.254 -0.239,0.238 -0.207,0.25 -0.211,0.286 -0.179,0.253 -0.282,0.43 -0.238,0.418 -0.09,0.328 0.012,0.418 0.269,0.313 0.391,0.105 0.43,-0.015 0.492,-0.043 0.492,-0.106 0.582,-0.059 0.496,-0.105 0.578,-0.059 0.481,-0.031"
       style="fill:none;stroke:#ff00ff;stroke-width:0.85;stroke-linecap:round;stroke-linejoin:round;stroke-miterlimit:10;stroke-dasharray:none;stroke-opacity:1"
       transform="scale(1.3333333)" />
    <path
       id="path524"
       d="m 386.676,165.242 -0.207,-0.285 -0.36,0.164 -0.418,0.254 -0.328,0.359 -0.371,0.493 -0.195,0.265 -0.164,0.313 -0.133,0.3 -0.164,0.313 -0.164,0.27 -0.152,0.312 -0.118,0.34 -0.121,0.312 -0.09,0.508 0.047,0.524 0.117,0.402 0.286,0.34 0.312,0.238 0.434,0.09 0.523,-0.059 0.297,-0.058 0.313,-0.133 0.3,-0.195 0.328,-0.207 0.356,-0.227 0.301,-0.266 0.269,-0.285 0.223,-0.269 0.238,-0.313 0.164,-0.297 0.149,-0.312 0.136,-0.297 0.133,-0.359 0.074,-0.329 0.032,-0.593 v -0.36 l -0.075,-0.359 -0.089,-0.297 -0.121,-0.281 -0.329,-0.465 -0.449,-0.328 -0.535,-0.117 h -0.566 l -0.567,0.179 -0.418,0.328 -0.359,0.446 -0.133,0.535"
       style="fill:none;stroke:#808080;stroke-width:0.85;stroke-linecap:round;stroke-linejoin:round;stroke-miterlimit:10;stroke-dasharray:none;stroke-opacity:1"
       transform="scale(1.3333333)" />
    <path
       id="path525"
       d="m 447.977,178.059 -0.387,0.027 -0.36,0.344 -0.253,0.285 -0.27,0.281 -0.223,0.313 -0.222,0.328 -0.211,0.269 -0.18,0.266 -0.164,0.285 -0.148,0.344 -0.133,0.312 -0.164,0.551 -0.032,0.313 -0.042,0.296 v 0.567 l 0.089,0.508 0.192,0.476 0.301,0.387 0.328,0.312 0.476,0.165 0.449,0.046 0.504,-0.136 0.45,-0.282 0.312,-0.195 0.254,-0.238 0.211,-0.266 0.238,-0.312 0.207,-0.301 0.196,-0.356 0.179,-0.343 0.192,-0.36 0.136,-0.297 0.118,-0.328 0.089,-0.355 0.106,-0.344 0.043,-0.387 v -0.375 l -0.028,-0.339 -0.058,-0.317 -0.121,-0.328 -0.149,-0.297 -0.164,-0.254 -0.328,-0.445 -0.39,-0.285 -0.329,-0.164 -0.343,-0.075 -0.297,0.075 -0.281,0.254"
       style="fill:none;stroke:#ff00ff;stroke-width:0.85;stroke-linecap:round;stroke-linejoin:round;stroke-miterlimit:10;stroke-dasharray:none;stroke-opacity:1"
       transform="scale(1.3333333)" />
    <path
       id="path526"
       d="m 445.918,192.406 0.254,-0.164 0.312,-0.164 0.254,-0.16 0.297,-0.09 0.391,-0.09 h 0.344 l 0.328,0.18 0.25,0.312 0.105,0.329 -0.043,0.386 -0.226,0.43 -0.266,0.508 -0.195,0.238 -0.371,0.461 -0.196,0.27 -0.211,0.222 -0.207,0.238 -0.195,0.239 -0.281,0.375 -0.18,0.34 -0.09,0.316 -0.058,0.371 0.191,0.297 0.359,0.211 0.45,0.101 0.492,0.047 0.582,0.043 h 1.012 l 0.492,-0.027 0.554,0.027 0.536,0.032 0.48,0.089 0.402,0.075 0.371,0.058 0.329,0.074"
       style="fill:none;stroke:#808080;stroke-width:0.85;stroke-linecap:round;stroke-linejoin:round;stroke-miterlimit:10;stroke-dasharray:none;stroke-opacity:1"
       transform="scale(1.3333333)" />
    <path
       id="path527"
       d="m 512.828,165.988 0.328,0.239 0.328,-0.196 0.196,-0.254 0.238,-0.312 0.223,-0.445 0.269,-0.375 0.254,-0.418 0.328,-0.415 0.254,-0.476 0.266,-0.391 0.254,-0.429 0.238,-0.344 0.168,-0.27 0.012,0.493 -0.09,0.492 -0.028,0.566 v 0.524 l 0.075,0.625 0.043,0.328 0.046,0.312 0.075,0.328 0.09,0.328 0.105,0.297 0.176,0.567 0.164,0.508 0.152,0.476 0.133,0.43 0.133,0.328 0.105,0.359 0.09,0.328"
       style="fill:none;stroke:#808080;stroke-width:0.85;stroke-linecap:round;stroke-linejoin:round;stroke-miterlimit:10;stroke-dasharray:none;stroke-opacity:1"
       transform="scale(1.3333333)" />
    <path
       id="path528"
       d="m 514.008,137.941 0.328,0.164 0.297,-0.296 0.195,-0.286 0.281,-0.445 0.254,-0.465 0.196,-0.265 0.179,-0.286 0.164,-0.265 0.164,-0.285 0.164,-0.282 0.149,-0.312 0.133,-0.328 0.164,-0.301 0.164,-0.254 0.152,-0.312 0.133,-0.297 0.121,-0.281 0.207,-0.418 0.149,-0.403 0.089,-0.359 -0.164,0.269 -0.312,0.551 -0.164,0.313 -0.133,0.343 -0.242,0.805 -0.09,0.371 -0.043,0.403 -0.031,0.386 -0.012,0.391 -0.031,0.371 v 0.371 l 0.031,0.375 0.043,0.328 0.043,0.297 0.078,0.328 0.086,0.356 0.18,0.539 0.105,0.281 0.121,0.301 0.207,0.476 0.254,0.504 0.164,0.434 0.149,0.371 0.105,0.301"
       style="fill:none;stroke:#ff00ff;stroke-width:0.85;stroke-linecap:round;stroke-linejoin:round;stroke-miterlimit:10;stroke-dasharray:none;stroke-opacity:1"
       transform="scale(1.3333333)" />
    <path
       id="path529"
       d="m 294.625,169.398 -0.398,-0.168 -0.524,0.063 -0.547,0.062 -0.355,0.106 -0.399,0.125 -0.359,0.168 -0.336,0.23 -0.355,0.274 -0.399,0.25 -0.359,0.273 -0.336,0.293 -0.336,0.399 -0.399,0.355 -0.355,0.336 -0.293,0.398 -0.273,0.485 -0.297,0.437 -0.293,0.422 -0.231,0.504 -0.125,0.481 -0.168,0.461 -0.125,0.441 -0.086,0.418 0.043,0.398 v 0.692 l 0.063,0.336 0.168,0.293 0.168,0.254 0.355,0.441 0.274,0.164 0.461,0.191 0.359,0.063 0.293,-0.063 0.758,-0.125 0.398,-0.128 0.375,-0.168 0.317,-0.207 0.336,-0.192 0.335,-0.269 0.293,-0.231 0.231,-0.23 0.234,-0.254 0.188,-0.293 0.168,-0.317 0.273,-0.461 0.188,-0.417 0.105,-0.399 -0.273,0.273 -0.125,0.418 -0.188,0.524 -0.148,0.527 -0.063,0.543 -0.023,0.461 0.066,0.422 0.188,0.355 0.211,0.336 0.25,0.399 0.293,0.293 0.379,0.23 0.316,0.188"
       style="fill:none;stroke:#808080;stroke-width:0.85;stroke-linecap:round;stroke-linejoin:round;stroke-miterlimit:10;stroke-dasharray:none;stroke-opacity:1"
       transform="scale(1.3333333)" />
    <path
       id="path530"
       d="m 297.062,175.414 0.231,0.336 0.125,0.461 -0.082,0.629 -0.043,0.336 v 0.355 l -0.105,0.36 -0.083,0.336 -0.085,0.332 -0.02,0.316 -0.105,0.293 -0.168,0.504 -0.02,0.461 -0.105,0.336 -0.297,-0.231 -0.039,-0.504 0.039,-0.336 0.023,-0.312 0.082,-0.527 0.129,-0.5 0.168,-0.36 0.313,-0.336 0.148,-0.293 0.293,-0.187 0.422,-0.211 0.336,-0.063 0.355,-0.062 0.379,-0.043 0.313,-0.02 0.379,-0.043 H 300 l 0.59,0.106"
       style="fill:none;stroke:#808080;stroke-width:0.85;stroke-linecap:round;stroke-linejoin:round;stroke-miterlimit:10;stroke-dasharray:none;stroke-opacity:1"
       transform="scale(1.3333333)" />
    <path
       id="path531"
       d="m 303.969,176.086 0.316,0.187 -0.355,0.106 -0.36,0.273 -0.336,0.188 -0.398,0.293 -0.356,0.336 -0.296,0.336 -0.27,0.293 -0.254,0.293 -0.273,0.254 -0.336,0.441 -0.168,0.355 -0.02,0.336 0.168,0.356 h 0.313 l 0.402,-0.274 0.375,-0.355 0.359,-0.418 0.274,-0.461 0.23,-0.398 0.145,-0.36 0.148,-0.375 v 0.836 l 0.02,0.484 0.211,0.442 0.187,0.312 0.336,0.293 0.254,0.168 0.399,0.106 h 0.461"
       style="fill:none;stroke:#808080;stroke-width:0.85;stroke-linecap:round;stroke-linejoin:round;stroke-miterlimit:10;stroke-dasharray:none;stroke-opacity:1"
       transform="scale(1.3333333)" />
    <path
       id="path532"
       d="m 308.82,177.133 -0.168,0.398 -0.187,0.399 -0.403,0.398 -0.374,0.422 -0.231,0.461 -0.148,0.336 -0.086,0.293 0.043,0.336 0.293,0.082 0.503,-0.313 0.254,-0.273 0.211,-0.336 0.168,-0.356 0.188,-0.355 0.23,-0.441 0.168,-0.422 0.125,-0.418 0.149,-0.461 0.148,-0.504 0.168,-0.567 0.145,-0.542 0.129,-0.567 0.167,-0.523 0.083,-0.567 0.105,-0.527 0.168,-0.524 0.187,-0.523 0.149,-0.523 0.082,-0.504 0.148,-0.418 0.168,-0.399 0.063,-0.336 0.086,-0.461 0.144,-0.293 -0.144,0.629 -0.086,0.461 -0.106,0.481 -0.062,0.504 0.023,0.523 -0.023,0.485 -0.043,0.46 v 0.504 l 0.066,0.586 0.039,0.567 v 0.523 l 0.043,0.524 0.125,0.503 0.106,0.481 0.086,0.465 0.144,0.461 0.231,0.437 0.168,0.399 0.129,0.359 0.187,0.355 0.274,0.356 0.187,0.316 0.168,0.25 0.211,0.293"
       style="fill:none;stroke:#808080;stroke-width:0.85;stroke-linecap:round;stroke-linejoin:round;stroke-miterlimit:10;stroke-dasharray:none;stroke-opacity:1"
       transform="scale(1.3333333)" />
    <path
       id="path533"
       d="m 341.02,186.191 0.324,-0.129 0.176,-0.32 0.273,-0.531 0.176,-0.305 0.16,-0.32 0.129,-0.305 0.144,-0.304 0.16,-0.336 0.114,-0.289 0.129,-0.29 0.129,-0.304 0.16,-0.34 0.113,-0.352 0.113,-0.386 0.129,-0.399 0.145,-0.386 0.129,-0.403 0.078,-0.367 0.097,-0.336 0.145,-0.305 0.113,-0.308 0.176,-0.528 0.176,-0.418 0.097,-0.433 0.098,0.305 0.031,0.609 v 0.355 l -0.031,0.352 v 0.402 l 0.047,0.403 0.031,0.367 0.031,0.387 0.051,0.398 0.063,0.387 0.066,0.351 0.047,0.321 0.063,0.324 0.128,0.336 0.114,0.304 0.191,0.532 0.18,0.304 0.176,0.45 0.304,0.433 0.176,0.289 0.227,0.285 0.257,0.371"
       style="fill:none;stroke:#ff00ff;stroke-width:0.85;stroke-linecap:round;stroke-linejoin:round;stroke-miterlimit:10;stroke-dasharray:none;stroke-opacity:1"
       transform="scale(1.3333333)" />
    <path
       id="path534"
       d="m 342.082,184.121 0.356,0.047 0.398,-0.016 0.531,-0.047 0.578,0.016 0.532,-0.016 0.304,-0.031 0.356,-0.019 0.527,-0.063 0.309,-0.015 0.32,-0.047 0.531,-0.082"
       style="fill:none;stroke:#ff00ff;stroke-width:0.85;stroke-linecap:round;stroke-linejoin:round;stroke-miterlimit:10;stroke-dasharray:none;stroke-opacity:1"
       transform="scale(1.3333333)" />
    <path
       id="path535"
       d="m 348.125,182.242 -0.176,0.403 -0.242,0.464 -0.273,0.481 -0.129,0.433 -0.063,0.356 0.063,0.383 0.257,0.418 0.274,0.16 h 0.434 l 0.386,-0.129 0.418,-0.273 0.465,-0.336 0.352,-0.368 0.371,-0.418 0.258,-0.371 0.207,-0.304 0.195,-0.383 -0.18,0.254 -0.254,0.449 -0.113,0.289 -0.082,0.547 -0.047,0.387 0.016,0.367 0.113,0.304 0.223,0.227 0.273,0.16"
       style="fill:none;stroke:#ff00ff;stroke-width:0.85;stroke-linecap:round;stroke-linejoin:round;stroke-miterlimit:10;stroke-dasharray:none;stroke-opacity:1"
       transform="scale(1.3333333)" />
    <path
       id="path536"
       d="m 352.512,181.809 -0.067,0.402 0.18,0.305 0.191,0.304 0.274,0.289 0.305,0.289 0.257,0.305 0.305,0.289 0.227,0.336 -0.051,0.356 -0.254,0.269 -0.309,0.164 -0.449,0.176 -0.433,0.062 -0.321,0.083 -0.34,-0.051"
       style="fill:none;stroke:#ff00ff;stroke-width:0.85;stroke-linecap:round;stroke-linejoin:round;stroke-miterlimit:10;stroke-dasharray:none;stroke-opacity:1"
       transform="scale(1.3333333)" />
    <path
       id="path537"
       d="m 357.234,183.223 -0.238,0.273 -0.16,0.27 0.031,0.386 0.047,0.403 0.176,0.562 0.211,0.594 0.113,0.43 0.129,0.453 0.109,0.465 0.098,0.464 0.129,0.481 0.062,0.449 0.067,0.418 0.047,0.402 0.05,0.415 -0.035,0.386 -0.047,0.321 -0.082,0.335 -0.093,0.372 -0.145,0.304 -0.16,0.258 -0.324,0.527 -0.223,0.211 -0.469,0.289 -0.496,0.207 -0.433,-0.078 -0.434,-0.144 -0.371,-0.387 -0.387,-0.449 -0.144,-0.274 -0.11,-0.304 -0.05,-0.336 -0.047,-0.356 -0.051,-0.351 -0.031,-0.367 v -0.739 l 0.031,-0.308 0.098,-0.285 0.128,-0.29 0.129,-0.324 0.161,-0.304 0.226,-0.254 0.223,-0.227 0.484,-0.367 0.305,-0.16"
       style="fill:none;stroke:#ff00ff;stroke-width:0.85;stroke-linecap:round;stroke-linejoin:round;stroke-miterlimit:10;stroke-dasharray:none;stroke-opacity:1"
       transform="scale(1.3333333)" />
    <path
       id="path538"
       d="m 360.625,183.703 -0.367,0.098 -0.34,0.273 -0.32,0.305 -0.223,0.383 -0.18,0.355 -0.113,0.367 0.113,0.403 h 0.356 l 0.351,-0.145 0.45,-0.304 0.453,-0.403 0.398,-0.387 0.293,-0.398 0.223,-0.32 0.176,-0.356 -0.305,0.192 -0.176,0.289 -0.129,0.371 0.031,0.402 0.098,0.383 0.176,0.355 0.211,0.254 0.32,0.227 0.352,0.176"
       style="fill:none;stroke:#ff00ff;stroke-width:0.85;stroke-linecap:round;stroke-linejoin:round;stroke-miterlimit:10;stroke-dasharray:none;stroke-opacity:1"
       transform="scale(1.3333333)" />
    <path
       id="path539"
       d="m 364.34,183.445 -0.195,0.321 -0.079,0.355 -0.082,0.402 0.176,0.305 0.356,-0.016 0.418,-0.179 0.418,-0.207 0.351,-0.176 0.289,-0.082 0.371,0.113 0.16,0.418 0.067,0.336 0.16,0.258"
       style="fill:none;stroke:#ff00ff;stroke-width:0.85;stroke-linecap:round;stroke-linejoin:round;stroke-miterlimit:10;stroke-dasharray:none;stroke-opacity:1"
       transform="scale(1.3333333)" />
    <path
       id="path540"
       d="m 368.438,183.141 0.207,0.226 0.226,0.383 0.129,0.305 0.129,0.324 0.094,0.351 0.129,0.434 0.144,0.496 0.113,0.516 0.067,0.496 0.109,0.531 0.113,0.559 0.082,0.5 0.047,0.449 0.032,0.449 0.015,0.465 -0.015,0.367 -0.047,0.356 -0.082,0.351 -0.094,0.387 -0.129,0.305 -0.34,0.48 -0.222,0.242 -0.485,0.289 -0.578,0.145 -0.32,-0.031 -0.336,-0.067 -0.324,-0.113 -0.305,-0.094 -0.274,-0.18 -0.257,-0.222 -0.223,-0.258 -0.176,-0.273 -0.179,-0.305 -0.176,-0.305 -0.16,-0.304 -0.067,-0.321 -0.078,-0.351 -0.082,-0.325 -0.047,-0.336 0.031,-0.32 0.016,-0.336 0.035,-0.32 0.047,-0.324 0.129,-0.305 0.129,-0.289 0.273,-0.527 0.45,-0.403 0.304,-0.191 0.387,-0.176 0.418,-0.113 0.433,-0.113 0.403,-0.161 0.433,-0.144 0.45,-0.113 0.418,-0.094 0.351,-0.098 0.356,-0.082"
       style="fill:none;stroke:#ff00ff;stroke-width:0.85;stroke-linecap:round;stroke-linejoin:round;stroke-miterlimit:10;stroke-dasharray:none;stroke-opacity:1"
       transform="scale(1.3333333)" />
    <path
       id="path541"
       d="m 374.512,182.066 -0.34,-0.062 -0.399,0.109 -0.5,0.176 -0.515,0.289 -0.399,0.356 -0.402,0.351 -0.273,0.387 -0.161,0.351 0.047,0.403 0.082,0.304 0.254,0.352 0.227,0.305 0.305,0.324 0.32,0.207 0.402,0.258 0.289,0.144 0.227,0.223 -0.258,0.16 -0.352,0.098 -0.484,0.047 -0.496,0.05 -0.402,0.047 -0.34,-0.066"
       style="fill:none;stroke:#ff00ff;stroke-width:0.85;stroke-linecap:round;stroke-linejoin:round;stroke-miterlimit:10;stroke-dasharray:none;stroke-opacity:1"
       transform="scale(1.3333333)" />
    <path
       id="path542"
       d="m 382.273,176.996 0.094,0.352 -0.176,0.449 -0.16,0.273 -0.176,0.305 -0.175,0.336 -0.18,0.355 -0.176,0.368 -0.176,0.386 -0.175,0.368 -0.196,0.402 -0.222,0.433 -0.258,0.434 -0.227,0.402 -0.207,0.399 -0.179,0.402 -0.176,0.387 -0.176,0.351 -0.144,0.368 -0.129,0.402 -0.129,0.355 -0.129,0.305 -0.098,0.305 -0.047,0.336 -0.176,0.578 -0.113,0.547 -0.047,0.48 0.047,0.449 0.113,0.383"
       style="fill:none;stroke:#808080;stroke-width:0.85;stroke-linecap:round;stroke-linejoin:round;stroke-miterlimit:10;stroke-dasharray:none;stroke-opacity:1"
       transform="scale(1.3333333)" />
    <path
       id="path543"
       d="m 343.816,193.605 -0.046,0.352 -0.145,0.484 -0.176,0.321 -0.211,0.336 -0.207,0.351 -0.195,0.403 -0.434,0.722 -0.175,0.352 -0.129,0.433 -0.145,0.387 -0.16,0.352 -0.129,0.371 -0.062,0.398 -0.082,0.387 -0.082,0.32 v 0.336 l 0.113,0.547 0.226,0.449 0.403,0.336 0.527,0.227 0.355,0.047 h 0.305 l 0.305,-0.016 0.355,-0.062 0.403,-0.098 0.382,-0.098 0.325,-0.125 0.351,-0.144 0.387,-0.18 0.289,-0.238 0.258,-0.227 0.273,-0.191"
       style="fill:none;stroke:#808080;stroke-width:0.85;stroke-linecap:round;stroke-linejoin:round;stroke-miterlimit:10;stroke-dasharray:none;stroke-opacity:1"
       transform="scale(1.3333333)" />
    <path
       id="path544"
       d="m 342.852,198.773 0.355,0.016 0.387,-0.047 0.48,-0.097 0.563,-0.129 0.449,-0.176 0.484,-0.145 0.368,-0.257 0.402,-0.223 0.34,-0.227"
       style="fill:none;stroke:#808080;stroke-width:0.85;stroke-linecap:round;stroke-linejoin:round;stroke-miterlimit:10;stroke-dasharray:none;stroke-opacity:1"
       transform="scale(1.3333333)" />
    <path
       id="path545"
       d="m 344.461,194.582 0.367,-0.016 0.582,-0.16 0.336,-0.078 0.352,-0.051 0.324,-0.047 0.305,-0.078 0.335,-0.05 0.325,-0.016 0.562,-0.113"
       style="fill:none;stroke:#808080;stroke-width:0.85;stroke-linecap:round;stroke-linejoin:round;stroke-miterlimit:10;stroke-dasharray:none;stroke-opacity:1"
       transform="scale(1.3333333)" />
    <path
       id="path546"
       d="m 350.871,197.633 0.035,0.351 -0.066,0.356 -0.113,0.449 -0.079,0.418 -0.082,0.496 -0.078,0.449 v 0.403 l 0.032,0.351 0.093,0.305 0.227,0.387"
       style="fill:none;stroke:#808080;stroke-width:0.85;stroke-linecap:round;stroke-linejoin:round;stroke-miterlimit:10;stroke-dasharray:none;stroke-opacity:1"
       transform="scale(1.3333333)" />
    <path
       id="path547"
       d="m 352.512,198.02 0.258,0.253 0.128,0.274 -0.035,0.402 -0.047,0.305 -0.097,0.418 -0.129,0.418 -0.031,0.367 0.257,0.258 0.305,-0.16 0.356,-0.243 0.382,-0.351 0.356,-0.258 0.273,-0.223 0.387,-0.179 0.109,0.304 -0.015,0.418 -0.031,0.418 0.046,0.321 0.082,0.355 0.258,0.223"
       style="fill:none;stroke:#808080;stroke-width:0.85;stroke-linecap:round;stroke-linejoin:round;stroke-miterlimit:10;stroke-dasharray:none;stroke-opacity:1"
       transform="scale(1.3333333)" />
    <path
       id="path548"
       d="m 357.125,198.629 0.238,0.289 0.129,0.289 0.129,0.32 0.129,0.434 0.098,0.48 0.129,0.532 0.144,0.527 0.129,0.5 0.109,0.496 0.114,0.527 0.129,0.563 0.046,0.531 0.036,0.496 v 1.043 l -0.082,0.481 -0.098,0.453 -0.094,0.43 -0.113,0.371 -0.145,0.351 -0.175,0.305 -0.18,0.273 -0.223,0.227 -0.258,0.16 -0.5,0.145 -0.562,-0.129 -0.481,-0.321 -0.226,-0.273 -0.254,-0.305 -0.227,-0.336 -0.175,-0.418 -0.305,-0.914 -0.145,-0.484 -0.129,-0.496 -0.05,-0.512 -0.047,-0.469 -0.063,-0.433 v -0.43 l 0.063,-0.418 0.062,-0.387 0.129,-0.32 0.18,-0.305 0.223,-0.289 0.242,-0.242 0.242,-0.207 0.305,-0.176"
       style="fill:none;stroke:#808080;stroke-width:0.85;stroke-linecap:round;stroke-linejoin:round;stroke-miterlimit:10;stroke-dasharray:none;stroke-opacity:1"
       transform="scale(1.3333333)" />
    <path
       id="path549"
       d="m 362.121,199.316 -0.305,-0.175 -0.433,0.113 -0.547,0.273 -0.289,0.207 -0.32,0.418 -0.211,0.434 -0.145,0.352 -0.031,0.324 0.113,0.351 0.449,-0.015 0.403,-0.176 0.254,-0.18 0.257,-0.222 0.243,-0.227 0.257,-0.254 0.223,-0.258 0.211,-0.258 0.352,-0.464 0.308,-0.352 0.192,-0.355 -0.016,0.464 -0.129,0.594 -0.031,0.5 0.031,0.383 0.098,0.289 0.207,0.242"
       style="fill:none;stroke:#808080;stroke-width:0.85;stroke-linecap:round;stroke-linejoin:round;stroke-miterlimit:10;stroke-dasharray:none;stroke-opacity:1"
       transform="scale(1.3333333)" />
    <path
       id="path550"
       d="m 364.598,198.852 0.078,0.418 -0.031,0.464 0.128,0.403 0.403,-0.082 0.289,-0.176 0.367,-0.258 0.305,-0.238 0.386,-0.129 0.129,0.305 -0.113,0.402 -0.094,0.418 -0.082,0.433 0.082,0.336"
       style="fill:none;stroke:#808080;stroke-width:0.85;stroke-linecap:round;stroke-linejoin:round;stroke-miterlimit:10;stroke-dasharray:none;stroke-opacity:1"
       transform="scale(1.3333333)" />
    <path
       id="path551"
       d="m 369.32,198.645 0.082,0.304 0.094,1.766 -0.047,1.91 -0.082,1.668 -0.109,1.43 -0.211,1.218 -0.258,0.961 -0.258,0.723 -0.273,0.531 -0.27,0.383 -0.273,0.227 -0.516,0.175 -0.5,-0.175 -0.433,-0.434 -0.161,-0.352 -0.144,-0.371 -0.145,-0.382 -0.113,-0.387 -0.015,-0.402 -0.047,-0.418 -0.032,-0.415 v -0.371 l 0.047,-0.304 0.032,-0.321 0.015,-0.336 0.051,-0.304 0.351,-0.449 0.387,-0.434 0.258,-0.195 0.258,-0.207 0.238,-0.192 0.305,-0.18 0.355,-0.175 0.387,-0.176 0.367,-0.16 0.356,-0.129"
       style="fill:none;stroke:#808080;stroke-width:0.85;stroke-linecap:round;stroke-linejoin:round;stroke-miterlimit:10;stroke-dasharray:none;stroke-opacity:1"
       transform="scale(1.3333333)" />
    <path
       id="path552"
       d="m 372.758,198.148 -0.274,0.192 -0.382,0.16 -0.325,0.191 -0.336,0.274 -0.226,0.242 -0.047,0.398 0.129,0.372 0.273,0.207 0.465,0.175 0.289,0.082 0.485,0.176 0.464,0.176 0.45,0.195 0.355,0.207 0.258,0.274 0.047,0.304 -0.098,0.305 -0.367,0.274 -0.5,0.304 -0.531,0.305 -0.274,0.129 -0.433,0.242 -0.383,0.176 -0.242,0.207"
       style="fill:none;stroke:#808080;stroke-width:0.85;stroke-linecap:round;stroke-linejoin:round;stroke-miterlimit:10;stroke-dasharray:none;stroke-opacity:1"
       transform="scale(1.3333333)" />
    <path
       id="path553"
       d="m 383.027,198.852 -0.289,-0.161 h -0.351 l -0.453,0.098 -0.368,0.16 -0.371,0.176 -0.273,0.355 -0.129,0.399 0.211,0.258 0.48,-0.032 0.356,-0.175 0.367,-0.258 0.387,-0.371 0.355,-0.305 0.27,-0.351 0.293,-0.258 0.398,-0.289 0.274,0.175 0.128,0.403 0.083,0.804 v 0.543 l -0.032,0.594 -0.019,0.594 v 0.609 l -0.063,0.563 -0.062,0.496 -0.164,1.062 -0.129,0.45 -0.125,0.433 -0.113,0.481 -0.161,0.449 -0.195,0.402 -0.176,0.352 -0.176,0.336 -0.21,0.273 -0.258,0.258 -0.239,0.223 -0.257,0.179 -0.563,0.176 -0.531,0.016 -0.481,-0.176 -0.402,-0.227 -0.258,-0.433 -0.191,-0.528 -0.051,-0.593 -0.031,-0.34 0.051,-0.32 0.207,-0.579 0.097,-0.304 0.16,-0.305 0.192,-0.305 0.226,-0.304 0.223,-0.243 0.258,-0.222"
       style="fill:none;stroke:#808080;stroke-width:0.85;stroke-linecap:round;stroke-linejoin:round;stroke-miterlimit:10;stroke-dasharray:none;stroke-opacity:1"
       transform="scale(1.3333333)" />
    <path
       id="path554"
       d="m 386.355,198.035 -0.128,0.305 -0.016,0.305 -0.098,0.609 -0.062,0.305 -0.051,0.32 -0.016,0.305 -0.078,0.5 -0.051,0.398 -0.078,0.418 0.305,-0.238 0.383,-0.578 0.18,-0.325 0.175,-0.304 0.305,-0.481 0.289,-0.496 0.258,-0.355 0.273,-0.383 0.352,-0.192 0.308,-0.21 0.305,-0.047"
       style="fill:none;stroke:#808080;stroke-width:0.85;stroke-linecap:round;stroke-linejoin:round;stroke-miterlimit:10;stroke-dasharray:none;stroke-opacity:1"
       transform="scale(1.3333333)" />
    <path
       id="path555"
       d="m 391.801,198.34 -0.465,0.176 -0.274,0.16 -0.273,0.176 -0.242,0.226 -0.367,0.32 -0.227,0.403 -0.129,0.289 -0.031,0.351 0.305,0.243 0.355,-0.227 0.258,-0.223 0.223,-0.402 0.226,-0.336 0.176,-0.289 0.16,-0.258 0.066,0.434 -0.019,0.496 0.098,0.433 0.129,0.274 0.21,0.226 0.29,0.126"
       style="fill:none;stroke:#808080;stroke-width:0.85;stroke-linecap:round;stroke-linejoin:round;stroke-miterlimit:10;stroke-dasharray:none;stroke-opacity:1"
       transform="scale(1.3333333)" />
    <path
       id="path556"
       d="m 393.844,200.199 0.078,0.418 0.066,0.356 0.258,0.289 0.383,-0.242 0.226,-0.305 0.129,-0.274 0.098,-0.304 0.094,-0.289 0.226,-0.496 0.078,-0.305 0.082,-0.305 0.129,-0.273 0.063,-0.321 0.066,-0.355 0.047,-0.352 0.067,-0.386 0.078,-0.434 0.047,-0.418 0.05,-0.465 0.114,-0.465 0.078,-0.511 0.051,-0.485 0.062,-0.449 0.129,-0.383 0.047,-0.336 0.031,-0.308 0.082,-0.352 -0.226,0.227 -0.063,0.433 -0.062,0.465 -0.082,0.481 -0.047,0.511 v 0.532 l -0.051,0.464 -0.063,0.434 -0.015,0.449 0.015,0.516 v 0.832 l 0.032,0.402 0.097,0.45 0.078,0.433 0.051,0.367 0.047,0.387 0.113,0.32 0.063,0.336 0.066,0.324 0.047,0.336"
       style="fill:none;stroke:#808080;stroke-width:0.85;stroke-linecap:round;stroke-linejoin:round;stroke-miterlimit:10;stroke-dasharray:none;stroke-opacity:1"
       transform="scale(1.3333333)" />
    <path
       id="path557"
       d="m 351.629,195.32 0.16,0.309 0.191,0.367"
       style="fill:none;stroke:#808080;stroke-width:0.85;stroke-linecap:round;stroke-linejoin:round;stroke-miterlimit:10;stroke-dasharray:none;stroke-opacity:1"
       transform="scale(1.3333333)" />
    <path
       id="path558"
       d="m 374.734,184.234 0.258,0.239 0.418,0.031 h 0.34 l 0.352,-0.047 0.355,-0.031 0.398,-0.047 h 0.309"
       style="fill:none;stroke:#ff00ff;stroke-width:0.85;stroke-linecap:round;stroke-linejoin:round;stroke-miterlimit:10;stroke-dasharray:none;stroke-opacity:1"
       transform="scale(1.3333333)" />
    <path
       id="path610"
       d="m 362.77,136.684 -0.024,-0.457 0.024,-0.344 0.046,-0.321 0.043,-0.492 0.012,-0.32 0.094,-0.363 0.031,-0.321 0.094,-0.32 0.058,-0.367 0.09,-0.41 0.047,-0.457 0.113,-0.434 0.047,-0.363 0.09,-0.356 0.059,-0.398 0.054,-0.32 v -0.309"
       style="fill:none;stroke:#ff00ff;stroke-width:0.85;stroke-linecap:round;stroke-linejoin:round;stroke-miterlimit:10;stroke-dasharray:none;stroke-opacity:1"
       transform="scale(1.3333333)" />
    <path
       id="path611"
       d="m 414.082,180.215 0.172,-0.344 0.148,-0.375 0.125,-0.445 0.09,-0.391 0.071,-0.375 0.07,-0.379 0.148,-0.422 0.125,-0.355 0.137,-0.352 0.113,-0.343 0.137,-0.286 0.141,-0.378 0.168,-0.274 0.128,-0.308"
       style="fill:none;stroke:#ff00ff;stroke-width:0.85;stroke-linecap:round;stroke-linejoin:round;stroke-miterlimit:10;stroke-dasharray:none;stroke-opacity:1"
       transform="scale(1.3333333)" />
    <path
       id="path612"
       d="m 481.555,135.641 0.183,-0.286 0.125,-0.296 0.149,-0.34 0.14,-0.414 0.16,-0.375 0.137,-0.403 0.043,-0.304 0.059,-0.301 0.09,-0.328 0.07,-0.379"
       style="fill:none;stroke:#ff00ff;stroke-width:0.85;stroke-linecap:round;stroke-linejoin:round;stroke-miterlimit:10;stroke-dasharray:none;stroke-opacity:1"
       transform="scale(1.3333333)" />
  </g>
</svg>
