<?xml version="1.0" encoding="UTF-8" standalone="no"?>
<!-- Created with Inkscape (http://www.inkscape.org/) -->

<svg
   version="1.1"
   id="svg1"
   width="251.64398"
   height="139.30533"
   viewBox="0 0 251.64399 139.30533"
   sodipodi:docname="multi_graph.svg"
   inkscape:version="1.4.2 (f4327f4, 2025-05-13)"
   xmlns:inkscape="http://www.inkscape.org/namespaces/inkscape"
   xmlns:sodipodi="http://sodipodi.sourceforge.net/DTD/sodipodi-0.dtd"
   xmlns="http://www.w3.org/2000/svg"
   xmlns:svg="http://www.w3.org/2000/svg">
  <defs
     id="defs1" />
  <sodipodi:namedview
     id="namedview1"
     pagecolor="#ffffff"
     bordercolor="#000000"
     borderopacity="0.25"
     inkscape:showpageshadow="2"
     inkscape:pageopacity="0.0"
     inkscape:pagecheckerboard="0"
     inkscape:deskcolor="#d1d1d1"
     inkscape:zoom="0.79878967"
     inkscape:cx="106.41099"
     inkscape:cy="-160.24243"
     inkscape:window-width="1440"
     inkscape:window-height="878"
     inkscape:window-x="-6"
     inkscape:window-y="-6"
     inkscape:window-maximized="1"
     inkscape:current-layer="g1">
    <inkscape:page
       x="0"
       y="0"
       inkscape:label="1"
       id="page1"
       width="251.644"
       height="139.30533"
       margin="0"
       bleed="0" />
  </sodipodi:namedview>
  <g
     id="g1"
     inkscape:groupmode="layer"
     inkscape:label="1"
     transform="translate(-218.43867,-547.59466)">
    <path
       id="path619"
       d="m 187.012,459.137 0.101,-0.325 -0.074,0.368 -0.133,0.574 -0.074,0.312 -0.086,0.606 -0.148,0.5 -0.075,0.605 -0.058,0.309 -0.121,0.547 -0.043,0.488 -0.074,0.473 v 0.383 l -0.028,0.324 v 0.398 l 0.043,0.324"
       style="fill:none;stroke:#3333cc;stroke-width:0.85;stroke-linecap:round;stroke-linejoin:round;stroke-miterlimit:10;stroke-dasharray:none;stroke-opacity:1"
       transform="scale(1.3333333)" />
    <path
       id="path620"
       d="m 183.109,459.164 0.282,-0.144 0.414,-0.18 0.383,-0.235 0.531,-0.238 0.281,-0.117 0.547,-0.16 0.355,-0.09 0.325,-0.074 0.296,-0.059 0.325,-0.074 0.382,-0.074 0.329,-0.043 0.589,-0.016 h 0.383 l 0.578,-0.058 h 0.575 l 0.488,0.031"
       style="fill:none;stroke:#3333cc;stroke-width:0.85;stroke-linecap:round;stroke-linejoin:round;stroke-miterlimit:10;stroke-dasharray:none;stroke-opacity:1"
       transform="scale(1.3333333)" />
    <path
       id="path621"
       d="m 189.316,462.25 v 0.34 l -0.121,0.367 -0.16,0.281 -0.117,0.282 -0.106,0.41 -0.058,0.371 0.117,0.281 0.207,0.234 0.324,0.09 h 0.403 l 0.324,-0.117 0.281,-0.18 0.293,-0.281 0.192,-0.308 0.148,-0.368 0.047,-0.324 -0.031,-0.371 -0.133,-0.293 -0.238,-0.238 -0.325,-0.176 -0.355,-0.059 -0.324,-0.015 -0.325,0.117"
       style="fill:none;stroke:#3333cc;stroke-width:0.85;stroke-linecap:round;stroke-linejoin:round;stroke-miterlimit:10;stroke-dasharray:none;stroke-opacity:1"
       transform="scale(1.3333333)" />
    <path
       id="path622"
       d="m 193.527,461.082 -0.047,0.398 -0.16,0.446 -0.191,0.426 -0.133,0.324 -0.195,0.238 -0.192,0.324 0.399,-0.281 0.398,-0.457 0.254,-0.207 0.356,-0.352 0.398,-0.238 0.25,-0.176 0.34,-0.074 0.281,0.324 -0.047,0.368 -0.07,0.328 0.309,0.101 0.355,-0.101 0.367,-0.18 0.297,-0.102 0.442,-0.058 h 0.445 l 0.398,0.012 0.371,0.046 0.368,0.161 0.164,0.265 0.086,0.324 v 0.371 l -0.059,0.383 -0.102,0.399"
       style="fill:none;stroke:#3333cc;stroke-width:0.85;stroke-linecap:round;stroke-linejoin:round;stroke-miterlimit:10;stroke-dasharray:none;stroke-opacity:1"
       transform="scale(1.3333333)" />
    <path
       id="path623"
       d="m 196.258,455.035 -0.266,-0.238 -0.398,-0.293 -0.367,-0.164 -0.473,-0.192 -0.488,-0.175 -0.297,-0.106 -0.309,-0.086 -0.297,-0.074 -0.324,-0.059 -0.355,-0.074 -0.368,-0.074 -0.371,-0.059 -0.371,-0.074 -0.398,-0.074 -0.399,-0.043 h -0.367 l -0.371,-0.016 -0.441,-0.031 h -0.446 l -0.441,0.031 -0.445,0.043 -0.457,0.047 -0.473,0.043 -0.43,0.043 -0.429,0.074 -0.442,0.059 -0.441,0.074 -0.387,0.09 -0.367,0.117 -0.402,0.102 -0.368,0.09 -0.355,0.132 -0.324,0.207 -0.356,0.192 -0.34,0.191 -0.355,0.207 -0.34,0.297 -0.383,0.278 -0.34,0.281 -0.324,0.34 -0.324,0.382 -0.328,0.383 -0.309,0.399 -0.25,0.414 -0.238,0.445 -0.25,0.41 -0.238,0.399 -0.176,0.398 -0.164,0.445 -0.192,0.411 -0.16,0.398 -0.121,0.414 -0.117,0.441 -0.102,0.461 -0.105,0.469 -0.043,0.457 0.027,0.414 v 0.77 l 0.047,0.367 0.117,0.371 0.118,0.352 0.105,0.324 0.16,0.324 0.223,0.371 0.207,0.324 0.222,0.297 0.282,0.309 0.324,0.34 0.309,0.351 0.296,0.324 0.356,0.34 0.414,0.356 0.398,0.324 0.368,0.297 0.398,0.308 0.461,0.282 0.426,0.25 0.386,0.234 0.473,0.223 0.5,0.238 0.488,0.191 0.489,0.133 0.562,0.16 0.606,0.192 0.531,0.133 0.516,0.089 0.531,0.102 0.578,0.121 0.516,0.059 0.488,0.027 0.519,0.047 0.575,0.07 0.578,0.016 h 0.558 l 0.563,-0.016 0.562,-0.027 0.489,-0.043 0.425,-0.074 0.446,-0.059 0.441,-0.074 0.445,-0.121 0.442,-0.117 0.519,-0.118 0.547,-0.117 0.516,-0.105 0.457,-0.145 0.445,-0.133 0.442,-0.164 0.371,-0.16 0.324,-0.164 0.308,-0.191 0.297,-0.207 0.266,-0.207 0.223,-0.207 0.234,-0.235 0.238,-0.25 0.207,-0.312 0.176,-0.293 0.191,-0.281 0.196,-0.239 0.176,-0.265 0.191,-0.278 0.238,-0.281 0.219,-0.281 0.207,-0.281 0.223,-0.278 0.207,-0.281 0.176,-0.25 0.195,-0.281 0.16,-0.282 0.164,-0.265 0.117,-0.309 0.09,-0.297 0.191,-0.558 0.043,-0.324 0.016,-0.356 v -0.664 l -0.09,-0.574 -0.074,-0.324 -0.059,-0.313 -0.117,-0.281 -0.148,-0.266 -0.133,-0.277 -0.148,-0.281 -0.161,-0.282 -0.179,-0.281 -0.192,-0.25 -0.281,-0.516 -0.16,-0.488 -0.18,-0.484 -0.324,-0.43 -0.309,-0.441 -0.386,-0.43 -0.352,-0.266 -0.461,-0.324 -0.265,-0.148 -0.532,-0.176 -0.297,-0.117 -0.308,-0.106 -0.621,-0.101 -0.309,-0.106 -0.547,-0.086 -0.312,-0.074 -0.293,-0.058 -0.52,-0.059 -0.441,-0.09 -0.445,-0.074 -0.293,-0.09"
       style="fill:none;stroke:#3333cc;stroke-width:0.85;stroke-linecap:round;stroke-linejoin:round;stroke-miterlimit:10;stroke-dasharray:none;stroke-opacity:1"
       transform="scale(1.3333333)" />
    <path
       id="path624"
       d="m 239.254,456.73 0.047,0.372 -0.059,0.293 -0.191,0.488 -0.164,0.308 -0.176,0.325 -0.18,0.324 -0.101,0.297 -0.121,0.293 -0.118,0.324 -0.089,0.312 -0.118,0.575 -0.027,0.324 -0.016,0.312 -0.058,0.649 v 0.972 l 0.074,0.575 0.191,0.488 0.176,0.457 0.207,0.355"
       style="fill:none;stroke:#3333cc;stroke-width:0.85;stroke-linecap:round;stroke-linejoin:round;stroke-miterlimit:10;stroke-dasharray:none;stroke-opacity:1"
       transform="scale(1.3333333)" />
    <path
       id="path625"
       d="m 242.859,456.938 0.047,0.414 -0.074,0.398 -0.016,0.5 v 0.309 l -0.089,0.605 v 0.621 l -0.028,0.563 0.043,0.574 v 0.531 l 0.031,0.309 0.059,0.297 0.027,0.531 0.075,0.531 0.015,0.441"
       style="fill:none;stroke:#3333cc;stroke-width:0.85;stroke-linecap:round;stroke-linejoin:round;stroke-miterlimit:10;stroke-dasharray:none;stroke-opacity:1"
       transform="scale(1.3333333)" />
    <path
       id="path626"
       d="m 238.637,460.391 0.324,0.043 0.414,0.074 0.414,0.043 0.516,0.047 h 0.488 l 0.562,0.027 0.485,0.016 h 1.051"
       style="fill:none;stroke:#3333cc;stroke-width:0.85;stroke-linecap:round;stroke-linejoin:round;stroke-miterlimit:10;stroke-dasharray:none;stroke-opacity:1"
       transform="scale(1.3333333)" />
    <path
       id="path627"
       d="m 246.348,460.523 -0.368,0.207 -0.312,0.219 -0.414,0.18 -0.324,0.309 -0.282,0.296 -0.207,0.368 -0.191,0.398 -0.09,0.297 -0.043,0.367 0.074,0.324 0.325,-0.09 0.488,-0.25 0.281,-0.16 0.293,-0.191 0.254,-0.207 0.219,-0.207 0.387,-0.414 0.281,-0.442 0.234,-0.281 0.207,-0.355 -0.09,0.445 -0.027,0.473 v 0.457 l 0.043,0.41 0.148,0.355 0.164,0.324 0.278,0.207"
       style="fill:none;stroke:#3333cc;stroke-width:0.85;stroke-linecap:round;stroke-linejoin:round;stroke-miterlimit:10;stroke-dasharray:none;stroke-opacity:1"
       transform="scale(1.3333333)" />
    <path
       id="path628"
       d="m 249.762,461.527 -0.117,0.282 -0.09,0.336 -0.133,0.472 -0.059,0.383 -0.09,0.328 -0.089,0.352 0.074,-0.457 0.09,-0.309 0.117,-0.297 0.133,-0.277 0.164,-0.531 0.207,-0.399 0.16,-0.398 0.121,-0.371 0.207,-0.25"
       style="fill:none;stroke:#3333cc;stroke-width:0.85;stroke-linecap:round;stroke-linejoin:round;stroke-miterlimit:10;stroke-dasharray:none;stroke-opacity:1"
       transform="scale(1.3333333)" />
    <path
       id="path629"
       d="m 252.879,460.625 -0.09,0.34 v 0.68 l -0.117,0.339 -0.149,0.356 -0.043,0.324 -0.058,0.293 -0.106,0.355 -0.086,-0.371 v -0.398 l 0.071,-0.41 0.062,-0.43 0.235,-0.648 0.148,-0.325 0.297,-0.296 0.367,-0.075 0.356,0.047 h 0.695"
       style="fill:none;stroke:#3333cc;stroke-width:0.85;stroke-linecap:round;stroke-linejoin:round;stroke-miterlimit:10;stroke-dasharray:none;stroke-opacity:1"
       transform="scale(1.3333333)" />
    <path
       id="path630"
       d="m 255.465,460.48 0.176,0.325 0.312,0.16 0.383,0.09 0.324,0.074 0.387,0.117 0.265,0.281 0.118,0.457 0.027,0.356 v 0.457 l -0.043,0.558 -0.102,0.575 -0.132,0.636 -0.196,0.664 -0.218,0.606 -0.239,0.574 -0.234,0.649 -0.18,0.679 -0.191,0.649 -0.192,0.578 -0.175,0.558 -0.164,0.532 -0.192,0.457 -0.179,0.398 -0.192,0.371 -0.16,0.367 -0.195,0.266 -0.368,0.34 -0.371,0.207 -0.414,-0.117 -0.16,-0.266 -0.047,-0.519 v -0.352 l 0.016,-0.383 0.074,-0.445 0.117,-0.484 0.121,-0.563 0.118,-0.562 0.132,-0.543 0.207,-0.532 0.192,-0.515 0.176,-0.461 0.207,-0.426 0.269,-0.414 0.235,-0.399 0.207,-0.324 0.25,-0.297 0.191,-0.324 0.207,-0.293 0.281,-0.238 0.34,-0.207"
       style="fill:none;stroke:#3333cc;stroke-width:0.85;stroke-linecap:round;stroke-linejoin:round;stroke-miterlimit:10;stroke-dasharray:none;stroke-opacity:1"
       transform="scale(1.3333333)" />
    <path
       id="path631"
       d="m 264.832,463.566 -0.344,3.176 -1.019,3.031 -1.649,2.739 -2.199,2.32 -2.648,1.797 -2.969,1.183 -3.152,0.516 -3.196,-0.172 -3.078,-0.855 -2.824,-1.5 -2.438,-2.067 -1.933,-2.546 -1.344,-2.903 -0.687,-3.121 v -3.195 l 0.687,-3.125 1.344,-2.899 1.933,-2.547 2.438,-2.07 2.824,-1.496 3.078,-0.855 3.196,-0.172 3.152,0.515 2.969,1.184 2.648,1.793 2.199,2.32 1.649,2.742 1.019,3.028 0.344,3.179"
       style="fill:none;stroke:#3333cc;stroke-width:0.85;stroke-linecap:round;stroke-linejoin:round;stroke-miterlimit:10;stroke-dasharray:none;stroke-opacity:1"
       transform="scale(1.3333333)" />
    <path
       id="path632"
       d="m 211.02,489.398 -0.118,0.473 -0.132,0.488 -0.075,0.606 -0.015,0.34 -0.059,0.351 -0.016,0.34 v 0.324 l -0.027,0.325 -0.047,0.324 -0.011,0.328 v 0.676 l 0.011,0.562 0.074,0.5 0.016,0.414 0.106,0.442 0.058,0.445"
       style="fill:none;stroke:#3333cc;stroke-width:0.85;stroke-linecap:round;stroke-linejoin:round;stroke-miterlimit:10;stroke-dasharray:none;stroke-opacity:1"
       transform="scale(1.3333333)" />
    <path
       id="path633"
       d="m 212.926,489.457 0.207,0.297 0.043,0.398 v 0.813 l -0.012,0.34 -0.031,0.351 v 0.399 l 0.031,0.414 -0.031,0.398 -0.016,0.367 -0.027,0.371 v 0.383 l -0.016,0.356 -0.031,0.617 0.031,0.355 v 0.489 l 0.09,0.441 0.012,0.324"
       style="fill:none;stroke:#3333cc;stroke-width:0.85;stroke-linecap:round;stroke-linejoin:round;stroke-miterlimit:10;stroke-dasharray:none;stroke-opacity:1"
       transform="scale(1.3333333)" />
    <path
       id="path634"
       d="m 210.031,493.414 h 0.59 l 0.516,-0.047 0.535,0.031 0.351,0.016 0.579,-0.047 0.308,-0.027 0.328,-0.016 0.532,-0.09 0.292,-0.058"
       style="fill:none;stroke:#3333cc;stroke-width:0.85;stroke-linecap:round;stroke-linejoin:round;stroke-miterlimit:10;stroke-dasharray:none;stroke-opacity:1"
       transform="scale(1.3333333)" />
    <path
       id="path635"
       d="m 217.254,494.312 0.371,0.075 0.367,-0.176 0.356,-0.313 0.207,-0.324 0.047,-0.398 -0.09,-0.34 -0.282,-0.352 -0.308,-0.132 -0.414,-0.032 -0.488,0.118 -0.458,0.238 -0.238,0.191 -0.234,0.207 -0.371,0.426 -0.149,0.266 -0.265,0.457 -0.192,0.488 -0.074,0.441 0.102,0.446 0.136,0.367 0.278,0.398 0.328,0.282 0.457,0.207 0.472,0.089"
       style="fill:none;stroke:#3333cc;stroke-width:0.85;stroke-linecap:round;stroke-linejoin:round;stroke-miterlimit:10;stroke-dasharray:none;stroke-opacity:1"
       transform="scale(1.3333333)" />
    <path
       id="path636"
       d="m 219.281,495.48 0.043,0.399 0.117,-0.281 0.133,-0.446 0.074,-0.293 0.118,-0.472 0.164,-0.399 0.101,-0.367 0.196,-0.297 0.281,-0.281 0.293,-0.207"
       style="fill:none;stroke:#3333cc;stroke-width:0.85;stroke-linecap:round;stroke-linejoin:round;stroke-miterlimit:10;stroke-dasharray:none;stroke-opacity:1"
       transform="scale(1.3333333)" />
    <path
       id="path637"
       d="m 224.156,492.793 -0.117,0.441 -0.207,0.43 -0.238,0.473 -0.25,0.398 -0.149,0.367 -0.207,0.25 -0.207,0.356 0.356,-0.266 0.222,-0.222 0.235,-0.278 0.207,-0.265 0.207,-0.223 0.222,-0.207 0.293,-0.356 0.282,-0.234 0.238,-0.207 0.016,0.371 -0.09,0.309 -0.149,0.34 -0.043,0.308 v 0.324 l 0.352,0.016 0.297,-0.117 0.383,-0.164 0.339,-0.102 0.313,-0.058 0.367,0.234 0.121,0.281 0.086,0.399 0.09,0.339"
       style="fill:none;stroke:#3333cc;stroke-width:0.85;stroke-linecap:round;stroke-linejoin:round;stroke-miterlimit:10;stroke-dasharray:none;stroke-opacity:1"
       transform="scale(1.3333333)" />
    <path
       id="path638"
       d="m 229.52,493.664 -0.133,0.281 -0.164,0.278 -0.161,0.371 -0.148,0.355 -0.059,0.399 v 0.425 l 0.043,0.309 0.207,0.371"
       style="fill:none;stroke:#3333cc;stroke-width:0.85;stroke-linecap:round;stroke-linejoin:round;stroke-miterlimit:10;stroke-dasharray:none;stroke-opacity:1"
       transform="scale(1.3333333)" />
    <path
       id="path639"
       d="m 230.969,494.047 -0.121,0.371 -0.086,0.336 0.176,0.266 0.398,-0.235 0.34,-0.281 0.383,-0.293 0.371,-0.266 0.297,-0.058 0.324,0.011 0.355,0.164 0.176,0.399 -0.016,0.324 -0.086,0.442 -0.105,0.296 -0.117,0.399 0.074,0.367"
       style="fill:none;stroke:#3333cc;stroke-width:0.85;stroke-linecap:round;stroke-linejoin:round;stroke-miterlimit:10;stroke-dasharray:none;stroke-opacity:1"
       transform="scale(1.3333333)" />
    <path
       id="path640"
       d="m 236.492,494.992 0.313,-0.043 0.367,-0.148 0.371,-0.207 0.414,-0.223 0.309,-0.191 0.207,-0.25 0.043,-0.356 -0.235,-0.25 -0.398,-0.074 -0.34,0.074 -0.371,0.176 -0.367,0.355 -0.387,0.399 -0.25,0.441 -0.207,0.387 -0.031,0.426 0.047,0.34 0.191,0.355 0.398,0.34 0.325,0.145 0.398,0.058 0.43,-0.012 0.312,-0.031 h 0.34 l 0.383,-0.058 0.34,-0.118 0.324,-0.117"
       style="fill:none;stroke:#3333cc;stroke-width:0.85;stroke-linecap:round;stroke-linejoin:round;stroke-miterlimit:10;stroke-dasharray:none;stroke-opacity:1"
       transform="scale(1.3333333)" />
    <path
       id="path641"
       d="m 228.469,489.637 0.265,0.25 0.297,0.074"
       style="fill:none;stroke:#3333cc;stroke-width:0.85;stroke-linecap:round;stroke-linejoin:round;stroke-miterlimit:10;stroke-dasharray:none;stroke-opacity:1"
       transform="scale(1.3333333)" />
    <path
       id="path642"
       d="m 231.469,485.535 -0.297,-0.207 -0.277,-0.133 -0.356,-0.191 -0.371,-0.133 -0.441,-0.191 -0.532,-0.196 -0.297,-0.086 -0.324,-0.089 -0.355,-0.09 -0.414,-0.102 -0.414,-0.117 -0.399,-0.105 -0.355,-0.075 -0.325,-0.07 -0.339,-0.121 -0.356,-0.086 -0.355,-0.074 -0.34,-0.059 -0.399,-0.074 -0.414,-0.074 -0.472,-0.043 -0.532,-0.016 H 222 l -0.594,-0.031 -0.5,-0.027 h -0.488 l -0.473,0.027 -0.457,0.047 -0.488,0.043 -0.52,0.027 -0.515,0.047 -0.547,0.074 -0.637,0.086 -0.621,0.09 -0.558,0.074 -0.446,0.09 -0.414,0.145 -0.472,0.105 -0.458,0.102 -0.441,0.132 -0.445,0.192 -0.488,0.133 -0.489,0.148 -0.484,0.176 -0.488,0.238 -0.489,0.207 -0.441,0.234 -0.402,0.297 -0.383,0.278 -0.399,0.297 -0.371,0.308 -0.324,0.297 -0.309,0.309 -0.297,0.324 -0.281,0.34 -0.25,0.355 -0.238,0.367 -0.25,0.34 -0.266,0.324 -0.207,0.383 -0.207,0.43 -0.207,0.398 -0.191,0.414 -0.164,0.485 -0.133,0.519 -0.16,0.485 -0.149,0.457 -0.089,0.472 -0.075,0.457 -0.058,0.414 -0.043,0.399 0.015,0.414 0.071,0.473 0.09,0.398 0.117,0.367 0.164,0.383 0.207,0.445 0.207,0.426 0.234,0.383 0.297,0.398 0.356,0.399 0.324,0.371 0.355,0.324 0.414,0.324 0.367,0.34 0.415,0.309 0.488,0.254 0.59,0.277 0.605,0.34 0.578,0.281 0.532,0.235 0.531,0.253 0.562,0.278 0.532,0.238 0.593,0.207 0.707,0.207 0.797,0.235 0.77,0.222 0.695,0.219 0.68,0.207 0.695,0.18 0.664,0.16 0.723,0.148 0.859,0.133 0.914,0.09 0.856,0.117 0.769,0.102 0.738,0.058 0.739,0.047 0.812,0.027 0.875,0.032 0.93,0.015 0.93,-0.015 0.812,-0.032 0.738,-0.027 0.727,-0.047 0.824,-0.058 0.887,-0.075 0.859,-0.074 0.856,-0.07 0.844,-0.063 0.722,-0.117 0.695,-0.148 0.696,-0.102 0.797,-0.101 0.812,-0.133 0.77,-0.164 0.765,-0.164 0.739,-0.145 0.652,-0.18 0.562,-0.207 0.532,-0.203 0.5,-0.195 0.519,-0.203 0.516,-0.238 0.531,-0.219 0.563,-0.266 0.503,-0.222 0.473,-0.239 0.414,-0.25 0.399,-0.265 0.34,-0.282 0.324,-0.265 0.281,-0.278 0.281,-0.312 0.235,-0.293 0.207,-0.313 0.191,-0.324 0.164,-0.324 0.133,-0.34 0.117,-0.324 0.207,-0.516 0.133,-0.574 0.059,-0.605 -0.075,-0.575 -0.086,-0.578 -0.105,-0.324 -0.117,-0.308 -0.133,-0.282 -0.133,-0.297 -0.223,-0.293 -0.207,-0.308 -0.207,-0.324 -0.234,-0.297 -0.25,-0.309 -0.254,-0.297 -0.266,-0.281 -0.265,-0.207 -0.309,-0.234 -0.297,-0.223 -0.281,-0.234 -0.266,-0.207 -0.265,-0.235 -0.281,-0.238 -0.282,-0.207 -0.281,-0.176 -0.293,-0.223 -0.328,-0.207 -0.34,-0.175 -0.34,-0.207 -0.367,-0.192 -0.398,-0.16 -0.399,-0.133 -0.445,-0.164 -0.457,-0.164 -0.445,-0.144 -0.411,-0.122 -0.429,-0.101 -0.457,-0.117 -0.446,-0.117 -0.398,-0.09 -0.383,-0.106 -0.445,-0.117 -0.43,-0.102 -0.383,-0.105 -0.398,-0.086 -0.414,-0.133 -0.399,-0.121 -0.371,-0.07 -0.367,-0.074 -0.398,-0.09 -0.356,-0.09 -0.324,-0.074 -0.621,-0.086 -0.313,-0.047 -0.484,-0.027 -0.488,-0.075 -0.371,-0.015 -0.325,-0.043 -0.324,0.043"
       style="fill:none;stroke:#3333cc;stroke-width:0.85;stroke-linecap:round;stroke-linejoin:round;stroke-miterlimit:10;stroke-dasharray:none;stroke-opacity:1"
       transform="scale(1.3333333)" />
    <path
       id="path643"
       d="m 209.699,440.559 -0.043,-0.414 -0.324,-0.266 -0.34,-0.176 -0.324,-0.148 -0.356,-0.102 -0.324,-0.105 -0.414,-0.016 -0.398,-0.102 -0.399,-0.089 -0.414,-0.043 -0.488,0.027 -0.488,-0.059 -0.473,-0.058 -0.457,-0.074 h -0.488 l -0.563,-0.043 -0.531,-0.075 -0.531,-0.015 -0.52,0.015 h -0.531 l -0.531,-0.015 -0.563,-0.028 h -0.574 l -0.637,0.028 -0.605,0.015 -0.574,0.032 -0.536,0.086 -0.605,0.046 -0.606,0.028 -0.605,0.058 -0.605,0.149 -0.664,0.09 -0.653,0.086 -0.648,0.148 -0.649,0.25 -0.679,0.164 -0.653,0.164 -0.648,0.25 -0.696,0.281 -0.679,0.235 -0.606,0.191 -0.652,0.176 -0.648,0.164 -0.665,0.191 -0.605,0.207 -0.594,0.223 -0.574,0.192 -0.605,0.207 -0.563,0.234 -0.547,0.234 -0.636,0.207 -0.618,0.207 -0.593,0.207 -0.532,0.25 -0.531,0.356 -0.578,0.25 -0.531,0.238 -0.516,0.293 -0.562,0.43 -0.563,0.383 -0.5,0.398 -0.531,0.488 -0.547,0.457 -0.547,0.473 -0.519,0.441 -0.458,0.426 -0.441,0.446 -0.488,0.367 -0.473,0.383 -0.414,0.429 -0.445,0.547 -0.457,0.484 -0.442,0.504 -0.398,0.649 -0.445,0.621 -0.442,0.59 -0.387,0.531 -0.382,0.5 -0.297,0.516 -0.367,0.457 -0.356,0.445 -0.281,0.516 -0.223,0.621 -0.265,0.633 -0.235,0.574 -0.179,0.605 -0.161,0.578 -0.191,0.516 -0.18,0.457 -0.148,0.488 -0.133,0.575 -0.191,0.488 -0.133,0.441 -0.117,0.531 -0.118,0.692 -0.132,0.695 -0.149,0.649 -0.121,0.648 -0.086,0.637 -0.121,0.558 -0.086,0.547 -0.074,0.606 -0.09,0.679 -0.09,0.75 -0.058,0.723 v 1.301 l -0.012,0.558 v 0.504 l 0.07,0.532 0.063,0.632 0.043,0.563 0.074,0.547 0.117,0.691 0.09,0.723 0.074,0.679 0.086,0.59 0.149,0.59 0.132,0.621 0.121,0.532 0.118,0.515 0.132,0.563 0.223,0.707 0.16,0.722 0.164,0.649 0.176,0.648 0.25,0.621 0.195,0.532 0.192,0.488 0.25,0.515 0.355,0.606 0.25,0.531 0.239,0.559 0.293,0.695 0.402,0.617 0.324,0.606 0.293,0.562 0.371,0.547 0.43,0.543 0.367,0.488 0.324,0.489 0.371,0.531 0.442,0.59 0.371,0.679 0.355,0.649 0.383,0.605 0.52,0.559 0.398,0.531 0.367,0.488 0.457,0.485 0.547,0.461 0.488,0.41 0.489,0.43 0.547,0.425 0.605,0.52 0.531,0.531 0.489,0.485 0.589,0.472 0.668,0.414 0.559,0.367 0.535,0.356 0.649,0.34 0.707,0.367 0.621,0.324 0.578,0.281 0.648,0.297 0.711,0.399 0.574,0.324 0.579,0.281 0.679,0.324 0.723,0.399 0.664,0.324 0.637,0.324 0.695,0.383 0.738,0.399 0.649,0.355 0.636,0.293 0.696,0.297 0.781,0.265 0.727,0.219 0.679,0.223 0.739,0.223 0.812,0.265 0.68,0.207 0.605,0.176 0.707,0.207 0.813,0.266 0.754,0.207 0.695,0.16 0.738,0.207 0.813,0.281 0.711,0.207 0.648,0.192 0.711,0.222 0.797,0.324 0.738,0.352 0.696,0.324 0.753,0.297 0.782,0.281 0.695,0.235 0.652,0.222 0.723,0.235 0.797,0.207 0.738,0.191 0.727,0.18 0.781,0.191 0.812,0.117 0.754,0.133 0.711,0.164 0.797,0.145 0.828,0.058 0.84,0.075 0.801,0.074 0.855,0.074 0.93,0.059 0.813,0.047 0.785,0.058 0.914,0.059 0.918,0.043 0.871,0.031 h 2.601 l 0.813,-0.031 0.766,-0.016 h 0.859 l 0.902,0.016 0.797,0.031 h 0.723 l 0.754,-0.047 0.843,-0.043 0.723,-0.031 h 0.649 l 0.742,-0.012 0.797,-0.031 0.664,-0.027 0.605,-0.016 0.649,-0.047 0.754,-0.043 0.621,-0.074 0.605,-0.074 0.68,-0.086 0.668,-0.121 0.633,-0.086 0.605,-0.106 0.652,-0.133 0.707,-0.207 0.606,-0.16 0.535,-0.148 0.605,-0.176 0.649,-0.238 0.605,-0.207 0.563,-0.16 0.574,-0.165 0.606,-0.277 0.535,-0.328 0.472,-0.277 0.5,-0.223 0.594,-0.191 0.485,-0.235 0.445,-0.222 0.5,-0.239 0.594,-0.203 0.531,-0.238 0.488,-0.234 0.5,-0.223 0.594,-0.266 0.5,-0.265 0.472,-0.282 0.504,-0.281 0.59,-0.308 0.457,-0.293 0.414,-0.297 0.504,-0.309 0.531,-0.34 0.458,-0.472 0.414,-0.457 0.472,-0.442 0.461,-0.371 0.426,-0.398 0.387,-0.399 0.441,-0.367 0.473,-0.34 0.398,-0.355 0.34,-0.325 0.371,-0.324 0.43,-0.414 0.367,-0.398 0.738,-0.739 0.414,-0.531 0.399,-0.531 0.355,-0.516 0.371,-0.488 0.399,-0.41 0.34,-0.473 0.308,-0.429 0.324,-0.399 0.387,-0.441 0.309,-0.442 0.281,-0.414 0.324,-0.441 0.34,-0.504 0.313,-0.606 0.281,-0.589 0.34,-0.547 0.324,-0.516 0.308,-0.5 0.282,-0.488 0.324,-0.442 0.324,-0.488 0.281,-0.473 0.266,-0.425 0.328,-0.489 0.383,-0.648 0.266,-0.68 0.238,-0.605 0.25,-0.559 0.308,-0.504 0.254,-0.515 0.235,-0.489 0.281,-0.484 0.34,-0.531 0.265,-0.504 0.223,-0.531 0.281,-0.649 0.325,-0.648 0.281,-0.649 0.265,-0.59 0.25,-0.531 0.239,-0.547 0.207,-0.546 0.207,-0.489 0.25,-0.5 0.281,-0.605 0.234,-0.723 0.18,-0.664 0.219,-0.648 0.254,-0.649 0.207,-0.605 0.16,-0.532 0.191,-0.515 0.207,-0.578 0.164,-0.559 0.118,-0.578 0.132,-0.723 0.192,-0.738 0.105,-0.691 0.075,-0.606 0.117,-0.574 0.148,-0.652 0.059,-0.575 0.043,-0.531 0.062,-0.59 0.059,-0.707 0.027,-0.754 v -0.664 l -0.027,-0.633 0.027,-0.578 -0.074,-0.531 -0.086,-0.516 -0.074,-0.5 -0.047,-0.562 -0.117,-0.531 -0.133,-0.532 -0.149,-0.648 -0.117,-0.605 -0.164,-0.618 -0.16,-0.562 -0.164,-0.516 -0.16,-0.504 -0.207,-0.484 -0.207,-0.414 -0.207,-0.442 -0.207,-0.488 -0.239,-0.488 -0.234,-0.516 -0.238,-0.574 -0.266,-0.516 -0.308,-0.503 -0.282,-0.473 -0.254,-0.414 -0.293,-0.399 -0.382,-0.382 -0.34,-0.368 -0.313,-0.382 -0.297,-0.457 -0.351,-0.414 -0.328,-0.372 -0.324,-0.425 -0.325,-0.504 -0.371,-0.559 -0.351,-0.488 -0.328,-0.442 -0.383,-0.382 -0.43,-0.387 -0.383,-0.336 -0.398,-0.328 -0.473,-0.324 -0.488,-0.325 -0.43,-0.308 -0.472,-0.25 -0.442,-0.324 -0.488,-0.282 -0.457,-0.207 -0.473,-0.222 -0.504,-0.282 -0.515,-0.265 -0.489,-0.25 -0.488,-0.324 -0.531,-0.25 -0.563,-0.282 -0.531,-0.25 -0.516,-0.207 -0.503,-0.148 -0.563,-0.235 -0.531,-0.222 -0.516,-0.207 -0.531,-0.16 -0.563,-0.192 -0.531,-0.191 -0.531,-0.164 -0.563,-0.133 -0.578,-0.164 -0.558,-0.16 -0.535,-0.133 -0.559,-0.149 -0.578,-0.117 -0.563,-0.09 -0.558,-0.086 -0.578,-0.105 -0.575,-0.102 -0.562,-0.105 -0.578,-0.059 -0.559,-0.117 -0.605,-0.09 -0.578,-0.058 -0.563,-0.016 -0.531,-0.086 -0.59,-0.105 -0.578,-0.059 -0.559,-0.058 -0.578,-0.043 -0.621,-0.047 -0.59,-0.012 -0.578,-0.031 -0.574,-0.074 -0.59,-0.059 -0.563,-0.059 h -0.531 l -0.578,-0.043 -0.574,-0.046 -0.563,-0.012 h -0.531 l -0.519,-0.063 -0.606,-0.011 h -0.574 l -0.563,0.011 h -1.062 l -0.535,0.032 -0.543,0.074 -0.578,0.043 -0.575,0.015 -0.535,0.059 -0.547,0.059 -0.5,0.031 -0.531,0.015 -0.519,0.059 -0.489,0.059 -0.441,0.027 -0.488,0.047 -0.489,0.043 -0.457,0.043 -0.441,0.047 -0.473,0.058 -0.461,0.043 -0.488,0.059 -0.41,0.074 -0.504,0.031 -0.457,0.043 -0.445,0.074 -0.399,0.059 -0.429,0.027 -0.442,0.047 -0.43,0.074 -0.414,0.102 -0.441,0.059 -0.414,0.015 -0.399,0.043 -0.371,0.047 -0.414,0.074 -0.425,0.071 -0.387,0.046 -0.309,0.075 -0.371,0.043 -0.367,0.015 -0.324,0.059 -0.313,0.043 -0.324,0.015 -0.605,0.075 -0.297,0.074 -0.325,0.016 h -0.312 l -0.574,0.117 -0.325,0.043 -0.562,0.031 -0.531,0.117 h -0.531 l -0.489,0.09 h -0.414 l -0.355,0.027 h -0.356 l -0.457,0.016 -0.441,0.074 -0.446,0.016 -0.324,0.058 -0.398,0.086 -0.297,0.09 -0.399,0.043 -0.324,0.074 -0.383,0.09 -0.386,0.117 -0.367,0.192 -0.282,0.25 -0.281,0.164 -0.25,0.234 -0.207,0.282"
       style="fill:none;stroke:#00c0ff;stroke-width:0.85;stroke-linecap:round;stroke-linejoin:round;stroke-miterlimit:10;stroke-dasharray:none;stroke-opacity:1"
       transform="scale(1.3333333)" />
    <path
       id="path644"
       d="m 204.824,440.07 -0.086,0.325 -0.148,0.324 -0.133,0.355 -0.164,0.34 -0.234,0.324 -0.254,0.297 -0.25,0.324 -0.266,0.383 -0.324,0.324 -0.328,0.297 -0.325,0.352 -0.367,0.383 -0.414,0.355 -0.414,0.34 -0.445,0.441 -0.442,0.473 -0.472,0.457 -0.446,0.445 -0.414,0.457 -0.398,0.485 -0.441,0.445 -0.43,0.41 -0.43,0.43 -0.367,0.414 -0.398,0.367 -0.372,0.356 -0.324,0.339 -0.297,0.368 -0.324,0.324 -0.308,0.312 -0.254,0.325 -0.192,0.324 -0.175,0.281 -0.239,0.426 0.031,0.355"
       style="fill:none;stroke:#00c0ff;stroke-width:0.85;stroke-linecap:round;stroke-linejoin:round;stroke-miterlimit:10;stroke-dasharray:none;stroke-opacity:1"
       transform="scale(1.3333333)" />
    <path
       id="path645"
       d="m 228.555,439.289 -0.325,0.59 -0.207,0.383 -0.207,0.386 -0.281,0.395 -0.312,0.398 -0.34,0.446 -0.367,0.472 -0.43,0.473 -0.441,0.457 -0.457,0.516 -0.489,0.574 -0.519,0.578 -0.5,0.59 -0.52,0.648 -0.5,0.692 -0.547,0.652 -0.531,0.617 -0.605,0.68 -0.653,0.738 -0.695,0.738 -0.68,0.766 -0.664,0.84 -0.68,0.859 -0.722,0.809 -0.664,0.769 -0.68,0.809 -0.711,0.859 -0.711,0.825 -0.664,0.797 -0.648,0.812 -0.637,0.813 -0.621,0.707 -0.606,0.679 -0.562,0.692 -0.559,0.722 -0.547,0.696 -0.488,0.648 -0.43,0.621 -0.367,0.559 -0.355,0.488 -0.266,0.441 -0.222,0.383"
       style="fill:none;stroke:#00c0ff;stroke-width:0.85;stroke-linecap:round;stroke-linejoin:round;stroke-miterlimit:10;stroke-dasharray:none;stroke-opacity:1"
       transform="scale(1.3333333)" />
    <path
       id="path646"
       d="M 245.355,438.934 214.754,476"
       style="fill:none;stroke:#00c0ff;stroke-width:0.85;stroke-linecap:round;stroke-linejoin:round;stroke-miterlimit:10;stroke-dasharray:none;stroke-opacity:1"
       transform="scale(1.3333333)" />
    <path
       id="path647"
       d="m 204.102,474.629 -0.164,0.457 -0.133,0.355 -0.192,0.442 -0.265,0.488 -0.34,0.5 -0.34,0.563 -0.371,0.574 -0.442,0.558 -0.472,0.579 -0.488,0.679 -0.489,0.692 -0.5,0.695 -0.519,0.676 -0.5,0.695 -0.52,0.781 -0.605,0.739 -0.606,0.753 -0.648,0.856 -0.68,0.898 -0.695,0.903 -0.649,0.808 -0.621,0.844 -0.605,0.856 -0.637,0.808 -0.59,0.785 -0.593,0.856 -0.575,0.812 -0.605,0.75 -0.563,0.664 -0.531,0.649 -0.488,0.605 -0.488,0.516 -0.442,0.43 -0.371,0.429 -0.309,0.383 -0.296,0.383 -0.282,0.34 -0.207,0.351 -0.191,0.281 -0.324,0.372"
       style="fill:none;stroke:#00c0ff;stroke-width:0.85;stroke-linecap:round;stroke-linejoin:round;stroke-miterlimit:10;stroke-dasharray:none;stroke-opacity:1"
       transform="scale(1.3333333)" />
    <path
       id="path648"
       d="m 189.844,476.371 -0.192,0.234 -0.238,0.25 -0.281,0.325 -0.293,0.34 -0.695,0.695 -0.372,0.398 -0.367,0.473 -0.429,0.426 -0.442,0.445 -0.445,0.527 -0.414,0.594 -0.457,0.574 -0.489,0.559 -0.488,0.594 -0.547,0.675 -0.531,0.606 -0.5,0.578 -0.488,0.633 -0.473,0.664 -0.488,0.648 -0.457,0.606 -0.43,0.574 -0.371,0.563 -0.398,0.5 -0.368,0.445 -0.328,0.426 -0.293,0.429 -0.281,0.352 -0.25,0.281 -0.223,0.238"
       style="fill:none;stroke:#00c0ff;stroke-width:0.85;stroke-linecap:round;stroke-linejoin:round;stroke-miterlimit:10;stroke-dasharray:none;stroke-opacity:1"
       transform="scale(1.3333333)" />
    <path
       id="path649"
       d="m 179.234,472.266 -0.265,0.179 -0.356,0.16 -0.281,0.165 -0.355,0.191 -0.368,0.176 -0.414,0.222 -0.441,0.297 -0.461,0.278 -0.473,0.281 -0.457,0.34 -0.441,0.441 -0.477,0.473 -0.484,0.488 -0.488,0.531 -0.504,0.532 -0.531,0.484 -0.547,0.488 -0.504,0.504 -0.516,0.59 -0.488,0.5 -0.399,0.473 -0.339,0.5 -0.309,0.531 -0.297,0.488 -0.25,0.442 -0.164,0.414 -0.102,0.398 -0.058,0.324 0.101,0.457"
       style="fill:none;stroke:#00c0ff;stroke-width:0.85;stroke-linecap:round;stroke-linejoin:round;stroke-miterlimit:10;stroke-dasharray:none;stroke-opacity:1"
       transform="scale(1.3333333)" />
    <path
       id="path650"
       d="m 234.434,473.285 -0.282,0.457 -0.398,0.446 -0.207,0.277 -0.176,0.371 -0.238,0.352 -0.235,0.339 -0.207,0.399 -0.164,0.398 -0.207,0.34 -0.207,0.356 -0.191,0.367 -0.176,0.414 -0.238,0.355 -0.207,0.293 -0.16,0.324 -0.149,0.372 -0.164,0.324 -0.133,0.281 -0.074,0.309 -0.012,0.367 -0.031,0.34 -0.027,0.312"
       style="fill:none;stroke:#00c0ff;stroke-width:0.85;stroke-linecap:round;stroke-linejoin:round;stroke-miterlimit:10;stroke-dasharray:none;stroke-opacity:1"
       transform="scale(1.3333333)" />
    <path
       id="path651"
       d="m 249.641,480.797 -0.446,0.441 -0.234,0.282 -0.254,0.308 -0.281,0.324 -0.281,0.313 -0.278,0.34 -0.281,0.383 -0.281,0.339 -0.25,0.309 -0.239,0.324 -0.207,0.383 -0.234,0.312 -0.223,0.25 -0.191,0.293 -0.164,0.387 -0.176,0.324 -0.164,0.325 -0.117,0.339 -0.074,0.352 -0.09,0.324 -0.074,0.328 v 0.325"
       style="fill:none;stroke:#00c0ff;stroke-width:0.85;stroke-linecap:round;stroke-linejoin:round;stroke-miterlimit:10;stroke-dasharray:none;stroke-opacity:1"
       transform="scale(1.3333333)" />
    <path
       id="path652"
       d="m 265.051,482.273 -0.196,0.399 -0.308,0.398 -0.164,0.278 -0.207,0.386 -0.25,0.368 -0.281,0.355 -0.25,0.41 -0.25,0.52 -0.329,0.531 -0.324,0.559 -0.355,0.621 -0.367,0.691 -0.43,0.652 -0.414,0.633 -0.414,0.664 -0.442,0.739 -0.445,0.722 -0.41,0.723 -0.403,0.766 -0.367,0.785 -0.414,0.734 -0.398,0.695 -0.371,0.707 -0.383,0.739 -0.414,0.664 -0.399,0.648 -0.371,0.68 -0.34,0.664 -0.382,0.637 -0.34,0.558 -0.309,0.547"
       style="fill:none;stroke:#00c0ff;stroke-width:0.85;stroke-linecap:round;stroke-linejoin:round;stroke-miterlimit:10;stroke-dasharray:none;stroke-opacity:1"
       transform="scale(1.3333333)" />
    <path
       id="path653"
       d="m 238.617,506.723 -0.164,0.265 -0.25,0.293 -0.398,0.414 -0.239,0.223 -0.207,0.219 -0.207,0.312 -0.25,0.25 -0.265,0.235 -0.223,0.281 -0.234,0.324 -0.282,0.297 -0.238,0.293 -0.207,0.355 -0.176,0.356 -0.222,0.324 -0.207,0.324 -0.176,0.309 -0.149,0.308 -0.164,0.297 -0.16,0.282 -0.117,0.281 -0.164,0.484 -0.059,0.414"
       style="fill:none;stroke:#00c0ff;stroke-width:0.85;stroke-linecap:round;stroke-linejoin:round;stroke-miterlimit:10;stroke-dasharray:none;stroke-opacity:1"
       transform="scale(1.3333333)" />
    <path
       id="path654"
       d="m 274.965,454.973 -0.18,0.355 -0.308,0.531 -0.25,0.368 -0.282,0.445 -0.328,0.531 -0.351,0.574 -0.371,0.563 -0.368,0.543 -0.414,0.59 -0.445,0.652 -0.473,0.574 -0.441,0.574 -0.414,0.68 -0.445,0.707 -0.442,0.711 -0.445,0.664 -0.426,0.676 -0.43,0.664 -0.414,0.605 -0.398,0.563 -0.34,0.531 -0.355,0.559 -0.356,0.504 -0.293,0.472 -0.254,0.485 -0.265,0.457 -0.219,0.445 -0.196,0.367 -0.132,0.356"
       style="fill:none;stroke:#00c0ff;stroke-width:0.85;stroke-linecap:round;stroke-linejoin:round;stroke-miterlimit:10;stroke-dasharray:none;stroke-opacity:1"
       transform="scale(1.3333333)" />
    <path
       id="path655"
       d="m 262.508,441.812 -0.043,0.383 -0.164,0.399 -0.309,0.371 -0.328,0.484 -0.203,0.239 -0.371,0.41 -0.399,0.472 -0.414,0.457 -0.191,0.313 -0.18,0.265 -0.191,0.235 -0.281,0.515 -0.266,0.457 -0.223,0.446 -0.175,0.414"
       style="fill:none;stroke:#00c0ff;stroke-width:0.85;stroke-linecap:round;stroke-linejoin:round;stroke-miterlimit:10;stroke-dasharray:none;stroke-opacity:1"
       transform="scale(1.3333333)" />
    <path
       id="path656"
       d="m 223.527,435.066 0.325,-0.117 0.164,-0.324 0.16,-0.488 0.148,-0.278 0.106,-0.297 0.101,-0.308 0.133,-0.297 0.207,-0.324 0.149,-0.324 0.117,-0.325 0.164,-0.324 0.176,-0.371 0.164,-0.383 0.148,-0.367 0.16,-0.383 0.18,-0.429 0.148,-0.383 0.102,-0.356 0.148,-0.293 0.161,-0.265 0.195,-0.461 0.207,-0.352 -0.121,0.309 -0.149,0.488 -0.058,0.441 -0.028,0.34 0.161,0.356 h 0.328 l 0.351,-0.149 0.281,-0.175 0.254,-0.254 0.235,-0.266 0.265,-0.25 0.34,-0.25 0.266,-0.281 0.238,-0.25 0.25,-0.238 0.281,-0.235 0.207,-0.25 0.192,-0.238 0.414,-0.336 0.308,-0.266 0.282,-0.164 0.297,0.102 -0.016,0.371 -0.164,0.574 -0.102,0.297 -0.058,0.324 -0.074,0.383 -0.118,0.367 -0.121,0.328 -0.07,0.325 -0.121,0.617 -0.086,0.297 -0.047,0.308 -0.043,0.488 -0.043,0.442 0.012,0.383 -0.012,0.386 0.012,0.336"
       style="fill:none;stroke:#00c0ff;stroke-width:0.85;stroke-linecap:round;stroke-linejoin:round;stroke-miterlimit:10;stroke-dasharray:none;stroke-opacity:1"
       transform="scale(1.3333333)" />
    <path
       id="path657"
       d="m 235.449,429.285 -0.25,0.277 -0.281,0.313 -0.367,0.457 -0.223,0.281 -0.223,0.278 -0.207,0.254 -0.281,0.468 -0.234,0.371 -0.09,0.293 0.117,0.371 0.371,0.028 0.371,-0.192 0.34,-0.293 0.278,-0.324 0.238,-0.355 0.164,-0.282 0.191,-0.25 -0.074,0.372 -0.09,0.367 0.059,0.308 0.265,0.282 0.461,-0.032"
       style="fill:none;stroke:#00c0ff;stroke-width:0.85;stroke-linecap:round;stroke-linejoin:round;stroke-miterlimit:10;stroke-dasharray:none;stroke-opacity:1"
       transform="scale(1.3333333)" />
    <path
       id="path658"
       d="m 240.695,421.965 -0.265,0.531 -0.149,0.356 -0.133,0.339 -0.16,0.399 -0.148,0.441 -0.117,0.457 -0.121,0.516 -0.133,0.488 -0.16,0.457 -0.133,0.516 -0.121,0.578 -0.117,0.574 -0.118,0.559 -0.09,0.562 -0.074,0.532 -0.074,0.488 -0.059,0.441 -0.027,0.383 v 0.754 l 0.027,0.543 0.059,0.445"
       style="fill:none;stroke:#00c0ff;stroke-width:0.85;stroke-linecap:round;stroke-linejoin:round;stroke-miterlimit:10;stroke-dasharray:none;stroke-opacity:1"
       transform="scale(1.3333333)" />
    <path
       id="path659"
       d="m 236.559,429.18 0.429,0.164 0.34,-0.074 0.473,-0.09 0.34,-0.118 0.355,-0.164 0.324,-0.16 0.368,-0.148"
       style="fill:none;stroke:#00c0ff;stroke-width:0.85;stroke-linecap:round;stroke-linejoin:round;stroke-miterlimit:10;stroke-dasharray:none;stroke-opacity:1"
       transform="scale(1.3333333)" />
    <path
       id="path660"
       d="m 243.887,420.414 -0.282,0.371 -0.324,0.68 -0.234,0.484 -0.223,0.504 -0.238,0.574 -0.207,0.606 -0.234,0.605 -0.25,0.574 -0.27,0.59 -0.25,0.59 -0.25,0.563 -0.238,0.515 -0.192,0.5 -0.101,0.446 -0.106,0.398 -0.058,0.34 -0.028,0.324 0.118,0.426 0.281,0.223 0.367,-0.043 0.398,-0.207 0.266,-0.207 0.27,-0.239 0.203,-0.219 0.238,-0.222 0.457,-0.324 0.371,-0.266 0.324,-0.148 0.325,0.074 0.074,0.441 -0.117,0.578 -0.075,0.293 -0.058,0.324 -0.074,0.329 -0.09,0.308 -0.102,0.531 -0.016,0.442 v 0.34 l 0.09,0.308 0.207,0.282 0.325,0.132 0.355,-0.027"
       style="fill:none;stroke:#00c0ff;stroke-width:0.85;stroke-linecap:round;stroke-linejoin:round;stroke-miterlimit:10;stroke-dasharray:none;stroke-opacity:1"
       transform="scale(1.3333333)" />
    <path
       id="path661"
       d="m 247.789,431.512 0.191,-0.282 0.223,-0.25 0.235,-0.398 0.164,-0.324 0.089,-0.297 0.102,-0.41 -0.031,-0.356 -0.235,-0.25 -0.382,0.086 -0.473,0.239 -0.461,0.398 -0.266,0.223 -0.222,0.265 -0.192,0.25 -0.281,0.442 -0.176,0.414 v 0.414 l 0.117,0.277 0.266,0.254 0.328,0.117 h 0.5 l 0.504,-0.09 0.367,-0.074 0.356,-0.117 0.34,-0.133 0.398,-0.164 0.445,-0.191 0.442,-0.176 0.414,-0.191 0.445,-0.176"
       style="fill:none;stroke:#00c0ff;stroke-width:0.85;stroke-linecap:round;stroke-linejoin:round;stroke-miterlimit:10;stroke-dasharray:none;stroke-opacity:1"
       transform="scale(1.3333333)" />
    <path
       id="path662"
       d="m 303.082,455.195 0.133,0.399 -0.043,0.355 -0.074,0.531 -0.059,0.325 -0.117,0.574 -0.031,0.367 -0.043,0.313 -0.133,0.589 -0.106,0.356 -0.086,0.367 -0.074,0.356 -0.047,0.339 -0.043,0.325 -0.089,0.308 -0.161,0.547 -0.089,0.516 -0.075,0.457 -0.09,0.398 -0.117,0.297 -0.058,0.383 -0.09,0.293 -0.074,-0.324 -0.012,-0.352 0.012,-0.547 0.031,-0.578 0.074,-0.324 0.043,-0.324 0.016,-0.352 0.074,-0.398 0.101,-0.371 0.09,-0.399 0.09,-0.383 0.149,-0.398 0.175,-0.367 0.149,-0.356 0.101,-0.324 0.149,-0.324 0.18,-0.324 0.16,-0.329 0.148,-0.293 0.164,-0.281 0.235,-0.281 0.324,-0.484 0.445,-0.415 0.383,-0.355 0.445,-0.219 0.352,-0.191 0.328,-0.074 0.367,0.027 0.254,0.25 0.102,0.371 -0.059,0.383 -0.133,0.457 -0.25,0.441 -0.328,0.489 -0.383,0.414 -0.414,0.398 -0.441,0.367 -0.414,0.446 -0.446,0.382 -0.191,0.266 -0.176,0.25 -0.195,0.238 -0.277,0.442 -0.208,0.383 -0.046,0.355 0.074,0.441 0.281,0.297 0.297,0.145 0.324,0.133 0.43,0.191 0.367,0.207 0.457,0.281 0.402,0.266 0.485,0.309 0.402,0.296 0.41,0.356 0.371,0.293"
       style="fill:none;stroke:#3333cc;stroke-width:0.85;stroke-linecap:round;stroke-linejoin:round;stroke-miterlimit:10;stroke-dasharray:none;stroke-opacity:1"
       transform="scale(1.3333333)" />
    <path
       id="path663"
       d="m 309.777,460.375 -0.207,0.293 -0.191,0.355 -0.207,0.383 -0.207,0.489 -0.149,0.441 -0.043,0.398 v 0.446 l 0.102,0.324 0.18,0.293 0.367,0.312 0.371,0.059 h 0.426 l 0.386,-0.121 0.5,-0.203 0.34,-0.282 0.328,-0.296 0.192,-0.352 0.117,-0.371 -0.031,-0.34 -0.074,-0.398 -0.204,-0.399 -0.281,-0.324 -0.414,-0.223 -0.445,-0.07 -0.488,-0.031 -0.352,0.058 -0.297,0.059"
       style="fill:none;stroke:#3333cc;stroke-width:0.85;stroke-linecap:round;stroke-linejoin:round;stroke-miterlimit:10;stroke-dasharray:none;stroke-opacity:1"
       transform="scale(1.3333333)" />
    <path
       id="path664"
       d="m 313.84,459.812 -0.016,0.372 -0.058,0.308 -0.133,0.488 -0.16,0.485 -0.121,0.387 -0.133,0.351 -0.102,0.34 0.309,-0.016 0.34,-0.351 0.281,-0.254 0.281,-0.25 0.25,-0.207 0.281,-0.192 0.325,-0.191 0.281,-0.16 0.531,-0.207 0.488,-0.164 0.446,-0.016 h 0.441 l 0.324,0.133 0.282,0.191 0.25,0.414 0.062,0.356 0.012,0.34 -0.012,0.367 -0.031,0.398 -0.09,0.399 v 0.371 l 0.016,0.367"
       style="fill:none;stroke:#3333cc;stroke-width:0.85;stroke-linecap:round;stroke-linejoin:round;stroke-miterlimit:10;stroke-dasharray:none;stroke-opacity:1"
       transform="scale(1.3333333)" />
    <path
       id="path665"
       d="m 317.09,451.965 -0.176,-0.281 -0.312,-0.282 -0.278,-0.207 -0.328,-0.234 -0.457,-0.281 -0.516,-0.207 -0.281,-0.118 -0.297,-0.117 -0.293,-0.09 -0.312,-0.074 -0.324,-0.058 -0.34,-0.102 -0.356,-0.09 -0.355,-0.074 -0.367,-0.059 -0.399,-0.074 -0.371,-0.043 h -0.371 l -0.41,-0.031 -0.473,-0.016 h -0.461 l -0.472,0.016 -0.489,0.047 -0.484,0.043 -0.461,0.027 -0.441,0.074 -0.414,0.09 -0.473,0.09 -0.457,0.102 -0.473,0.105 -0.461,0.145 -0.484,0.132 -0.473,0.149 -0.461,0.164 -0.488,0.219 -0.484,0.222 -0.473,0.207 -0.414,0.223 -0.399,0.309 -0.414,0.293 -0.414,0.312 -0.398,0.367 -0.356,0.442 -0.371,0.429 -0.367,0.43 -0.371,0.457 -0.355,0.484 -0.368,0.489 -0.371,0.472 -0.355,0.5 -0.293,0.579 -0.313,0.531 -0.265,0.543 -0.192,0.59 -0.164,0.636 -0.191,0.606 -0.133,0.543 -0.074,0.562 -0.012,0.606 -0.047,0.558 -0.027,0.504 0.043,0.531 0.09,0.559 0.117,0.578 0.164,0.59 0.234,0.547 0.282,0.484 0.281,0.489 0.293,0.441 0.371,0.445 0.445,0.442 0.399,0.367 0.398,0.34 0.442,0.324 0.457,0.383 0.445,0.328 0.441,0.266 0.504,0.308 0.59,0.367 0.535,0.371 0.531,0.352 0.575,0.297 0.605,0.25 0.563,0.265 0.515,0.223 0.547,0.234 0.563,0.192 0.531,0.164 0.547,0.133 0.578,0.133 0.605,0.101 0.532,0.09 0.515,0.09 0.535,0.074 h 1.993 l 0.519,-0.047 0.484,-0.043 0.461,-0.043 0.473,-0.074 0.488,-0.117 0.457,-0.09 0.414,-0.106 0.442,-0.132 0.473,-0.235 0.386,-0.25 0.352,-0.25 0.371,-0.281 0.398,-0.25 0.356,-0.266 0.293,-0.265 0.297,-0.281 0.324,-0.266 0.312,-0.266 0.25,-0.281 0.309,-0.281 0.297,-0.281 0.25,-0.25 0.265,-0.235 0.254,-0.238 0.25,-0.293 0.207,-0.281 0.223,-0.25 0.223,-0.282 0.265,-0.324 0.207,-0.324 0.176,-0.324 0.223,-0.371 0.207,-0.367 0.16,-0.372 0.133,-0.382 0.164,-0.34 0.164,-0.324 0.086,-0.352 0.105,-0.34 0.117,-0.324 0.102,-0.356 0.063,-0.339 0.011,-0.356 0.047,-0.367 0.074,-0.398 v -0.383 l -0.047,-0.383 -0.027,-0.387 v -0.351 l -0.047,-0.372 -0.074,-0.367 -0.059,-0.355 -0.074,-0.293 -0.117,-0.324 -0.117,-0.328 -0.117,-0.309 -0.223,-0.547 -0.312,-0.516 -0.133,-0.293 -0.192,-0.312 -0.175,-0.266 -0.192,-0.277 -0.195,-0.313 -0.203,-0.339 -0.207,-0.352 -0.207,-0.324 -0.196,-0.281 -0.207,-0.297 -0.203,-0.309 -0.18,-0.265 -0.324,-0.442 -0.312,-0.445 -0.293,-0.293 -0.324,-0.313 -0.356,-0.203 -0.355,-0.207 -0.325,-0.09 -0.414,-0.074 -0.515,-0.027 -0.547,0.027 -0.52,0.133 -0.5,0.105"
       style="fill:none;stroke:#3333cc;stroke-width:0.85;stroke-linecap:round;stroke-linejoin:round;stroke-miterlimit:10;stroke-dasharray:none;stroke-opacity:1"
       transform="scale(1.3333333)" />
    <path
       id="path666"
       d="m 303.289,426.996 -0.277,0.18 -0.34,0.101 -0.547,0.043 -0.445,0.016 -0.532,0.031 -0.414,0.043 h -0.531 l -0.355,0.09 -0.563,0.074 -0.426,0.086 -0.562,0.031 -0.563,0.118 -0.324,0.043 -0.578,0.074 -0.309,0.105 -0.371,0.059 -0.367,0.015 -0.371,0.075 -0.352,0.132 -0.414,0.071 -0.414,0.047 -0.398,0.086 -0.356,0.222 -0.445,0.09 -0.414,0.043 -0.398,0.09 -0.383,0.191 -0.445,0.09 -0.426,0.043 -0.387,0.074 -0.383,0.192 -0.488,0.101 -0.488,0.106 -0.426,0.086 -0.356,0.133 -0.441,0.148 -0.445,0.133 -0.442,0.164 -0.414,0.16 -0.461,0.106 -0.441,0.085 -0.43,0.133 -0.457,0.149 -0.472,0.117 -0.43,0.105 -0.442,0.149 -0.472,0.133 -0.489,0.144 -0.457,0.121 -0.429,0.086 -0.446,0.09 -0.425,0.09 -0.43,0.101 -0.414,0.118 -0.457,0.105 -0.473,0.074 -0.414,0.071 -0.441,0.089 -0.446,0.118 -0.488,0.074 -0.457,0.058 -0.43,0.106 -0.398,0.133 -0.414,0.074 -0.414,0.043 -0.399,0.074 -0.414,0.16 -0.441,0.09 -0.398,0.043 -0.372,0.074 -0.398,0.133 -0.441,0.074 -0.414,0.047 -0.403,0.071 -0.383,0.132 -0.441,0.09 -0.43,0.074 -0.371,0.09 -0.34,0.145 -0.398,0.074 -0.399,0.047 -0.367,0.086 -0.328,0.191 -0.398,0.059 -0.399,0.031 -0.367,0.074 -0.34,0.207 -0.429,0.059 -0.383,0.027 -0.387,0.09 -0.293,0.207 -0.414,0.102 -0.43,0.062 -0.371,0.145 -0.293,0.238 -0.371,0.176 -0.355,0.148 -0.649,0.266 -0.371,0.117 -0.351,0.117 -0.329,0.149 -0.324,0.105 -0.367,0.117 -0.371,0.117 -0.371,0.133 -0.324,0.149 -0.797,0.234 -0.34,0.106 -0.309,0.117 -0.34,0.117 -0.355,0.117 -0.355,0.133 -0.34,0.148 -0.356,0.075 -0.324,0.089 -0.324,0.133 -0.324,0.117 -0.34,0.086 -0.356,0.106 -0.355,0.133 -0.324,0.191 -0.371,0.133 -0.368,0.117 -0.324,0.133 -0.254,0.223 -0.308,0.101 -0.325,0.106 -0.297,0.132 -0.312,0.235 -0.324,0.117 -0.293,0.09 -0.281,0.133 -0.282,0.191 -0.324,0.133 -0.297,0.117 -0.281,0.164 -0.281,0.234 -0.309,0.196 -0.266,0.16 -0.562,0.297 -0.355,0.117 -0.293,0.133 -0.266,0.16 -0.488,0.238 -0.297,0.086 -0.281,0.149 -0.532,0.265 -0.281,0.149 -0.281,0.133 -0.281,0.148 -0.293,0.133 -0.282,0.117 -0.281,0.133 -0.281,0.191 -0.324,0.133 -0.325,0.117 -0.297,0.164 -0.281,0.207 -0.355,0.149 -0.34,0.117 -0.309,0.16 -0.222,0.207 -0.309,0.164 -0.297,0.133 -0.265,0.16 -0.207,0.313 -0.282,0.16 -0.293,0.133 -0.254,0.207 -0.191,0.324 -0.25,0.281 -0.266,0.234 -0.222,0.223 -0.223,0.266 -0.25,0.176 -0.25,0.191 -0.207,0.238 -0.207,0.223 -0.238,0.203 -0.235,0.195 -0.238,0.235 -0.223,0.25 -0.277,0.207 -0.266,0.191 -0.296,0.488 -0.25,0.223 -0.282,0.219 -0.207,0.222 -0.148,0.325 -0.223,0.234 -0.234,0.207 -0.192,0.281 -0.136,0.399 -0.192,0.367 -0.207,0.297 -0.16,0.308 -0.133,0.297 -0.191,0.25 -0.195,0.266 -0.161,0.266 -0.164,0.308 -0.207,0.254 -0.339,0.516 -0.149,0.34 -0.367,0.441 -0.297,0.621 -0.223,0.309 -0.207,0.25 -0.16,0.324 -0.09,0.488 -0.207,0.414 -0.191,0.352 -0.133,0.371 -0.09,0.367 -0.148,0.324 -0.133,0.281 -0.102,0.309 0.028,0.328 -0.203,0.531 -0.075,0.59 -0.089,0.543 0.043,0.653 -0.075,0.531 0.032,0.324 0.089,0.484 0.028,0.532 0.133,0.504 0.089,0.484 0.192,0.488 0.191,0.473 0.266,0.441 0.281,0.414 0.281,0.457 0.313,0.43 0.293,0.484 0.297,0.504 0.191,0.309 0.192,0.266 0.164,0.265 0.175,0.25 0.207,0.281 0.313,0.489 0.176,0.25 0.222,0.25 0.293,0.429 0.371,0.457 0.309,0.442 0.414,0.488 0.297,0.442 0.43,0.546 0.367,0.442 0.207,0.238 0.25,0.324 0.222,0.293 0.18,0.266 0.203,0.254 0.239,0.25 0.207,0.234 0.441,0.442 0.254,0.222 0.234,0.192 0.446,0.398 0.281,0.207 0.398,0.324 0.457,0.414 0.399,0.368 0.504,0.445 0.218,0.207 0.43,0.426 0.281,0.265 1.344,1.344 0.238,0.235 0.266,0.238 0.293,0.234 0.297,0.207 0.562,0.414 0.325,0.207 0.281,0.207 0.25,0.192 0.312,0.175 0.34,0.192 0.309,0.164 0.297,0.133 0.355,0.16 0.399,0.164 0.339,0.148 0.325,0.133 0.367,0.145 0.402,0.164 0.367,0.117 0.356,0.059 0.367,0.089 0.414,0.161 0.387,0.121 0.34,0.101 0.367,0.106 0.445,0.16 0.367,0.117 0.356,0.106 0.371,0.132 0.414,0.161 0.398,0.132 0.368,0.164 0.398,0.223 0.414,0.203 0.387,0.18 0.34,0.16 0.367,0.191 0.445,0.164 0.399,0.133 0.367,0.149 0.414,0.16 0.488,0.133 0.43,0.121 0.414,0.117 0.472,0.117 0.532,0.09 0.5,0.086 0.476,0.105 0.5,0.086 0.563,0.09 0.488,0.09 0.441,0.102 0.489,0.089 0.562,0.118 0.489,0.09 0.457,0.085 0.515,0.106 0.531,0.086 0.977,0.18 0.516,0.117 0.546,0.148 0.504,0.086 0.457,0.09 0.52,0.117 0.574,0.121 1.063,0.133 0.562,0.102 0.606,0.117 0.562,0.058 0.504,0.047 0.559,0.074 0.578,0.086 0.547,0.075 0.5,0.043 0.578,0.046 0.605,0.102 0.59,0.059 0.531,0.058 0.563,0.063 0.578,0.117 0.559,0.074 0.503,0.043 0.532,0.074 0.593,0.133 0.532,0.074 0.488,0.043 0.531,0.075 0.559,0.117 0.504,0.09 0.504,0.074 0.5,0.058 0.562,0.102 0.504,0.105 0.5,0.118 0.504,0.101 0.562,0.09 0.5,0.043 0.489,0.031 0.547,0.043 0.546,0.047 0.547,0.012 0.489,0.031 0.531,0.027 0.562,0.016 h 0.5 l 0.489,-0.016 h 1.121 l 0.504,-0.027 h 1.566 l 0.504,-0.031 0.484,-0.043 0.536,-0.059 0.589,-0.074 0.5,-0.09 0.489,-0.101 0.519,-0.059 0.574,-0.059 0.547,-0.089 0.504,-0.118 0.531,-0.117 0.563,-0.058 0.531,-0.106 0.488,-0.101 0.516,-0.122 0.578,-0.101 0.516,-0.102 0.488,-0.121 0.531,-0.117 0.563,-0.117 0.531,-0.133 0.488,-0.148 0.532,-0.118 0.562,-0.089 0.5,-0.118 0.504,-0.117 0.488,-0.117 0.532,-0.105 0.488,-0.118 0.484,-0.117 0.535,-0.121 0.532,-0.086 0.488,-0.105 0.484,-0.102 0.52,-0.117 0.531,-0.148 0.488,-0.133 0.457,-0.117 0.473,-0.09 0.531,-0.118 0.473,-0.132 0.43,-0.149 0.488,-0.133 0.547,-0.16 0.488,-0.164 0.457,-0.148 0.473,-0.133 0.488,-0.191 0.457,-0.161 0.441,-0.164 0.489,-0.207 0.562,-0.176 0.489,-0.238 0.441,-0.25 0.488,-0.234 0.531,-0.192 0.461,-0.207 0.442,-0.238 0.473,-0.219 0.488,-0.195 0.457,-0.203 0.445,-0.207 0.473,-0.207 0.484,-0.207 0.43,-0.207 0.398,-0.223 0.414,-0.203 0.473,-0.223 0.398,-0.238 0.372,-0.203 0.414,-0.207 0.414,-0.238 0.398,-0.25 0.367,-0.235 0.403,-0.238 0.41,-0.25 0.386,-0.309 0.34,-0.296 0.368,-0.297 0.398,-0.278 0.355,-0.312 0.325,-0.278 0.371,-0.253 0.414,-0.25 0.367,-0.282 0.355,-0.277 0.372,-0.254 0.398,-0.234 0.371,-0.25 0.352,-0.25 0.371,-0.266 0.398,-0.266 0.34,-0.312 0.324,-0.281 0.371,-0.278 0.399,-0.324 0.367,-0.387 0.328,-0.398 0.352,-0.398 0.371,-0.336 0.355,-0.372 0.324,-0.355 0.34,-0.324 0.371,-0.293 0.325,-0.356 0.308,-0.339 0.324,-0.325 0.372,-0.324 0.324,-0.355 0.297,-0.325 0.308,-0.351 0.324,-0.34 0.297,-0.414 0.282,-0.441 0.308,-0.415 0.328,-0.398 0.25,-0.414 0.235,-0.398 0.254,-0.356 0.281,-0.367 0.234,-0.367 0.207,-0.356 0.25,-0.34 0.254,-0.398 0.219,-0.367 0.207,-0.356 0.207,-0.367 0.18,-0.414 0.16,-0.457 0.164,-0.473 0.176,-0.445 0.164,-0.383 0.132,-0.426 0.133,-0.414 0.164,-0.414 0.161,-0.414 0.121,-0.398 0.234,-0.735 0.117,-0.445 0.09,-0.473 0.09,-0.484 0.117,-0.531 0.148,-0.488 0.118,-0.5 0.058,-0.489 0.106,-0.472 0.133,-0.442 0.085,-0.429 0.063,-0.442 0.043,-0.441 0.059,-0.446 0.058,-0.457 0.016,-0.472 0.027,-0.5 0.016,-0.473 v -1.875 l -0.016,-0.441 -0.027,-0.414 -0.016,-0.399 -0.027,-0.414 -0.047,-0.41 -0.043,-0.43 -0.043,-0.426 -0.063,-0.472 -0.085,-0.531 -0.09,-0.52 -0.102,-0.484 -0.09,-0.414 -0.117,-0.442 -0.121,-0.43 -0.102,-0.425 -0.148,-0.414 -0.164,-0.442 -0.16,-0.414 -0.18,-0.414 -0.191,-0.441 -0.207,-0.473 -0.207,-0.457 -0.207,-0.473 -0.219,-0.429 -0.223,-0.442 -0.238,-0.414 -0.234,-0.426 -0.208,-0.386 -0.238,-0.399 -0.219,-0.398 -0.222,-0.399 -0.176,-0.382 -0.477,-0.797 -0.203,-0.442 -0.207,-0.414 -0.254,-0.457 -0.234,-0.472 -0.207,-0.426 -0.207,-0.399 -0.266,-0.414 -0.254,-0.398 -0.234,-0.371 -0.223,-0.352 -0.281,-0.34 -0.281,-0.355 -0.25,-0.352 -0.266,-0.34 -0.324,-0.371 -0.324,-0.367 -0.297,-0.398 -0.281,-0.399 -0.309,-0.414 -0.297,-0.398 -0.297,-0.34 -0.277,-0.277 -0.312,-0.329 -0.297,-0.324 -0.309,-0.308 -0.297,-0.266 -0.324,-0.281 -0.356,-0.281 -0.339,-0.25 -0.352,-0.235 -0.34,-0.207 -0.355,-0.207 -0.371,-0.207 -0.367,-0.223 -0.399,-0.203 -0.402,-0.179 -0.367,-0.161 -0.356,-0.164 -0.367,-0.191 -0.402,-0.176 -0.383,-0.164 -0.399,-0.117 -0.398,-0.191 -0.399,-0.207 -0.371,-0.192 -0.383,-0.133 -0.398,-0.164 -0.371,-0.16 -0.398,-0.133 -0.399,-0.105 -0.414,-0.117 -0.398,-0.133 -0.372,-0.117 -0.355,-0.016 -0.367,-0.102 -0.371,-0.089 -0.367,-0.09 -0.372,-0.043 -0.398,-0.102 -0.367,-0.09 -0.356,-0.074 -0.339,-0.015 -0.356,-0.075 -0.355,-0.086 -0.34,-0.074 h -0.324 l -0.372,-0.047 -0.367,-0.043 -0.355,-0.043 -0.309,-0.031 -0.34,-0.016 -0.371,-0.027 h -0.355 l -0.324,0.043 h -0.356 l -0.34,-0.016 h -0.351 l -0.34,0.063 -0.371,0.027 h -0.383 l -0.34,0.016 -0.328,0.074 -0.352,0.043 -0.339,0.031 -0.356,0.043 -0.324,0.118 -0.356,0.046 -0.371,0.012 -0.34,0.074 -0.324,0.149 -0.355,0.09 -0.352,0.074 -0.34,0.086 -0.355,0.164 -0.371,0.086 -0.356,0.074 -0.293,0.09 -0.324,0.164 -0.371,0.16 -0.355,0.148 -0.325,0.161 -0.296,0.164 -0.352,0.133 -0.328,0.132 -0.293,0.149 -0.281,0.117 -0.313,0.117 -0.293,0.106 -0.312,0.144 -0.293,0.133 -0.297,0.121 -0.281,0.117 -0.489,0.25 -0.281,0.117 -0.484,0.192 -0.52,0.207 -0.457,0.164 -0.441,0.207 -0.489,0.086 -0.398,0.121 -0.402,0.07 -0.368,0.121 -0.371,0.059 -0.293,0.148 -0.355,0.059 -0.371,0.219 -0.309,0.179 -0.371,0.25 -0.324,0.161 -0.34,0.195 -0.281,0.16"
       style="fill:none;stroke:#228b22;stroke-width:0.85;stroke-linecap:round;stroke-linejoin:round;stroke-miterlimit:10;stroke-dasharray:none;stroke-opacity:1"
       transform="scale(1.3333333)" />
    <path
       id="path667"
       d="m 284.008,434.141 -0.117,0.367 -0.192,0.34 -0.238,0.425 -0.281,0.579 -0.16,0.293 -0.133,0.324 -0.133,0.328 -0.192,0.351 -0.195,0.372 -0.16,0.398 -0.133,0.41 -0.191,0.371 -0.207,0.352 -0.207,0.371 -0.239,0.441 -0.222,0.383 -0.219,0.399 -0.207,0.445 -0.223,0.441 -0.265,0.442 -0.223,0.429 -0.223,0.442 -0.207,0.445 -0.218,0.41 -0.239,0.399 -0.207,0.398 -0.218,0.445 -0.18,0.368 -0.149,0.324 -0.101,0.34 -0.117,0.398 -0.149,0.356 -0.121,0.324 -0.043,0.34"
       style="fill:none;stroke:#228b22;stroke-width:0.85;stroke-linecap:round;stroke-linejoin:round;stroke-miterlimit:10;stroke-dasharray:none;stroke-opacity:1"
       transform="scale(1.3333333)" />
    <path
       id="path668"
       d="m 277.375,461.762 -0.117,0.398 -0.266,0.531 -0.164,0.325 -0.191,0.414 -0.239,0.441 -0.25,0.457 -0.238,0.563 -0.207,0.558 -0.277,0.547 -0.297,0.563 -0.281,0.574 -0.309,0.633 -0.34,0.578 -0.355,0.574 -0.371,0.691 -0.368,0.754 -0.398,0.739 -0.371,0.722 -0.367,0.754 -0.371,0.84 -0.446,0.766 -0.425,0.769 -0.415,0.856 -0.414,0.929 -0.472,0.871 -0.457,0.84 -0.473,0.828 -0.461,0.883 -0.473,0.844 -0.425,0.808 -0.387,0.856 -0.34,0.812 -0.351,0.696 -0.297,0.617 -0.25,0.605 -0.196,0.563 -0.234,0.488 -0.207,0.442 -0.164,0.441 -0.117,0.43 -0.133,0.472 -0.117,0.457 -0.047,0.442"
       style="fill:none;stroke:#228b22;stroke-width:0.85;stroke-linecap:round;stroke-linejoin:round;stroke-miterlimit:10;stroke-dasharray:none;stroke-opacity:1"
       transform="scale(1.3333333)" />
    <path
       id="path669"
       d="m 292.785,472.68 -0.117,0.34 -0.254,0.648 -0.25,0.445 -0.281,0.469 -0.309,0.547 -0.34,0.637 -0.371,0.648 -0.351,0.664 -0.356,0.723 -0.34,0.781 -0.371,0.754 -0.383,0.707 -0.339,0.812 -0.325,0.856 -0.355,0.855 -0.371,0.84 -0.367,0.856 -0.356,0.902 -0.34,0.871 -0.355,0.824 -0.324,0.887 -0.297,0.856 -0.309,0.812 -0.281,0.738 -0.207,0.723 -0.164,0.723 -0.133,0.59 -0.117,0.531 -0.043,0.515"
       style="fill:none;stroke:#228b22;stroke-width:0.85;stroke-linecap:round;stroke-linejoin:round;stroke-miterlimit:10;stroke-dasharray:none;stroke-opacity:1"
       transform="scale(1.3333333)" />
    <path
       id="path670"
       d="m 310.547,475.367 0.058,0.352 -0.164,0.414 -0.132,0.281 -0.164,0.34 -0.235,0.473 -0.297,0.5 -0.324,0.531 -0.355,0.605 -0.34,0.633 -0.399,0.59 -0.398,0.594 -0.399,0.664 -0.339,0.722 -0.371,0.723 -0.383,0.664 -0.34,0.692 -0.324,0.722 -0.356,0.653 -0.34,0.601 -0.308,0.606 -0.254,0.648 -0.281,0.621 -0.25,0.574 -0.207,0.594 -0.161,0.531 -0.164,0.485 -0.148,0.445 -0.074,0.41 -0.016,0.399 0.047,0.546"
       style="fill:none;stroke:#228b22;stroke-width:0.85;stroke-linecap:round;stroke-linejoin:round;stroke-miterlimit:10;stroke-dasharray:none;stroke-opacity:1"
       transform="scale(1.3333333)" />
    <path
       id="path671"
       d="m 335.059,465.008 0.148,0.324 -0.121,0.398 -0.16,0.297 -0.196,0.325 -0.203,0.398 -0.254,0.457 -0.324,0.457 -0.383,0.473 -0.414,0.5 -0.445,0.605 -0.488,0.649 -0.457,0.679 -0.473,0.739 -0.457,0.796 -0.516,0.739 -0.488,0.691 -0.488,0.723 -0.531,0.828 -0.532,0.797 -0.519,0.754 -0.442,0.797 -0.414,0.808 -0.414,0.711 -0.371,0.633 -0.324,0.621 -0.281,0.633 -0.309,0.531 -0.281,0.504 -0.223,0.559 -0.191,0.531 -0.207,0.488 -0.192,0.41 -0.117,0.399 -0.047,0.328 -0.16,0.441"
       style="fill:none;stroke:#228b22;stroke-width:0.85;stroke-linecap:round;stroke-linejoin:round;stroke-miterlimit:10;stroke-dasharray:none;stroke-opacity:1"
       transform="scale(1.3333333)" />
    <path
       id="path672"
       d="m 338.914,440.527 -0.059,0.313 -0.398,0.543 -0.281,0.398 -0.313,0.446 -0.324,0.5 -0.324,0.531 -0.383,0.547 -0.43,0.531 -0.414,0.605 -0.441,0.707 -0.488,0.723 -0.504,0.723 -0.547,0.781 -0.574,0.844 -0.579,0.781 -0.589,0.781 -0.578,0.887 -0.559,0.883 -0.547,0.871 -0.547,0.812 -0.461,0.797 -0.441,0.781 -0.445,0.696 -0.411,0.633 -0.402,0.605 -0.34,0.621 -0.351,0.559 -0.329,0.457 -0.25,0.472 -0.234,0.43 -0.207,0.399 -0.195,0.351 -0.133,0.297"
       style="fill:none;stroke:#228b22;stroke-width:0.85;stroke-linecap:round;stroke-linejoin:round;stroke-miterlimit:10;stroke-dasharray:none;stroke-opacity:1"
       transform="scale(1.3333333)" />
    <path
       id="path673"
       d="m 333.875,427.234 -0.355,0.219 -0.208,0.254 -0.277,0.309 -0.297,0.339 -0.355,0.489 -0.383,0.558 -0.445,0.633 -0.442,0.653 -0.488,0.707 -0.488,0.765 -0.59,0.785 -0.578,0.809 -0.606,0.93 -0.648,0.976 -0.695,0.973 -0.68,0.972 -0.649,1.004 -0.621,1.063 -0.636,1.019 -0.575,0.93 -0.562,0.899 -0.531,0.886 -0.532,0.782 -0.488,0.695 -0.445,0.707 -0.399,0.664 -0.382,0.605 -0.356,0.516 -0.281,0.473 -0.25,0.398 -0.266,0.352 -0.222,0.281"
       style="fill:none;stroke:#228b22;stroke-width:0.85;stroke-linecap:round;stroke-linejoin:round;stroke-miterlimit:10;stroke-dasharray:none;stroke-opacity:1"
       transform="scale(1.3333333)" />
    <path
       id="path674"
       d="m 314.09,429.359 -0.25,0.282 -0.574,0.765 -0.328,0.457 -0.368,0.473 -0.398,0.488 -0.414,0.543 -0.446,0.637 -0.488,0.59 -0.484,0.633 -0.52,0.738 -0.531,0.769 -0.531,0.735 -0.516,0.695 -0.461,0.723 -0.472,0.781 -0.5,0.77 -0.504,0.765 -0.43,0.797 -0.426,0.754 -0.461,0.723 -0.441,0.679 -0.797,1.297 -0.414,0.547 -0.371,0.484 -0.356,0.52 -0.293,0.531 -0.324,0.516 -0.312,0.426 -0.25,0.398"
       style="fill:none;stroke:#228b22;stroke-width:0.85;stroke-linecap:round;stroke-linejoin:round;stroke-miterlimit:10;stroke-dasharray:none;stroke-opacity:1"
       transform="scale(1.3333333)" />
    <path
       id="path675"
       d="m 299.477,434.242 h -0.399 l -0.441,0.399 -0.266,0.281 -0.281,0.351 -0.309,0.43 -0.328,0.473 -0.34,0.5 -0.383,0.562 -0.371,0.574 -0.382,0.637 -0.473,0.617 -0.457,0.637 -0.445,0.738 -0.442,0.782 -0.488,0.797 -0.488,0.738 -0.489,0.765 -0.484,0.829 -0.535,0.75 -0.485,0.738 -0.445,0.812 -0.398,0.813 -0.414,0.734 -0.399,0.696 -0.324,0.695 -0.313,0.722 -0.293,0.618 -0.281,0.562 -0.207,0.606 -0.164,0.605 -0.191,0.531 -0.164,0.485 -0.086,0.445"
       style="fill:none;stroke:#228b22;stroke-width:0.85;stroke-linecap:round;stroke-linejoin:round;stroke-miterlimit:10;stroke-dasharray:none;stroke-opacity:1"
       transform="scale(1.3333333)" />
    <path
       id="path676"
       d="m 290.539,416.594 -0.266,-0.309 -0.398,-0.043 -0.371,0.086 -0.414,0.149 -0.442,0.339 -0.324,0.356 -0.164,0.484 -0.074,0.446 0.074,0.543 0.117,0.531 0.164,0.312 0.118,0.278 0.121,0.281 0.16,0.297 0.207,0.324 0.164,0.281 0.34,0.485 0.234,0.324 0.192,0.281 0.296,0.488 0.118,0.293 0.089,0.489 -0.042,0.531 -0.282,0.488 -0.34,0.473 -0.281,0.203 -0.312,0.18 -0.266,0.191 -0.547,0.324 -0.293,0.117 -0.472,0.207 -0.461,0.075 -0.325,0.015"
       style="fill:none;stroke:#228b22;stroke-width:0.85;stroke-linecap:round;stroke-linejoin:round;stroke-miterlimit:10;stroke-dasharray:none;stroke-opacity:1"
       transform="scale(1.3333333)" />
    <path
       id="path677"
       d="m 293.641,422.082 -0.043,0.328 -0.09,0.367 -0.074,0.34 -0.133,0.356 -0.16,0.351 -0.164,0.414 -0.149,0.442 -0.176,0.445 -0.191,0.41 -0.191,0.414 -0.165,0.414 -0.175,0.383 -0.207,0.34 -0.164,0.355 -0.149,0.34 -0.16,0.278 -0.223,0.457 -0.164,0.472 -0.16,0.297 -0.191,0.324 0.086,-0.457 0.164,-0.371 0.191,-0.367 0.238,-0.398 0.266,-0.399 0.266,-0.414 0.25,-0.441 0.281,-0.457 0.34,-0.489 0.281,-0.515 0.266,-0.489 0.281,-0.457 0.324,-0.398 0.25,-0.398 0.238,-0.368 0.25,-0.296 0.25,-0.235 0.192,-0.238 0.328,-0.34 0.281,-0.191 0.324,-0.059 0.086,0.43 -0.086,0.398 -0.074,0.324 -0.164,0.532 -0.074,0.574 -0.059,0.472 0.09,0.372 0.234,0.351"
       style="fill:none;stroke:#228b22;stroke-width:0.85;stroke-linecap:round;stroke-linejoin:round;stroke-miterlimit:10;stroke-dasharray:none;stroke-opacity:1"
       transform="scale(1.3333333)" />
    <path
       id="path678"
       d="m 298.871,421.184 -0.293,0.324 -0.324,0.504 -0.195,0.234 -0.278,0.457 -0.062,0.309 -0.16,0.461 0.015,0.457 0.086,0.382 0.223,0.25 0.265,0.165 0.383,0.011 0.34,-0.133 0.402,-0.25 0.293,-0.398 0.282,-0.352 0.117,-0.414 0.074,-0.324 -0.074,-0.34 -0.176,-0.398 -0.266,-0.207 -0.296,-0.09 -0.309,-0.102"
       style="fill:none;stroke:#228b22;stroke-width:0.85;stroke-linecap:round;stroke-linejoin:round;stroke-miterlimit:10;stroke-dasharray:none;stroke-opacity:1"
       transform="scale(1.3333333)" />
    <path
       id="path679"
       d="m 302.344,420.875 v 0.738 l -0.074,0.442 -0.075,0.367 -0.086,0.371 -0.164,0.281 -0.265,0.309 -0.207,0.222 -0.161,-0.328 0.102,-0.484 0.09,-0.531 0.207,-0.383 0.234,-0.399 0.297,-0.328 0.266,-0.324 0.367,-0.234 0.34,-0.176 0.445,-0.148 0.399,-0.118 0.515,-0.047 0.371,-0.085"
       style="fill:none;stroke:#228b22;stroke-width:0.85;stroke-linecap:round;stroke-linejoin:round;stroke-miterlimit:10;stroke-dasharray:none;stroke-opacity:1"
       transform="scale(1.3333333)" />
    <path
       id="path680"
       d="m 308.566,411.121 0.149,0.414 -0.106,0.516 -0.043,0.324 -0.089,0.426 -0.118,0.488 -0.148,0.488 -0.133,0.547 -0.164,0.59 -0.191,0.59 -0.161,0.547 -0.136,0.633 -0.117,0.664 -0.133,0.632 -0.117,0.547 -0.043,0.563 -0.047,0.558 -0.074,0.489 -0.028,0.414 0.043,0.398 0.074,0.442 0.043,0.339 0.196,0.516"
       style="fill:none;stroke:#228b22;stroke-width:0.85;stroke-linecap:round;stroke-linejoin:round;stroke-miterlimit:10;stroke-dasharray:none;stroke-opacity:1"
       transform="scale(1.3333333)" />
    <path
       id="path681"
       d="m 305.109,416.859 0.618,-0.101 h 0.355 l 0.371,-0.074 0.399,-0.075 0.457,-0.074 0.519,-0.015 0.457,-0.043 0.473,-0.075 0.504,-0.074 0.558,-0.012 0.489,-0.074 0.457,-0.09 0.519,-0.074 0.531,-0.027 0.532,-0.063 0.515,-0.101 0.52,-0.059"
       style="fill:none;stroke:#228b22;stroke-width:0.85;stroke-linecap:round;stroke-linejoin:round;stroke-miterlimit:10;stroke-dasharray:none;stroke-opacity:1"
       transform="scale(1.3333333)" />
  </g>
</svg>
