<?xml version="1.0" encoding="UTF-8" standalone="no"?>
<!-- Created with Inkscape (http://www.inkscape.org/) -->

<svg
   version="1.1"
   id="svg1"
   width="353.384"
   height="90.66996"
   viewBox="0 0 353.38402 90.669961"
   xmlns="http://www.w3.org/2000/svg"
   xmlns:svg="http://www.w3.org/2000/svg">
  <defs
     id="defs1" />
  <g
     id="g1"
     transform="translate(-243.43332,-458.80264)">
    <path
       id="path613"
       d="m 204.809,376.195 -0.075,0.383 0.34,0.106 0.266,-0.297 0.121,-0.352 v -0.414 l -0.266,-0.176 -0.328,0.266 -0.277,0.516 -0.106,0.484 0.09,0.328 0.281,0.133 0.442,-0.106 0.457,-0.398 0.207,-0.25 0.281,-0.473 0.09,-0.457 -0.117,-0.441 -0.254,-0.207 -0.367,0.086 -0.282,0.191 -0.281,0.254 -0.25,0.277 -0.207,0.297 -0.148,0.309 -0.106,0.531 0.133,0.387 0.371,0.16 0.563,-0.133 0.414,-0.324 0.25,-0.441 0.164,-0.563 0.058,-0.293 -0.058,-0.445 -0.254,-0.235 -0.488,0.075 -0.457,0.324 -0.309,0.414 -0.09,0.383 0.25,0.34 0.43,0.043 0.59,-0.207 0.312,-0.176 0.235,-0.223 0.254,-0.457 0.042,-0.367 -0.398,-0.195 -0.457,0.238 -0.371,0.324 -0.149,0.281"
       style="fill:none;stroke:#3333cc;stroke-width:0.85;stroke-linecap:round;stroke-linejoin:round;stroke-miterlimit:10;stroke-dasharray:none;stroke-opacity:1"
       transform="scale(1.3333333)" />
    <path
       id="path614"
       d="m 303.02,374.84 v 0.383 l 0.164,0.398 0.339,0.16 0.473,0.074 0.383,-0.043 0.402,-0.164 0.367,-0.191 0.532,-0.5 0.164,-0.281 0.191,-0.367 0.031,-0.356 -0.195,-0.34 -0.351,-0.117 h -0.329 l -0.367,0.043 -0.414,0.207 -0.445,0.238 -0.324,0.293 -0.293,0.309 -0.196,0.297 -0.132,0.367 0.046,0.328 0.293,0.234 0.329,0.059 0.324,-0.016 0.355,-0.085 0.324,-0.192 0.325,-0.207 0.281,-0.355 0.207,-0.414 0.043,-0.399 -0.043,-0.34 -0.281,-0.308 -0.414,-0.043 -0.368,0.027 -0.386,0.164 -0.383,0.235 -0.313,0.253 -0.25,0.235 -0.191,0.367 0.102,0.414 0.269,0.164 0.352,0.012 0.461,-0.059 0.398,-0.144 0.426,-0.18 0.265,-0.25 0.239,-0.266 0.25,-0.339 0.058,-0.325 -0.144,-0.281 -0.371,-0.074 -0.371,0.121 -0.411,0.191 -0.429,0.25 -0.297,0.282 -0.235,0.25 -0.238,0.293 -0.043,0.355 0.235,0.281 0.339,0.059 0.329,-0.043 0.425,-0.133 0.297,-0.254 0.281,-0.277 0.192,-0.371 -0.399,-0.145 -0.281,0.145 -0.281,0.179 -0.324,0.204 -0.18,0.265 -0.191,0.34 0.238,0.355 0.34,0.016 0.398,-0.164 0.367,-0.25 0.27,-0.355 0.16,-0.411 -0.074,-0.445 -0.309,-0.133 -0.531,0.075 -0.445,0.117 -0.442,0.254 -0.34,0.203 -0.238,0.281 -0.207,0.281 0.238,0.297 0.383,0.027 0.356,-0.101 0.324,-0.09 0.324,-0.234 0.238,-0.254"
       style="fill:none;stroke:#3333cc;stroke-width:0.85;stroke-linecap:round;stroke-linejoin:round;stroke-miterlimit:10;stroke-dasharray:none;stroke-opacity:1"
       transform="scale(1.3333333)" />
    <path
       id="path615"
       d="m 208.727,372.418 0.351,-0.176 0.52,-0.238 0.25,-0.176 0.238,-0.191 0.293,-0.192 0.324,-0.164 0.328,-0.16 0.324,-0.18 0.356,-0.191 0.414,-0.133 0.398,-0.16 0.368,-0.191 0.398,-0.18 0.445,-0.145 0.383,-0.164 0.371,-0.16 0.399,-0.164 0.414,-0.101 0.398,-0.149 0.399,-0.164 0.445,-0.16 0.484,-0.133 0.461,-0.148 0.473,-0.133 0.5,-0.149 0.547,-0.132 0.504,-0.161 0.488,-0.132 0.516,-0.149 0.562,-0.133 0.531,-0.164 0.532,-0.148 0.605,-0.133 0.652,-0.144 0.618,-0.133 0.609,-0.133 0.648,-0.149 0.723,-0.132 0.652,-0.164 0.633,-0.192 0.696,-0.176 0.769,-0.164 0.738,-0.218 0.723,-0.207 0.77,-0.176 0.812,-0.121 0.77,-0.16 0.738,-0.192 0.812,-0.18 0.856,-0.117 0.812,-0.16 0.754,-0.195 0.754,-0.16 0.797,-0.09 0.68,-0.16 0.668,-0.164 0.765,-0.133 0.813,-0.102 0.738,-0.105 0.68,-0.149 0.652,-0.117 0.637,-0.086 0.574,-0.121 0.563,-0.117 0.648,-0.09 0.711,-0.07 0.707,-0.09 0.652,-0.117 0.649,-0.09 0.621,-0.074 0.531,-0.075 0.488,-0.058 0.977,-0.149 0.516,-0.058 0.562,-0.074 0.621,-0.043 0.633,-0.043 0.547,-0.059 0.519,-0.047 1.063,-0.086 0.473,-0.047 0.414,-0.043 0.429,-0.031 0.414,-0.012 0.457,-0.058 0.489,-0.016 0.558,-0.031 0.606,-0.016 0.562,-0.027 0.489,-0.016 h 0.988 l 0.472,-0.027 0.414,-0.031 h 0.415 l 0.429,0.031 h 0.887 l 0.574,0.027 0.61,0.016 h 1.105 l 0.531,0.027 0.547,0.047 0.488,0.016 h 0.457 l 0.473,0.027 0.504,0.043 0.578,0.031 0.606,0.016 0.679,0.027 0.649,0.047 0.605,0.043 0.563,0.028 0.547,0.046 0.562,0.075 0.516,0.043 0.531,0.043 0.605,0.046 0.665,0.075 0.679,0.043 0.637,0.043 0.621,0.074 0.621,0.09 0.547,0.074 0.5,0.043 0.488,0.043 0.531,0.09 0.594,0.101 0.606,0.063 0.648,0.07 0.652,0.121 0.575,0.086 0.531,0.074 0.52,0.09 0.5,0.16 0.445,0.09 0.398,0.074 0.399,0.09 0.441,0.16 0.488,0.118 0.504,0.074 0.547,0.09 0.547,0.164 0.516,0.117 0.457,0.074 0.445,0.086 0.441,0.164 0.372,0.09 0.355,0.07 0.34,0.121 0.355,0.192 0.293,0.101 0.313,0.106 0.293,0.101 0.355,0.192 0.371,0.164 0.367,0.117 0.372,0.117 0.382,0.133 0.325,0.117 0.296,0.09 0.325,0.117 0.355,0.117 0.297,0.09 0.516,0.207 0.457,0.266 0.371,0.176 0.398,0.191 0.309,0.18 0.265,0.16 0.329,0.223 0.351,0.265 0.371,0.223 0.356,0.25 0.281,0.207 0.293,0.25 0.355,0.207 0.223,0.281"
       style="fill:none;stroke:#3333cc;stroke-width:0.85;stroke-linecap:round;stroke-linejoin:round;stroke-miterlimit:10;stroke-dasharray:none;stroke-opacity:1"
       transform="scale(1.3333333)" />
    <path
       id="path616"
       d="m 298.5,370.102 0.266,0.207 0.339,0.117 0.325,0.117 0.355,0.09 0.356,0.148 0.382,0.207 0.313,0.133 0.293,0.102 0.312,0.058 h 0.426 l 0.34,-0.043 0.414,-0.164 0.238,-0.219 0.266,-0.398 0.164,-0.355 0.145,-0.325 0.046,-0.414 v -0.441 l -0.089,-0.383 -0.118,-0.398 -0.191,-0.325 -0.223,-0.312 -0.265,-0.25 -0.254,-0.176 -0.309,-0.223"
       style="fill:none;stroke:#3333cc;stroke-width:0.85;stroke-linecap:round;stroke-linejoin:round;stroke-miterlimit:10;stroke-dasharray:none;stroke-opacity:1"
       transform="scale(1.3333333)" />
    <path
       id="path617"
       d="m 206.848,378.91 0.074,0.399 0.058,0.398 0.106,0.43 0.059,0.308 0.148,0.325 0.133,0.339 0.207,0.356 0.219,0.324 0.269,0.367 0.266,0.356 0.324,0.414 0.25,0.398 0.355,0.383 0.325,0.383 0.414,0.371 0.355,0.324 0.414,0.324 0.399,0.325 0.488,0.324 0.457,0.265 0.562,0.325 0.5,0.238 0.282,0.144 0.312,0.165 0.531,0.222 0.293,0.117 0.356,0.161 0.281,0.121 0.563,0.203 0.34,0.148 0.324,0.09 0.308,0.074 0.34,0.059 0.371,0.117 0.383,0.074 0.34,0.074 0.371,0.086 0.43,0.121 0.383,0.059 0.382,0.074 0.387,0.086 0.426,0.106 0.371,0.086 0.34,0.089 0.383,0.106 0.414,0.086 0.398,0.074 0.371,0.09 0.414,0.086 0.473,0.074 0.426,0.074 0.429,0.09 0.446,0.09 0.5,0.043 0.445,0.074 0.398,0.086 0.442,0.09 0.488,0.059 0.445,0.046 0.442,0.043 0.488,0.043 0.531,0.032 0.504,0.043 0.485,0.058 0.546,0.074 0.579,0.032 0.515,0.011 0.461,0.032 0.516,0.043 0.531,0.031 0.504,0.016 0.488,0.027 0.559,0.015 h 0.605 l 0.563,0.032 0.531,0.043 0.563,0.043 h 2.203 l 0.574,-0.016 h 1.699 l 0.652,-0.027 0.59,-0.032 h 1.094 l 0.574,-0.043 0.532,-0.015 h 1.066 l 0.605,-0.043 0.59,-0.031 h 1.137 l 0.621,-0.043 0.531,-0.043 0.52,-0.032 0.531,-0.015 0.578,-0.059 0.559,-0.043 0.519,-0.043 0.575,-0.047 0.652,-0.074 0.574,-0.058 0.547,-0.075 0.547,-0.043 0.605,-0.074 0.532,-0.074 0.504,-0.059 0.531,-0.074 0.547,-0.086 0.546,-0.105 0.504,-0.09 0.559,-0.086 0.605,-0.09 0.536,-0.101 0.484,-0.09 0.52,-0.09 0.574,-0.102 0.519,-0.105 0.457,-0.117 0.516,-0.102 0.547,-0.047 0.547,-0.086 0.504,-0.117 0.531,-0.121 0.59,-0.086 0.531,-0.121 0.976,-0.234 0.516,-0.09 0.461,-0.117 0.441,-0.118 0.489,-0.089 0.515,-0.075 0.489,-0.086 0.488,-0.089 0.504,-0.09 0.515,-0.071 0.458,-0.089 0.429,-0.106 0.43,-0.086 0.441,-0.09 0.399,-0.101 0.398,-0.09 0.414,-0.09 0.414,-0.086 0.387,-0.105 0.367,-0.086 0.414,-0.075 0.446,-0.089 0.41,-0.09 0.371,-0.102 0.398,-0.09 0.446,-0.117 0.398,-0.09 0.34,-0.074 0.351,-0.058 0.371,-0.118 0.356,-0.117 0.324,-0.117 0.371,-0.121 0.367,-0.117 0.325,-0.133 0.328,-0.133 0.367,-0.148 0.43,-0.118 0.367,-0.117 0.328,-0.101 0.34,-0.149 0.398,-0.117 0.356,-0.121 0.293,-0.133 0.324,-0.133 0.355,-0.117 0.297,-0.117 0.282,-0.148 0.574,-0.176 0.281,-0.117 0.531,-0.254 0.34,-0.071 0.531,-0.254 0.297,-0.101 0.324,-0.043 0.532,-0.207 0.281,-0.121 0.312,-0.086 0.489,-0.192 0.531,-0.179 0.414,-0.192 0.473,-0.132 0.34,-0.192 0.351,-0.16 0.34,-0.164 0.328,-0.133 0.281,-0.148 0.278,-0.161 0.355,-0.148 0.324,-0.191 0.282,-0.192 0.414,-0.164 0.324,-0.16 0.414,-0.164 0.355,-0.133 0.282,-0.133"
       style="fill:none;stroke:#ff0000;stroke-width:0.85;stroke-linecap:round;stroke-linejoin:round;stroke-miterlimit:10;stroke-dasharray:none;stroke-opacity:1"
       transform="scale(1.3333333)" />
    <path
       id="path618"
       d="m 295.324,376.301 0.356,0.058 h 0.484 l 0.461,-0.047 0.457,0.032 0.383,-0.032 0.387,0.032 h 0.324 l 0.324,0.043 0.383,0.121 0.254,0.234 0.234,0.457 0.016,0.457 v 0.547 l -0.133,0.547 -0.074,0.309 -0.133,0.531 -0.238,0.457 -0.207,0.488 -0.235,0.352 -0.133,0.414 -0.222,0.281 -0.16,0.297 -0.254,0.309"
       style="fill:none;stroke:#ff0000;stroke-width:0.85;stroke-linecap:round;stroke-linejoin:round;stroke-miterlimit:10;stroke-dasharray:none;stroke-opacity:1"
       transform="scale(1.3333333)" />
    <path
       id="path682"
       d="m 242.168,353.473 -0.367,-0.125 -0.332,0.062 -0.352,0.125 -0.523,0.207 -0.528,0.352 -0.492,0.316 -0.347,0.399 -0.223,0.3 -0.051,0.348 0.067,0.336 0.222,0.285 0.285,0.332 0.399,0.301 0.429,0.32 0.223,0.207 0.477,0.348 0.414,0.348 0.254,0.175 0.347,0.317 0.27,0.336 0.129,0.285 -0.145,0.348 -0.445,0.289 -0.508,0.187 -0.301,0.098 -0.32,0.078 -0.332,0.078 -0.32,0.082 -0.555,0.109 h -0.492 l -0.352,0.032 -0.347,-0.032"
       style="fill:none;stroke:#3333cc;stroke-width:0.85;stroke-linecap:round;stroke-linejoin:round;stroke-miterlimit:10;stroke-dasharray:none;stroke-opacity:1"
       transform="scale(1.3333333)" />
    <path
       id="path683"
       d="m 245.871,358.254 0.399,-0.192 0.207,-0.285 0.253,-0.445 0.125,-0.301 0.114,-0.304 0.16,-0.301 0.172,-0.27 0.144,-0.269 0.285,-0.524 0.29,-0.476 0.238,-0.477 0.238,-0.301 0.285,-0.351 0.192,0.254 -0.047,0.492 -0.051,0.336 -0.031,0.301 0.031,0.347 0.035,0.367 v 0.684 l 0.016,0.316 0.094,0.602 0.128,0.543 0.254,0.508 0.348,0.492"
       style="fill:none;stroke:#3333cc;stroke-width:0.85;stroke-linecap:round;stroke-linejoin:round;stroke-miterlimit:10;stroke-dasharray:none;stroke-opacity:1"
       transform="scale(1.3333333)" />
    <path
       id="path684"
       d="m 251.531,393.219 -0.301,0.031 -0.3,0.047 -0.528,0.223 -0.269,0.16 -0.254,0.175 -0.254,0.239 -0.27,0.254 -0.257,0.222 -0.172,0.254 -0.274,0.477 -0.125,0.41 0.032,0.43 0.191,0.347 0.301,0.336 0.32,0.27 0.461,0.316 0.41,0.27 0.43,0.336 0.398,0.269 0.301,0.348 0.176,0.269 0.082,0.352 -0.098,0.461 -0.222,0.238 -0.348,0.254 -0.43,0.172 -0.461,0.223 -0.461,0.113 -0.336,0.062 -0.347,0.032"
       style="fill:none;stroke:#ff0000;stroke-width:0.85;stroke-linecap:round;stroke-linejoin:round;stroke-miterlimit:10;stroke-dasharray:none;stroke-opacity:1"
       transform="scale(1.3333333)" />
    <path
       id="path685"
       d="m 254.902,394.043 0.446,-0.219 0.351,-0.129 0.379,-0.175 0.496,-0.079 0.426,-0.062 0.398,0.062 0.352,0.079 0.301,0.269 0.16,0.352 0.047,0.3 -0.031,0.301 -0.047,0.305 -0.098,0.348 -0.125,0.382 -0.176,0.348 -0.207,0.316 -0.191,0.321 -0.207,0.347 -0.223,0.301 -0.223,0.254 -0.175,0.254 -0.157,0.27 -0.222,0.398 -0.063,0.383 -0.066,0.316 0.207,0.399 0.383,0.269 0.461,0.125 0.605,0.078 h 0.301 l 0.301,-0.031 0.32,-0.016 h 0.379 l 0.32,-0.031 0.301,-0.062 0.336,-0.078 0.363,-0.051 0.336,-0.047 0.524,-0.11 0.316,0.032 0.352,-0.032 0.351,-0.046 h 0.379"
       style="fill:none;stroke:#ff0000;stroke-width:0.85;stroke-linecap:round;stroke-linejoin:round;stroke-miterlimit:10;stroke-dasharray:none;stroke-opacity:1"
       transform="scale(1.3333333)" />
    <path
       id="path686"
       d="m 185.703,373.227 -0.031,0.414 0.047,0.476 v 0.524 l 0.113,0.554 0.047,0.352 0.016,0.348 0.062,0.316 0.066,0.305 0.079,0.3 0.125,0.524 0.144,0.414 0.129,0.348 0.156,0.332 0.223,0.367"
       style="fill:none;stroke:#3333cc;stroke-width:0.85;stroke-linecap:round;stroke-linejoin:round;stroke-miterlimit:10;stroke-dasharray:none;stroke-opacity:1"
       transform="scale(1.3333333)" />
    <path
       id="path687"
       d="m 183,374.148 0.32,-0.222 0.301,-0.254 0.332,-0.352 0.477,-0.347 0.48,-0.348 0.285,-0.176 0.301,-0.16 0.285,-0.109 0.289,-0.16 0.332,-0.176 0.27,-0.141 0.527,-0.223 0.301,-0.113 0.445,-0.125"
       style="fill:none;stroke:#3333cc;stroke-width:0.85;stroke-linecap:round;stroke-linejoin:round;stroke-miterlimit:10;stroke-dasharray:none;stroke-opacity:1"
       transform="scale(1.3333333)" />
    <path
       id="path688"
       d="m 184.75,376.91 0.301,0.301 0.304,0.098 0.317,-0.047 0.351,-0.098 0.379,-0.172 0.27,-0.176 0.258,-0.207 0.476,-0.429"
       style="fill:none;stroke:#3333cc;stroke-width:0.85;stroke-linecap:round;stroke-linejoin:round;stroke-miterlimit:10;stroke-dasharray:none;stroke-opacity:1"
       transform="scale(1.3333333)" />
    <path
       id="path689"
       d="m 188.773,370.828 -0.015,0.367 0.015,0.524 -0.015,0.508 0.015,0.585 v 0.305 l -0.015,0.301 v 0.332 l 0.047,0.367 0.047,0.301 0.097,0.57 0.125,0.336 0.098,0.332 0.109,0.332 0.129,0.305 0.317,0.41 0.3,0.383 0.399,0.223 0.383,0.093"
       style="fill:none;stroke:#3333cc;stroke-width:0.85;stroke-linecap:round;stroke-linejoin:round;stroke-miterlimit:10;stroke-dasharray:none;stroke-opacity:1"
       transform="scale(1.3333333)" />
    <path
       id="path690"
       d="m 191.555,373.641 0.078,0.379 0.113,0.304 0.063,0.348 0.066,0.414 0.078,0.426 0.094,0.398 0.207,0.254 h 0.43 l 0.191,-0.254 0.16,-0.316 0.172,-0.383 0.145,-0.363 0.093,-0.399 0.114,-0.414 0.015,-0.363 -0.144,-0.27 0.015,0.364 0.067,0.382 0.109,0.395 0.16,0.273 0.192,0.332 0.254,0.317 0.269,0.176"
       style="fill:none;stroke:#3333cc;stroke-width:0.85;stroke-linecap:round;stroke-linejoin:round;stroke-miterlimit:10;stroke-dasharray:none;stroke-opacity:1"
       transform="scale(1.3333333)" />
    <path
       id="path691"
       d="m 194.926,373.34 0.301,0.109 0.429,0.399 0.27,0.539 0.16,0.379 0.191,0.476 0.161,0.492 0.093,0.508 0.129,0.492 0.125,0.446 0.067,0.429 0.046,0.399 0.063,0.379 0.016,0.398 v 0.348 l -0.016,0.305 v 0.585 l -0.16,0.508 -0.078,0.399 -0.176,0.269 -0.285,0.223 -0.336,-0.145 -0.27,-0.207 -0.347,-0.316 -0.336,-0.477 -0.141,-0.3 -0.144,-0.301 -0.129,-0.321 -0.079,-0.347 -0.046,-0.399 -0.032,-0.379 v -0.699 l 0.047,-0.367 0.031,-0.394 0.016,-0.352 0.078,-0.301 0.258,-0.461 0.207,-0.414"
       style="fill:none;stroke:#3333cc;stroke-width:0.85;stroke-linecap:round;stroke-linejoin:round;stroke-miterlimit:10;stroke-dasharray:none;stroke-opacity:1"
       transform="scale(1.3333333)" />
    <path
       id="path692"
       d="m 196.836,365.812 -0.035,0.379 -0.047,0.524 -0.047,0.351 -0.047,0.364 -0.031,0.398 v 0.461 l -0.016,0.523 -0.066,0.524 v 0.492 l 0.066,0.445 v 0.793 l 0.016,0.336 0.094,0.301 0.113,0.445 0.219,0.348 0.207,0.223 0.414,0.129 0.461,-0.129 0.367,-0.192 0.43,-0.285 0.363,-0.191 0.336,-0.172 0.383,-0.082 0.109,0.43 0.031,0.363"
       style="fill:none;stroke:#3333cc;stroke-width:0.85;stroke-linecap:round;stroke-linejoin:round;stroke-miterlimit:10;stroke-dasharray:none;stroke-opacity:1"
       transform="scale(1.3333333)" />
    <path
       id="path693"
       d="m 201.031,369.973 -0.207,0.57 -0.047,0.352 -0.015,0.3 0.062,0.348 0.285,0.223 0.368,0.031 0.335,-0.207 0.254,-0.317 0.141,-0.347 0.145,-0.321 0.031,0.352 0.301,0.223 0.304,-0.114"
       style="fill:none;stroke:#3333cc;stroke-width:0.85;stroke-linecap:round;stroke-linejoin:round;stroke-miterlimit:10;stroke-dasharray:none;stroke-opacity:1"
       transform="scale(1.3333333)" />
    <path
       id="path694"
       d="m 202.176,361.793 -0.27,0.16 -0.094,0.317 -0.05,0.574 -0.032,0.347 v 0.399 l 0.047,0.426 0.051,0.429 0.031,0.414 0.079,0.461 0.097,0.524 0.094,0.492 0.109,0.445 0.114,0.461 0.175,0.492 0.157,0.555 0.144,0.523 0.176,0.493 0.207,0.429 0.141,0.395 0.16,0.351 0.176,0.317 0.222,0.269 0.192,0.254 0.378,0.383"
       style="fill:none;stroke:#3333cc;stroke-width:0.85;stroke-linecap:round;stroke-linejoin:round;stroke-miterlimit:10;stroke-dasharray:none;stroke-opacity:1"
       transform="scale(1.3333333)" />
    <path
       id="path695"
       d="m 201.523,368.906 0.305,0.051 0.301,-0.035 0.332,-0.047 0.305,-0.016 0.523,-0.156 0.59,-0.129 0.508,-0.176"
       style="fill:none;stroke:#3333cc;stroke-width:0.85;stroke-linecap:round;stroke-linejoin:round;stroke-miterlimit:10;stroke-dasharray:none;stroke-opacity:1"
       transform="scale(1.3333333)" />
    <path
       id="path696"
       d="m 205.754,367.352 0.351,-0.145 0.207,-0.269 0.188,-0.333 0.082,-0.316 0.078,-0.305 -0.332,-0.125 -0.32,0.254 -0.379,0.399 -0.145,0.316 -0.144,0.285 -0.207,0.524 -0.031,0.316 -0.047,0.559 0.031,0.3 0.129,0.586 0.094,0.29 0.32,0.41 0.301,0.269 0.461,0.129 0.398,-0.016"
       style="fill:none;stroke:#3333cc;stroke-width:0.85;stroke-linecap:round;stroke-linejoin:round;stroke-miterlimit:10;stroke-dasharray:none;stroke-opacity:1"
       transform="scale(1.3333333)" />
    <path
       id="path697"
       d="m 208.059,366.16 -0.032,0.301 0.285,0.254 0.352,-0.156 0.27,-0.223 0.351,-0.27 0.379,-0.254 0.367,-0.128 0.336,0.031 0.348,0.223 0.238,0.191 0.254,0.207 0.27,0.207 0.335,0.223 0.27,0.14"
       style="fill:none;stroke:#3333cc;stroke-width:0.85;stroke-linecap:round;stroke-linejoin:round;stroke-miterlimit:10;stroke-dasharray:none;stroke-opacity:1"
       transform="scale(1.3333333)" />
    <path
       id="path698"
       d="m 308.375,366.066 0.098,0.348 -0.047,0.414 -0.051,0.699 -0.047,0.426 -0.031,0.43 v 0.476 l 0.031,0.477 0.016,0.445 0.031,0.414 0.051,0.426 0.078,0.399 0.062,0.382 0.082,0.317 0.094,0.332 0.16,0.32 0.223,0.508 0.316,0.461 0.286,0.332"
       style="fill:none;stroke:#3333cc;stroke-width:0.85;stroke-linecap:round;stroke-linejoin:round;stroke-miterlimit:10;stroke-dasharray:none;stroke-opacity:1"
       transform="scale(1.3333333)" />
    <path
       id="path699"
       d="m 310.223,364.891 0.222,0.254 0.078,0.523 0.047,0.523 0.047,0.368 0.035,0.379 0.032,0.32 0.046,0.347 0.094,0.399 0.082,0.426 0.063,0.398 0.109,0.399 0.129,0.378 0.063,0.321 0.082,0.332 0.125,0.316 0.144,0.27 0.176,0.476 0.223,0.43 0.187,0.301"
       style="fill:none;stroke:#3333cc;stroke-width:0.85;stroke-linecap:round;stroke-linejoin:round;stroke-miterlimit:10;stroke-dasharray:none;stroke-opacity:1"
       transform="scale(1.3333333)" />
    <path
       id="path700"
       d="m 308.457,370.398 0.348,0.129 h 0.32 l 0.379,-0.093 0.305,-0.129 0.285,-0.125 0.351,-0.207 0.348,-0.27 0.285,-0.269"
       style="fill:none;stroke:#3333cc;stroke-width:0.85;stroke-linecap:round;stroke-linejoin:round;stroke-miterlimit:10;stroke-dasharray:none;stroke-opacity:1"
       transform="scale(1.3333333)" />
    <path
       id="path701"
       d="m 313.895,368.336 -0.239,0.238 -0.176,0.285 -0.3,0.477 -0.207,0.461 -0.129,0.398 v 0.649 l 0.351,0.254 0.348,-0.141 0.207,-0.254 0.176,-0.383 0.144,-0.461 0.125,-0.507 0.082,-0.395 0.047,-0.383 -0.082,0.332 0.082,0.446 0.094,0.382 0.16,0.348 0.254,0.27 0.238,0.222 0.301,0.129 0.305,0.047"
       style="fill:none;stroke:#3333cc;stroke-width:0.85;stroke-linecap:round;stroke-linejoin:round;stroke-miterlimit:10;stroke-dasharray:none;stroke-opacity:1"
       transform="scale(1.3333333)" />
    <path
       id="path702"
       d="m 316.008,368.527 0.144,0.301 0.223,0.383 0.207,0.269 0.27,0.223 0.336,0.094 0.347,-0.145 0.238,-0.254 0.207,-0.347 0.223,-0.414 0.129,-0.461 0.141,-0.395 0.047,-0.398 0.082,-0.301 -0.016,-0.316 -0.176,0.41 -0.031,0.414 0.047,0.492 0.094,0.398 0.207,0.442 0.222,0.351 0.336,0.286 0.27,0.175"
       style="fill:none;stroke:#3333cc;stroke-width:0.85;stroke-linecap:round;stroke-linejoin:round;stroke-miterlimit:10;stroke-dasharray:none;stroke-opacity:1"
       transform="scale(1.3333333)" />
    <path
       id="path703"
       d="m 320.652,366.781 0.125,0.379 0.082,0.352 0.063,0.523 0.062,0.301 0.051,0.398 0.016,0.395 0.031,0.383 0.047,0.414 0.047,0.426 0.031,0.367 0.016,0.347 0.05,0.352 0.063,0.332 0.047,0.523 0.129,0.477 0.015,0.352 0.047,0.347 v -0.398 l 0.031,-0.586 0.047,-0.414 0.051,-0.426 0.031,-0.43 0.047,-0.476 0.078,-0.446 0.067,-0.476 0.062,-0.461 0.047,-0.477 0.063,-0.461 0.082,-0.41 0.078,-0.383 0.094,-0.347 0.128,-0.32 0.129,-0.508 0.188,-0.317 0.351,-0.078 0.161,0.426 0.046,0.492 0.047,0.606 v 0.3 l 0.032,0.571 0.066,0.351 0.062,0.301 0.094,0.523 0.223,0.368 0.207,0.222"
       style="fill:none;stroke:#3333cc;stroke-width:0.85;stroke-linecap:round;stroke-linejoin:round;stroke-miterlimit:10;stroke-dasharray:none;stroke-opacity:1"
       transform="scale(1.3333333)" />
    <path
       id="path704"
       d="m 324.406,358.984 0.032,0.477 -0.032,0.332 -0.051,0.383 v 0.394 l 0.051,0.446 0.032,0.476 0.015,0.508 0.047,0.57 0.078,0.543 0.051,0.524 0.031,0.508 0.078,0.492 0.114,0.476 0.062,0.43 0.047,0.363 0.062,0.383 0.129,0.395 0.078,0.351 0.176,0.524"
       style="fill:none;stroke:#3333cc;stroke-width:0.85;stroke-linecap:round;stroke-linejoin:round;stroke-miterlimit:10;stroke-dasharray:none;stroke-opacity:1"
       transform="scale(1.3333333)" />
    <path
       id="path705"
       d="m 323.48,364.715 0.305,0.176 0.445,0.144 0.508,0.11 0.539,0.062 0.305,0.031 0.301,0.016 h 0.32"
       style="fill:none;stroke:#3333cc;stroke-width:0.85;stroke-linecap:round;stroke-linejoin:round;stroke-miterlimit:10;stroke-dasharray:none;stroke-opacity:1"
       transform="scale(1.3333333)" />
    <path
       id="path706"
       d="m 328.379,357.73 0.207,0.301 v 0.395 l -0.031,0.351 v 0.395 l 0.031,0.43 0.016,0.476 v 0.445 l -0.016,0.43 v 0.445 l 0.016,0.493 v 1.379 l 0.031,0.398 0.015,0.379 v 0.351 l 0.036,0.317 0.031,0.301 v 0.527 l 0.047,0.395 0.176,0.32 0.3,-0.176 0.301,-0.352 0.352,-0.363 0.238,-0.301 0.254,-0.207 0.351,-0.097 0.27,0.222 v 0.352 l -0.27,0.332 -0.32,0.352 -0.43,0.269 -0.429,0.188 -0.379,0.175 -0.399,0.129"
       style="fill:none;stroke:#3333cc;stroke-width:0.85;stroke-linecap:round;stroke-linejoin:round;stroke-miterlimit:10;stroke-dasharray:none;stroke-opacity:1"
       transform="scale(1.3333333)" />
    <path
       id="path707"
       d="m 332.641,363.047 -0.254,0.414 -0.207,0.285 -0.239,0.367 -0.207,0.477 -0.16,0.426 -0.047,0.351 0.032,0.395 0.222,0.273 0.336,-0.097 0.285,-0.254 0.336,-0.348 0.27,-0.352 0.222,-0.316 0.079,-0.301 0.129,0.379 0.171,0.336 0.43,0.078"
       style="fill:none;stroke:#3333cc;stroke-width:0.85;stroke-linecap:round;stroke-linejoin:round;stroke-miterlimit:10;stroke-dasharray:none;stroke-opacity:1"
       transform="scale(1.3333333)" />
    <path
       id="path708"
       d="m 335.535,356.488 -0.097,0.637 -0.079,0.414 -0.047,0.445 -0.046,0.477 -0.047,0.441 -0.035,0.446 v 1.32 l 0.05,0.41 0.125,0.399 0.098,0.347 0.125,0.305 0.176,0.269 0.222,0.254 0.332,0.364 0.368,0.254 0.3,0.082 0.305,-0.036 0.332,-0.14 0.367,-0.114 0.094,0.29 -0.047,0.41 v 0.383"
       style="fill:none;stroke:#3333cc;stroke-width:0.85;stroke-linecap:round;stroke-linejoin:round;stroke-miterlimit:10;stroke-dasharray:none;stroke-opacity:1"
       transform="scale(1.3333333)" />
    <path
       id="path709"
       d="m 339.254,362.047 0.066,0.367 -0.066,0.301 -0.047,0.383 0.082,0.363 0.316,-0.223 0.352,-0.414 0.172,-0.254 0.207,-0.254 0.176,-0.254 0.316,-0.394 0.352,-0.305 0.285,-0.187 0.367,-0.129 0.301,0.269 0.082,0.336 0.047,0.364 v 0.461 l 0.093,0.414 0.129,0.332"
       style="fill:none;stroke:#3333cc;stroke-width:0.85;stroke-linecap:round;stroke-linejoin:round;stroke-miterlimit:10;stroke-dasharray:none;stroke-opacity:1"
       transform="scale(1.3333333)" />
    <path
       id="path710"
       d="m 314.832,373.895 0.145,0.3 0.046,0.446 0.032,0.332 0.015,0.367 0.032,0.43 0.031,0.441 0.015,0.445 0.036,0.461 0.015,0.445 v 0.747 l 0.031,0.347 0.016,0.399 v 0.652 l 0.078,0.57 0.047,0.399 0.082,0.301 0.031,0.347 0.016,-0.301 0.16,-0.585 0.063,-0.352 0.113,-0.332 0.109,-0.301 0.176,-0.492 0.207,-0.399 0.141,-0.382 0.238,-0.223 0.367,0.035 0.207,0.457 0.078,0.414 0.067,0.524 v 0.445 l 0.031,0.492 -0.031,0.399 0.078,0.394 0.031,0.336"
       style="fill:none;stroke:#3333cc;stroke-width:0.85;stroke-linecap:round;stroke-linejoin:round;stroke-miterlimit:10;stroke-dasharray:none;stroke-opacity:1"
       transform="scale(1.3333333)" />
    <path
       id="path711"
       d="m 318.777,378.785 -0.05,0.395 0.05,0.476 0.047,0.43 0.207,0.445 0.254,0.317 0.317,0.304 0.351,0.219 0.379,0.129 0.367,-0.047 0.399,-0.082 0.285,-0.187 0.238,-0.305 0.129,-0.379 0.078,-0.316 -0.078,-0.383 -0.145,-0.317 -0.3,-0.304 -0.305,-0.219 -0.348,-0.207 -0.398,-0.176"
       style="fill:none;stroke:#3333cc;stroke-width:0.85;stroke-linecap:round;stroke-linejoin:round;stroke-miterlimit:10;stroke-dasharray:none;stroke-opacity:1"
       transform="scale(1.3333333)" />
    <path
       id="path712"
       d="m 325.484,372.812 -0.207,0.254 -0.187,0.622 -0.082,0.382 -0.047,0.442 -0.078,0.476 -0.098,0.446 -0.047,0.461 0.016,0.46 -0.016,0.461 -0.031,0.411 0.031,0.414 0.063,0.414 0.051,0.379 0.062,0.304 0.094,0.301 0.144,0.348 0.125,0.289 0.305,0.508 0.207,0.269 0.363,0.395 0.43,0.351 0.383,0.27"
       style="fill:none;stroke:#3333cc;stroke-width:0.85;stroke-linecap:round;stroke-linejoin:round;stroke-miterlimit:10;stroke-dasharray:none;stroke-opacity:1"
       transform="scale(1.3333333)" />
    <path
       id="path713"
       d="m 322.926,379.93 h 0.351 l 0.426,-0.051 0.496,-0.094 0.555,-0.047 0.523,-0.129 0.305,-0.047 0.316,-0.031 0.524,-0.176 0.305,-0.093"
       style="fill:none;stroke:#3333cc;stroke-width:0.85;stroke-linecap:round;stroke-linejoin:round;stroke-miterlimit:10;stroke-dasharray:none;stroke-opacity:1"
       transform="scale(1.3333333)" />
    <path
       id="path714"
       d="m 342.418,359.523 0.398,-0.062 0.352,-0.16 0.348,-0.223 0.32,-0.254 0.301,-0.144 0.336,-0.172 0.347,-0.176"
       style="fill:none;stroke:#3333cc;stroke-width:0.85;stroke-linecap:round;stroke-linejoin:round;stroke-miterlimit:10;stroke-dasharray:none;stroke-opacity:1"
       transform="scale(1.3333333)" />
    <path
       id="path715"
       d="m 365.934,374.195 0.386,0.047 0.344,-0.172 0.215,-0.371 0.125,-0.39 0.078,-0.293 -0.234,-0.219 -0.34,0.172 -0.235,0.293 -0.214,0.343 -0.125,0.372 -0.047,0.312 0.093,0.434 0.247,0.324 0.281,0.125 0.449,0.062 0.469,-0.062 0.293,-0.156 0.343,-0.309 0.137,-0.328 0.078,-0.402 -0.121,-0.372 -0.297,-0.25 -0.375,-0.046 -0.277,0.156 -0.328,0.265 -0.262,0.34 -0.25,0.293 -0.125,0.297 -0.078,0.356 0.125,0.328 0.375,0.168 h 0.434 l 0.343,-0.11 0.293,-0.183 0.25,-0.25 0.172,-0.293 0.168,-0.403 0.016,-0.468 -0.047,-0.34 -0.137,-0.387 -0.328,-0.281 -0.433,-0.047 -0.375,0.125 -0.356,0.25 -0.344,0.355 -0.246,0.418 -0.219,0.391 -0.093,0.418 -0.047,0.355 0.109,0.45 0.278,0.297 0.312,0.046 0.328,-0.078 0.34,-0.125 0.313,-0.218 0.261,-0.293 0.235,-0.34 0.109,-0.313 0.062,-0.324 -0.031,-0.344 -0.093,-0.402 -0.297,-0.234 -0.434,0.062 -0.359,0.219 -0.387,0.402 -0.313,0.465 -0.246,0.469 -0.14,0.418 -0.047,0.355 0.109,0.418 0.34,0.125 0.328,-0.078 0.356,-0.137 0.406,-0.218 0.355,-0.282 0.297,-0.277 0.172,-0.324 0.09,-0.391 -0.184,-0.246 -0.511,0.078 -0.453,0.199 -0.45,0.313 -0.343,0.34 -0.293,0.297 -0.157,0.293 -0.047,0.386 0.266,0.297"
       style="fill:none;stroke:#3333cc;stroke-width:0.85;stroke-linecap:round;stroke-linejoin:round;stroke-miterlimit:10;stroke-dasharray:none;stroke-opacity:1"
       transform="scale(1.3333333)" />
    <path
       id="path716"
       d="m 444.98,374.535 0.438,0.125 0.387,-0.031 0.328,-0.125 0.293,-0.231 0.172,-0.25 0.093,-0.371 v -0.359 l -0.14,-0.324 -0.278,-0.11 -0.437,0.047 -0.371,0.172 -0.391,0.309 -0.355,0.371 -0.297,0.406 -0.262,0.418 -0.156,0.387 -0.047,0.328 0.125,0.402 0.215,0.219 0.375,0.105 0.308,-0.031 0.344,-0.074 0.387,-0.172 0.328,-0.234 0.266,-0.324 0.199,-0.344 0.172,-0.293 0.094,-0.434 -0.032,-0.344 -0.093,-0.293 -0.219,-0.355 -0.293,-0.156 -0.469,-0.016 -0.371,0.125 -0.387,0.277 -0.39,0.375 -0.309,0.434 -0.281,0.449 -0.172,0.434 -0.047,0.355 0.109,0.344 0.172,0.277 0.434,0.172 0.39,0.016 0.434,-0.063 0.449,-0.171 0.391,-0.247 0.387,-0.25 0.297,-0.292 0.218,-0.297 0.121,-0.278 0.079,-0.297 -0.079,-0.418 -0.214,-0.339 -0.297,-0.094 -0.371,0.015 -0.422,0.204 -0.434,0.261 -0.391,0.371 -0.386,0.391 -0.324,0.387 -0.235,0.386 -0.078,0.375 0.031,0.356 0.266,0.25 0.465,0.047 0.34,-0.078 0.343,-0.11 0.34,-0.203 0.297,-0.246 0.219,-0.234 0.168,-0.371 0.047,-0.375 -0.215,-0.262 h -0.344 l -0.324,0.094 -0.406,0.23 -0.418,0.266 -0.375,0.293 -0.215,0.297 -0.172,0.277 -0.016,0.344 0.282,0.23 h 0.464 l 0.371,-0.125 0.391,-0.168 0.371,-0.219 0.313,-0.246 0.215,-0.297 0.171,-0.246 0.079,-0.39 -0.172,-0.309 -0.387,-0.125 -0.344,0.047 -0.387,0.094 -0.402,0.199 -0.344,0.187 -0.281,0.297 -0.105,0.325"
       style="fill:none;stroke:#3333cc;stroke-width:0.85;stroke-linecap:round;stroke-linejoin:round;stroke-miterlimit:10;stroke-dasharray:none;stroke-opacity:1"
       transform="scale(1.3333333)" />
    <path
       id="path717"
       d="m 405.395,355.312 0.296,0.137 0.387,-0.027 0.297,-0.141 0.293,-0.297 0.187,-0.293 v -0.312 l -0.355,-0.121 -0.422,0.168 -0.262,0.219 -0.218,0.246 -0.172,0.297 -0.031,0.308 0.25,0.266 0.308,0.109 0.391,-0.078 0.324,-0.25 0.219,-0.293 0.047,-0.312 -0.079,-0.309 -0.296,-0.281 -0.309,-0.059 h -0.387 l -0.468,0.168 -0.418,0.266 -0.391,0.293 -0.309,0.343 -0.203,0.34 -0.078,0.34 0.031,0.406 0.266,0.231 0.434,0.047 0.375,-0.047 0.418,-0.121 0.355,-0.203 0.328,-0.25 0.219,-0.262 0.168,-0.25 0.125,-0.356 -0.047,-0.371 -0.277,-0.297 -0.438,-0.062 -0.308,0.062 -0.344,0.157 -0.278,0.215 -0.218,0.218 -0.141,0.371 0.047,0.313 0.297,0.156 0.293,0.059 0.344,-0.047 0.355,-0.121 0.391,-0.188 0.277,-0.25 0.234,-0.215 0.172,-0.343 -0.172,-0.293 -0.355,0.125 -0.438,0.246 -0.496,0.312 -0.422,0.34 -0.308,0.313 -0.156,0.293 0.031,0.328 0.312,0.136 0.418,-0.078 0.282,-0.168 0.23,-0.218 0.25,-0.231 0.172,-0.25 0.168,-0.324 -0.215,-0.266 -0.375,0.047 -0.34,0.246"
       style="fill:none;stroke:#000000;stroke-width:0.85;stroke-linecap:round;stroke-linejoin:round;stroke-miterlimit:10;stroke-dasharray:none;stroke-opacity:1"
       transform="scale(1.3333333)" />
    <path
       id="path718"
       d="m 406.621,388.406 -0.23,0.235 -0.313,0.293 -0.215,0.296 -0.078,0.309 0.324,0.172 0.391,-0.016 0.387,-0.203 0.265,-0.172 0.215,-0.215 0.172,-0.25 0.172,-0.308 v -0.313 l -0.297,-0.105 -0.387,0.168 -0.359,0.25 -0.371,0.246 -0.266,0.234 -0.215,0.231 -0.156,0.281 0.156,0.324 0.309,0.094 0.391,-0.078 0.293,-0.262 0.125,-0.312 -0.094,-0.387 h -0.34 l -0.375,0.109 -0.309,0.278 -0.171,0.343 0.062,0.293 0.34,0.141 0.422,-0.031 0.386,-0.141 0.344,-0.199 0.278,-0.266 0.14,-0.308 -0.265,-0.25 -0.372,0.047 -0.296,0.093 -0.309,0.172 -0.266,0.199 -0.293,0.313 -0.078,0.324 0.2,0.266 0.406,0.09 0.386,-0.09 0.407,-0.172 0.277,-0.219 0.203,-0.308 0.078,-0.297 -0.297,-0.121 -0.293,0.074 -0.343,0.14 -0.34,0.204 -0.313,0.23 0.047,0.328 0.344,0.047 0.355,-0.125 0.344,-0.141"
       style="fill:none;stroke:#000000;stroke-width:0.85;stroke-linecap:round;stroke-linejoin:round;stroke-miterlimit:10;stroke-dasharray:none;stroke-opacity:1"
       transform="scale(1.3333333)" />
    <path
       id="path719"
       d="m 368.883,371.199 0.375,-0.047 0.308,-0.125 0.297,-0.199 0.344,-0.266 0.246,-0.167 0.266,-0.172 0.34,-0.25 0.39,-0.262 0.496,-0.266 0.528,-0.277 0.297,-0.172 0.292,-0.141 0.297,-0.167 0.293,-0.172 0.313,-0.204 0.297,-0.183 0.324,-0.203 0.312,-0.188 0.309,-0.199 0.297,-0.187 0.293,-0.204 0.297,-0.168 0.293,-0.171 0.297,-0.172 0.296,-0.168 0.293,-0.141 0.282,-0.156 0.293,-0.141 0.297,-0.152 0.296,-0.141 0.309,-0.156 0.297,-0.141 0.324,-0.121 0.313,-0.125 0.324,-0.14 0.312,-0.125 0.325,-0.121 0.343,-0.094 0.309,-0.125 0.297,-0.141 0.293,-0.125 0.312,-0.121 0.328,-0.156 0.293,-0.141 0.282,-0.125 0.339,-0.136 0.344,-0.157 0.324,-0.14 0.344,-0.125 0.34,-0.137 0.344,-0.156 0.34,-0.141 0.343,-0.125 0.371,-0.121 0.36,-0.141 0.34,-0.156 0.343,-0.141 0.34,-0.152 0.344,-0.141 0.324,-0.14 0.313,-0.152 0.324,-0.141 0.312,-0.156 0.325,-0.141 0.343,-0.121 0.34,-0.094 0.344,-0.125 0.34,-0.125 0.344,-0.125 0.355,-0.09 0.375,-0.125 0.309,-0.125 0.328,-0.093 0.34,-0.079 0.312,-0.093 0.293,-0.09 0.563,-0.172 0.511,-0.156 0.465,-0.141 0.438,-0.152 0.449,-0.141 0.433,-0.125 0.438,-0.125 0.418,-0.121 0.434,-0.125 0.468,-0.094 0.403,-0.093 0.359,-0.094 0.324,-0.106 0.406,-0.093 0.325,-0.094 0.312,-0.078 0.293,-0.078"
       style="fill:none;stroke:#3333cc;stroke-width:0.85;stroke-linecap:round;stroke-linejoin:round;stroke-miterlimit:10;stroke-dasharray:none;stroke-opacity:1"
       transform="scale(1.3333333)" />
    <path
       id="path720"
       d="m 409.59,356.352 0.449,0.125 0.391,0.078 0.418,0.043 0.406,0.047 0.465,0.031 h 0.449 l 0.469,0.015 h 0.449 l 0.512,0.047 h 1.836 l 0.339,0.032 0.403,0.015 0.359,0.063 0.371,0.015 0.391,0.047 0.387,0.047 0.39,0.031 0.371,0.032 0.36,0.046 0.402,0.043 0.359,0.047 0.372,0.047 0.355,0.047 0.406,0.047 0.387,0.047 0.391,0.062 0.418,0.047 0.406,0.063 0.402,0.078 0.356,0.074 0.375,0.078 0.386,0.094 0.36,0.094 0.371,0.078 0.375,0.093 0.355,0.122 0.375,0.093 0.309,0.11 0.328,0.093 0.34,0.094 0.344,0.094 0.339,0.074 0.344,0.094 0.34,0.125 0.312,0.125 0.325,0.125 0.343,0.121 0.34,0.141 0.344,0.125 0.309,0.125 0.343,0.136 0.34,0.157 0.344,0.14 0.324,0.156 0.313,0.137 0.34,0.172 0.328,0.172 0.297,0.152 0.308,0.141 0.313,0.141 0.339,0.156 0.329,0.136 0.339,0.172 0.375,0.172 0.34,0.156 0.344,0.137 0.309,0.172 0.343,0.156 0.309,0.137 0.281,0.172 0.262,0.172 0.297,0.172 0.512,0.293 0.468,0.339 0.387,0.344 0.371,0.34 0.313,0.313 0.297,0.324 0.261,0.34 0.281,0.312 0.262,0.34 0.297,0.375 0.297,0.387 0.23,0.355 0.235,0.344 0.234,0.34 0.246,0.324 0.203,0.281 0.141,0.293 0.121,0.281 0.125,0.34 0.094,0.313 0.078,0.293 0.125,0.297"
       style="fill:none;stroke:#3333cc;stroke-width:0.85;stroke-linecap:round;stroke-linejoin:round;stroke-miterlimit:10;stroke-dasharray:none;stroke-opacity:1"
       transform="scale(1.3333333)" />
    <path
       id="path721"
       d="m 395.98,356.18 0.45,-0.047 h 1.09 l 0.464,0.031 0.496,0.063 0.485,0.109 0.449,0.062 0.402,0.11 0.391,0.168 0.355,0.14 0.282,0.172 0.277,0.2 0.313,0.265 0.218,0.293 0.106,0.391 0.047,0.308 -0.075,0.496 -0.046,0.36 -0.094,0.387 -0.125,0.386 -0.125,0.403 -0.094,0.343 -0.125,0.309 -0.152,0.266 -0.172,0.371 -0.125,0.312 -0.11,0.324"
       style="fill:none;stroke:#3333cc;stroke-width:0.85;stroke-linecap:round;stroke-linejoin:round;stroke-miterlimit:10;stroke-dasharray:none;stroke-opacity:1"
       transform="scale(1.3333333)" />
    <path
       id="path722"
       d="m 436.578,369.152 h 0.434 l 0.449,0.094 0.406,0.09 0.371,0.203 0.297,0.141 0.387,0.215 0.297,0.171 0.308,0.204 0.328,0.14 0.309,0.168 0.344,0.156 0.371,0.125 0.391,0.121 0.386,0.094 0.391,0.078 0.387,0.063 0.343,0.078 0.45,0.047 h 0.312 l 0.277,-0.125 -0.23,-0.356 -0.141,-0.297 -0.156,-0.339 -0.109,-0.344 -0.078,-0.34 -0.047,-0.34 -0.047,-0.344 -0.063,-0.433 -0.015,-0.418 v -0.371"
       style="fill:none;stroke:#3333cc;stroke-width:0.85;stroke-linecap:round;stroke-linejoin:round;stroke-miterlimit:10;stroke-dasharray:none;stroke-opacity:1"
       transform="scale(1.3333333)" />
    <path
       id="path723"
       d="m 371.371,376.07 0.231,0.25 0.218,0.262 0.25,0.344 0.231,0.262 0.281,0.265 0.344,0.277 0.386,0.235 0.434,0.246 0.5,0.266 0.262,0.156 0.484,0.262 0.278,0.14 0.265,0.156 0.527,0.293 0.297,0.141 0.325,0.125 0.312,0.137 0.324,0.156 0.344,0.172 0.356,0.14 0.343,0.153 0.371,0.14 0.391,0.172 0.371,0.153 0.356,0.14 0.375,0.141 0.386,0.172 0.375,0.152 0.356,0.141 0.375,0.156 0.355,0.141 0.375,0.152 0.34,0.141 0.375,0.125 0.356,0.14 0.39,0.153 0.371,0.14 0.387,0.125 0.422,0.141 0.387,0.152 0.375,0.141 0.355,0.125 0.375,0.14 0.356,0.153 0.343,0.14 0.34,0.157 0.375,0.168 0.371,0.171 0.344,0.141 0.34,0.156 0.359,0.168 0.34,0.172 0.344,0.172 0.371,0.168 0.387,0.172 0.39,0.141 0.371,0.14 0.391,0.168 0.387,0.172 0.39,0.156 0.371,0.121 0.375,0.125 0.356,0.11 0.371,0.125 0.344,0.125 0.34,0.09 0.343,0.109 0.309,0.094 0.328,0.093 0.312,0.11 0.325,0.062 0.281,0.106 0.293,0.094 0.281,0.125 0.278,0.125 0.546,0.183 0.512,0.203 0.465,0.172 0.437,0.184 0.372,0.156 0.343,0.172 0.309,0.168 0.375,0.219 0.262,0.218"
       style="fill:none;stroke:#ff0000;stroke-width:0.85;stroke-linecap:round;stroke-linejoin:round;stroke-miterlimit:10;stroke-dasharray:none;stroke-opacity:1"
       transform="scale(1.3333333)" />
    <path
       id="path724"
       d="m 400.75,387.383 0.387,-0.047 h 0.328 l 0.308,0.141 0.344,0.246 0.25,0.187 0.184,0.246 0.156,0.266 0.016,0.34 -0.172,0.39 -0.215,0.293 -0.344,0.328 -0.387,0.309 -0.468,0.309 -0.465,0.297 -0.434,0.277 -0.422,0.234 -0.386,0.219 -0.313,0.199 -0.277,0.172"
       style="fill:none;stroke:#ff0000;stroke-width:0.85;stroke-linecap:round;stroke-linejoin:round;stroke-miterlimit:10;stroke-dasharray:none;stroke-opacity:1"
       transform="scale(1.3333333)" />
    <path
       id="path725"
       d="m 409.84,389.492 0.324,-0.14 0.512,-0.168 0.531,-0.157 0.496,-0.14 0.512,-0.125 0.484,-0.137 0.543,-0.156 0.481,-0.141 0.558,-0.172 0.574,-0.136 0.313,-0.11 0.324,-0.094 0.61,-0.171 0.339,-0.09 0.344,-0.125 0.34,-0.125 0.344,-0.125 0.371,-0.125 0.359,-0.137 0.34,-0.156 0.344,-0.141 0.371,-0.137 0.355,-0.172 0.344,-0.171 0.371,-0.172 0.422,-0.153 0.402,-0.171 0.407,-0.188 0.402,-0.199 0.449,-0.172 0.406,-0.203 0.403,-0.184 0.406,-0.172 0.465,-0.172 0.465,-0.167 0.437,-0.172 0.45,-0.172 0.464,-0.153 0.453,-0.171 0.45,-0.188 0.465,-0.172 0.515,-0.168 0.481,-0.203 0.496,-0.172 0.511,-0.168 0.516,-0.187 0.465,-0.203 0.434,-0.184 0.437,-0.203 0.465,-0.184 0.465,-0.234 0.437,-0.219 0.449,-0.183 0.434,-0.204 0.437,-0.187 0.45,-0.199 0.406,-0.172 0.449,-0.172 0.403,-0.168 0.375,-0.203 0.355,-0.172 0.406,-0.137 0.356,-0.14 0.343,-0.172 0.325,-0.156 0.312,-0.122 0.293,-0.125 0.512,-0.234 0.547,-0.199 0.465,-0.188 0.386,-0.156 0.313,-0.094 0.371,-0.09"
       style="fill:none;stroke:#ff0000;stroke-width:0.85;stroke-linecap:round;stroke-linejoin:round;stroke-miterlimit:10;stroke-dasharray:none;stroke-opacity:1"
       transform="scale(1.3333333)" />
    <path
       id="path726"
       d="m 436.703,376.211 0.418,0.031 0.434,0.016 h 1.168 l 0.402,0.031 0.387,0.031 0.39,0.063 0.356,0.078 0.344,0.137 0.277,0.156 0.234,0.308 0.063,0.454 -0.078,0.339 -0.157,0.45 -0.23,0.496 -0.156,0.265 -0.313,0.543 -0.152,0.262 -0.281,0.516 -0.282,0.48 -0.215,0.465 -0.187,0.418 -0.172,0.355 -0.156,0.329"
       style="fill:none;stroke:#ff0000;stroke-width:0.85;stroke-linecap:round;stroke-linejoin:round;stroke-miterlimit:10;stroke-dasharray:none;stroke-opacity:1"
       transform="scale(1.3333333)" />
    <path
       id="path727"
       d="m 407.617,344.527 -0.203,0.297 -0.184,0.246 -0.39,0.418 -0.387,0.438 -0.422,0.386 -0.418,0.418 -0.465,0.282 -0.39,0.34 -0.309,0.25 -0.234,0.261 -0.281,0.328 -0.293,0.262"
       style="fill:none;stroke:#000000;stroke-width:0.85;stroke-linecap:round;stroke-linejoin:round;stroke-miterlimit:10;stroke-dasharray:none;stroke-opacity:1"
       transform="scale(1.3333333)" />
    <path
       id="path728"
       d="m 402.551,344.977 0.297,0.187 0.371,0.219 0.39,0.168 0.418,0.203 0.438,0.219 0.433,0.168 0.45,0.203 0.437,0.187 0.418,0.215 0.387,0.203 0.422,0.172 0.402,0.215 0.406,0.219 0.387,0.246"
       style="fill:none;stroke:#000000;stroke-width:0.85;stroke-linecap:round;stroke-linejoin:round;stroke-miterlimit:10;stroke-dasharray:none;stroke-opacity:1"
       transform="scale(1.3333333)" />
    <path
       id="path729"
       d="m 404.508,377.516 0.172,0.433 0.172,0.293 0.339,0.313 0.282,0.14 0.343,0.106 0.356,0.047 h 0.387 l 0.406,-0.047 0.402,-0.106 0.422,-0.14 0.418,-0.172 0.391,-0.188 0.386,-0.168 0.325,-0.203 0.281,-0.172 0.281,-0.136 0.293,-0.157 -0.172,0.387 -0.324,0.465 -0.172,0.266 -0.172,0.293 -0.168,0.328 -0.172,0.277 -0.14,0.328 -0.156,0.293 -0.168,0.297 -0.188,0.262 -0.172,0.265 -0.172,0.262 -0.168,0.281 -0.203,0.231 -0.172,0.281 -0.172,0.262 -0.168,0.25 -0.375,0.433 -0.339,0.434 -0.282,0.344 -0.234,0.34 -0.184,0.328 -0.171,0.339"
       style="fill:none;stroke:#000000;stroke-width:0.85;stroke-linecap:round;stroke-linejoin:round;stroke-miterlimit:10;stroke-dasharray:none;stroke-opacity:1"
       transform="scale(1.3333333)" />
    <path
       id="path730"
       d="m 319.074,388.375 0.25,0.266 0.34,0.386 0.281,0.278 0.309,0.234 0.312,0.203 0.465,0.246 0.512,0.219 0.297,0.094 0.328,0.09 0.309,0.109 0.375,0.094 0.386,0.125 0.418,0.093 0.391,0.094 0.418,0.074 0.453,0.094 0.449,0.078 0.434,0.078 0.469,0.079 0.48,0.062 0.496,0.047 0.512,0.031 0.531,0.043 0.59,0.047 0.59,0.031 0.59,0.016 h 1.785 l 0.578,-0.016 0.59,-0.031 0.636,-0.016 0.653,-0.046 0.668,-0.075 1.367,-0.093 0.652,-0.079 0.637,-0.093 0.668,-0.125 0.652,-0.121 0.668,-0.157 0.653,-0.14 0.668,-0.141 0.683,-0.152 0.653,-0.141 0.605,-0.172 0.621,-0.199 0.609,-0.219 0.59,-0.218 0.528,-0.2 0.527,-0.218 0.527,-0.235 0.516,-0.277 0.496,-0.234 0.449,-0.247 0.453,-0.265 0.418,-0.293 0.387,-0.281 0.359,-0.262 0.34,-0.266 0.297,-0.246 0.266,-0.25 0.23,-0.23"
       style="fill:none;stroke:#000000;stroke-width:0.85;stroke-linecap:round;stroke-linejoin:round;stroke-miterlimit:10;stroke-dasharray:none;stroke-opacity:1"
       transform="scale(1.3333333)" />
    <path
       id="path731"
       d="m 348.375,381.332 0.578,-0.047 0.559,-0.031 0.558,-0.047 h 0.59 l 0.313,-0.016 h 0.636 l 0.34,-0.031 h 0.375 l 0.356,0.031 0.375,0.047 0.418,0.047 0.386,0.078 0.36,0.094 0.34,0.121 0.328,0.172 0.293,0.172 0.468,0.418 0.184,0.262 0.172,0.296 0.156,0.262 0.094,0.297 0.094,0.34 0.047,0.359 v 0.371 l -0.016,0.387 -0.047,0.391 -0.078,0.386 -0.094,0.371 -0.125,0.36 -0.125,0.371 -0.168,0.34 -0.172,0.344 -0.172,0.308 -0.171,0.328 -0.2,0.293 -0.187,0.266 -0.203,0.262 -0.172,0.265 -0.168,0.246 -0.172,0.25 -0.313,0.434 -0.292,0.387"
       style="fill:none;stroke:#000000;stroke-width:0.85;stroke-linecap:round;stroke-linejoin:round;stroke-miterlimit:10;stroke-dasharray:none;stroke-opacity:1"
       transform="scale(1.3333333)" />
    <path
       id="path732"
       d="m 313.574,393.129 -0.269,0.234 -0.371,0.223 -0.317,0.23 -0.234,0.192 -0.242,0.262 -0.27,0.253 -0.242,0.309 -0.262,0.301 -0.234,0.347 -0.211,0.309 -0.176,0.328 -0.176,0.321 -0.113,0.289 -0.109,0.367 -0.075,0.351 -0.019,0.336 0.172,0.321 0.32,0.164 0.32,0.058 0.321,-0.078 0.347,-0.144 0.321,-0.215 0.261,-0.153 0.25,-0.183 0.293,-0.196 0.289,-0.281 0.321,-0.277 0.308,-0.313 0.282,-0.316 0.289,-0.332 0.293,-0.316 0.289,-0.309 0.242,-0.273 0.203,-0.231 0.223,-0.273 0.175,-0.27 -0.253,0.301 -0.25,0.414 -0.282,0.406 -0.25,0.485 -0.281,0.472 -0.242,0.504 -0.242,0.457 -0.184,0.426 -0.168,0.375 -0.094,0.34 -0.089,0.301"
       style="fill:none;stroke:#000000;stroke-width:0.85;stroke-linecap:round;stroke-linejoin:round;stroke-miterlimit:10;stroke-dasharray:none;stroke-opacity:1"
       transform="scale(1.3333333)" />
    <path
       id="path733"
       d="m 316.238,397.5 0.36,-0.039 0.222,0.242 -0.164,0.426 -0.215,0.332 -0.214,0.316 -0.204,0.262 -0.269,0.32 0.473,-0.183 0.371,-0.262 0.297,-0.242 0.32,-0.25 0.242,-0.234 0.32,-0.262 0.309,-0.145 0.031,0.348 0.008,0.301 0.391,-0.059 0.367,-0.105 0.32,-0.047 0.328,0.019 0.262,0.192 0.086,0.308 -0.059,0.348 -0.058,0.332"
       style="fill:none;stroke:#000000;stroke-width:0.85;stroke-linecap:round;stroke-linejoin:round;stroke-miterlimit:10;stroke-dasharray:none;stroke-opacity:1"
       transform="scale(1.3333333)" />
    <path
       id="path734"
       d="m 321.66,398.508 0.078,0.289 0.071,0.379 0.054,0.367 0.215,0.269 0.32,-0.152 0.348,0.047 0.215,0.242 0.289,0.203 0.348,-0.066 0.164,-0.281 0.07,-0.367 0.086,-0.34 0.184,-0.27"
       style="fill:none;stroke:#000000;stroke-width:0.85;stroke-linecap:round;stroke-linejoin:round;stroke-miterlimit:10;stroke-dasharray:none;stroke-opacity:1"
       transform="scale(1.3333333)" />
    <path
       id="path735"
       d="m 327.055,398.082 -0.297,-0.027 -0.391,0.183 -0.242,0.25 -0.164,0.289 -0.184,0.387 -0.058,0.301 0.136,0.32 0.348,-0.09 0.32,-0.25 0.215,-0.222 0.262,-0.34 0.184,-0.297 0.164,-0.32 0.047,0.379 -0.028,0.394 v 0.379 l 0.039,0.348 0.106,0.308 0.156,0.289 0.27,0.293 0.32,0.145"
       style="fill:none;stroke:#000000;stroke-width:0.85;stroke-linecap:round;stroke-linejoin:round;stroke-miterlimit:10;stroke-dasharray:none;stroke-opacity:1"
       transform="scale(1.3333333)" />
    <path
       id="path736"
       d="m 329.496,398.141 v 0.308 l -0.019,0.399 0.031,0.328 0.281,0.152 0.356,-0.183 0.312,-0.231 0.262,-0.176 0.301,-0.144 0.347,0.019 0.262,0.242 -0.02,0.321 -0.07,0.308"
       style="fill:none;stroke:#000000;stroke-width:0.85;stroke-linecap:round;stroke-linejoin:round;stroke-miterlimit:10;stroke-dasharray:none;stroke-opacity:1"
       transform="scale(1.3333333)" />
    <path
       id="path737"
       d="m 334.496,398.449 -0.293,0.078 -0.316,0.243 -0.282,0.316 -0.175,0.332 -0.078,0.309 0.031,0.3 h 0.336 l 0.332,-0.273 0.23,-0.262 0.242,-0.269 0.196,-0.309 0.183,-0.32 0.157,-0.356 0.152,-0.445 0.137,-0.504 0.156,-0.531 0.105,-0.496 0.118,-0.414 0.074,-0.301 -0.125,0.379 -0.133,0.558 -0.059,0.313 -0.058,0.297 -0.078,0.562 -0.059,0.532 -0.019,0.484 0.046,0.473 0.039,0.425 0.129,0.379 0.153,0.321 0.215,0.257"
       style="fill:none;stroke:#000000;stroke-width:0.85;stroke-linecap:round;stroke-linejoin:round;stroke-miterlimit:10;stroke-dasharray:none;stroke-opacity:1"
       transform="scale(1.3333333)" />
    <path
       id="path738"
       d="m 338.836,394 -0.09,0.328 -0.144,0.289 -0.137,0.332 -0.133,0.414 -0.117,0.485 -0.125,0.55 -0.098,0.59 -0.09,0.582 -0.074,0.539 -0.058,0.504 v 0.485 l 0.027,0.453 0.078,0.445 0.086,0.379"
       style="fill:none;stroke:#000000;stroke-width:0.85;stroke-linecap:round;stroke-linejoin:round;stroke-miterlimit:10;stroke-dasharray:none;stroke-opacity:1"
       transform="scale(1.3333333)" />
    <path
       id="path739"
       d="m 339.734,397.926 -0.097,0.426 -0.028,0.32 -0.031,0.426 0.078,0.367 0.137,0.301 0.242,0.261 0.309,0.106 0.359,-0.059 0.281,-0.183 0.243,-0.301 0.214,-0.356 0.133,-0.32 0.078,0.289 v 0.32 l 0.047,0.426 0.059,0.387 0.129,0.32"
       style="fill:none;stroke:#000000;stroke-width:0.85;stroke-linecap:round;stroke-linejoin:round;stroke-miterlimit:10;stroke-dasharray:none;stroke-opacity:1"
       transform="scale(1.3333333)" />
    <path
       id="path740"
       d="m 344.172,397.996 0.058,0.387 -0.058,0.355 -0.098,0.36 -0.047,0.308 0.106,0.289 0.34,-0.172 0.336,-0.3 0.214,-0.211 0.25,-0.313 0.204,-0.222 0.168,0.273 v 0.348 l 0.054,0.347 0.235,0.203 0.32,0.059 0.289,-0.078 0.32,-0.145 0.27,-0.183 0.262,-0.231 0.058,0.453 -0.086,0.61 -0.058,0.34 -0.079,0.347 -0.078,0.356 -0.074,0.398 -0.078,0.387 -0.09,0.355 -0.094,0.372 -0.089,0.374 -0.106,0.399 -0.105,0.375 -0.11,0.387 -0.105,0.359 -0.125,0.34 -0.117,0.297 -0.125,0.293 -0.215,0.5 -0.231,0.379 -0.195,0.289 -0.336,0.183 -0.293,-0.242 -0.039,-0.394 0.039,-0.532 0.051,-0.32 0.047,-0.34 0.078,-0.347 0.086,-0.329 0.097,-0.339 0.067,-0.329 0.098,-0.32 0.117,-0.316 0.125,-0.321 0.125,-0.308 0.136,-0.301 0.137,-0.309 0.152,-0.3 0.149,-0.289 0.172,-0.274 0.359,-0.453 0.36,-0.426 0.355,-0.347 0.371,-0.309"
       style="fill:none;stroke:#000000;stroke-width:0.85;stroke-linecap:round;stroke-linejoin:round;stroke-miterlimit:10;stroke-dasharray:none;stroke-opacity:1"
       transform="scale(1.3333333)" />
    <path
       id="path741"
       d="m 352.586,394.695 0.371,-0.105 0.309,-0.098 0.851,-0.172 0.301,-0.019 0.426,0.078 0.308,0.191 0.118,0.289 -0.079,0.368 -0.144,0.273 -0.211,0.301 -0.234,0.308 -0.164,0.27 -0.184,0.379 -0.031,0.308 0.168,0.262 0.375,0.086 0.425,-0.019 0.313,-0.059 0.289,-0.078"
       style="fill:none;stroke:#000000;stroke-width:0.85;stroke-linecap:round;stroke-linejoin:round;stroke-miterlimit:10;stroke-dasharray:none;stroke-opacity:1"
       transform="scale(1.3333333)" />
    <path
       id="path742"
       d="m 356.867,394.137 -0.058,0.425 -0.047,0.407 0.027,0.406 0.129,0.355 0.191,0.274 0.293,0.191 0.414,0.067 0.321,-0.035 0.367,-0.09 0.332,-0.164 0.316,-0.203 0.262,-0.243 0.195,-0.269 0.176,-0.309 0.113,-0.332 0.071,-0.367 0.027,-0.355 v -0.34 l -0.027,-0.426 -0.125,0.367 0.054,0.379 0.11,0.348 0.172,0.347 0.195,0.289 0.242,0.293 0.262,0.243 0.289,0.257 0.293,0.215 0.297,0.211 0.312,0.184 0.321,0.176 0.289,0.175"
       style="fill:none;stroke:#000000;stroke-width:0.85;stroke-linecap:round;stroke-linejoin:round;stroke-miterlimit:10;stroke-dasharray:none;stroke-opacity:1"
       transform="scale(1.3333333)" />
    <path
       id="path743"
       d="m 332.023,403.586 -0.335,-0.098 h -0.301 l -0.426,0.078 -0.313,0.137 -0.289,0.231 -0.269,0.359 -0.274,0.461 -0.269,0.484 -0.254,0.532 -0.211,0.503 -0.164,0.485 -0.109,0.406 0.019,0.348 0.145,0.386 0.281,0.243 0.351,0.05 0.407,-0.097 0.308,-0.156 0.321,-0.172 0.289,-0.215 0.273,-0.231 0.231,-0.215 0.254,-0.3 0.21,-0.309 -0.007,0.309 -0.032,0.332 v 0.347 l 0.032,0.348 0.058,0.34 0.086,0.316 0.145,0.274 0.254,0.316 0.289,0.184"
       style="fill:none;stroke:#000000;stroke-width:0.85;stroke-linecap:round;stroke-linejoin:round;stroke-miterlimit:10;stroke-dasharray:none;stroke-opacity:1"
       transform="scale(1.3333333)" />
    <path
       id="path744"
       d="m 334.234,407.125 0.086,0.301 0.02,0.426 -0.02,0.3 -0.008,0.395 -0.058,0.308 -0.145,0.321 -0.148,-0.309 0.039,-0.406 0.109,-0.418 0.203,-0.316 0.29,-0.215 0.406,-0.098 0.347,-0.035 0.426,0.035 0.43,0.031 0.426,0.067 0.367,0.078"
       style="fill:none;stroke:#000000;stroke-width:0.85;stroke-linecap:round;stroke-linejoin:round;stroke-miterlimit:10;stroke-dasharray:none;stroke-opacity:1"
       transform="scale(1.3333333)" />
    <path
       id="path745"
       d="m 338.137,407.098 -0.125,0.316 -0.215,0.313 -0.106,0.335 -0.058,0.321 0.031,0.301 0.328,0.105 0.262,-0.176 0.172,-0.25 0.176,-0.32 0.125,0.387 0.164,0.351 0.281,0.297 0.379,0.184 0.301,0.058 0.32,0.051 0.32,0.02"
       style="fill:none;stroke:#000000;stroke-width:0.85;stroke-linecap:round;stroke-linejoin:round;stroke-miterlimit:10;stroke-dasharray:none;stroke-opacity:1"
       transform="scale(1.3333333)" />
    <path
       id="path746"
       d="m 342.078,407.766 0.106,0.355 v 0.32 l -0.02,0.414 -0.035,0.426 -0.051,0.407 -0.086,0.367 -0.105,0.379 -0.129,0.3 -0.106,0.309 -0.156,0.367 -0.133,0.27 0.125,-0.375 0.211,-0.399 0.215,-0.394 0.215,-0.367 0.242,-0.379 0.258,-0.34 0.242,-0.297 0.274,-0.242 0.242,-0.235 0.347,-0.222 0.321,-0.094 0.34,0.133 0.132,0.281 0.051,0.359 v 0.426 l -0.019,0.336 0.066,0.34"
       style="fill:none;stroke:#000000;stroke-width:0.85;stroke-linecap:round;stroke-linejoin:round;stroke-miterlimit:10;stroke-dasharray:none;stroke-opacity:1"
       transform="scale(1.3333333)" />
    <path
       id="path747"
       d="m 349.836,403.16 -0.047,0.434 -0.156,0.457 -0.192,0.578 -0.109,0.301 -0.125,0.308 -0.137,0.301 -0.125,0.34 -0.136,0.316 -0.145,0.293 -0.172,0.289 -0.168,0.282 -0.164,0.289 -0.152,0.269 -0.262,0.496 -0.223,0.407 -0.148,0.347 -0.086,0.387 0.301,0.105 0.289,-0.152 0.351,-0.215 0.368,-0.23 0.308,-0.196 0.399,-0.156 0.32,0.031 0.27,0.204 0.156,0.32 0.058,0.426 -0.031,0.425 -0.125,0.375 -0.086,0.368 -0.051,0.328"
       style="fill:none;stroke:#000000;stroke-width:0.85;stroke-linecap:round;stroke-linejoin:round;stroke-miterlimit:10;stroke-dasharray:none;stroke-opacity:1"
       transform="scale(1.3333333)" />
  </g>
</svg>
