<?xml version="1.0" encoding="UTF-8" standalone="no"?>
<!-- Created with Inkscape (http://www.inkscape.org/) -->

<svg
   version="1.1"
   id="svg1"
   width="216.89333"
   height="64.414665"
   viewBox="0 0 216.89333 64.414666"
   sodipodi:docname="hyper_graph.svg"
   inkscape:version="1.4.2 (f4327f4, 2025-05-13)"
   xmlns:inkscape="http://www.inkscape.org/namespaces/inkscape"
   xmlns:sodipodi="http://sodipodi.sourceforge.net/DTD/sodipodi-0.dtd"
   xmlns="http://www.w3.org/2000/svg"
   xmlns:svg="http://www.w3.org/2000/svg">
  <defs
     id="defs1" />
  <sodipodi:namedview
     id="namedview1"
     pagecolor="#ffffff"
     bordercolor="#000000"
     borderopacity="0.25"
     inkscape:showpageshadow="2"
     inkscape:pageopacity="0.0"
     inkscape:pagecheckerboard="0"
     inkscape:deskcolor="#d1d1d1"
     inkscape:zoom="0.79878967"
     inkscape:cx="23.785986"
     inkscape:cy="-65.098488"
     inkscape:window-width="1440"
     inkscape:window-height="878"
     inkscape:window-x="-6"
     inkscape:window-y="-6"
     inkscape:window-maximized="1"
     inkscape:current-layer="g1">
    <inkscape:page
       x="0"
       y="0"
       inkscape:label="1"
       id="page1"
       width="216.89333"
       height="64.414665"
       margin="0"
       bleed="0" />
  </sodipodi:namedview>
  <g
     id="g1"
     inkscape:groupmode="layer"
     inkscape:label="1"
     transform="translate(-243.43332,-470.56399)">
    <path
       id="path613"
       d="m 204.809,376.195 -0.075,0.383 0.34,0.106 0.266,-0.297 0.121,-0.352 v -0.414 l -0.266,-0.176 -0.328,0.266 -0.277,0.516 -0.106,0.484 0.09,0.328 0.281,0.133 0.442,-0.106 0.457,-0.398 0.207,-0.25 0.281,-0.473 0.09,-0.457 -0.117,-0.441 -0.254,-0.207 -0.367,0.086 -0.282,0.191 -0.281,0.254 -0.25,0.277 -0.207,0.297 -0.148,0.309 -0.106,0.531 0.133,0.387 0.371,0.16 0.563,-0.133 0.414,-0.324 0.25,-0.441 0.164,-0.563 0.058,-0.293 -0.058,-0.445 -0.254,-0.235 -0.488,0.075 -0.457,0.324 -0.309,0.414 -0.09,0.383 0.25,0.34 0.43,0.043 0.59,-0.207 0.312,-0.176 0.235,-0.223 0.254,-0.457 0.042,-0.367 -0.398,-0.195 -0.457,0.238 -0.371,0.324 -0.149,0.281"
       style="fill:none;stroke:#3333cc;stroke-width:0.85;stroke-linecap:round;stroke-linejoin:round;stroke-miterlimit:10;stroke-dasharray:none;stroke-opacity:1"
       transform="scale(1.3333333)" />
    <path
       id="path614"
       d="m 303.02,374.84 v 0.383 l 0.164,0.398 0.339,0.16 0.473,0.074 0.383,-0.043 0.402,-0.164 0.367,-0.191 0.532,-0.5 0.164,-0.281 0.191,-0.367 0.031,-0.356 -0.195,-0.34 -0.351,-0.117 h -0.329 l -0.367,0.043 -0.414,0.207 -0.445,0.238 -0.324,0.293 -0.293,0.309 -0.196,0.297 -0.132,0.367 0.046,0.328 0.293,0.234 0.329,0.059 0.324,-0.016 0.355,-0.085 0.324,-0.192 0.325,-0.207 0.281,-0.355 0.207,-0.414 0.043,-0.399 -0.043,-0.34 -0.281,-0.308 -0.414,-0.043 -0.368,0.027 -0.386,0.164 -0.383,0.235 -0.313,0.253 -0.25,0.235 -0.191,0.367 0.102,0.414 0.269,0.164 0.352,0.012 0.461,-0.059 0.398,-0.144 0.426,-0.18 0.265,-0.25 0.239,-0.266 0.25,-0.339 0.058,-0.325 -0.144,-0.281 -0.371,-0.074 -0.371,0.121 -0.411,0.191 -0.429,0.25 -0.297,0.282 -0.235,0.25 -0.238,0.293 -0.043,0.355 0.235,0.281 0.339,0.059 0.329,-0.043 0.425,-0.133 0.297,-0.254 0.281,-0.277 0.192,-0.371 -0.399,-0.145 -0.281,0.145 -0.281,0.179 -0.324,0.204 -0.18,0.265 -0.191,0.34 0.238,0.355 0.34,0.016 0.398,-0.164 0.367,-0.25 0.27,-0.355 0.16,-0.411 -0.074,-0.445 -0.309,-0.133 -0.531,0.075 -0.445,0.117 -0.442,0.254 -0.34,0.203 -0.238,0.281 -0.207,0.281 0.238,0.297 0.383,0.027 0.356,-0.101 0.324,-0.09 0.324,-0.234 0.238,-0.254"
       style="fill:none;stroke:#3333cc;stroke-width:0.85;stroke-linecap:round;stroke-linejoin:round;stroke-miterlimit:10;stroke-dasharray:none;stroke-opacity:1"
       transform="scale(1.3333333)" />
    <path
       id="path615"
       d="m 208.727,372.418 0.351,-0.176 0.52,-0.238 0.25,-0.176 0.238,-0.191 0.293,-0.192 0.324,-0.164 0.328,-0.16 0.324,-0.18 0.356,-0.191 0.414,-0.133 0.398,-0.16 0.368,-0.191 0.398,-0.18 0.445,-0.145 0.383,-0.164 0.371,-0.16 0.399,-0.164 0.414,-0.101 0.398,-0.149 0.399,-0.164 0.445,-0.16 0.484,-0.133 0.461,-0.148 0.473,-0.133 0.5,-0.149 0.547,-0.132 0.504,-0.161 0.488,-0.132 0.516,-0.149 0.562,-0.133 0.531,-0.164 0.532,-0.148 0.605,-0.133 0.652,-0.144 0.618,-0.133 0.609,-0.133 0.648,-0.149 0.723,-0.132 0.652,-0.164 0.633,-0.192 0.696,-0.176 0.769,-0.164 0.738,-0.218 0.723,-0.207 0.77,-0.176 0.812,-0.121 0.77,-0.16 0.738,-0.192 0.812,-0.18 0.856,-0.117 0.812,-0.16 0.754,-0.195 0.754,-0.16 0.797,-0.09 0.68,-0.16 0.668,-0.164 0.765,-0.133 0.813,-0.102 0.738,-0.105 0.68,-0.149 0.652,-0.117 0.637,-0.086 0.574,-0.121 0.563,-0.117 0.648,-0.09 0.711,-0.07 0.707,-0.09 0.652,-0.117 0.649,-0.09 0.621,-0.074 0.531,-0.075 0.488,-0.058 0.977,-0.149 0.516,-0.058 0.562,-0.074 0.621,-0.043 0.633,-0.043 0.547,-0.059 0.519,-0.047 1.063,-0.086 0.473,-0.047 0.414,-0.043 0.429,-0.031 0.414,-0.012 0.457,-0.058 0.489,-0.016 0.558,-0.031 0.606,-0.016 0.562,-0.027 0.489,-0.016 h 0.988 l 0.472,-0.027 0.414,-0.031 h 0.415 l 0.429,0.031 h 0.887 l 0.574,0.027 0.61,0.016 h 1.105 l 0.531,0.027 0.547,0.047 0.488,0.016 h 0.457 l 0.473,0.027 0.504,0.043 0.578,0.031 0.606,0.016 0.679,0.027 0.649,0.047 0.605,0.043 0.563,0.028 0.547,0.046 0.562,0.075 0.516,0.043 0.531,0.043 0.605,0.046 0.665,0.075 0.679,0.043 0.637,0.043 0.621,0.074 0.621,0.09 0.547,0.074 0.5,0.043 0.488,0.043 0.531,0.09 0.594,0.101 0.606,0.063 0.648,0.07 0.652,0.121 0.575,0.086 0.531,0.074 0.52,0.09 0.5,0.16 0.445,0.09 0.398,0.074 0.399,0.09 0.441,0.16 0.488,0.118 0.504,0.074 0.547,0.09 0.547,0.164 0.516,0.117 0.457,0.074 0.445,0.086 0.441,0.164 0.372,0.09 0.355,0.07 0.34,0.121 0.355,0.192 0.293,0.101 0.313,0.106 0.293,0.101 0.355,0.192 0.371,0.164 0.367,0.117 0.372,0.117 0.382,0.133 0.325,0.117 0.296,0.09 0.325,0.117 0.355,0.117 0.297,0.09 0.516,0.207 0.457,0.266 0.371,0.176 0.398,0.191 0.309,0.18 0.265,0.16 0.329,0.223 0.351,0.265 0.371,0.223 0.356,0.25 0.281,0.207 0.293,0.25 0.355,0.207 0.223,0.281"
       style="fill:none;stroke:#3333cc;stroke-width:0.85;stroke-linecap:round;stroke-linejoin:round;stroke-miterlimit:10;stroke-dasharray:none;stroke-opacity:1"
       transform="scale(1.3333333)" />
    <path
       id="path616"
       d="m 298.5,370.102 0.266,0.207 0.339,0.117 0.325,0.117 0.355,0.09 0.356,0.148 0.382,0.207 0.313,0.133 0.293,0.102 0.312,0.058 h 0.426 l 0.34,-0.043 0.414,-0.164 0.238,-0.219 0.266,-0.398 0.164,-0.355 0.145,-0.325 0.046,-0.414 v -0.441 l -0.089,-0.383 -0.118,-0.398 -0.191,-0.325 -0.223,-0.312 -0.265,-0.25 -0.254,-0.176 -0.309,-0.223"
       style="fill:none;stroke:#3333cc;stroke-width:0.85;stroke-linecap:round;stroke-linejoin:round;stroke-miterlimit:10;stroke-dasharray:none;stroke-opacity:1"
       transform="scale(1.3333333)" />
    <path
       id="path617"
       d="m 206.848,378.91 0.074,0.399 0.058,0.398 0.106,0.43 0.059,0.308 0.148,0.325 0.133,0.339 0.207,0.356 0.219,0.324 0.269,0.367 0.266,0.356 0.324,0.414 0.25,0.398 0.355,0.383 0.325,0.383 0.414,0.371 0.355,0.324 0.414,0.324 0.399,0.325 0.488,0.324 0.457,0.265 0.562,0.325 0.5,0.238 0.282,0.144 0.312,0.165 0.531,0.222 0.293,0.117 0.356,0.161 0.281,0.121 0.563,0.203 0.34,0.148 0.324,0.09 0.308,0.074 0.34,0.059 0.371,0.117 0.383,0.074 0.34,0.074 0.371,0.086 0.43,0.121 0.383,0.059 0.382,0.074 0.387,0.086 0.426,0.106 0.371,0.086 0.34,0.089 0.383,0.106 0.414,0.086 0.398,0.074 0.371,0.09 0.414,0.086 0.473,0.074 0.426,0.074 0.429,0.09 0.446,0.09 0.5,0.043 0.445,0.074 0.398,0.086 0.442,0.09 0.488,0.059 0.445,0.046 0.442,0.043 0.488,0.043 0.531,0.032 0.504,0.043 0.485,0.058 0.546,0.074 0.579,0.032 0.515,0.011 0.461,0.032 0.516,0.043 0.531,0.031 0.504,0.016 0.488,0.027 0.559,0.015 h 0.605 l 0.563,0.032 0.531,0.043 0.563,0.043 h 2.203 l 0.574,-0.016 h 1.699 l 0.652,-0.027 0.59,-0.032 h 1.094 l 0.574,-0.043 0.532,-0.015 h 1.066 l 0.605,-0.043 0.59,-0.031 h 1.137 l 0.621,-0.043 0.531,-0.043 0.52,-0.032 0.531,-0.015 0.578,-0.059 0.559,-0.043 0.519,-0.043 0.575,-0.047 0.652,-0.074 0.574,-0.058 0.547,-0.075 0.547,-0.043 0.605,-0.074 0.532,-0.074 0.504,-0.059 0.531,-0.074 0.547,-0.086 0.546,-0.105 0.504,-0.09 0.559,-0.086 0.605,-0.09 0.536,-0.101 0.484,-0.09 0.52,-0.09 0.574,-0.102 0.519,-0.105 0.457,-0.117 0.516,-0.102 0.547,-0.047 0.547,-0.086 0.504,-0.117 0.531,-0.121 0.59,-0.086 0.531,-0.121 0.976,-0.234 0.516,-0.09 0.461,-0.117 0.441,-0.118 0.489,-0.089 0.515,-0.075 0.489,-0.086 0.488,-0.089 0.504,-0.09 0.515,-0.071 0.458,-0.089 0.429,-0.106 0.43,-0.086 0.441,-0.09 0.399,-0.101 0.398,-0.09 0.414,-0.09 0.414,-0.086 0.387,-0.105 0.367,-0.086 0.414,-0.075 0.446,-0.089 0.41,-0.09 0.371,-0.102 0.398,-0.09 0.446,-0.117 0.398,-0.09 0.34,-0.074 0.351,-0.058 0.371,-0.118 0.356,-0.117 0.324,-0.117 0.371,-0.121 0.367,-0.117 0.325,-0.133 0.328,-0.133 0.367,-0.148 0.43,-0.118 0.367,-0.117 0.328,-0.101 0.34,-0.149 0.398,-0.117 0.356,-0.121 0.293,-0.133 0.324,-0.133 0.355,-0.117 0.297,-0.117 0.282,-0.148 0.574,-0.176 0.281,-0.117 0.531,-0.254 0.34,-0.071 0.531,-0.254 0.297,-0.101 0.324,-0.043 0.532,-0.207 0.281,-0.121 0.312,-0.086 0.489,-0.192 0.531,-0.179 0.414,-0.192 0.473,-0.132 0.34,-0.192 0.351,-0.16 0.34,-0.164 0.328,-0.133 0.281,-0.148 0.278,-0.161 0.355,-0.148 0.324,-0.191 0.282,-0.192 0.414,-0.164 0.324,-0.16 0.414,-0.164 0.355,-0.133 0.282,-0.133"
       style="fill:none;stroke:#ff0000;stroke-width:0.85;stroke-linecap:round;stroke-linejoin:round;stroke-miterlimit:10;stroke-dasharray:none;stroke-opacity:1"
       transform="scale(1.3333333)" />
    <path
       id="path618"
       d="m 295.324,376.301 0.356,0.058 h 0.484 l 0.461,-0.047 0.457,0.032 0.383,-0.032 0.387,0.032 h 0.324 l 0.324,0.043 0.383,0.121 0.254,0.234 0.234,0.457 0.016,0.457 v 0.547 l -0.133,0.547 -0.074,0.309 -0.133,0.531 -0.238,0.457 -0.207,0.488 -0.235,0.352 -0.133,0.414 -0.222,0.281 -0.16,0.297 -0.254,0.309"
       style="fill:none;stroke:#ff0000;stroke-width:0.85;stroke-linecap:round;stroke-linejoin:round;stroke-miterlimit:10;stroke-dasharray:none;stroke-opacity:1"
       transform="scale(1.3333333)" />
    <path
       id="path682"
       d="m 242.168,353.473 -0.367,-0.125 -0.332,0.062 -0.352,0.125 -0.523,0.207 -0.528,0.352 -0.492,0.316 -0.347,0.399 -0.223,0.3 -0.051,0.348 0.067,0.336 0.222,0.285 0.285,0.332 0.399,0.301 0.429,0.32 0.223,0.207 0.477,0.348 0.414,0.348 0.254,0.175 0.347,0.317 0.27,0.336 0.129,0.285 -0.145,0.348 -0.445,0.289 -0.508,0.187 -0.301,0.098 -0.32,0.078 -0.332,0.078 -0.32,0.082 -0.555,0.109 h -0.492 l -0.352,0.032 -0.347,-0.032"
       style="fill:none;stroke:#3333cc;stroke-width:0.85;stroke-linecap:round;stroke-linejoin:round;stroke-miterlimit:10;stroke-dasharray:none;stroke-opacity:1"
       transform="scale(1.3333333)" />
    <path
       id="path683"
       d="m 245.871,358.254 0.399,-0.192 0.207,-0.285 0.253,-0.445 0.125,-0.301 0.114,-0.304 0.16,-0.301 0.172,-0.27 0.144,-0.269 0.285,-0.524 0.29,-0.476 0.238,-0.477 0.238,-0.301 0.285,-0.351 0.192,0.254 -0.047,0.492 -0.051,0.336 -0.031,0.301 0.031,0.347 0.035,0.367 v 0.684 l 0.016,0.316 0.094,0.602 0.128,0.543 0.254,0.508 0.348,0.492"
       style="fill:none;stroke:#3333cc;stroke-width:0.85;stroke-linecap:round;stroke-linejoin:round;stroke-miterlimit:10;stroke-dasharray:none;stroke-opacity:1"
       transform="scale(1.3333333)" />
    <path
       id="path684"
       d="m 251.531,393.219 -0.301,0.031 -0.3,0.047 -0.528,0.223 -0.269,0.16 -0.254,0.175 -0.254,0.239 -0.27,0.254 -0.257,0.222 -0.172,0.254 -0.274,0.477 -0.125,0.41 0.032,0.43 0.191,0.347 0.301,0.336 0.32,0.27 0.461,0.316 0.41,0.27 0.43,0.336 0.398,0.269 0.301,0.348 0.176,0.269 0.082,0.352 -0.098,0.461 -0.222,0.238 -0.348,0.254 -0.43,0.172 -0.461,0.223 -0.461,0.113 -0.336,0.062 -0.347,0.032"
       style="fill:none;stroke:#ff0000;stroke-width:0.85;stroke-linecap:round;stroke-linejoin:round;stroke-miterlimit:10;stroke-dasharray:none;stroke-opacity:1"
       transform="scale(1.3333333)" />
    <path
       id="path685"
       d="m 254.902,394.043 0.446,-0.219 0.351,-0.129 0.379,-0.175 0.496,-0.079 0.426,-0.062 0.398,0.062 0.352,0.079 0.301,0.269 0.16,0.352 0.047,0.3 -0.031,0.301 -0.047,0.305 -0.098,0.348 -0.125,0.382 -0.176,0.348 -0.207,0.316 -0.191,0.321 -0.207,0.347 -0.223,0.301 -0.223,0.254 -0.175,0.254 -0.157,0.27 -0.222,0.398 -0.063,0.383 -0.066,0.316 0.207,0.399 0.383,0.269 0.461,0.125 0.605,0.078 h 0.301 l 0.301,-0.031 0.32,-0.016 h 0.379 l 0.32,-0.031 0.301,-0.062 0.336,-0.078 0.363,-0.051 0.336,-0.047 0.524,-0.11 0.316,0.032 0.352,-0.032 0.351,-0.046 h 0.379"
       style="fill:none;stroke:#ff0000;stroke-width:0.85;stroke-linecap:round;stroke-linejoin:round;stroke-miterlimit:10;stroke-dasharray:none;stroke-opacity:1"
       transform="scale(1.3333333)" />
    <path
       id="path686"
       d="m 185.703,373.227 -0.031,0.414 0.047,0.476 v 0.524 l 0.113,0.554 0.047,0.352 0.016,0.348 0.062,0.316 0.066,0.305 0.079,0.3 0.125,0.524 0.144,0.414 0.129,0.348 0.156,0.332 0.223,0.367"
       style="fill:none;stroke:#3333cc;stroke-width:0.85;stroke-linecap:round;stroke-linejoin:round;stroke-miterlimit:10;stroke-dasharray:none;stroke-opacity:1"
       transform="scale(1.3333333)" />
    <path
       id="path687"
       d="m 183,374.148 0.32,-0.222 0.301,-0.254 0.332,-0.352 0.477,-0.347 0.48,-0.348 0.285,-0.176 0.301,-0.16 0.285,-0.109 0.289,-0.16 0.332,-0.176 0.27,-0.141 0.527,-0.223 0.301,-0.113 0.445,-0.125"
       style="fill:none;stroke:#3333cc;stroke-width:0.85;stroke-linecap:round;stroke-linejoin:round;stroke-miterlimit:10;stroke-dasharray:none;stroke-opacity:1"
       transform="scale(1.3333333)" />
    <path
       id="path688"
       d="m 184.75,376.91 0.301,0.301 0.304,0.098 0.317,-0.047 0.351,-0.098 0.379,-0.172 0.27,-0.176 0.258,-0.207 0.476,-0.429"
       style="fill:none;stroke:#3333cc;stroke-width:0.85;stroke-linecap:round;stroke-linejoin:round;stroke-miterlimit:10;stroke-dasharray:none;stroke-opacity:1"
       transform="scale(1.3333333)" />
    <path
       id="path689"
       d="m 188.773,370.828 -0.015,0.367 0.015,0.524 -0.015,0.508 0.015,0.585 v 0.305 l -0.015,0.301 v 0.332 l 0.047,0.367 0.047,0.301 0.097,0.57 0.125,0.336 0.098,0.332 0.109,0.332 0.129,0.305 0.317,0.41 0.3,0.383 0.399,0.223 0.383,0.093"
       style="fill:none;stroke:#3333cc;stroke-width:0.85;stroke-linecap:round;stroke-linejoin:round;stroke-miterlimit:10;stroke-dasharray:none;stroke-opacity:1"
       transform="scale(1.3333333)" />
    <path
       id="path690"
       d="m 191.555,373.641 0.078,0.379 0.113,0.304 0.063,0.348 0.066,0.414 0.078,0.426 0.094,0.398 0.207,0.254 h 0.43 l 0.191,-0.254 0.16,-0.316 0.172,-0.383 0.145,-0.363 0.093,-0.399 0.114,-0.414 0.015,-0.363 -0.144,-0.27 0.015,0.364 0.067,0.382 0.109,0.395 0.16,0.273 0.192,0.332 0.254,0.317 0.269,0.176"
       style="fill:none;stroke:#3333cc;stroke-width:0.85;stroke-linecap:round;stroke-linejoin:round;stroke-miterlimit:10;stroke-dasharray:none;stroke-opacity:1"
       transform="scale(1.3333333)" />
    <path
       id="path691"
       d="m 194.926,373.34 0.301,0.109 0.429,0.399 0.27,0.539 0.16,0.379 0.191,0.476 0.161,0.492 0.093,0.508 0.129,0.492 0.125,0.446 0.067,0.429 0.046,0.399 0.063,0.379 0.016,0.398 v 0.348 l -0.016,0.305 v 0.585 l -0.16,0.508 -0.078,0.399 -0.176,0.269 -0.285,0.223 -0.336,-0.145 -0.27,-0.207 -0.347,-0.316 -0.336,-0.477 -0.141,-0.3 -0.144,-0.301 -0.129,-0.321 -0.079,-0.347 -0.046,-0.399 -0.032,-0.379 v -0.699 l 0.047,-0.367 0.031,-0.394 0.016,-0.352 0.078,-0.301 0.258,-0.461 0.207,-0.414"
       style="fill:none;stroke:#3333cc;stroke-width:0.85;stroke-linecap:round;stroke-linejoin:round;stroke-miterlimit:10;stroke-dasharray:none;stroke-opacity:1"
       transform="scale(1.3333333)" />
    <path
       id="path692"
       d="m 196.836,365.812 -0.035,0.379 -0.047,0.524 -0.047,0.351 -0.047,0.364 -0.031,0.398 v 0.461 l -0.016,0.523 -0.066,0.524 v 0.492 l 0.066,0.445 v 0.793 l 0.016,0.336 0.094,0.301 0.113,0.445 0.219,0.348 0.207,0.223 0.414,0.129 0.461,-0.129 0.367,-0.192 0.43,-0.285 0.363,-0.191 0.336,-0.172 0.383,-0.082 0.109,0.43 0.031,0.363"
       style="fill:none;stroke:#3333cc;stroke-width:0.85;stroke-linecap:round;stroke-linejoin:round;stroke-miterlimit:10;stroke-dasharray:none;stroke-opacity:1"
       transform="scale(1.3333333)" />
    <path
       id="path693"
       d="m 201.031,369.973 -0.207,0.57 -0.047,0.352 -0.015,0.3 0.062,0.348 0.285,0.223 0.368,0.031 0.335,-0.207 0.254,-0.317 0.141,-0.347 0.145,-0.321 0.031,0.352 0.301,0.223 0.304,-0.114"
       style="fill:none;stroke:#3333cc;stroke-width:0.85;stroke-linecap:round;stroke-linejoin:round;stroke-miterlimit:10;stroke-dasharray:none;stroke-opacity:1"
       transform="scale(1.3333333)" />
    <path
       id="path694"
       d="m 202.176,361.793 -0.27,0.16 -0.094,0.317 -0.05,0.574 -0.032,0.347 v 0.399 l 0.047,0.426 0.051,0.429 0.031,0.414 0.079,0.461 0.097,0.524 0.094,0.492 0.109,0.445 0.114,0.461 0.175,0.492 0.157,0.555 0.144,0.523 0.176,0.493 0.207,0.429 0.141,0.395 0.16,0.351 0.176,0.317 0.222,0.269 0.192,0.254 0.378,0.383"
       style="fill:none;stroke:#3333cc;stroke-width:0.85;stroke-linecap:round;stroke-linejoin:round;stroke-miterlimit:10;stroke-dasharray:none;stroke-opacity:1"
       transform="scale(1.3333333)" />
    <path
       id="path695"
       d="m 201.523,368.906 0.305,0.051 0.301,-0.035 0.332,-0.047 0.305,-0.016 0.523,-0.156 0.59,-0.129 0.508,-0.176"
       style="fill:none;stroke:#3333cc;stroke-width:0.85;stroke-linecap:round;stroke-linejoin:round;stroke-miterlimit:10;stroke-dasharray:none;stroke-opacity:1"
       transform="scale(1.3333333)" />
    <path
       id="path696"
       d="m 205.754,367.352 0.351,-0.145 0.207,-0.269 0.188,-0.333 0.082,-0.316 0.078,-0.305 -0.332,-0.125 -0.32,0.254 -0.379,0.399 -0.145,0.316 -0.144,0.285 -0.207,0.524 -0.031,0.316 -0.047,0.559 0.031,0.3 0.129,0.586 0.094,0.29 0.32,0.41 0.301,0.269 0.461,0.129 0.398,-0.016"
       style="fill:none;stroke:#3333cc;stroke-width:0.85;stroke-linecap:round;stroke-linejoin:round;stroke-miterlimit:10;stroke-dasharray:none;stroke-opacity:1"
       transform="scale(1.3333333)" />
    <path
       id="path697"
       d="m 208.059,366.16 -0.032,0.301 0.285,0.254 0.352,-0.156 0.27,-0.223 0.351,-0.27 0.379,-0.254 0.367,-0.128 0.336,0.031 0.348,0.223 0.238,0.191 0.254,0.207 0.27,0.207 0.335,0.223 0.27,0.14"
       style="fill:none;stroke:#3333cc;stroke-width:0.85;stroke-linecap:round;stroke-linejoin:round;stroke-miterlimit:10;stroke-dasharray:none;stroke-opacity:1"
       transform="scale(1.3333333)" />
    <path
       id="path698"
       d="m 308.375,366.066 0.098,0.348 -0.047,0.414 -0.051,0.699 -0.047,0.426 -0.031,0.43 v 0.476 l 0.031,0.477 0.016,0.445 0.031,0.414 0.051,0.426 0.078,0.399 0.062,0.382 0.082,0.317 0.094,0.332 0.16,0.32 0.223,0.508 0.316,0.461 0.286,0.332"
       style="fill:none;stroke:#3333cc;stroke-width:0.85;stroke-linecap:round;stroke-linejoin:round;stroke-miterlimit:10;stroke-dasharray:none;stroke-opacity:1"
       transform="scale(1.3333333)" />
    <path
       id="path699"
       d="m 310.223,364.891 0.222,0.254 0.078,0.523 0.047,0.523 0.047,0.368 0.035,0.379 0.032,0.32 0.046,0.347 0.094,0.399 0.082,0.426 0.063,0.398 0.109,0.399 0.129,0.378 0.063,0.321 0.082,0.332 0.125,0.316 0.144,0.27 0.176,0.476 0.223,0.43 0.187,0.301"
       style="fill:none;stroke:#3333cc;stroke-width:0.85;stroke-linecap:round;stroke-linejoin:round;stroke-miterlimit:10;stroke-dasharray:none;stroke-opacity:1"
       transform="scale(1.3333333)" />
    <path
       id="path700"
       d="m 308.457,370.402 0.348,0.125 h 0.32 l 0.379,-0.093 0.305,-0.129 0.285,-0.125 0.351,-0.207 0.348,-0.27 0.285,-0.269"
       style="fill:none;stroke:#3333cc;stroke-width:0.85;stroke-linecap:round;stroke-linejoin:round;stroke-miterlimit:10;stroke-dasharray:none;stroke-opacity:1"
       transform="scale(1.3333333)" />
    <path
       id="path701"
       d="m 313.895,368.336 -0.239,0.238 -0.176,0.285 -0.3,0.477 -0.207,0.461 -0.129,0.398 v 0.649 l 0.351,0.254 0.348,-0.141 0.207,-0.254 0.176,-0.383 0.144,-0.461 0.125,-0.507 0.082,-0.395 0.047,-0.383 -0.082,0.332 0.082,0.446 0.094,0.382 0.16,0.348 0.254,0.27 0.238,0.222 0.301,0.129 0.305,0.047"
       style="fill:none;stroke:#3333cc;stroke-width:0.85;stroke-linecap:round;stroke-linejoin:round;stroke-miterlimit:10;stroke-dasharray:none;stroke-opacity:1"
       transform="scale(1.3333333)" />
    <path
       id="path702"
       d="m 316.008,368.527 0.144,0.301 0.223,0.383 0.207,0.269 0.27,0.223 0.336,0.094 0.347,-0.145 0.238,-0.254 0.207,-0.347 0.223,-0.414 0.129,-0.461 0.141,-0.395 0.047,-0.398 0.082,-0.301 -0.016,-0.316 -0.176,0.41 -0.031,0.414 0.047,0.492 0.094,0.398 0.207,0.442 0.222,0.351 0.336,0.286 0.27,0.175"
       style="fill:none;stroke:#3333cc;stroke-width:0.85;stroke-linecap:round;stroke-linejoin:round;stroke-miterlimit:10;stroke-dasharray:none;stroke-opacity:1"
       transform="scale(1.3333333)" />
    <path
       id="path703"
       d="m 320.652,366.781 0.125,0.379 0.082,0.352 0.063,0.523 0.062,0.301 0.051,0.398 0.016,0.395 0.031,0.383 0.047,0.414 0.047,0.426 0.031,0.367 0.016,0.347 0.05,0.352 0.063,0.332 0.047,0.523 0.129,0.477 0.015,0.352 0.047,0.347 v -0.398 l 0.031,-0.586 0.047,-0.414 0.051,-0.426 0.031,-0.43 0.047,-0.476 0.078,-0.446 0.067,-0.476 0.062,-0.461 0.047,-0.477 0.063,-0.461 0.082,-0.41 0.078,-0.383 0.094,-0.347 0.128,-0.32 0.129,-0.508 0.188,-0.317 0.351,-0.078 0.161,0.426 0.046,0.492 0.047,0.606 v 0.3 l 0.032,0.571 0.066,0.351 0.062,0.301 0.094,0.523 0.223,0.368 0.207,0.222"
       style="fill:none;stroke:#3333cc;stroke-width:0.85;stroke-linecap:round;stroke-linejoin:round;stroke-miterlimit:10;stroke-dasharray:none;stroke-opacity:1"
       transform="scale(1.3333333)" />
    <path
       id="path704"
       d="m 324.406,358.984 0.032,0.477 -0.032,0.332 -0.051,0.383 v 0.394 l 0.051,0.446 0.032,0.476 0.015,0.508 0.047,0.57 0.078,0.543 0.051,0.524 0.031,0.508 0.078,0.492 0.114,0.476 0.062,0.43 0.047,0.363 0.062,0.383 0.129,0.395 0.078,0.351 0.176,0.524"
       style="fill:none;stroke:#3333cc;stroke-width:0.85;stroke-linecap:round;stroke-linejoin:round;stroke-miterlimit:10;stroke-dasharray:none;stroke-opacity:1"
       transform="scale(1.3333333)" />
    <path
       id="path705"
       d="m 323.48,364.715 0.305,0.176 0.445,0.144 0.508,0.11 0.539,0.062 0.305,0.031 0.301,0.016 h 0.32"
       style="fill:none;stroke:#3333cc;stroke-width:0.85;stroke-linecap:round;stroke-linejoin:round;stroke-miterlimit:10;stroke-dasharray:none;stroke-opacity:1"
       transform="scale(1.3333333)" />
    <path
       id="path706"
       d="m 328.379,357.73 0.207,0.301 v 0.395 l -0.031,0.351 v 0.395 l 0.031,0.43 0.016,0.476 v 0.445 l -0.016,0.43 v 0.445 l 0.016,0.493 v 1.379 l 0.031,0.398 0.015,0.379 v 0.351 l 0.036,0.317 0.031,0.301 v 0.527 l 0.047,0.395 0.176,0.32 0.3,-0.176 0.301,-0.352 0.352,-0.363 0.238,-0.301 0.254,-0.207 0.351,-0.097 0.27,0.222 v 0.352 l -0.27,0.332 -0.32,0.352 -0.43,0.269 -0.429,0.188 -0.379,0.175 -0.399,0.129"
       style="fill:none;stroke:#3333cc;stroke-width:0.85;stroke-linecap:round;stroke-linejoin:round;stroke-miterlimit:10;stroke-dasharray:none;stroke-opacity:1"
       transform="scale(1.3333333)" />
    <path
       id="path707"
       d="m 332.641,363.047 -0.254,0.414 -0.207,0.285 -0.239,0.367 -0.207,0.477 -0.16,0.426 -0.047,0.351 0.032,0.395 0.222,0.273 0.336,-0.097 0.285,-0.254 0.332,-0.348 0.274,-0.352 0.222,-0.316 0.079,-0.301 0.129,0.379 0.171,0.336 0.43,0.078"
       style="fill:none;stroke:#3333cc;stroke-width:0.85;stroke-linecap:round;stroke-linejoin:round;stroke-miterlimit:10;stroke-dasharray:none;stroke-opacity:1"
       transform="scale(1.3333333)" />
    <path
       id="path708"
       d="m 335.535,356.488 -0.097,0.637 -0.079,0.414 -0.047,0.445 -0.046,0.477 -0.047,0.441 -0.035,0.446 v 1.32 l 0.05,0.41 0.125,0.399 0.098,0.347 0.125,0.305 0.176,0.269 0.222,0.254 0.332,0.364 0.368,0.254 0.3,0.082 0.305,-0.036 0.332,-0.14 0.367,-0.114 0.094,0.29 -0.047,0.41 v 0.383"
       style="fill:none;stroke:#3333cc;stroke-width:0.85;stroke-linecap:round;stroke-linejoin:round;stroke-miterlimit:10;stroke-dasharray:none;stroke-opacity:1"
       transform="scale(1.3333333)" />
    <path
       id="path709"
       d="m 339.254,362.047 0.066,0.367 -0.066,0.301 -0.047,0.383 0.082,0.363 0.316,-0.223 0.352,-0.414 0.172,-0.254 0.207,-0.254 0.176,-0.254 0.316,-0.394 0.352,-0.305 0.285,-0.187 0.367,-0.129 0.301,0.269 0.082,0.336 0.047,0.364 v 0.461 l 0.093,0.414 0.129,0.332"
       style="fill:none;stroke:#3333cc;stroke-width:0.85;stroke-linecap:round;stroke-linejoin:round;stroke-miterlimit:10;stroke-dasharray:none;stroke-opacity:1"
       transform="scale(1.3333333)" />
    <path
       id="path710"
       d="m 314.832,373.895 0.145,0.3 0.046,0.446 0.032,0.332 0.015,0.367 0.032,0.426 0.031,0.445 0.015,0.445 0.036,0.461 0.015,0.445 v 0.747 l 0.031,0.347 0.016,0.399 v 0.652 l 0.078,0.57 0.047,0.399 0.082,0.301 0.031,0.347 0.016,-0.301 0.16,-0.585 0.063,-0.352 0.113,-0.332 0.109,-0.301 0.176,-0.492 0.207,-0.399 0.141,-0.382 0.238,-0.223 0.367,0.035 0.207,0.457 0.078,0.414 0.067,0.524 v 0.445 l 0.031,0.492 -0.031,0.399 0.078,0.394 0.031,0.336"
       style="fill:none;stroke:#3333cc;stroke-width:0.85;stroke-linecap:round;stroke-linejoin:round;stroke-miterlimit:10;stroke-dasharray:none;stroke-opacity:1"
       transform="scale(1.3333333)" />
    <path
       id="path711"
       d="m 318.777,378.785 -0.05,0.395 0.05,0.476 0.047,0.43 0.207,0.445 0.254,0.317 0.317,0.304 0.351,0.219 0.379,0.129 0.367,-0.047 0.399,-0.082 0.285,-0.187 0.238,-0.305 0.129,-0.379 0.078,-0.316 -0.078,-0.383 -0.145,-0.317 -0.3,-0.304 -0.305,-0.219 -0.348,-0.207 -0.398,-0.176"
       style="fill:none;stroke:#3333cc;stroke-width:0.85;stroke-linecap:round;stroke-linejoin:round;stroke-miterlimit:10;stroke-dasharray:none;stroke-opacity:1"
       transform="scale(1.3333333)" />
    <path
       id="path712"
       d="m 325.484,372.812 -0.207,0.254 -0.187,0.622 -0.082,0.382 -0.047,0.442 -0.078,0.476 -0.098,0.446 -0.047,0.461 0.016,0.46 -0.016,0.461 -0.031,0.411 0.031,0.414 0.063,0.414 0.051,0.379 0.062,0.304 0.094,0.301 0.144,0.348 0.125,0.289 0.305,0.508 0.207,0.269 0.363,0.395 0.43,0.351 0.383,0.27"
       style="fill:none;stroke:#3333cc;stroke-width:0.85;stroke-linecap:round;stroke-linejoin:round;stroke-miterlimit:10;stroke-dasharray:none;stroke-opacity:1"
       transform="scale(1.3333333)" />
    <path
       id="path713"
       d="m 322.926,379.93 h 0.351 l 0.426,-0.051 0.496,-0.094 0.555,-0.047 0.523,-0.129 0.305,-0.047 0.316,-0.031 0.524,-0.176 0.305,-0.093"
       style="fill:none;stroke:#3333cc;stroke-width:0.85;stroke-linecap:round;stroke-linejoin:round;stroke-miterlimit:10;stroke-dasharray:none;stroke-opacity:1"
       transform="scale(1.3333333)" />
    <path
       id="path714"
       d="m 342.418,359.523 0.398,-0.062 0.352,-0.16 0.348,-0.223 0.32,-0.254 0.301,-0.144 0.336,-0.172 0.347,-0.176"
       style="fill:none;stroke:#3333cc;stroke-width:0.85;stroke-linecap:round;stroke-linejoin:round;stroke-miterlimit:10;stroke-dasharray:none;stroke-opacity:1"
       transform="scale(1.3333333)" />
  </g>
</svg>
