<?xml version="1.0" encoding="UTF-8" standalone="no"?>
<!-- Created with Inkscape (http://www.inkscape.org/) -->

<svg
   version="1.1"
   id="svg1"
   width="280.35205"
   height="89.917297"
   viewBox="0 0 280.35206 89.917298"
   xmlns="http://www.w3.org/2000/svg"
   xmlns:svg="http://www.w3.org/2000/svg">
  <defs
     id="defs1" />
  <g
     id="g1102"
     transform="translate(-1284.6983,-468.16266)">
    <path
       id="path1482"
       d="m 160.551,358.934 -0.309,-0.137 -0.281,0.226 -0.145,0.27 v 0.352 l 0.196,0.257 0.332,-0.007 0.269,-0.168 0.278,-0.258 0.144,-0.278 -0.164,-0.281 -0.301,-0.008 -0.382,0.032 -0.309,0.132 -0.371,0.188 -0.262,0.277 -0.09,0.332 0.321,0.176 0.39,-0.055 0.313,-0.144 0.289,-0.164 0.277,-0.321 0.207,-0.257 -0.422,-0.032 -0.375,0.094 -0.32,0.227 -0.227,0.226 0.239,0.309"
       style="fill:none;stroke:#3333cc;stroke-width:0.85;stroke-linecap:round;stroke-linejoin:round;stroke-miterlimit:10;stroke-dasharray:none;stroke-opacity:1"
       transform="matrix(1.3333333,0,0,1.3333333,1142.5197,0)" />
    <path
       id="path1483"
       d="m 134.738,382.211 -0.261,-0.164 -0.309,0.277 -0.164,0.332 0.031,0.371 0.391,-0.039 0.394,-0.207 0.34,-0.238 0.195,-0.25 -0.339,0.062 -0.309,0.282 0.289,0.226 0.32,-0.113 0.383,-0.176 0.27,-0.195 0.246,-0.281 -0.309,-0.176 -0.289,0.144 -0.262,0.207 -0.152,0.364"
       style="fill:none;stroke:#3333cc;stroke-width:0.85;stroke-linecap:round;stroke-linejoin:round;stroke-miterlimit:10;stroke-dasharray:none;stroke-opacity:1"
       transform="matrix(1.3333333,0,0,1.3333333,1142.5197,0)" />
    <path
       id="path1484"
       d="m 182.301,383.316 -0.196,0.372 0.145,0.32 0.34,-0.113 0.195,-0.297 -0.34,0.07 -0.371,0.227 -0.219,0.269 0.301,0.156 0.309,-0.156"
       style="fill:none;stroke:#3333cc;stroke-width:0.85;stroke-linecap:round;stroke-linejoin:round;stroke-miterlimit:10;stroke-dasharray:none;stroke-opacity:1"
       transform="matrix(1.3333333,0,0,1.3333333,1142.5197,0)" />
    <path
       id="path1485"
       d="m 133.238,414.809 -0.32,-0.032 -0.313,0.321 -0.183,0.246 -0.063,0.351 0.391,-0.031 0.375,-0.207 0.34,-0.246 0.332,-0.289 0.265,-0.258 0.2,-0.301 0.113,-0.32 -0.164,-0.277 -0.344,0.05 -0.371,0.145 -0.371,0.207 -0.313,0.195 -0.289,0.196 -0.226,0.261 0.125,0.309 0.328,-0.012 0.352,-0.101 0.351,-0.176 0.344,-0.281 0.238,-0.196 -0.324,-0.031 -0.246,0.199 -0.227,0.246 -0.136,0.321"
       style="fill:none;stroke:#3333cc;stroke-width:0.85;stroke-linecap:round;stroke-linejoin:round;stroke-miterlimit:10;stroke-dasharray:none;stroke-opacity:1"
       transform="matrix(1.3333333,0,0,1.3333333,1142.5197,0)" />
    <path
       id="path1486"
       d="m 184.566,412.648 -0.312,-0.05 -0.328,-0.051 -0.375,0.101 -0.391,0.168 -0.293,0.289 -0.203,0.321 -0.137,0.277 0.25,0.227 0.266,-0.227 0.23,-0.32 0.071,-0.34 -0.227,-0.25 -0.113,0.395 -0.195,0.269 -0.145,0.309 0.039,0.308 0.34,-0.051"
       style="fill:none;stroke:#3333cc;stroke-width:0.85;stroke-linecap:round;stroke-linejoin:round;stroke-miterlimit:10;stroke-dasharray:none;stroke-opacity:1"
       transform="matrix(1.3333333,0,0,1.3333333,1142.5197,0)" />
    <path
       id="path1487"
       d="m 140.383,378.836 0.258,-0.176 0.269,-0.238 0.383,-0.383 0.371,-0.453 0.238,-0.238 0.27,-0.309 0.269,-0.32 0.332,-0.332 0.352,-0.309 0.328,-0.34 0.313,-0.351 0.339,-0.364 0.375,-0.371 0.36,-0.402 0.344,-0.426 0.382,-0.472 0.414,-0.457 0.379,-0.454 0.395,-0.433 0.402,-0.403 0.446,-0.402 0.394,-0.414 0.352,-0.383 0.371,-0.39 0.414,-0.403 0.351,-0.425 0.34,-0.391 0.364,-0.371 0.371,-0.321 0.375,-0.363 0.339,-0.34 0.364,-0.32 0.371,-0.312 0.332,-0.329 0.269,-0.32 0.278,-0.309 0.289,-0.312 0.269,-0.309 0.207,-0.289 0.207,-0.277 0.239,-0.238 0.187,-0.25 0.309,-0.422 0.277,-0.301 0.231,-0.301 0.308,-0.289 0.402,-0.203 0.301,-0.156 0.371,-0.074 0.344,-0.114"
       style="fill:none;stroke:#3333cc;stroke-width:0.85;stroke-linecap:round;stroke-linejoin:round;stroke-miterlimit:10;stroke-dasharray:none;stroke-opacity:1"
       transform="matrix(1.3333333,0,0,1.3333333,1142.5197,0)" />
    <path
       id="path1488"
       d="m 165.008,362.484 -0.289,0.25 -0.082,0.321 0.082,0.34 0.156,0.39 0.277,0.375 0.282,0.371 0.351,0.391 0.36,0.34 0.25,0.207 0.453,0.343 0.269,0.165 0.313,0.195 0.617,0.351 0.332,0.219 0.375,0.235 0.34,0.218 0.308,0.184 0.321,0.25 0.375,0.258 0.34,0.246 0.332,0.23 0.351,0.235 0.391,0.25 0.375,0.226 0.34,0.207 0.339,0.227 0.375,0.258 0.332,0.218 0.289,0.196 0.297,0.207 0.301,0.258 0.281,0.195 0.258,0.176 0.278,0.195 0.281,0.25 0.238,0.227 0.246,0.195 0.25,0.187 0.238,0.196 0.415,0.308 0.382,0.313 0.278,0.238 0.289,0.227 0.301,0.265"
       style="fill:none;stroke:#3333cc;stroke-width:0.85;stroke-linecap:round;stroke-linejoin:round;stroke-miterlimit:10;stroke-dasharray:none;stroke-opacity:1"
       transform="matrix(1.3333333,0,0,1.3333333,1142.5197,0)" />
    <path
       id="path1489"
       d="m 182.27,387.777 0.062,0.375 -0.051,0.536 -0.062,0.57 v 0.308 l -0.063,0.567 -0.051,0.633 -0.085,0.578 -0.032,0.34 -0.019,0.414 -0.031,0.402 -0.032,0.391 -0.031,0.414 -0.02,0.453 -0.031,0.426 -0.031,0.39 -0.031,0.434 -0.02,0.527 -0.031,0.485 -0.031,0.464 -0.012,0.489 0.012,0.504 v 0.476 l -0.012,0.422 -0.02,0.434 v 0.476 l -0.019,0.414 -0.012,0.391 -0.019,0.426 -0.012,0.433 -0.031,0.422 -0.039,0.371 -0.012,0.371 -0.02,0.383 -0.031,0.32 -0.051,0.59 -0.043,0.559 -0.019,0.453 -0.012,0.496 0.031,0.402"
       style="fill:none;stroke:#3333cc;stroke-width:0.85;stroke-linecap:round;stroke-linejoin:round;stroke-miterlimit:10;stroke-dasharray:none;stroke-opacity:1"
       transform="matrix(1.3333333,0,0,1.3333333,1142.5197,0)" />
    <path
       id="path1490"
       d="m 133.578,387.305 0.145,0.308 v 0.453 l -0.063,0.559 -0.019,0.32 v 0.34 l -0.032,0.344 -0.031,0.34 -0.031,0.351 -0.02,0.422 -0.031,0.395 -0.043,0.39 -0.039,0.457 v 0.516 l -0.031,0.504 -0.031,0.465 -0.032,0.508 -0.019,0.546 -0.043,0.528 -0.051,0.515 -0.031,0.567 -0.024,0.601 -0.05,0.547 -0.04,0.508 -0.031,0.516 -0.023,0.558 -0.051,0.516 -0.039,0.504 -0.043,0.527 -0.012,0.539 -0.031,0.485 -0.031,0.453 -0.02,0.457 -0.019,0.453 -0.043,0.391 -0.031,0.374 v 0.391 l 0.011,0.422 -0.011,0.383 -0.02,0.363 v 0.359 l 0.031,0.344 0.02,0.297 0.043,0.59 0.05,0.32 0.051,0.528"
       style="fill:none;stroke:#3333cc;stroke-width:0.85;stroke-linecap:round;stroke-linejoin:round;stroke-miterlimit:10;stroke-dasharray:none;stroke-opacity:1"
       transform="matrix(1.3333333,0,0,1.3333333,1142.5197,0)" />
    <path
       id="path1491"
       d="m 140.871,417.391 0.391,-0.051 0.383,-0.063 0.414,-0.043 0.515,-0.039 0.313,-0.023 0.34,0.023 0.32,-0.023 0.332,-0.031 0.351,-0.02 0.415,0.02 0.371,-0.02 0.351,-0.031 0.395,-0.031 h 0.453 l 0.457,-0.032 0.445,-0.05 0.485,-0.032 0.539,0.024 0.507,-0.031 0.485,-0.055 0.539,-0.031 0.598,-0.02 0.589,-0.051 0.547,-0.043 0.602,-0.031 0.652,-0.019 0.621,-0.051 0.621,-0.043 0.68,-0.051 0.746,-0.031 0.684,-0.051 0.648,-0.051 0.684,-0.031 0.765,-0.012 0.703,-0.039 0.653,-0.031 0.66,-0.012 0.684,-0.019 0.632,-0.032 0.61,-0.023 h 0.629 l 0.652,0.023 h 0.57 l 0.516,-0.023 0.539,0.023 0.566,0.051 h 0.965 l 0.485,0.012 0.527,0.031 0.465,0.02 0.414,0.019 0.402,0.012 0.407,0.062 0.339,0.039 0.313,0.012 0.308,0.031 0.309,0.082 0.395,0.083 0.351,0.093 0.309,0.039"
       style="fill:none;stroke:#3333cc;stroke-width:0.85;stroke-linecap:round;stroke-linejoin:round;stroke-miterlimit:10;stroke-dasharray:none;stroke-opacity:1"
       transform="matrix(1.3333333,0,0,1.3333333,1142.5197,0)" />
    <path
       id="path1492"
       d="m 138.406,410.977 40.852,-26.442"
       style="fill:none;stroke:#3333cc;stroke-width:0.85;stroke-linecap:round;stroke-linejoin:round;stroke-miterlimit:10;stroke-dasharray:none;stroke-opacity:1"
       transform="matrix(1.3333333,0,0,1.3333333,1142.5197,0)" />
    <path
       id="path1493"
       d="m 126.141,413.27 -0.309,0.175 -0.402,0.227 -0.344,0.308 -0.34,0.344 -0.32,0.403 -0.383,0.433 -0.289,0.422 -0.258,0.34 -0.113,0.289 v 0.332 l 0.226,0.195 0.391,-0.101 0.375,-0.196 0.352,-0.269 0.421,-0.363 0.395,-0.391 0.215,-0.227 0.351,-0.433 0.364,-0.434 0.269,-0.426 0.25,-0.246 0.278,-0.175 -0.063,0.679 -0.082,0.434 -0.031,0.445 -0.02,0.34 0.082,0.402 0.196,0.25 0.351,0.012"
       style="fill:none;stroke:#3333cc;stroke-width:0.85;stroke-linecap:round;stroke-linejoin:round;stroke-miterlimit:10;stroke-dasharray:none;stroke-opacity:1"
       transform="matrix(1.3333333,0,0,1.3333333,1142.5197,0)" />
    <path
       id="path1494"
       d="m 126.824,378.121 0.156,-0.433 0.071,-0.329 0.074,-0.32 0.063,-0.434 -0.145,0.266 -0.199,0.57 -0.114,0.329 -0.113,0.312 -0.215,0.566 -0.093,0.321 -0.176,0.539 -0.051,0.535 -0.023,0.414 0.082,0.34 0.144,0.269 0.301,0.153 0.32,0.074 0.426,-0.043 0.402,-0.031 0.446,-0.059 0.34,-0.023 h 0.32 l 0.332,0.105 0.207,0.238 -0.207,0.34 -0.309,0.246 -0.375,0.258 -0.527,0.219 -0.566,0.215 -0.29,0.086 -0.488,0.144 -0.402,0.153"
       style="fill:none;stroke:#3333cc;stroke-width:0.85;stroke-linecap:round;stroke-linejoin:round;stroke-miterlimit:10;stroke-dasharray:none;stroke-opacity:1"
       transform="matrix(1.3333333,0,0,1.3333333,1142.5197,0)" />
    <path
       id="path1495"
       d="m 164.926,352.168 -0.137,-0.32 -0.289,-0.196 -0.289,-0.105 -0.391,0.019 -0.476,0.118 -0.551,0.195 -0.277,0.144 -0.258,0.176 -0.281,0.196 -0.27,0.195 -0.266,0.207 -0.23,0.25 -0.227,0.203 -0.339,0.414 -0.176,0.414 -0.012,0.332 0.145,0.348 0.269,0.301 0.457,0.257 0.61,0.157 0.402,0.05 h 0.476 l 0.496,-0.031 0.559,-0.019 0.547,-0.012 1.016,-0.102 0.566,-0.031 0.621,0.02 0.547,0.011 0.488,0.02 0.453,0.051"
       style="fill:none;stroke:#3333cc;stroke-width:0.85;stroke-linecap:round;stroke-linejoin:round;stroke-miterlimit:10;stroke-dasharray:none;stroke-opacity:1"
       transform="matrix(1.3333333,0,0,1.3333333,1142.5197,0)" />
    <path
       id="path1496"
       d="m 190.141,379.742 -0.407,0.113 -0.472,0.118 -0.52,0.246 -0.277,0.144 -0.281,0.145 -0.27,0.176 -0.246,0.195 -0.25,0.219 -0.227,0.195 -0.351,0.383 -0.301,0.308 -0.144,0.289 -0.04,0.313 0.415,0.113 0.382,-0.144 0.496,-0.262 0.297,-0.164 0.293,-0.195 0.321,-0.188 0.339,-0.226 0.301,-0.27 0.278,-0.266 0.269,-0.3 0.281,-0.27 0.246,-0.297 0.227,-0.301 0.23,-0.308 0.227,-0.313 0.195,-0.32 0.188,-0.328 0.195,-0.344 0.195,-0.348 0.176,-0.382 0.168,-0.352 0.164,-0.34 0.137,-0.281 0.113,-0.277 0.176,-0.434 0.063,-0.32 -0.293,0.308 -0.164,0.258 -0.165,0.27 -0.144,0.332 -0.113,0.34 -0.145,0.32 -0.148,0.308 -0.114,0.34 -0.082,0.395 -0.093,0.371 -0.102,0.371 -0.082,0.426 -0.031,0.433 -0.055,0.442 -0.027,0.402 v 0.426 l 0.051,0.422 0.031,0.371 0.031,0.351 0.07,0.395 0.114,0.422 0.093,0.426 0.082,0.379 0.114,0.394"
       style="fill:none;stroke:#3333cc;stroke-width:0.85;stroke-linecap:round;stroke-linejoin:round;stroke-miterlimit:10;stroke-dasharray:none;stroke-opacity:1"
       transform="matrix(1.3333333,0,0,1.3333333,1142.5197,0)" />
    <path
       id="path1497"
       d="m 191.102,411.348 0.394,0.105 0.34,-0.043 0.402,-0.07 0.457,-0.156 0.403,-0.176 0.453,-0.207 0.344,-0.227 0.277,-0.258 0.199,-0.25 0.207,-0.351 0.051,-0.297 -0.207,-0.27 -0.488,0.012 -0.496,0.133 -0.485,0.309 -0.258,0.175 -0.437,0.371 -0.379,0.426 -0.324,0.383 -0.227,0.383 -0.164,0.34 -0.031,0.371 0.094,0.453 0.164,0.258 0.257,0.281 0.301,0.176 0.426,0.176 0.453,0.101 0.527,0.043 0.508,-0.031 0.528,-0.051 0.453,-0.117 0.457,-0.07 0.371,-0.157"
       style="fill:none;stroke:#3333cc;stroke-width:0.85;stroke-linecap:round;stroke-linejoin:round;stroke-miterlimit:10;stroke-dasharray:none;stroke-opacity:1"
       transform="matrix(1.3333333,0,0,1.3333333,1142.5197,0)" />
    <path
       id="path1498"
       d="m 132.348,414.496 v 0.363 l 0.086,0.301 0.3,0.121 0.426,-0.093 0.34,-0.219 0.242,-0.184 0.231,-0.289 -0.364,0.098 -0.281,0.242 -0.266,0.312 -0.23,0.266 -0.168,0.375 0.035,0.34 0.375,-0.047 0.387,-0.23 0.363,-0.293 0.27,-0.301 0.215,-0.328 0.132,-0.371 0.098,-0.305 -0.012,-0.301 -0.168,-0.351 -0.363,-0.086 -0.461,0.172 -0.363,0.242 -0.328,0.375 -0.301,0.359 -0.242,0.402 -0.231,0.399 -0.168,0.387 -0.16,0.336 -0.035,0.339 0.098,0.364 0.191,0.23 0.316,0.024 0.399,-0.133 0.293,-0.196 0.242,-0.254 0.215,-0.3 0.172,-0.34 0.07,-0.363 0.039,-0.457 v -0.485 l -0.039,-0.461 -0.058,-0.433 -0.172,-0.399 -0.266,-0.156 -0.375,0.094 -0.352,0.195 -0.265,0.34 -0.266,0.398 -0.133,0.434 -0.109,0.387 v 0.339 l 0.133,0.411 0.328,0.254 0.41,0.011 0.328,-0.035 0.387,-0.098 0.277,-0.144 0.254,-0.195 0.184,-0.325 -0.172,-0.304 h -0.324"
       style="mix-blend-mode:multiply;fill:none;stroke:#ff00ff;stroke-width:2.83;stroke-linecap:round;stroke-linejoin:round;stroke-miterlimit:10;stroke-dasharray:none;stroke-opacity:0.47"
       transform="matrix(1.3333333,0,0,1.3333333,1142.5197,0)" />
    <path
       id="path1499"
       d="m 132.465,404.555 0.047,-0.399 0.031,-0.363 v -0.332 l 0.023,-0.367 v -1.926 l 0.024,-0.453 0.043,-0.422 0.031,-0.41 0.047,-0.399 v -0.332 l 0.043,-0.386 0.035,-0.332 0.055,-0.375 0.031,-0.368 0.059,-0.429 0.054,-0.489 0.067,-0.476 0.031,-0.453 0.078,-0.453 0.035,-0.411 0.043,-0.421 0.043,-0.344 0.047,-0.363 0.02,-0.368 0.066,-0.418 0.035,-0.488 0.055,-0.433 0.035,-0.442 0.086,-0.375 0.035,-0.39 0.09,-0.364 0.055,-0.32 0.086,-0.332 0.066,-0.324 0.07,-0.309 0.086,-0.398 0.035,-0.344 0.067,-0.387 0.019,-0.387 0.024,-0.367 0.035,-0.308 0.098,-0.309 0.089,-0.312"
       style="mix-blend-mode:multiply;fill:none;stroke:#228b22;stroke-width:2.83;stroke-linecap:round;stroke-linejoin:round;stroke-miterlimit:10;stroke-dasharray:none;stroke-opacity:0.47"
       transform="matrix(1.3333333,0,0,1.3333333,1142.5197,0)" />
    <path
       id="path1500"
       d="m 139.074,408.598 37.711,-22.364"
       style="mix-blend-mode:multiply;fill:none;stroke:#00c0ff;stroke-width:2.83;stroke-linecap:round;stroke-linejoin:round;stroke-miterlimit:10;stroke-dasharray:none;stroke-opacity:0.47"
       transform="matrix(1.3333333,0,0,1.3333333,1142.5197,0)" />
    <path
       id="path1501"
       d="M 138.453,415.145 H 178.59"
       style="mix-blend-mode:multiply;fill:none;stroke:#ff8000;stroke-width:2.83;stroke-linecap:round;stroke-linejoin:round;stroke-miterlimit:10;stroke-dasharray:none;stroke-opacity:0.47"
       transform="matrix(1.3333333,0,0,1.3333333,1142.5197,0)" />
    <path
       id="path1502"
       d="m 213.273,368.699 0.196,-0.469 0.215,-0.55 0.089,-0.285 0.11,-0.29 0.137,-0.304 0.121,-0.321 0.242,-0.578 0.137,-0.304 0.152,-0.332 0.137,-0.336 0.152,-0.348 0.137,-0.398 0.136,-0.379 0.153,-0.348 0.168,-0.367 0.168,-0.305 0.136,-0.316 0.121,-0.289 0.153,-0.274 0.289,-0.457 0.215,-0.336 0.183,-0.316 v 0.453 l -0.093,0.625 -0.075,0.379 -0.047,0.426 -0.046,0.441 -0.043,0.395 -0.047,0.394 -0.031,0.383 -0.016,0.348 -0.059,0.336 -0.015,0.546 0.047,0.5 0.074,0.368 0.136,0.347 0.321,0.078 0.336,-0.214 0.379,-0.411 0.183,-0.257 0.199,-0.289 0.18,-0.305 0.231,-0.332 0.179,-0.367 0.336,-0.758 0.199,-0.367 0.168,-0.379 0.137,-0.379 0.152,-0.383 0.336,-0.758 0.164,-0.379 0.336,-0.672 0.168,-0.316 0.137,-0.289 0.289,-0.473 0.258,-0.363"
       style="fill:none;stroke:#000000;stroke-width:0.85;stroke-linecap:round;stroke-linejoin:round;stroke-miterlimit:10;stroke-dasharray:none;stroke-opacity:1"
       transform="matrix(1.3333333,0,0,1.3333333,1142.5197,0)" />
    <path
       id="path1503"
       d="m 223.168,364.52 h -0.457 l -0.305,0.062 -0.41,0.137 -0.367,0.242 -0.668,0.668 -0.215,0.379 -0.184,0.304 -0.105,0.383 0.047,0.317 0.32,0.136 0.41,-0.074 0.379,-0.168 0.41,-0.258 0.352,-0.289 0.363,-0.304 0.305,-0.364 0.277,-0.351 0.211,-0.32 0.215,-0.332 -0.199,0.457 -0.121,0.425 -0.016,0.395 -0.031,0.305 0.152,0.378"
       style="fill:none;stroke:#000000;stroke-width:0.85;stroke-linecap:round;stroke-linejoin:round;stroke-miterlimit:10;stroke-dasharray:none;stroke-opacity:1"
       transform="matrix(1.3333333,0,0,1.3333333,1142.5197,0)" />
    <path
       id="path1504"
       d="m 227.641,364.383 -0.426,0.168 -0.289,0.195 -0.379,0.305 -0.367,0.383 -0.305,0.378 -0.211,0.411 -0.152,0.347 -0.094,0.289 v 0.368 l 0.336,0.179 0.457,-0.058"
       style="fill:none;stroke:#000000;stroke-width:0.85;stroke-linecap:round;stroke-linejoin:round;stroke-miterlimit:10;stroke-dasharray:none;stroke-opacity:1"
       transform="matrix(1.3333333,0,0,1.3333333,1142.5197,0)" />
    <path
       id="path1505"
       d="m 231.691,356.738 -0.261,0.317 -0.289,0.351 -0.317,0.41 -0.304,0.457 -0.368,0.469 -0.347,0.488 -0.367,0.5 -0.352,0.52 -0.332,0.547 -0.32,0.531 -0.258,0.516 -0.246,0.504 -0.196,0.453 -0.168,0.41 -0.093,0.367 -0.075,0.332 -0.046,0.52 0.121,0.363 0.215,0.215 0.457,0.043 0.363,-0.031 h 0.351 l 0.395,0.031 0.273,0.246 0.078,0.332 -0.093,0.351 -0.149,0.364"
       style="fill:none;stroke:#000000;stroke-width:0.85;stroke-linecap:round;stroke-linejoin:round;stroke-miterlimit:10;stroke-dasharray:none;stroke-opacity:1"
       transform="matrix(1.3333333,0,0,1.3333333,1142.5197,0)" />
    <path
       id="path1506"
       d="m 233.562,357.984 -0.273,0.243 -0.23,0.226 -0.211,0.32 -0.231,0.352 -0.226,0.363 -0.227,0.352 -0.184,0.41 -0.199,0.41 -0.183,0.379 -0.196,0.379 -0.136,0.41 -0.125,0.383 -0.121,0.332 -0.075,0.305 -0.062,0.562 0.047,0.442 0.136,0.332 0.168,0.273 0.258,0.215 0.336,0.183 0.336,0.153 0.289,0.18 0.274,0.152 0.226,0.258 v 0.304 l -0.258,0.289 -0.383,0.168 -0.453,0.153 -0.429,0.121 -0.317,0.047 -0.383,-0.047"
       style="fill:none;stroke:#000000;stroke-width:0.85;stroke-linecap:round;stroke-linejoin:round;stroke-miterlimit:10;stroke-dasharray:none;stroke-opacity:1"
       transform="matrix(1.3333333,0,0,1.3333333,1142.5197,0)" />
    <path
       id="path1507"
       d="m 235.754,364.762 -0.274,0.168 -0.289,0.215 -0.273,0.21 -0.23,0.243 -0.364,0.425 -0.289,0.368 -0.168,0.257 -0.121,0.321 0.363,0.058 0.336,-0.211 0.379,-0.336 0.336,-0.347 0.289,-0.336 0.199,-0.32 0.184,-0.305 -0.215,0.383 -0.137,0.347 -0.031,0.336 0.078,0.395 0.305,0.211"
       style="fill:none;stroke:#000000;stroke-width:0.85;stroke-linecap:round;stroke-linejoin:round;stroke-miterlimit:10;stroke-dasharray:none;stroke-opacity:1"
       transform="matrix(1.3333333,0,0,1.3333333,1142.5197,0)" />
    <path
       id="path1508"
       d="m 239.543,364.004 -0.152,0.289 -0.211,0.469 -0.168,0.457 -0.215,0.5 -0.164,0.426 -0.184,0.367 -0.168,0.379 0.106,-0.379 0.168,-0.41 0.199,-0.368 0.195,-0.347 0.184,-0.289 0.246,-0.243 0.426,-0.214 0.379,-0.137 0.41,-0.09 0.383,-0.078"
       style="fill:none;stroke:#000000;stroke-width:0.85;stroke-linecap:round;stroke-linejoin:round;stroke-miterlimit:10;stroke-dasharray:none;stroke-opacity:1"
       transform="matrix(1.3333333,0,0,1.3333333,1142.5197,0)" />
    <path
       id="path1509"
       d="m 243.945,363.594 -0.293,-0.094 -0.3,0.078 -0.29,0.227 -0.078,0.336 0.078,0.316 0.149,0.352 0.141,0.289 0.164,0.289 0.136,0.289 0.2,0.379 0.093,0.351 -0.047,0.41 -0.257,0.317 -0.289,0.168 -0.336,0.168 -0.336,0.09 -0.379,-0.028"
       style="fill:none;stroke:#000000;stroke-width:0.85;stroke-linecap:round;stroke-linejoin:round;stroke-miterlimit:10;stroke-dasharray:none;stroke-opacity:1"
       transform="matrix(1.3333333,0,0,1.3333333,1142.5197,0)" />
    <path
       id="path1510"
       d="m 248.906,364.504 -0.41,-0.047 -0.426,0.094 -0.367,0.211 -0.504,0.367 -0.258,0.18 -0.242,0.214 -0.215,0.211 -0.195,0.246 -0.383,0.411 -0.258,0.379 -0.168,0.289 -0.046,0.336 0.289,0.179"
       style="fill:none;stroke:#000000;stroke-width:0.85;stroke-linecap:round;stroke-linejoin:round;stroke-miterlimit:10;stroke-dasharray:none;stroke-opacity:1"
       transform="matrix(1.3333333,0,0,1.3333333,1142.5197,0)" />
    <path
       id="path1511"
       d="m 252.848,356.645 -0.227,0.257 -0.289,0.321 -0.289,0.351 -0.305,0.442 -0.32,0.437 -0.578,0.914 -0.262,0.473 -0.242,0.484 -0.184,0.426 -0.168,0.41 -0.105,0.41 -0.059,0.379 -0.047,0.352 -0.031,0.32 0.121,0.516 0.168,0.41 0.246,0.305 0.227,0.226 0.363,0.258 0.293,0.336 0.121,0.289 0.043,0.336 -0.027,0.379 -0.016,0.394 -0.031,0.364 0.031,0.304"
       style="fill:none;stroke:#000000;stroke-width:0.85;stroke-linecap:round;stroke-linejoin:round;stroke-miterlimit:10;stroke-dasharray:none;stroke-opacity:1"
       transform="matrix(1.3333333,0,0,1.3333333,1142.5197,0)" />
    <path
       id="path1512"
       d="m 255.77,364.02 -0.29,0.195 -0.441,0.336 -0.441,0.332 -0.395,0.336 -0.289,0.289 -0.23,0.304 0.183,0.243 0.442,-0.121 0.41,-0.258 0.426,-0.336 0.32,-0.332 0.215,-0.262 0.195,-0.332 -0.164,0.332 -0.199,0.399 -0.121,0.378 v 0.321 l 0.195,0.347 0.383,0.153 0.363,-0.032"
       style="fill:none;stroke:#000000;stroke-width:0.85;stroke-linecap:round;stroke-linejoin:round;stroke-miterlimit:10;stroke-dasharray:none;stroke-opacity:1"
       transform="matrix(1.3333333,0,0,1.3333333,1142.5197,0)" />
    <path
       id="path1513"
       d="m 263.824,353.789 -0.293,0.211 -0.211,0.258 -0.199,0.336 -0.18,0.457 -0.199,0.515 -0.215,0.579 -0.211,0.621 -0.214,0.64 -0.227,0.621 -0.215,0.594 -0.211,0.609 -0.183,0.61 -0.2,0.668 -0.195,0.668 -0.137,0.652 -0.125,0.625 -0.089,0.563 -0.079,0.562 -0.027,0.5 v 0.942 l 0.027,0.441 0.047,0.383"
       style="fill:none;stroke:#000000;stroke-width:0.85;stroke-linecap:round;stroke-linejoin:round;stroke-miterlimit:10;stroke-dasharray:none;stroke-opacity:1"
       transform="matrix(1.3333333,0,0,1.3333333,1142.5197,0)" />
    <path
       id="path1514"
       d="m 258.801,365.734 0.273,0.231 0.485,0.18 0.55,0.078 0.579,-0.032 0.335,-0.015 0.332,-0.043 0.305,-0.063 0.336,-0.062"
       style="fill:none;stroke:#000000;stroke-width:0.85;stroke-linecap:round;stroke-linejoin:round;stroke-miterlimit:10;stroke-dasharray:none;stroke-opacity:1"
       transform="matrix(1.3333333,0,0,1.3333333,1142.5197,0)" />
    <path
       id="path1515"
       d="m 265.969,357.602 -0.227,0.55 -0.109,0.301 -0.09,0.336 -0.094,0.363 -0.074,0.336 -0.074,0.352 -0.047,0.394 -0.094,0.758 -0.043,0.426 -0.047,0.426 -0.062,0.457 -0.059,0.441 -0.047,0.426 -0.058,0.426 -0.016,0.426 -0.031,0.394 -0.016,0.348 -0.031,0.367 -0.016,0.305 v 0.546"
       style="fill:none;stroke:#000000;stroke-width:0.85;stroke-linecap:round;stroke-linejoin:round;stroke-miterlimit:10;stroke-dasharray:none;stroke-opacity:1"
       transform="matrix(1.3333333,0,0,1.3333333,1142.5197,0)" />
    <path
       id="path1516"
       d="m 263.121,363.336 0.488,0.074 h 0.93 l 0.547,-0.031 0.609,-0.043 0.305,-0.047 0.547,-0.121 0.547,-0.152 0.535,-0.137"
       style="fill:none;stroke:#000000;stroke-width:0.85;stroke-linecap:round;stroke-linejoin:round;stroke-miterlimit:10;stroke-dasharray:none;stroke-opacity:1"
       transform="matrix(1.3333333,0,0,1.3333333,1142.5197,0)" />
    <path
       id="path1517"
       d="m 276.82,362.801 0.184,0.246 0.152,0.426 0.016,0.5 v 0.578 l 0.031,0.547 0.09,0.457 0.152,0.41 0.184,0.305 0.242,0.257 0.258,0.211 0.289,0.121 0.32,-0.015 0.289,-0.106 0.305,-0.211 0.367,-0.289 0.348,-0.351 0.336,-0.379 0.289,-0.442 0.258,-0.378 0.246,-0.379 0.211,-0.336 0.215,-0.258 0.195,-0.242 0.293,-0.215"
       style="fill:none;stroke:#000000;stroke-width:0.85;stroke-linecap:round;stroke-linejoin:round;stroke-miterlimit:10;stroke-dasharray:none;stroke-opacity:1"
       transform="matrix(1.3333333,0,0,1.3333333,1142.5197,0)" />
    <path
       id="path1518"
       d="m 284.098,364.078 -0.2,0.258 -0.257,0.383 -0.336,0.469 -0.137,0.273 -0.242,0.519 -0.168,0.426 -0.047,0.395 0.016,0.304 0.199,0.364 0.289,0.136 0.347,-0.031 0.321,-0.136 0.289,-0.211 0.215,-0.321 0.168,-0.336 0.074,-0.347 -0.031,-0.364 -0.137,-0.351 -0.227,-0.336 -0.304,-0.274 -0.336,-0.152 -0.289,-0.105 -0.305,-0.043"
       style="fill:none;stroke:#000000;stroke-width:0.85;stroke-linecap:round;stroke-linejoin:round;stroke-miterlimit:10;stroke-dasharray:none;stroke-opacity:1"
       transform="matrix(1.3333333,0,0,1.3333333,1142.5197,0)" />
    <path
       id="path1519"
       d="m 287.262,363.805 -0.043,0.441 -0.031,0.305 -0.079,0.332 0.289,0.125 0.336,-0.199 0.426,-0.289 0.488,-0.211 0.473,-0.168 0.484,-0.047 0.457,-0.016 0.426,0.106 0.367,0.23 0.258,0.332 0.168,0.352 0.121,0.41 0.016,0.379 v 0.425 l -0.047,0.458 v 0.41 l 0.047,0.351"
       style="fill:none;stroke:#000000;stroke-width:0.85;stroke-linecap:round;stroke-linejoin:round;stroke-miterlimit:10;stroke-dasharray:none;stroke-opacity:1"
       transform="matrix(1.3333333,0,0,1.3333333,1142.5197,0)" />
    <path
       id="path1520"
       d="m 309.926,362.848 -0.469,-0.016 -0.414,0.078 -0.453,0.164 -0.473,0.305 -0.441,0.379 -0.399,0.383 -0.332,0.441 -0.273,0.395 -0.168,0.363 -0.063,0.305 v 0.363 l 0.274,0.137 0.457,-0.09 0.41,-0.211 0.426,-0.367 0.23,-0.211 0.211,-0.215 0.215,-0.242 0.352,-0.5 0.152,-0.289 0.258,-0.52 0.199,-0.5 0.164,-0.336 0.168,-0.363 -0.043,0.441 -0.125,0.606 -0.043,0.367 -0.031,0.363 -0.031,0.336 v 0.305 l 0.031,0.578 0.074,0.437 0.168,0.442 0.215,0.351 0.305,0.317 0.41,0.183"
       style="fill:none;stroke:#3333cc;stroke-width:0.85;stroke-linecap:round;stroke-linejoin:round;stroke-miterlimit:10;stroke-dasharray:none;stroke-opacity:1"
       transform="matrix(1.3333333,0,0,1.3333333,1142.5197,0)" />
    <path
       id="path1521"
       d="m 316.016,364.094 0.23,0.242 0.227,0.246"
       style="fill:none;stroke:#000000;stroke-width:0.85;stroke-linecap:round;stroke-linejoin:round;stroke-miterlimit:10;stroke-dasharray:none;stroke-opacity:1"
       transform="matrix(1.3333333,0,0,1.3333333,1142.5197,0)" />
    <path
       id="path1522"
       d="m 316.398,365.766 v 0"
       style="fill:none;stroke:#000000;stroke-width:0.85;stroke-linecap:round;stroke-linejoin:round;stroke-miterlimit:10;stroke-dasharray:none;stroke-opacity:1"
       transform="matrix(1.3333333,0,0,1.3333333,1142.5197,0)" />
    <path
       id="path1523"
       d="m 110.254,404.512 -0.379,-0.09 -0.336,-0.016 -0.426,0.016 -0.379,0.074 -0.367,0.141 -0.363,0.242 -0.305,0.379 -0.261,0.578 -0.106,0.348 -0.09,0.336 -0.078,0.32 -0.059,0.5 -0.046,0.426 0.062,0.367 0.152,0.332 0.301,0.047 0.321,-0.215 0.23,-0.363 0.227,-0.594 0.105,-0.379 0.109,-0.41 0.09,-0.379 0.078,-0.367 0.09,-0.348 0.074,-0.336 0.047,-0.336 0.047,-0.332 0.047,-0.336 v -1.609 l -0.016,-0.383 -0.031,-0.426 v -0.453 l -0.031,-0.426 -0.016,-0.41 -0.031,-0.351 v -0.321 l -0.059,-0.468 -0.078,-0.379 0.047,0.636 0.031,0.457 0.043,0.469 0.094,0.488 0.074,0.426 0.063,0.41 0.105,0.379 0.121,0.352 0.094,0.332 0.09,0.32 0.121,0.289 0.168,0.258 0.289,0.531 0.305,0.442 0.336,0.32 0.336,0.258 0.363,0.199"
       style="fill:none;stroke:#228b22;stroke-width:0.85;stroke-linecap:round;stroke-linejoin:round;stroke-miterlimit:10;stroke-dasharray:none;stroke-opacity:1"
       transform="matrix(1.3333333,0,0,1.3333333,1142.5197,0)" />
    <path
       id="path1524"
       d="m 111.84,397.977 -0.184,0.457 -0.109,0.621 -0.012,0.383 -0.031,0.41 -0.016,0.425 v 0.426 l 0.016,0.41 0.043,0.348 0.047,0.336 0.105,0.32 0.094,0.285 0.242,0.442 0.258,0.367 0.289,0.305 0.336,0.285 0.305,0.215 0.289,0.152"
       style="fill:none;stroke:#228b22;stroke-width:0.85;stroke-linecap:round;stroke-linejoin:round;stroke-miterlimit:10;stroke-dasharray:none;stroke-opacity:1"
       transform="matrix(1.3333333,0,0,1.3333333,1142.5197,0)" />
    <path
       id="path1525"
       d="m 115.523,399.816 -0.214,0.426 -0.184,0.332 -0.227,0.336 -0.183,0.32 -0.168,0.332 -0.121,0.383 -0.09,0.305 -0.031,0.363 0.168,0.379 0.316,0.121 0.305,-0.043 0.261,-0.273 0.168,-0.262 0.122,-0.301 0.074,-0.441 0.031,-0.379 v -0.504 l -0.062,-0.547 -0.016,-0.425 -0.074,-0.364 -0.016,0.442 0.016,0.3 0.031,0.305 0.121,0.504 0.09,0.41 0.137,0.332 0.199,0.383 0.289,0.242"
       style="fill:none;stroke:#228b22;stroke-width:0.85;stroke-linecap:round;stroke-linejoin:round;stroke-miterlimit:10;stroke-dasharray:none;stroke-opacity:1"
       transform="matrix(1.3333333,0,0,1.3333333,1142.5197,0)" />
    <path
       id="path1526"
       d="m 117.73,399.953 0.075,0.41 0.047,0.547 0.089,0.504 0.079,0.41 0.121,0.348 0.179,0.363"
       style="fill:none;stroke:#228b22;stroke-width:0.85;stroke-linecap:round;stroke-linejoin:round;stroke-miterlimit:10;stroke-dasharray:none;stroke-opacity:1"
       transform="matrix(1.3333333,0,0,1.3333333,1142.5197,0)" />
    <path
       id="path1527"
       d="m 117.195,395.805 -0.09,0.425 0.043,0.317 0.2,0.383 0.289,0.332 0.289,0.168 0.394,0.09 0.368,0.046 0.41,0.075 0.382,0.047 0.379,0.078 0.368,0.074 0.332,0.137 0.261,0.199 0.258,0.211 0.195,0.258 0.094,0.289 v 0.351 l -0.078,0.531 -0.137,0.547 -0.211,0.457 -0.289,0.305 -0.289,0.195 h -0.425 l -0.336,-0.09"
       style="fill:none;stroke:#228b22;stroke-width:0.85;stroke-linecap:round;stroke-linejoin:round;stroke-miterlimit:10;stroke-dasharray:none;stroke-opacity:1"
       transform="matrix(1.3333333,0,0,1.3333333,1142.5197,0)" />
    <path
       id="path1528"
       d="m 118.887,393.113 0.425,0.137 0.336,0.195 0.379,0.426 0.2,0.262 0.211,0.258 0.242,0.289 0.215,0.289 0.183,0.258 0.195,0.242 0.215,0.242 0.2,0.23 0.179,0.243 0.367,0.425 0.305,0.411 0.242,0.378 0.168,0.368 0.121,0.347 0.047,0.364 -0.031,0.425 -0.059,0.368"
       style="fill:none;stroke:#228b22;stroke-width:0.85;stroke-linecap:round;stroke-linejoin:round;stroke-miterlimit:10;stroke-dasharray:none;stroke-opacity:1"
       transform="matrix(1.3333333,0,0,1.3333333,1142.5197,0)" />
    <path
       id="path1529"
       d="m 123.148,395.227 0.442,-0.274 0.273,-0.336 0.184,-0.363 0.195,-0.305 0.184,-0.242"
       style="fill:none;stroke:#228b22;stroke-width:0.85;stroke-linecap:round;stroke-linejoin:round;stroke-miterlimit:10;stroke-dasharray:none;stroke-opacity:1"
       transform="matrix(1.3333333,0,0,1.3333333,1142.5197,0)" />
    <path
       id="path1530"
       d="m 123.984,396.609 0.274,-0.183 0.578,-0.485"
       style="fill:none;stroke:#228b22;stroke-width:0.85;stroke-linecap:round;stroke-linejoin:round;stroke-miterlimit:10;stroke-dasharray:none;stroke-opacity:1"
       transform="matrix(1.3333333,0,0,1.3333333,1142.5197,0)" />
    <path
       id="path1531"
       d="m 126.117,394.832 -0.078,-0.32 -0.031,-0.473 -0.016,-0.484 -0.027,-0.399 -0.047,-0.379 -0.078,-0.363 -0.059,-0.305 -0.078,-0.336 -0.074,-0.394 -0.09,-0.379 -0.078,-0.379 -0.09,-0.351 0.289,0.183 0.227,0.5 0.273,0.488 0.231,0.442 0.242,0.41 0.242,0.379 0.305,0.457 0.336,0.453 0.336,0.473 0.32,0.363 0.305,0.215 0.332,0.152"
       style="fill:none;stroke:#228b22;stroke-width:0.85;stroke-linecap:round;stroke-linejoin:round;stroke-miterlimit:10;stroke-dasharray:none;stroke-opacity:1"
       transform="matrix(1.3333333,0,0,1.3333333,1142.5197,0)" />
    <path
       id="path1532"
       d="m 147.41,396.379 -0.226,0.23 -0.278,0.321 -0.179,0.332 -0.168,0.336 -0.153,0.347 -0.094,0.289 -0.074,0.368 0.168,0.289 0.289,-0.125 0.196,-0.289 0.183,-0.422 0.199,-0.535 0.137,-0.579 0.106,-0.332 0.062,-0.336 0.059,-0.378 0.015,-0.426 0.032,-0.457 0.015,-0.426 v -0.41 l -0.015,-0.395 v -0.394 l -0.032,-0.336 -0.043,-0.332 -0.031,-0.305 -0.016,-0.305 -0.089,-0.562 -0.11,-0.473 -0.121,-0.379 -0.168,-0.304 -0.09,0.441 0.032,0.32 0.043,0.379 0.015,0.41 0.063,0.442 0.058,0.457 0.078,0.457 0.075,0.484 0.062,0.442 0.121,0.41 0.121,0.379 0.125,0.336 0.121,0.32 0.168,0.273 0.164,0.274 0.368,0.394 0.379,0.321 0.382,0.211"
       style="fill:none;stroke:#00c0ff;stroke-width:0.85;stroke-linecap:round;stroke-linejoin:round;stroke-miterlimit:10;stroke-dasharray:none;stroke-opacity:1"
       transform="matrix(1.3333333,0,0,1.3333333,1142.5197,0)" />
    <path
       id="path1533"
       d="m 150.91,387.656 -0.258,0.41 -0.152,0.321 -0.137,0.347 -0.168,0.504 -0.121,0.547 -0.047,0.317 -0.074,0.562 -0.015,0.32 v 0.625 l 0.046,0.563 0.043,0.316 0.078,0.336 0.059,0.395 0.109,0.394 0.106,0.352 0.121,0.332 0.121,0.32 0.152,0.274 0.289,0.457 0.352,0.363 0.363,0.305 0.399,0.199 0.41,0.043"
       style="fill:none;stroke:#00c0ff;stroke-width:0.85;stroke-linecap:round;stroke-linejoin:round;stroke-miterlimit:10;stroke-dasharray:none;stroke-opacity:1"
       transform="matrix(1.3333333,0,0,1.3333333,1142.5197,0)" />
    <path
       id="path1534"
       d="m 154.426,390.953 -0.395,0.121 -0.289,0.137 -0.273,0.23 -0.231,0.258 -0.164,0.258 -0.168,0.379 -0.062,0.383 0.105,0.289 0.383,-0.094 0.211,-0.363 0.152,-0.305 0.094,-0.336 0.074,-0.332 0.094,-0.41 0.074,-0.336 0.215,0.242 0.164,0.305 0.184,0.289 0.246,0.289 0.242,0.215 0.289,0.148"
       style="fill:none;stroke:#00c0ff;stroke-width:0.85;stroke-linecap:round;stroke-linejoin:round;stroke-miterlimit:10;stroke-dasharray:none;stroke-opacity:1"
       transform="matrix(1.3333333,0,0,1.3333333,1142.5197,0)" />
    <path
       id="path1535"
       d="m 156.59,390.027 -0.047,0.364 -0.031,0.425 0.031,0.336 0.047,0.332 0.074,0.305 0.137,0.383 0.215,0.285"
       style="fill:none;stroke:#00c0ff;stroke-width:0.85;stroke-linecap:round;stroke-linejoin:round;stroke-miterlimit:10;stroke-dasharray:none;stroke-opacity:1"
       transform="matrix(1.3333333,0,0,1.3333333,1142.5197,0)" />
    <path
       id="path1536"
       d="m 158.719,388.277 -0.211,0.321 -0.168,0.257 -0.215,0.426 -0.168,0.379 -0.074,0.367 -0.031,0.379 0.105,0.305 0.305,0.121 0.261,-0.336 0.075,-0.332 0.047,-0.394 -0.016,-0.383 -0.031,-0.563 -0.047,-0.301 -0.074,-0.335 -0.047,-0.305 -0.137,-0.563 -0.168,-0.515 -0.195,-0.532 -0.141,-0.472 -0.148,-0.485 -0.141,-0.351 -0.152,-0.363 0.125,0.394 0.195,0.484 0.137,0.29 0.125,0.289 0.121,0.32 0.121,0.336 0.137,0.332 0.152,0.351 0.137,0.332 0.136,0.336 0.168,0.289 0.168,0.258 0.321,0.457 0.379,0.332 0.41,0.258"
       style="fill:none;stroke:#00c0ff;stroke-width:0.85;stroke-linecap:round;stroke-linejoin:round;stroke-miterlimit:10;stroke-dasharray:none;stroke-opacity:1"
       transform="matrix(1.3333333,0,0,1.3333333,1142.5197,0)" />
    <path
       id="path1537"
       d="m 158.629,382.793 0.211,0.285 0.215,0.246 0.242,0.227 0.23,0.242 0.243,0.262 0.242,0.273 0.246,0.274 0.226,0.273 0.246,0.258 0.243,0.289 0.211,0.258 0.183,0.258 0.199,0.273 0.137,0.273 0.121,0.321 0.106,0.332 0.093,0.351 0.075,0.336 0.047,0.317 0.015,0.304 0.031,0.532 -0.078,0.457"
       style="fill:none;stroke:#00c0ff;stroke-width:0.85;stroke-linecap:round;stroke-linejoin:round;stroke-miterlimit:10;stroke-dasharray:none;stroke-opacity:1"
       transform="matrix(1.3333333,0,0,1.3333333,1142.5197,0)" />
    <path
       id="path1538"
       d="m 162.785,384.539 0.453,-0.121 0.414,-0.215 0.516,-0.484 0.246,-0.215"
       style="fill:none;stroke:#00c0ff;stroke-width:0.85;stroke-linecap:round;stroke-linejoin:round;stroke-miterlimit:10;stroke-dasharray:none;stroke-opacity:1"
       transform="matrix(1.3333333,0,0,1.3333333,1142.5197,0)" />
    <path
       id="path1539"
       d="m 163.668,385.68 0.457,-0.215 0.273,-0.164 0.258,-0.199 0.242,-0.184 0.29,-0.211 0.273,-0.289"
       style="fill:none;stroke:#00c0ff;stroke-width:0.85;stroke-linecap:round;stroke-linejoin:round;stroke-miterlimit:10;stroke-dasharray:none;stroke-opacity:1"
       transform="matrix(1.3333333,0,0,1.3333333,1142.5197,0)" />
    <path
       id="path1540"
       d="m 166.285,382.656 0.016,-0.32 0.105,-0.547 0.121,-0.578 0.094,-0.504 0.043,-0.469 0.094,-0.472 0.043,-0.457 0.109,-0.379 0.043,-0.364 0.094,-0.304 0.105,-0.321 0.379,0.243 0.231,0.414 0.242,0.422 0.242,0.425 0.262,0.414 0.258,0.379 0.289,0.379 0.242,0.305 0.246,0.289 0.18,0.289 0.23,0.242"
       style="fill:none;stroke:#00c0ff;stroke-width:0.85;stroke-linecap:round;stroke-linejoin:round;stroke-miterlimit:10;stroke-dasharray:none;stroke-opacity:1"
       transform="matrix(1.3333333,0,0,1.3333333,1142.5197,0)" />
    <path
       id="path1541"
       d="m 153.332,410.273 -0.289,-0.089 -0.426,-0.047 -0.367,0.047 -0.379,0.121 -0.305,0.168 -0.273,0.183 -0.262,0.332 -0.121,0.289 0.168,0.336 0.41,-0.093 0.246,-0.227 0.274,-0.336 0.226,-0.395 0.215,-0.41 0.184,-0.425 0.195,-0.457 0.137,-0.469 0.199,-0.531 0.168,-0.536 0.195,-0.589 0.063,-0.305 0.168,-0.547 0.152,-0.535 0.09,-0.379 0.078,-0.363 -0.031,0.394 -0.09,0.594 -0.047,0.379 -0.078,0.379 -0.043,0.383 -0.031,0.425 -0.016,0.438 -0.031,0.383 v 0.379 l 0.031,0.378 0.016,0.368 0.031,0.3 0.121,0.594 0.137,0.531 0.199,0.426 0.211,0.41 0.184,0.305 0.289,0.215"
       style="fill:none;stroke:#ff8000;stroke-width:0.85;stroke-linecap:round;stroke-linejoin:round;stroke-miterlimit:10;stroke-dasharray:none;stroke-opacity:1"
       transform="matrix(1.3333333,0,0,1.3333333,1142.5197,0)" />
    <path
       id="path1542"
       d="m 159.266,404.469 -0.454,-0.094 -0.304,0.047 -0.289,0.199 -0.336,0.301 -0.168,0.262 -0.199,0.289 -0.18,0.316 -0.168,0.336 -0.152,0.348 -0.137,0.367 -0.121,0.348 -0.094,0.335 -0.074,0.332 -0.078,0.321 -0.047,0.562 0.078,0.563 0.137,0.426 0.242,0.425 0.246,0.321 0.332,0.273 0.352,0.211 0.457,0.199 0.457,0.074"
       style="fill:none;stroke:#ff8000;stroke-width:0.85;stroke-linecap:round;stroke-linejoin:round;stroke-miterlimit:10;stroke-dasharray:none;stroke-opacity:1"
       transform="matrix(1.3333333,0,0,1.3333333,1142.5197,0)" />
    <path
       id="path1543"
       d="m 161.262,407.676 -0.457,0.058 -0.274,0.153 -0.23,0.215 -0.242,0.242 -0.168,0.289 -0.211,0.347 -0.047,0.336 0.258,0.215 0.41,-0.062 0.383,-0.227 0.242,-0.23 0.23,-0.289 0.196,-0.243 0.214,-0.347 0.122,0.347 v 0.379 l 0.078,0.411 0.105,0.335 0.195,0.305 0.215,0.227"
       style="fill:none;stroke:#ff8000;stroke-width:0.85;stroke-linecap:round;stroke-linejoin:round;stroke-miterlimit:10;stroke-dasharray:none;stroke-opacity:1"
       transform="matrix(1.3333333,0,0,1.3333333,1142.5197,0)" />
    <path
       id="path1544"
       d="m 164.367,408.801 -0.199,0.441 -0.106,0.395 -0.105,0.347 -0.047,0.368 -0.015,0.304 0.046,0.41"
       style="fill:none;stroke:#ff8000;stroke-width:0.85;stroke-linecap:round;stroke-linejoin:round;stroke-miterlimit:10;stroke-dasharray:none;stroke-opacity:1"
       transform="matrix(1.3333333,0,0,1.3333333,1142.5197,0)" />
    <path
       id="path1545"
       d="m 166.207,408.723 0.262,-0.153 0.363,-0.179 0.258,-0.2 0.336,-0.304 0.23,-0.289 0.09,-0.332 -0.09,-0.305 -0.336,-0.227 h -0.351 l -0.305,0.149 -0.211,0.215 -0.199,0.289 -0.184,0.332 -0.121,0.351 -0.09,0.336 v 0.332 l 0.059,0.367 0.215,0.301 0.289,0.274 0.379,0.215 0.351,0.089 0.352,0.032 0.379,-0.047"
       style="fill:none;stroke:#ff8000;stroke-width:0.85;stroke-linecap:round;stroke-linejoin:round;stroke-miterlimit:10;stroke-dasharray:none;stroke-opacity:1"
       transform="matrix(1.3333333,0,0,1.3333333,1142.5197,0)" />
    <path
       id="path1546"
       d="m 168.508,404.133 0.41,0.031 0.289,0.168 0.289,0.258 0.289,0.379 0.258,0.457 0.121,0.289 0.125,0.289 0.09,0.289 0.183,0.59 0.075,0.578 0.047,0.547 -0.016,0.504 -0.074,0.468 -0.125,0.426 -0.137,0.399 -0.152,0.332"
       style="fill:none;stroke:#ff8000;stroke-width:0.85;stroke-linecap:round;stroke-linejoin:round;stroke-miterlimit:10;stroke-dasharray:none;stroke-opacity:1"
       transform="matrix(1.3333333,0,0,1.3333333,1142.5197,0)" />
    <path
       id="path1547"
       d="m 171.918,406.566 0.305,-0.062 0.425,-0.106 0.317,-0.089"
       style="fill:none;stroke:#ff8000;stroke-width:0.85;stroke-linecap:round;stroke-linejoin:round;stroke-miterlimit:10;stroke-dasharray:none;stroke-opacity:1"
       transform="matrix(1.3333333,0,0,1.3333333,1142.5197,0)" />
    <path
       id="path1548"
       d="m 172.266,407.676 0.289,-0.153 0.289,-0.089"
       style="fill:none;stroke:#ff8000;stroke-width:0.85;stroke-linecap:round;stroke-linejoin:round;stroke-miterlimit:10;stroke-dasharray:none;stroke-opacity:1"
       transform="matrix(1.3333333,0,0,1.3333333,1142.5197,0)" />
    <path
       id="path1549"
       d="m 175.555,406.473 0.09,-0.289 0.093,-0.469 0.153,-0.426 0.136,-0.457 0.09,-0.41 0.078,-0.41 0.121,-0.379 0.09,-0.383 0.106,-0.301 0.093,-0.383 0.243,0.395 0.047,0.551 0.015,0.621 0.043,0.32 0.031,0.305 0.047,0.316 0.074,0.336 0.079,0.305 0.105,0.547 0.168,0.5 0.168,0.426 0.195,0.41 0.2,0.304 0.214,0.243"
       style="fill:none;stroke:#ff8000;stroke-width:0.85;stroke-linecap:round;stroke-linejoin:round;stroke-miterlimit:10;stroke-dasharray:none;stroke-opacity:1"
       transform="matrix(1.3333333,0,0,1.3333333,1142.5197,0)" />
    <path
       id="path1550"
       d="m 220.625,383.414 -0.184,-0.379 -0.363,-0.199 -0.383,-0.016 -0.425,0.047 -0.532,0.168 -0.535,0.258 -0.515,0.289 -0.489,0.336 -0.441,0.332 -0.336,0.352 -0.274,0.316 -0.121,0.305 -0.062,0.32 -0.027,0.379 0.242,0.305 0.41,0.211 0.351,0.152 0.379,0.168 0.41,0.183 0.383,0.243 0.321,0.242 0.289,0.289 0.257,0.23 0.243,0.364 0.047,0.351 -0.122,0.332 -0.242,0.336 -0.261,0.32 -0.106,0.29 0.106,0.285 0.136,0.351 0.153,0.41 0.168,0.473 0.093,0.453 0.043,0.547 -0.043,0.594 -0.031,0.32 -0.047,0.305 -0.09,0.32 -0.093,0.301 -0.075,0.32 -0.093,0.305 -0.121,0.305 -0.106,0.289 -0.137,0.546 -0.136,0.485 -0.063,0.504 -0.015,0.453 0.093,0.426 0.074,0.382 0.137,0.411 0.153,0.379 0.214,0.351 0.211,0.274 0.262,0.226 0.273,0.168 0.348,0.168 0.442,0.121"
       style="fill:none;stroke:#000000;stroke-width:0.85;stroke-linecap:round;stroke-linejoin:round;stroke-miterlimit:10;stroke-dasharray:none;stroke-opacity:1"
       transform="matrix(1.3333333,0,0,1.3333333,1142.5197,0)" />
    <path
       id="path1551"
       d="m 229.086,384.891 -0.121,0.589 -0.043,0.368 -0.063,0.41 -0.047,0.426 -0.042,0.425 -0.047,0.453 -0.047,0.458 -0.047,0.425 -0.074,0.442 -0.075,0.394 -0.062,0.41 -0.078,0.411 -0.074,0.351 -0.078,0.332 -0.043,0.32 -0.047,0.305 -0.047,0.547 -0.043,0.457 -0.047,0.41 -0.063,0.395 0.399,0.105 0.379,-0.289 0.457,-0.379 0.472,-0.336 0.5,-0.273 0.489,-0.164 0.457,-0.047 0.394,0.047 0.383,0.164 0.32,0.246 0.243,0.258 0.168,0.32 0.089,0.332 -0.031,0.352 -0.09,0.332 -0.215,0.289 -0.316,0.289 -0.398,0.289 -0.485,0.215 -0.551,0.164 -0.578,0.094 -0.546,0.031 -0.504,-0.031 -0.426,-0.094 -0.379,-0.09 -0.32,-0.152"
       style="fill:none;stroke:#3333cc;stroke-width:0.85;stroke-linecap:round;stroke-linejoin:round;stroke-miterlimit:10;stroke-dasharray:none;stroke-opacity:1"
       transform="matrix(1.3333333,0,0,1.3333333,1142.5197,0)" />
    <path
       id="path1552"
       d="m 236.926,393.797 -0.137,0.484 -0.137,0.442 -0.121,0.535 -0.121,0.469 -0.078,0.441 -0.043,0.348 v 0.336 l -0.031,0.425 0.058,0.364"
       style="fill:none;stroke:#000000;stroke-width:0.85;stroke-linecap:round;stroke-linejoin:round;stroke-miterlimit:10;stroke-dasharray:none;stroke-opacity:1"
       transform="matrix(1.3333333,0,0,1.3333333,1142.5197,0)" />
    <path
       id="path1553"
       d="m 245.559,391.168 -0.414,0.195 -0.379,0.305 -0.336,0.336 -0.211,0.379 -0.153,0.363 -0.046,0.367 v 0.348 l 0.214,0.383 0.411,0.152 0.378,-0.078 0.504,-0.211 0.5,-0.336 0.262,-0.199 0.289,-0.211 0.274,-0.242 0.257,-0.231 0.258,-0.273 0.246,-0.258 0.211,-0.289 0.215,-0.289 0.195,-0.305 0.137,-0.301 0.125,-0.289 0.121,-0.32 0.121,-0.336 0.09,-0.348 0.094,-0.335 0.074,-0.364 0.106,-0.383 0.062,-0.378 0.047,-0.379 0.059,-0.336 0.093,-0.578 0.016,-0.469 0.027,-0.32 -0.363,0.41 -0.121,0.336 -0.094,0.378 -0.09,0.426 -0.09,0.442 -0.109,0.457 -0.059,0.468 -0.062,0.457 -0.047,0.426 -0.012,0.41 v 0.426 L 248.328,391 v 0.379 l 0.031,0.367 0.043,0.363 0.047,0.348 0.074,0.367 0.063,0.332 0.105,0.305 0.121,0.289 0.215,0.531 0.289,0.426 0.289,0.352"
       style="fill:none;stroke:#3333cc;stroke-width:0.85;stroke-linecap:round;stroke-linejoin:round;stroke-miterlimit:10;stroke-dasharray:none;stroke-opacity:1"
       transform="matrix(1.3333333,0,0,1.3333333,1142.5197,0)" />
    <path
       id="path1554"
       d="m 257.688,394.465 -0.137,0.32 -0.199,0.473 -0.122,0.469 -0.089,0.41 -0.09,0.367 -0.047,0.394 0.016,0.317"
       style="fill:none;stroke:#000000;stroke-width:0.85;stroke-linecap:round;stroke-linejoin:round;stroke-miterlimit:10;stroke-dasharray:none;stroke-opacity:1"
       transform="matrix(1.3333333,0,0,1.3333333,1142.5197,0)" />
    <path
       id="path1555"
       d="m 263.961,392.047 h 0.441 l 0.305,-0.012 0.41,-0.078 0.348,-0.121 0.289,-0.137 0.277,-0.289 0.106,-0.289 v -0.348 l -0.168,-0.289 -0.379,-0.214 -0.383,-0.047 -0.379,0.047 -0.41,0.183 -0.414,0.332 -0.395,0.383 -0.32,0.453 -0.258,0.457 -0.09,0.426 0.012,0.441 0.152,0.395 0.262,0.367 0.457,0.289 0.289,0.121 0.332,0.106 0.383,0.121 0.426,0.121 0.441,0.09 0.426,0.109 0.426,0.09"
       style="fill:none;stroke:#3333cc;stroke-width:0.85;stroke-linecap:round;stroke-linejoin:round;stroke-miterlimit:10;stroke-dasharray:none;stroke-opacity:1"
       transform="matrix(1.3333333,0,0,1.3333333,1142.5197,0)" />
    <path
       id="path1556"
       d="m 272.012,382.746 0.457,-0.199 0.379,-0.137 0.851,-0.242 0.399,-0.074 0.347,-0.094 0.442,-0.043 0.383,-0.031 0.289,0.105 -0.079,0.305 -0.21,0.242 -0.274,0.289 -0.262,0.336 -0.164,0.289 -0.14,0.274 v 0.437 l 0.183,0.383 0.199,0.242 0.29,0.258 0.304,0.23 0.336,0.286 0.332,0.32 0.336,0.394 0.258,0.457 0.121,0.289 0.109,0.321 0.184,0.594 0.121,0.3 0.121,0.321 0.121,0.289 0.258,0.562 0.152,0.289 0.137,0.289 0.168,0.305 0.168,0.316 0.137,0.305 0.121,0.32 0.109,0.305 0.059,0.332 0.047,0.367 0.031,0.379 0.027,0.379 v 0.352 l -0.058,0.363 -0.047,0.367 -0.059,0.348 -0.109,0.336 -0.121,0.316 -0.137,0.278 -0.137,0.285 -0.168,0.261 -0.199,0.243 -0.379,0.425 -0.199,0.227 -0.41,0.336 -0.379,0.273 -0.383,0.243 -0.41,0.214 -0.394,0.164"
       style="fill:none;stroke:#000000;stroke-width:0.85;stroke-linecap:round;stroke-linejoin:round;stroke-miterlimit:10;stroke-dasharray:none;stroke-opacity:1"
       transform="matrix(1.3333333,0,0,1.3333333,1142.5197,0)" />
  </g>
</svg>
