<?xml version="1.0" encoding="UTF-8" standalone="no"?>
<!-- Created with Inkscape (http://www.inkscape.org/) -->

<svg
   version="1.1"
   id="svg1"
   width="354.25333"
   height="157.03859"
   viewBox="0 0 354.25334 157.03859"
   xmlns="http://www.w3.org/2000/svg"
   xmlns:svg="http://www.w3.org/2000/svg">
  <defs
     id="defs1" />
  <g
     id="g1"
     transform="translate(-719.91733,-163.2254)">
    <path
       id="path945"
       d="m 572.703,143.113 -0.508,0.051 -0.488,0.188 -0.543,0.218 -0.457,0.371 -0.422,0.442 -0.187,0.254 -0.184,0.234 -0.289,0.441 -0.187,0.438 -0.102,0.375 v 0.336 l 0.07,0.371 0.235,0.219 0.406,0.121 0.34,-0.051 0.441,-0.137 0.473,-0.254 0.422,-0.355 0.422,-0.422 0.355,-0.457 0.289,-0.473 0.238,-0.472 0.219,-0.422 0.137,-0.371 0.117,-0.371 -0.051,0.336 -0.051,0.32 -0.086,0.34 -0.05,0.355 -0.016,0.321 -0.035,0.558 0.035,0.524 0.051,0.472 0.152,0.438 0.239,0.34 0.406,0.238 0.508,0.148"
       style="fill:none;stroke:#3333cc;stroke-width:0.85;stroke-linecap:round;stroke-linejoin:round;stroke-miterlimit:10;stroke-dasharray:none;stroke-opacity:1"
       transform="scale(1.3333333)" />
    <path
       id="path946"
       d="m 622.219,140.309 0.187,0.492 -0.035,0.504 -0.051,0.304 -0.05,0.34 -0.082,0.336 -0.071,0.324 -0.133,0.606 -0.086,0.355 -0.082,0.321 -0.136,0.578 -0.102,0.504 -0.086,0.406 -0.051,0.422 0.274,0.238 0.32,-0.086 0.387,-0.203 0.375,-0.184 0.406,-0.136 0.371,-0.051 0.406,0.016 0.372,0.085 0.375,0.153 0.335,0.219 0.239,0.203 0.187,0.355 v 0.34 l -0.136,0.27 -0.239,0.218 -0.371,0.203 -0.422,0.188 -0.425,0.148 -0.473,0.086 h -0.914 l -0.371,-0.051 -0.391,-0.082"
       style="fill:none;stroke:#3333cc;stroke-width:0.85;stroke-linecap:round;stroke-linejoin:round;stroke-miterlimit:10;stroke-dasharray:none;stroke-opacity:1"
       transform="scale(1.3333333)" />
    <path
       id="path947"
       d="m 572.875,138.52 -0.508,-0.02 -0.508,0.02 -0.32,0.05 -0.324,0.067 -0.336,0.051 -0.356,0.101 -0.339,0.152 -0.356,0.184 -0.34,0.254 -0.371,0.254 -0.406,0.305 -0.371,0.339 -0.375,0.403 -0.371,0.425 -0.371,0.438 -0.391,0.508 -0.406,0.558 -0.406,0.606 -0.372,0.644 -0.339,0.692 -0.321,0.711 -0.289,0.726 -0.269,0.692 -0.203,0.675 -0.168,0.727 -0.102,0.711 -0.051,0.691 v 0.661 l 0.051,0.644 0.133,0.59 0.187,0.559 0.254,0.488 0.356,0.441 0.422,0.371 0.457,0.305 0.527,0.269 0.59,0.219 0.609,0.121 0.61,0.082 0.695,0.036 0.742,-0.051 0.781,-0.137 0.742,-0.168 0.747,-0.203 0.742,-0.305 0.695,-0.355 0.625,-0.406 0.629,-0.422 0.574,-0.453 0.508,-0.477 0.457,-0.473 0.422,-0.488 0.371,-0.508 0.324,-0.523 0.27,-0.524 0.203,-0.543 0.168,-0.554 0.07,-0.61 0.067,-0.609 v -0.641 l -0.036,-0.625 -0.101,-0.629 -0.133,-0.605 -0.172,-0.574 -0.152,-0.559 -0.219,-0.508 -0.254,-0.472 -0.269,-0.407 -0.27,-0.371 -0.289,-0.32 -0.32,-0.254 -0.324,-0.187 -0.321,-0.168 -0.34,-0.102 -0.355,-0.051 -0.305,0.016"
       style="fill:none;stroke:#3333cc;stroke-width:0.85;stroke-linecap:round;stroke-linejoin:round;stroke-miterlimit:10;stroke-dasharray:none;stroke-opacity:1"
       transform="scale(1.3333333)" />
    <path
       id="path948"
       d="m 623.711,136.238 -0.289,0.133 -0.543,0.219 -0.559,0.187 -0.285,0.118 -0.289,0.171 -0.32,0.149 -0.321,0.187 -0.324,0.239 -0.32,0.269 -0.34,0.285 -0.355,0.325 -0.336,0.371 -0.356,0.371 -0.34,0.406 -0.355,0.422 -0.32,0.472 -0.305,0.508 -0.324,0.508 -0.305,0.524 -0.254,0.609 -0.269,0.641 -0.27,0.66 -0.203,0.676 -0.188,0.691 -0.168,0.66 -0.136,0.609 -0.051,0.606 v 0.594 l 0.051,0.523 0.086,0.508 0.168,0.473 0.203,0.457 0.273,0.386 0.336,0.371 0.406,0.325 0.508,0.269 0.524,0.219 0.558,0.152 0.61,0.102 0.679,0.086 0.66,0.031 0.661,-0.066 0.675,-0.102 0.711,-0.137 0.727,-0.183 0.695,-0.239 0.66,-0.269 0.692,-0.254 0.66,-0.305 0.594,-0.304 0.558,-0.356 0.524,-0.371 0.472,-0.387 0.407,-0.406 0.355,-0.457 0.305,-0.473 0.273,-0.507 0.219,-0.524 0.152,-0.539 0.102,-0.527 0.066,-0.524 -0.031,-0.539 -0.086,-0.558 -0.101,-0.559 -0.153,-0.523 -0.187,-0.539 -0.254,-0.493 -0.285,-0.504 -0.325,-0.507 -0.336,-0.457 -0.375,-0.422 -0.421,-0.371 -0.442,-0.375 -0.422,-0.336 -0.422,-0.305 -0.421,-0.203 -0.457,-0.184 -0.458,-0.136 -0.441,-0.102"
       style="fill:none;stroke:#3333cc;stroke-width:0.85;stroke-linecap:round;stroke-linejoin:round;stroke-miterlimit:10;stroke-dasharray:none;stroke-opacity:1"
       transform="scale(1.3333333)" />
    <path
       id="path949"
       d="m 578.984,141.914 0.305,-0.051 0.523,-0.101 0.305,-0.082 0.289,-0.102 0.641,-0.152 0.375,-0.121 0.336,-0.098 0.371,-0.102 0.426,-0.121 0.422,-0.101 0.441,-0.102 0.437,-0.101 0.508,-0.118 0.543,-0.101 0.524,-0.102 0.543,-0.117 0.574,-0.117 0.594,-0.137 0.558,-0.117 0.574,-0.101 0.645,-0.137 0.641,-0.133 0.644,-0.121 0.66,-0.117 0.711,-0.137 0.692,-0.102 0.679,-0.101 0.692,-0.082 0.679,-0.086 0.692,-0.066 0.695,-0.086 0.727,-0.051 0.746,-0.031 0.711,-0.051 0.691,-0.02 0.695,-0.031 h 2.524 l 0.625,0.031 0.574,0.051 1.117,0.102 0.543,0.05 0.508,0.051 0.473,0.086 0.472,0.082 0.457,0.07 0.407,0.082 0.339,0.051 0.321,0.051 0.558,0.121 0.422,0.133 0.325,0.101"
       style="fill:none;stroke:#00c0ff;stroke-width:0.85;stroke-linecap:round;stroke-linejoin:round;stroke-miterlimit:10;stroke-dasharray:none;stroke-opacity:1"
       transform="scale(1.3333333)" />
    <path
       id="path950"
       d="m 606.094,134.277 0.289,0.133 0.453,0.188 0.527,0.269 0.559,0.305 0.305,0.219 0.253,0.218 0.27,0.239 0.27,0.289 0.253,0.285 0.274,0.289 0.234,0.355 0.239,0.336 0.253,0.371 0.204,0.372 0.218,0.375 0.203,0.371 0.172,0.355 0.133,0.336 0.137,0.32 0.101,0.325 0.102,0.574 -0.016,0.539 -0.136,0.472 -0.27,0.422 -0.406,0.375 -0.442,0.352 -0.269,0.152 -0.274,0.137 -0.285,0.137 -0.289,0.133 -0.304,0.121 -0.321,0.082 -0.304,0.086 -0.305,0.082 -0.578,0.101"
       style="fill:none;stroke:#00c0ff;stroke-width:0.85;stroke-linecap:round;stroke-linejoin:round;stroke-miterlimit:10;stroke-dasharray:none;stroke-opacity:1"
       transform="scale(1.3333333)" />
    <path
       id="path951"
       d="m 553.785,130.66 -0.273,-0.219 -0.407,-0.019 -0.421,0.187 -0.239,0.188 -0.269,0.203 -0.235,0.234 -0.203,0.27 -0.222,0.289 -0.184,0.269 -0.187,0.27 -0.153,0.289 -0.168,0.285 -0.152,0.305 -0.188,0.492 -0.086,0.457 0.051,0.371 0.239,0.356 0.32,0.117 0.304,-0.051 0.376,-0.187 0.437,-0.321 0.422,-0.472 0.223,-0.27 0.218,-0.254 0.188,-0.304 0.152,-0.29 0.152,-0.285 0.168,-0.32 0.153,-0.32 0.137,-0.289 0.132,-0.289 0.137,-0.321 0.086,-0.32 0.152,-0.609 0.082,-0.356 0.051,-0.336 0.051,-0.32 0.051,-0.34 0.05,-0.355 0.086,-0.372 0.051,-0.335 0.051,-0.325 0.086,-0.523 v -0.371 l -0.203,0.34 -0.137,0.402 -0.117,0.426 -0.102,0.437 -0.101,0.442 -0.086,0.386 -0.086,0.422 -0.051,0.422 -0.051,0.426 -0.05,0.402 -0.032,0.375 v 1.149 l 0.032,0.386 0.035,0.371 0.05,0.375 0.051,0.356 0.051,0.301 0.086,0.304 0.234,0.508"
       style="fill:none;stroke:#808080;stroke-width:0.85;stroke-linecap:round;stroke-linejoin:round;stroke-miterlimit:10;stroke-dasharray:none;stroke-opacity:1"
       transform="scale(1.3333333)" />
    <path
       id="path952"
       d="m 558.219,125.422 -0.071,0.371 -0.05,0.355 -0.032,0.336 -0.035,0.325 -0.015,0.523 v 1.992"
       style="fill:none;stroke:#808080;stroke-width:0.85;stroke-linecap:round;stroke-linejoin:round;stroke-miterlimit:10;stroke-dasharray:none;stroke-opacity:1"
       transform="scale(1.3333333)" />
    <path
       id="path953"
       d="m 556.492,127.398 0.371,0.188 0.457,0.051 0.457,-0.051 0.524,-0.07 0.558,-0.051 0.305,-0.016 0.305,-0.035 0.324,-0.016 0.305,-0.035 0.609,-0.031 h 0.559"
       style="fill:none;stroke:#808080;stroke-width:0.85;stroke-linecap:round;stroke-linejoin:round;stroke-miterlimit:10;stroke-dasharray:none;stroke-opacity:1"
       transform="scale(1.3333333)" />
    <path
       id="path954"
       d="m 563.023,127.465 -0.507,0.187 -0.508,0.356 -0.27,0.203 -0.269,0.269 -0.578,0.641 -0.27,0.305 -0.219,0.32 -0.187,0.324 -0.188,0.285 -0.152,0.305 -0.133,0.32 -0.101,0.305 -0.137,0.543 v 0.555 l 0.086,0.472 0.203,0.426 0.305,0.321 0.386,0.183 0.477,0.051"
       style="fill:none;stroke:#808080;stroke-width:0.85;stroke-linecap:round;stroke-linejoin:round;stroke-miterlimit:10;stroke-dasharray:none;stroke-opacity:1"
       transform="scale(1.3333333)" />
    <path
       id="path955"
       d="m 564.887,129.496 -0.356,0.149 -0.527,0.324 -0.488,0.336 -0.239,0.218 -0.203,0.239 -0.219,0.218 -0.187,0.239 -0.289,0.472 -0.168,0.422 -0.051,0.407 0.051,0.335 0.219,0.239 0.406,0.086 0.375,-0.086 0.422,-0.203 0.371,-0.321 0.34,-0.371 0.269,-0.422 0.239,-0.406 0.187,-0.34 0.184,-0.32 0.136,-0.27 0.102,0.422 0.035,0.407 0.102,0.386 0.082,0.305 0.238,0.371"
       style="fill:none;stroke:#808080;stroke-width:0.85;stroke-linecap:round;stroke-linejoin:round;stroke-miterlimit:10;stroke-dasharray:none;stroke-opacity:1"
       transform="scale(1.3333333)" />
    <path
       id="path956"
       d="m 566.578,125.355 0.492,0.153 0.371,0.183 0.371,0.289 0.321,0.489 0.289,0.558 0.152,0.285 0.168,0.29 0.153,0.32 0.136,0.34 0.102,0.355 0.117,0.371 0.07,0.336 0.082,0.356 0.051,0.304 0.051,0.371 0.035,0.356 v 0.66 l -0.035,0.32 -0.051,0.321 -0.066,0.32 -0.117,0.34 -0.102,0.355 -0.102,0.305 -0.136,0.305 -0.239,0.504 -0.269,0.39"
       style="fill:none;stroke:#808080;stroke-width:0.85;stroke-linecap:round;stroke-linejoin:round;stroke-miterlimit:10;stroke-dasharray:none;stroke-opacity:1"
       transform="scale(1.3333333)" />
    <path
       id="path957"
       d="m 571.504,131.285 0.355,-0.101 0.453,-0.133 0.391,-0.102 0.422,-0.137 0.457,-0.085 0.477,-0.102"
       style="fill:none;stroke:#808080;stroke-width:0.85;stroke-linecap:round;stroke-linejoin:round;stroke-miterlimit:10;stroke-dasharray:none;stroke-opacity:1"
       transform="scale(1.3333333)" />
    <path
       id="path958"
       d="m 570.758,129.191 0.492,-0.121 0.305,-0.066 0.355,-0.102 0.402,-0.05 0.442,-0.051 0.457,-0.031"
       style="fill:none;stroke:#808080;stroke-width:0.85;stroke-linecap:round;stroke-linejoin:round;stroke-miterlimit:10;stroke-dasharray:none;stroke-opacity:1"
       transform="scale(1.3333333)" />
    <path
       id="path959"
       d="m 575.988,129.883 0.184,-0.27 0.305,-0.441 0.273,-0.539 0.27,-0.473 0.136,-0.269 0.235,-0.528 0.218,-0.504 0.203,-0.476 0.223,-0.422 0.153,-0.356 0.167,-0.25 0.29,-0.253 0.183,0.406 0.051,0.554 v 1.067 l -0.031,0.336 v 0.695 l 0.031,0.32 v 0.321 l 0.086,0.609 0.066,0.524 0.137,0.507 0.168,0.422 0.203,0.356 0.305,0.285"
       style="fill:none;stroke:#808080;stroke-width:0.85;stroke-linecap:round;stroke-linejoin:round;stroke-miterlimit:10;stroke-dasharray:none;stroke-opacity:1"
       transform="scale(1.3333333)" />
    <path
       id="path960"
       d="m 620.289,129.172 -0.285,-0.234 -0.34,-0.219 -0.32,-0.02 -0.477,0.071 -0.32,0.132 -0.27,0.188 -0.273,0.234 -0.203,0.274 -0.168,0.285 -0.086,0.371 0.137,0.355 0.269,0.203 0.457,0.036 0.375,-0.086 0.387,-0.239 0.441,-0.351 0.422,-0.442 0.203,-0.269 0.188,-0.27 0.187,-0.289 0.184,-0.32 0.172,-0.34 0.152,-0.371 0.168,-0.371 0.152,-0.355 0.137,-0.372 0.133,-0.371 0.101,-0.34 0.102,-0.32 0.121,-0.32 0.067,-0.32 0.168,-0.559 0.085,-0.473 0.016,-0.34 -0.336,0.204 -0.223,0.609 -0.132,0.371 -0.137,0.406 -0.066,0.422 -0.172,0.844 -0.051,0.441 -0.031,0.387 v 1.117 l 0.066,0.356 0.066,0.304 0.172,0.539 0.235,0.508 0.238,0.387 0.289,0.375 0.301,0.285"
       style="fill:none;stroke:#808080;stroke-width:0.85;stroke-linecap:round;stroke-linejoin:round;stroke-miterlimit:10;stroke-dasharray:none;stroke-opacity:1"
       transform="scale(1.3333333)" />
    <path
       id="path961"
       d="m 626.266,124.203 v 1.387 l 0.015,0.371"
       style="fill:none;stroke:#808080;stroke-width:0.85;stroke-linecap:round;stroke-linejoin:round;stroke-miterlimit:10;stroke-dasharray:none;stroke-opacity:1"
       transform="scale(1.3333333)" />
    <path
       id="path962"
       d="m 624.793,125.355 0.457,-0.085 0.406,-0.051 h 0.305 l 0.437,-0.035 0.426,-0.051 h 0.321 l 0.386,-0.031 h 0.356"
       style="fill:none;stroke:#808080;stroke-width:0.85;stroke-linecap:round;stroke-linejoin:round;stroke-miterlimit:10;stroke-dasharray:none;stroke-opacity:1"
       transform="scale(1.3333333)" />
    <path
       id="path963"
       d="m 631.426,125.879 h -0.371 l -0.325,0.101 -0.285,0.168 -0.273,0.204 -0.27,0.234 -0.238,0.273 -0.203,0.27 -0.219,0.285 -0.187,0.289 -0.168,0.27 -0.153,0.269 -0.136,0.274 -0.102,0.285 -0.133,0.508 -0.035,0.472 0.067,0.422 0.187,0.371 0.289,0.289"
       style="fill:none;stroke:#808080;stroke-width:0.85;stroke-linecap:round;stroke-linejoin:round;stroke-miterlimit:10;stroke-dasharray:none;stroke-opacity:1"
       transform="scale(1.3333333)" />
    <path
       id="path964"
       d="m 633.793,124.914 -0.082,0.32 -0.102,0.305 -0.171,0.625 -0.067,0.371 -0.086,0.356 -0.082,0.32 -0.152,0.559 -0.172,0.472 -0.102,0.391 -0.101,0.355 -0.031,0.387 0.218,0.27 0.391,0.035 h 0.355 l 0.371,-0.035 h 0.778 l 0.39,0.101 0.356,0.121 0.289,0.102 0.184,0.285 -0.321,0.187 -0.371,0.102 -0.457,0.066 h -0.476 l -0.457,-0.066 -0.422,-0.102 -0.34,-0.101 -0.305,-0.137"
       style="fill:none;stroke:#808080;stroke-width:0.85;stroke-linecap:round;stroke-linejoin:round;stroke-miterlimit:10;stroke-dasharray:none;stroke-opacity:1"
       transform="scale(1.3333333)" />
    <path
       id="path965"
       d="m 636.25,123.68 0.234,0.523 0.102,0.289 0.086,0.32 0.066,0.356 0.086,0.371 0.051,0.371 0.051,0.375 0.066,0.371 0.102,0.742 0.051,0.34 0.05,0.336 0.035,0.356 0.016,0.574 v 0.305 l -0.016,0.472 -0.05,0.422 -0.086,0.406 -0.102,0.289 -0.254,0.372"
       style="fill:none;stroke:#808080;stroke-width:0.85;stroke-linecap:round;stroke-linejoin:round;stroke-miterlimit:10;stroke-dasharray:none;stroke-opacity:1"
       transform="scale(1.3333333)" />
    <path
       id="path966"
       d="m 639.684,126.535 0.289,0.188 0.371,0.168 h 0.711 l 0.406,-0.051 0.391,-0.031 0.488,-0.051 h 0.848"
       style="fill:none;stroke:#808080;stroke-width:0.85;stroke-linecap:round;stroke-linejoin:round;stroke-miterlimit:10;stroke-dasharray:none;stroke-opacity:1"
       transform="scale(1.3333333)" />
    <path
       id="path967"
       d="m 639.684,128.719 0.441,0.097 0.32,-0.015 0.356,-0.051 0.371,-0.051 0.34,-0.066 0.32,-0.051 0.34,-0.102 0.437,-0.05"
       style="fill:none;stroke:#808080;stroke-width:0.85;stroke-linecap:round;stroke-linejoin:round;stroke-miterlimit:10;stroke-dasharray:none;stroke-opacity:1"
       transform="scale(1.3333333)" />
    <path
       id="path968"
       d="m 634.859,137.133 h -0.457 l -0.285,0.101 -0.273,0.168 -0.321,0.254 -0.339,0.305 -0.219,0.32 -0.153,0.289 -0.05,0.321 0.015,0.371 0.325,0.238 h 0.406 l 0.371,-0.188 0.441,-0.269 0.254,-0.188 0.235,-0.183 0.238,-0.203 0.238,-0.219 0.219,-0.238 0.187,-0.239 0.184,-0.234 0.187,-0.269 0.188,-0.274 0.152,-0.269 0.153,-0.286 0.168,-0.289 0.136,-0.32 0.102,-0.289 0.101,-0.301 0.118,-0.304 0.066,-0.325 0.137,-0.59 0.117,-0.507 0.016,-0.336 -0.387,0.32 -0.117,0.32 -0.203,0.742 -0.086,0.376 -0.086,0.371 -0.051,0.371 -0.051,0.304 -0.051,0.321 -0.031,0.304 v 1.118 l 0.102,0.488 0.133,0.437 0.222,0.391 0.219,0.355 0.238,0.254 0.25,0.235"
       style="fill:none;stroke:#808080;stroke-width:0.85;stroke-linecap:round;stroke-linejoin:round;stroke-miterlimit:10;stroke-dasharray:none;stroke-opacity:1"
       transform="scale(1.3333333)" />
    <path
       id="path969"
       d="m 638.617,134.953 0.254,0.238 0.32,0.184 0.457,0.035 0.426,-0.051 0.422,-0.086"
       style="fill:none;stroke:#808080;stroke-width:0.85;stroke-linecap:round;stroke-linejoin:round;stroke-miterlimit:10;stroke-dasharray:none;stroke-opacity:1"
       transform="scale(1.3333333)" />
    <path
       id="path970"
       d="m 644.762,133.332 -0.223,-0.391 -0.336,-0.05 -0.355,0.203 -0.239,0.218 -0.254,0.29 -0.269,0.32 -0.238,0.34 -0.219,0.351 -0.203,0.34 -0.219,0.356 -0.172,0.336 -0.152,0.339 -0.133,0.356 -0.102,0.285 -0.101,0.594 v 0.554 l 0.101,0.477 0.153,0.453 0.183,0.426 0.305,0.371 0.371,0.285 0.391,0.238"
       style="fill:none;stroke:#808080;stroke-width:0.85;stroke-linecap:round;stroke-linejoin:round;stroke-miterlimit:10;stroke-dasharray:none;stroke-opacity:1"
       transform="scale(1.3333333)" />
    <path
       id="path971"
       d="m 646.59,133.129 v 0.508 l -0.051,0.437 -0.101,0.59 -0.086,0.34 -0.067,0.355 -0.086,0.321 -0.086,0.304 -0.101,0.305 -0.219,0.508 -0.152,0.437 -0.168,0.356 -0.071,0.387 0.254,0.324 h 0.324 l 0.356,-0.051 0.371,-0.086 0.422,-0.066 0.406,-0.036 0.34,0.036 0.32,0.152 0.27,0.184 0.238,0.218 0.203,0.239 0.035,0.32 -0.222,0.238 -0.285,0.184 -0.407,0.101 -0.476,0.086 -0.422,0.051 -0.457,0.016 -0.371,-0.051 -0.422,-0.152"
       style="fill:none;stroke:#808080;stroke-width:0.85;stroke-linecap:round;stroke-linejoin:round;stroke-miterlimit:10;stroke-dasharray:none;stroke-opacity:1"
       transform="scale(1.3333333)" />
    <path
       id="path972"
       d="m 648.805,132.469 0.457,0.066 0.32,0.238 0.203,0.356 0.223,0.523 0.203,0.641 0.082,0.34 0.102,0.355 0.171,0.742 0.051,0.34 0.031,0.352 0.02,0.34 v 0.64 l -0.02,0.325 -0.031,0.3 -0.051,0.325 -0.136,0.539 -0.102,0.289 -0.137,0.269 -0.269,0.438 -0.32,0.406 -0.29,0.371"
       style="fill:none;stroke:#808080;stroke-width:0.85;stroke-linecap:round;stroke-linejoin:round;stroke-miterlimit:10;stroke-dasharray:none;stroke-opacity:1"
       transform="scale(1.3333333)" />
    <path
       id="path973"
       d="m 653.273,136.473 0.457,0.136 0.458,0.016 0.32,-0.016 0.304,-0.035 0.442,-0.031 0.336,-0.02 h 0.644"
       style="fill:none;stroke:#808080;stroke-width:0.85;stroke-linecap:round;stroke-linejoin:round;stroke-miterlimit:10;stroke-dasharray:none;stroke-opacity:1"
       transform="scale(1.3333333)" />
    <path
       id="path974"
       d="m 653.137,138.301 0.32,0.183 0.426,0.102 h 0.812 l 0.336,-0.016 0.324,-0.05 0.407,-0.036 0.472,-0.015"
       style="fill:none;stroke:#808080;stroke-width:0.85;stroke-linecap:round;stroke-linejoin:round;stroke-miterlimit:10;stroke-dasharray:none;stroke-opacity:1"
       transform="scale(1.3333333)" />
    <path
       id="path975"
       d="m 544.207,142.355 h -0.812 l -0.426,0.036 -0.371,0.05 -0.391,0.102 -0.371,0.168 -0.356,0.269 -0.335,0.29 -0.305,0.371 -0.238,0.32 -0.153,0.371 -0.086,0.441 0.051,0.372 0.238,0.253 0.305,0.118 0.32,0.035 0.34,-0.086 0.422,-0.188 0.422,-0.25 0.406,-0.355 0.406,-0.391 0.289,-0.457 0.29,-0.504 0.183,-0.476 0.172,-0.555 0.051,-0.305 0.066,-0.574 0.035,-0.355 0.032,-0.34 0.019,-0.32 0.082,-0.524 v -0.473 l 0.02,-0.355 -0.051,-0.34 -0.203,0.391 -0.086,0.32 -0.086,0.371 -0.066,0.422 -0.067,0.426 -0.051,0.402 -0.05,0.391 -0.051,0.406 v 1.113 l 0.031,0.34 0.051,0.32 0.051,0.305 0.136,0.559 0.102,0.285 0.219,0.473 0.254,0.375 0.304,0.32"
       style="fill:none;stroke:#808080;stroke-width:0.85;stroke-linecap:round;stroke-linejoin:round;stroke-miterlimit:10;stroke-dasharray:none;stroke-opacity:1"
       transform="scale(1.3333333)" />
    <path
       id="path976"
       d="m 545.797,139.094 0.32,-0.016 h 0.508 l 0.426,-0.051 0.371,-0.035 0.336,-0.051"
       style="fill:none;stroke:#808080;stroke-width:0.85;stroke-linecap:round;stroke-linejoin:round;stroke-miterlimit:10;stroke-dasharray:none;stroke-opacity:1"
       transform="scale(1.3333333)" />
    <path
       id="path977"
       d="m 550.723,138.57 -0.457,-0.168 -0.375,0.032 -0.336,0.187 -0.305,0.27 -0.375,0.441 -0.152,0.301 -0.153,0.34 -0.183,0.355 -0.172,0.371 -0.153,0.356 -0.132,0.406 -0.121,0.371 -0.102,0.371 -0.102,0.34 -0.05,0.32 -0.032,0.305 -0.019,0.574 0.101,0.555 0.188,0.457 0.269,0.391 0.29,0.355 0.339,0.27 0.321,0.183 0.371,0.07 h 0.324"
       style="fill:none;stroke:#808080;stroke-width:0.85;stroke-linecap:round;stroke-linejoin:round;stroke-miterlimit:10;stroke-dasharray:none;stroke-opacity:1"
       transform="scale(1.3333333)" />
    <path
       id="path978"
       d="m 551.332,142.102 -0.273,0.289 -0.336,0.371 -0.223,0.285 -0.133,0.273 -0.07,0.321 v 0.371 l 0.137,0.32 0.339,0.102 0.356,-0.137 0.234,-0.184 0.239,-0.238 0.187,-0.32 0.133,-0.321 0.137,-0.371 -0.118,0.356 0.032,0.371 0.05,0.336 0.188,0.371"
       style="fill:none;stroke:#808080;stroke-width:0.85;stroke-linecap:round;stroke-linejoin:round;stroke-miterlimit:10;stroke-dasharray:none;stroke-opacity:1"
       transform="scale(1.3333333)" />
    <path
       id="path979"
       d="m 552.668,139.516 0.422,0.136 0.269,0.168 0.203,0.254 0.239,0.406 0.219,0.473 0.187,0.559 0.152,0.554 0.086,0.543 0.102,0.559 0.031,0.488 -0.051,0.492 -0.082,0.387 -0.101,0.406 -0.188,0.336 -0.168,0.305 -0.203,0.238 -0.187,0.235"
       style="fill:none;stroke:#808080;stroke-width:0.85;stroke-linecap:round;stroke-linejoin:round;stroke-miterlimit:10;stroke-dasharray:none;stroke-opacity:1"
       transform="scale(1.3333333)" />
    <path
       id="path980"
       d="m 556.949,141.645 0.27,0.152 0.39,0.137 0.371,0.05 h 0.305 l 0.371,-0.019"
       style="fill:none;stroke:#808080;stroke-width:0.85;stroke-linecap:round;stroke-linejoin:round;stroke-miterlimit:10;stroke-dasharray:none;stroke-opacity:1"
       transform="scale(1.3333333)" />
    <path
       id="path981"
       d="m 556.578,143.926 0.371,0.101 0.321,-0.015 0.339,-0.051 0.371,-0.117 0.915,-0.203"
       style="fill:none;stroke:#808080;stroke-width:0.85;stroke-linecap:round;stroke-linejoin:round;stroke-miterlimit:10;stroke-dasharray:none;stroke-opacity:1"
       transform="scale(1.3333333)" />
    <path
       id="path982"
       d="m 562.145,139.582 -0.239,0.203 -0.269,0.324 -0.188,0.235 -0.219,0.269 -0.203,0.289 -0.218,0.321 -0.375,0.64 -0.153,0.305 -0.133,0.324 -0.121,0.301 -0.117,0.559 0.051,0.472 0.187,0.457 0.235,0.371 0.289,0.289 0.32,0.204 0.375,0.082 0.457,-0.016 0.453,-0.137 0.477,-0.219 0.422,-0.335 0.34,-0.407 0.254,-0.457 0.152,-0.437 0.051,-0.543 -0.051,-0.524 -0.188,-0.539 -0.289,-0.476 -0.183,-0.235 -0.426,-0.371 -0.488,-0.203 -0.442,-0.035"
       style="fill:none;stroke:#808080;stroke-width:0.85;stroke-linecap:round;stroke-linejoin:round;stroke-miterlimit:10;stroke-dasharray:none;stroke-opacity:1"
       transform="scale(1.3333333)" />
    <path
       id="path983"
       d="m 563.125,166.844 -0.27,-0.239 -0.339,-0.218 -0.422,-0.051 -0.321,0.016 -0.406,0.121 -0.406,0.183 -0.391,0.289 -0.32,0.321 -0.238,0.339 -0.188,0.372 -0.101,0.32 -0.082,0.406 0.152,0.32 0.32,0.118 0.356,-0.016 0.39,-0.102 0.457,-0.269 0.473,-0.356 0.422,-0.441 0.219,-0.269 0.222,-0.27 0.203,-0.254 0.184,-0.305 0.172,-0.254 0.184,-0.269 0.152,-0.285 0.137,-0.305 0.136,-0.289 0.153,-0.285 0.132,-0.305 0.223,-0.523 0.102,-0.289 0.082,-0.305 0.101,-0.523 0.102,-0.457 0.035,-0.305 -0.238,0.305 -0.082,0.304 -0.051,0.34 -0.102,0.742 -0.07,0.371 -0.016,0.371 v 0.375 l -0.035,0.321 v 0.32 l 0.051,0.32 0.07,0.305 0.016,0.32 0.051,0.321 0.168,0.543 0.101,0.472 0.153,0.387 0.172,0.375 0.203,0.254 0.304,0.234 0.336,0.051"
       style="fill:none;stroke:#808080;stroke-width:0.85;stroke-linecap:round;stroke-linejoin:round;stroke-miterlimit:10;stroke-dasharray:none;stroke-opacity:1"
       transform="scale(1.3333333)" />
    <path
       id="path984"
       d="m 568.895,160.793 -0.153,0.523 -0.117,0.457 -0.066,0.438 -0.051,0.492 -0.035,0.438 v 0.375 l 0.05,0.351 0.086,0.391 0.102,0.371"
       style="fill:none;stroke:#808080;stroke-width:0.85;stroke-linecap:round;stroke-linejoin:round;stroke-miterlimit:10;stroke-dasharray:none;stroke-opacity:1"
       transform="scale(1.3333333)" />
    <path
       id="path985"
       d="m 566.188,163.023 0.253,0.239 0.356,0.101 0.406,0.051 0.559,0.031 h 1.133 l 0.304,-0.031 h 0.61 l 0.558,-0.051"
       style="fill:none;stroke:#808080;stroke-width:0.85;stroke-linecap:round;stroke-linejoin:round;stroke-miterlimit:10;stroke-dasharray:none;stroke-opacity:1"
       transform="scale(1.3333333)" />
    <path
       id="path986"
       d="m 573.109,161.656 -0.304,0.133 -0.371,0.238 -0.422,0.457 -0.239,0.286 -0.238,0.32 -0.219,0.355 -0.203,0.305 -0.187,0.32 -0.184,0.325 -0.172,0.351 -0.132,0.34 -0.122,0.32 -0.117,0.321 -0.051,0.339 -0.015,0.356 -0.035,0.305 0.035,0.32 0.051,0.305 0.152,0.488 0.234,0.492 0.325,0.387 0.371,0.304 0.472,0.204"
       style="fill:none;stroke:#808080;stroke-width:0.85;stroke-linecap:round;stroke-linejoin:round;stroke-miterlimit:10;stroke-dasharray:none;stroke-opacity:1"
       transform="scale(1.3333333)" />
    <path
       id="path987"
       d="m 575.766,165.324 -0.473,-0.019 -0.32,0.019 -0.457,0.168 -0.274,0.235 -0.285,0.324 -0.238,0.301 -0.168,0.324 -0.102,0.32 -0.019,0.406 0.238,0.321 0.32,0.015 0.254,-0.203 0.324,-0.305 0.356,-0.371 0.285,-0.32 0.223,-0.305 0.152,-0.269 0.152,-0.356 -0.101,0.305 -0.102,0.438 -0.051,0.304 -0.05,0.559 v 0.812 l 0.117,0.356 0.187,0.234"
       style="fill:none;stroke:#808080;stroke-width:0.85;stroke-linecap:round;stroke-linejoin:round;stroke-miterlimit:10;stroke-dasharray:none;stroke-opacity:1"
       transform="scale(1.3333333)" />
    <path
       id="path988"
       d="m 577.289,161.555 0.254,0.234 0.355,0.422 0.27,0.492 0.203,0.508 0.172,0.473 0.152,0.558 0.133,0.555 0.086,0.574 0.016,0.305 v 0.574 l -0.016,0.324 -0.066,0.321 -0.051,0.32 -0.152,0.523 -0.239,0.543 -0.269,0.473 -0.274,0.422"
       style="fill:none;stroke:#808080;stroke-width:0.85;stroke-linecap:round;stroke-linejoin:round;stroke-miterlimit:10;stroke-dasharray:none;stroke-opacity:1"
       transform="scale(1.3333333)" />
    <path
       id="path989"
       d="m 583.84,165.273 -0.172,0.504 -0.082,0.422 -0.051,0.457 -0.019,0.508 v 0.473 l 0.019,0.422 0.051,0.375 0.117,0.421"
       style="fill:none;stroke:#808080;stroke-width:0.85;stroke-linecap:round;stroke-linejoin:round;stroke-miterlimit:10;stroke-dasharray:none;stroke-opacity:1"
       transform="scale(1.3333333)" />
    <path
       id="path990"
       d="m 581.758,167.164 0.289,0.117 0.371,0.137 h 0.98 l 0.321,-0.016 0.304,-0.035 h 0.61 l 0.324,-0.015 0.32,-0.071 0.34,-0.051 0.336,-0.015 0.356,-0.051 0.578,-0.117"
       style="fill:none;stroke:#808080;stroke-width:0.85;stroke-linecap:round;stroke-linejoin:round;stroke-miterlimit:10;stroke-dasharray:none;stroke-opacity:1"
       transform="scale(1.3333333)" />
    <path
       id="path991"
       d="m 590.863,166.727 h -0.543 l -0.523,0.168 -0.289,0.132 -0.27,0.188 -0.273,0.203 -0.27,0.219 -0.238,0.238 -0.387,0.422 -0.304,0.422 -0.121,0.406 v 0.422 l 0.238,0.269 0.422,-0.031 0.457,-0.223 0.492,-0.351 0.254,-0.254 0.238,-0.254 0.234,-0.305 0.239,-0.304 0.219,-0.356 0.187,-0.336 0.187,-0.324 0.204,-0.351 0.183,-0.34 0.172,-0.371 0.133,-0.371 0.152,-0.372 0.137,-0.375 0.102,-0.336 0.101,-0.355 0.137,-0.371 0.133,-0.371 0.086,-0.375 0.082,-0.336 0.07,-0.32 0.082,-0.559 0.051,-0.371 -0.27,0.184 -0.117,0.289 -0.117,0.355 -0.071,0.371 -0.082,0.387 -0.085,0.375 -0.086,0.402 -0.016,0.391 v 0.406 l -0.035,0.371 v 0.371 l 0.035,0.371 0.016,0.371 0.07,0.375 0.051,0.336 0.101,0.356 0.133,0.32 0.102,0.289 0.136,0.27 0.321,0.472 0.32,0.391"
       style="fill:none;stroke:#808080;stroke-width:0.85;stroke-linecap:round;stroke-linejoin:round;stroke-miterlimit:10;stroke-dasharray:none;stroke-opacity:1"
       transform="scale(1.3333333)" />
    <path
       id="path992"
       d="m 596.16,161.215 -0.051,0.508 -0.05,0.422 -0.071,0.39 v 0.742 l 0.035,0.305 0.102,0.387 0.117,0.34"
       style="fill:none;stroke:#808080;stroke-width:0.85;stroke-linecap:round;stroke-linejoin:round;stroke-miterlimit:10;stroke-dasharray:none;stroke-opacity:1"
       transform="scale(1.3333333)" />
    <path
       id="path993"
       d="m 594.77,162.535 0.375,0.219 0.32,0.086 0.457,0.051 0.523,0.047 0.325,0.019 h 1.199 l 0.574,-0.051 h 0.305"
       style="fill:none;stroke:#808080;stroke-width:0.85;stroke-linecap:round;stroke-linejoin:round;stroke-miterlimit:10;stroke-dasharray:none;stroke-opacity:1"
       transform="scale(1.3333333)" />
    <path
       id="path994"
       d="m 602.199,162.516 -0.457,-0.133 -0.32,0.101 -0.34,0.219 -0.457,0.371 -0.234,0.238 -0.223,0.27 -0.184,0.285 -0.187,0.254 -0.152,0.274 -0.137,0.285 -0.133,0.304 -0.102,0.289 -0.171,0.555 -0.051,0.524 v 0.304 l 0.121,0.524 0.117,0.508 0.219,0.406 0.222,0.34 0.305,0.269 0.371,0.235"
       style="fill:none;stroke:#808080;stroke-width:0.85;stroke-linecap:round;stroke-linejoin:round;stroke-miterlimit:10;stroke-dasharray:none;stroke-opacity:1"
       transform="scale(1.3333333)" />
    <path
       id="path995"
       d="m 603.688,160.758 -0.133,0.476 -0.102,0.454 -0.101,0.523 -0.086,0.324 -0.086,0.32 -0.082,0.356 -0.071,0.336 -0.082,0.34 -0.086,0.32 -0.086,0.59 -0.101,0.527 -0.051,0.473 -0.051,0.402 v 0.426 l 0.102,0.352 0.324,0.07 0.406,-0.02 0.387,-0.117 0.508,-0.152 0.426,-0.133 0.371,-0.02 h 0.371 l 0.305,0.122 -0.254,0.371 -0.336,0.254 -0.477,0.183 -0.508,0.121 -0.457,0.067 -0.386,-0.035"
       style="fill:none;stroke:#808080;stroke-width:0.85;stroke-linecap:round;stroke-linejoin:round;stroke-miterlimit:10;stroke-dasharray:none;stroke-opacity:1"
       transform="scale(1.3333333)" />
    <path
       id="path996"
       d="m 607.125,160.168 0.473,0.137 0.371,0.168 0.273,0.203 0.32,0.406 0.153,0.27 0.137,0.304 0.132,0.321 0.153,0.371 0.136,0.406 0.118,0.387 0.101,0.406 0.086,0.391 0.067,0.437 0.035,0.391 v 0.742 l -0.051,0.406 -0.086,0.387 -0.082,0.426 -0.102,0.402 -0.136,0.375 -0.153,0.371 -0.168,0.371 -0.187,0.336 -0.188,0.356 -0.234,0.324 -0.238,0.285 -0.239,0.269 -0.234,0.289 -0.254,0.27 -0.39,0.422 -0.286,0.32"
       style="fill:none;stroke:#808080;stroke-width:0.85;stroke-linecap:round;stroke-linejoin:round;stroke-miterlimit:10;stroke-dasharray:none;stroke-opacity:1"
       transform="scale(1.3333333)" />
    <path
       id="path997"
       d="m 613.57,165.508 0.305,0.051 0.324,0.035 h 0.692 l 0.355,-0.035 h 0.375 l 0.336,-0.016 0.355,-0.035 0.34,-0.016 0.34,-0.035 0.305,-0.035 0.504,-0.051"
       style="fill:none;stroke:#808080;stroke-width:0.85;stroke-linecap:round;stroke-linejoin:round;stroke-miterlimit:10;stroke-dasharray:none;stroke-opacity:1"
       transform="scale(1.3333333)" />
    <path
       id="path998"
       d="m 613.301,167.605 0.32,0.083 0.426,0.035 0.508,-0.118 0.523,-0.136 0.559,-0.102 0.593,-0.086 0.575,-0.066 0.304,-0.035 0.321,-0.016 0.558,-0.086"
       style="fill:none;stroke:#808080;stroke-width:0.85;stroke-linecap:round;stroke-linejoin:round;stroke-miterlimit:10;stroke-dasharray:none;stroke-opacity:1"
       transform="scale(1.3333333)" />
    <path
       id="path999"
       d="m 627.059,165.879 -0.321,-0.051 -0.457,0.035 -0.508,0.117 -0.472,0.27 -0.426,0.355 -0.336,0.391 -0.305,0.371 -0.187,0.371 -0.067,0.321 0.102,0.406 0.32,0.254 0.391,0.035 0.32,-0.086 0.371,-0.27 0.325,-0.39 0.183,-0.235 0.188,-0.269 0.152,-0.289 0.168,-0.32 0.188,-0.321 0.152,-0.324 0.137,-0.336 0.132,-0.355 0.172,-0.336 0.117,-0.375 0.118,-0.352 0.101,-0.375 0.137,-0.387 0.133,-0.406 0.101,-0.39 0.102,-0.403 0.137,-0.39 0.101,-0.407 0.086,-0.386 0.102,-0.372 0.117,-0.304 0.101,-0.508 0.086,-0.305 -0.172,0.473 -0.066,0.371 -0.117,0.426 -0.102,0.472 -0.086,0.504 -0.066,0.508 -0.121,0.473 -0.067,0.492 -0.066,0.488 -0.051,0.492 -0.051,0.438 -0.019,0.457 v 0.457 l 0.019,0.438 0.032,0.441 0.051,0.422 0.101,0.371 0.137,0.371 0.152,0.34 0.188,0.32 0.254,0.289 0.253,0.235 0.27,0.222 0.269,0.184"
       style="fill:none;stroke:#808080;stroke-width:0.85;stroke-linecap:round;stroke-linejoin:round;stroke-miterlimit:10;stroke-dasharray:none;stroke-opacity:1"
       transform="scale(1.3333333)" />
    <path
       id="path1000"
       d="m 630.496,162.16 0.508,0.035 0.336,0.051 0.406,0.051 0.457,0.035 0.442,-0.051"
       style="fill:none;stroke:#808080;stroke-width:0.85;stroke-linecap:round;stroke-linejoin:round;stroke-miterlimit:10;stroke-dasharray:none;stroke-opacity:1"
       transform="scale(1.3333333)" />
    <path
       id="path1001"
       d="m 638.582,161.789 -0.051,-0.422 -0.285,-0.203 -0.305,0.02 -0.472,0.218 -0.289,0.184 -0.321,0.238 -0.304,0.27 -0.305,0.254 -0.324,0.304 -0.305,0.286 -0.254,0.339 -0.269,0.356 -0.27,0.305 -0.238,0.355 -0.188,0.371 -0.152,0.336 -0.133,0.355 -0.086,0.321 -0.035,0.34 -0.016,0.336 v 0.324 l 0.016,0.32 0.172,0.59 0.102,0.289 0.132,0.27 0.356,0.39 0.441,0.301 0.559,0.187 0.304,0.051 0.305,0.016"
       style="fill:none;stroke:#808080;stroke-width:0.85;stroke-linecap:round;stroke-linejoin:round;stroke-miterlimit:10;stroke-dasharray:none;stroke-opacity:1"
       transform="scale(1.3333333)" />
    <path
       id="path1002"
       d="m 640.125,165.559 -0.508,-0.102 -0.375,0.051 -0.387,0.187 -0.273,0.184 -0.234,0.187 -0.407,0.407 -0.187,0.234 -0.254,0.422 -0.133,0.406 v 0.34 l 0.133,0.27 0.188,0.238 0.386,0.152 0.356,-0.051 0.375,-0.152 0.422,-0.273 0.39,-0.422 0.321,-0.422 0.238,-0.508 0.254,-0.508 0.152,-0.422 0.102,-0.406 v -0.387 l -0.239,0.239 0.051,0.371 0.086,0.386 0.219,0.407 0.238,0.34"
       style="fill:none;stroke:#808080;stroke-width:0.85;stroke-linecap:round;stroke-linejoin:round;stroke-miterlimit:10;stroke-dasharray:none;stroke-opacity:1"
       transform="scale(1.3333333)" />
    <path
       id="path1003"
       d="m 642.543,160.168 0.305,0.066 0.371,0.153 0.238,0.269 0.27,0.426 0.203,0.555 0.101,0.324 0.086,0.336 0.102,0.742 0.066,0.375 0.051,0.336 0.019,0.355 0.032,0.372 0.019,0.371 v 0.375 l -0.019,0.371 -0.051,0.371 -0.051,0.387 -0.082,0.406 -0.101,0.406 -0.137,0.371 -0.137,0.34 -0.168,0.336 -0.152,0.324 -0.153,0.32 -0.167,0.321 -0.188,0.285 -0.152,0.273 -0.168,0.27"
       style="fill:none;stroke:#808080;stroke-width:0.85;stroke-linecap:round;stroke-linejoin:round;stroke-miterlimit:10;stroke-dasharray:none;stroke-opacity:1"
       transform="scale(1.3333333)" />
    <path
       id="path1004"
       d="m 650.16,164.105 -0.101,0.321 -0.172,0.523 -0.102,0.559 -0.015,0.558 v 0.559 l 0.015,0.555 0.051,0.543 0.086,0.422 0.051,0.39 0.117,0.352"
       style="fill:none;stroke:#808080;stroke-width:0.85;stroke-linecap:round;stroke-linejoin:round;stroke-miterlimit:10;stroke-dasharray:none;stroke-opacity:1"
       transform="scale(1.3333333)" />
    <path
       id="path1005"
       d="m 647.453,166.352 0.473,0.086 0.406,-0.016 h 0.32 l 0.391,-0.035 0.422,-0.035 h 0.879 l 0.426,-0.016 0.406,-0.035 h 0.371 l 0.371,0.035 0.34,0.016 0.304,0.07"
       style="fill:none;stroke:#808080;stroke-width:0.85;stroke-linecap:round;stroke-linejoin:round;stroke-miterlimit:10;stroke-dasharray:none;stroke-opacity:1"
       transform="scale(1.3333333)" />
    <path
       id="path1006"
       d="M 661.582,165.406 661.43,165 l -0.321,-0.152 -0.324,0.101 -0.508,0.188 -0.285,0.187 -0.304,0.184 -0.29,0.219 -0.269,0.238 -0.238,0.269 -0.239,0.254 -0.218,0.27 -0.188,0.289 -0.152,0.269 -0.133,0.27 -0.152,0.441 -0.036,0.356 0.168,0.336 0.305,0.168 0.305,-0.082 0.375,-0.188 0.508,-0.406 0.234,-0.254 0.238,-0.301 0.27,-0.289 0.254,-0.32 0.222,-0.34 0.219,-0.355 0.238,-0.336 0.203,-0.371 0.184,-0.372 0.188,-0.375 0.218,-0.402 0.188,-0.426 0.152,-0.422 0.168,-0.437 0.152,-0.457 0.137,-0.457 0.133,-0.457 0.137,-0.422 0.101,-0.371 0.086,-0.34 0.133,-0.539 -0.269,0.488 -0.137,0.426 -0.133,0.453 -0.086,0.477 -0.066,0.472 -0.086,0.454 -0.082,0.476 -0.02,0.473 -0.031,0.457 -0.02,0.422 v 0.457 l 0.02,0.453 0.051,0.426 0.082,0.421 0.136,0.387 0.153,0.371 0.168,0.356 0.152,0.289 0.168,0.269 0.203,0.239 0.223,0.218 0.422,0.336"
       style="fill:none;stroke:#808080;stroke-width:0.85;stroke-linecap:round;stroke-linejoin:round;stroke-miterlimit:10;stroke-dasharray:none;stroke-opacity:1"
       transform="scale(1.3333333)" />
    <path
       id="path1007"
       d="m 664.883,162.246 0.269,0.137 0.34,0.082 0.406,-0.031 0.473,-0.036 1.524,-0.152"
       style="fill:none;stroke:#808080;stroke-width:0.85;stroke-linecap:round;stroke-linejoin:round;stroke-miterlimit:10;stroke-dasharray:none;stroke-opacity:1"
       transform="scale(1.3333333)" />
    <path
       id="path1008"
       d="m 672.633,160.336 -0.321,-0.031 -0.374,0.183 -0.458,0.422 -0.203,0.305 -0.218,0.32 -0.219,0.34 -0.203,0.371 -0.375,0.742 -0.168,0.375 -0.153,0.371 -0.168,0.387 -0.121,0.406 -0.132,0.371 -0.122,0.375 -0.066,0.372 -0.051,0.371 -0.066,0.336 -0.02,0.355 0.02,0.32 0.031,0.325 0.086,0.554 0.188,0.492 0.285,0.407 0.406,0.234 0.477,0.137"
       style="fill:none;stroke:#808080;stroke-width:0.85;stroke-linecap:round;stroke-linejoin:round;stroke-miterlimit:10;stroke-dasharray:none;stroke-opacity:1"
       transform="scale(1.3333333)" />
    <path
       id="path1009"
       d="m 674.543,158.527 -0.32,0.34 -0.203,0.321 -0.188,0.371 -0.168,0.421 -0.152,0.458 -0.137,0.472 -0.117,0.492 -0.102,0.438 -0.101,0.457 -0.102,0.422 -0.086,0.457 -0.051,0.422 -0.05,0.371 -0.067,0.375 v 0.961 l 0.086,0.492 0.102,0.402 0.133,0.289 0.304,0.239 h 0.442 l 0.457,-0.071 0.507,-0.133 0.473,-0.101 0.508,-0.07 h 0.426 l 0.406,0.121 0.285,0.183 0.238,0.254 0.137,0.27 0.031,0.324 -0.168,0.402 -0.254,0.203 -0.406,0.223 -0.508,0.203 -0.558,0.133 -0.574,0.102 -0.305,0.035 -0.559,0.031 h -0.457 l -0.34,-0.066"
       style="fill:none;stroke:#808080;stroke-width:0.85;stroke-linecap:round;stroke-linejoin:round;stroke-miterlimit:10;stroke-dasharray:none;stroke-opacity:1"
       transform="scale(1.3333333)" />
    <path
       id="path1010"
       d="m 679.469,157.684 0.269,0.421 0.254,0.524 0.172,0.355 0.133,0.34 0.137,0.403 0.152,0.441 0.137,0.488 0.132,0.508 0.102,0.492 0.137,0.539 0.101,0.508 0.086,0.508 0.082,0.488 0.102,1.016 0.035,0.508 v 0.504 l 0.016,0.507 v 0.493 l -0.016,0.488 -0.066,0.473 -0.071,0.421 -0.082,0.407 -0.101,0.371 -0.137,0.34 -0.117,0.32 -0.121,0.289 -0.168,0.269 -0.153,0.27 -0.187,0.238 -0.371,0.387"
       style="fill:none;stroke:#808080;stroke-width:0.85;stroke-linecap:round;stroke-linejoin:round;stroke-miterlimit:10;stroke-dasharray:none;stroke-opacity:1"
       transform="scale(1.3333333)" />
    <path
       id="path1011"
       d="m 613.402,177.219 0.321,-0.082 0.527,-0.051 h 0.539 l 0.559,-0.035 0.558,-0.016 h 0.559 l 0.476,-0.035 0.422,-0.016 h 0.356 L 618.09,177"
       style="fill:none;stroke:#808080;stroke-width:0.85;stroke-linecap:round;stroke-linejoin:round;stroke-miterlimit:10;stroke-dasharray:none;stroke-opacity:1"
       transform="scale(1.3333333)" />
    <path
       id="path1012"
       d="m 613.488,179.875 0.321,-0.137 0.472,-0.136 0.528,-0.102 0.539,-0.051 0.507,-0.031 0.477,-0.02 h 0.457 l 0.457,-0.031 0.438,0.031"
       style="fill:none;stroke:#808080;stroke-width:0.85;stroke-linecap:round;stroke-linejoin:round;stroke-miterlimit:10;stroke-dasharray:none;stroke-opacity:1"
       transform="scale(1.3333333)" />
    <path
       id="path1013"
       d="m 709.832,176.547 0.051,0.523 -0.016,0.559 -0.035,0.32 v 1.676 l 0.051,0.402 0.086,0.34 0.187,0.336 0.27,0.172 0.441,-0.086 0.406,-0.234 0.27,-0.223 0.254,-0.234 0.269,-0.289 0.274,-0.321 0.32,-0.34 0.32,-0.371 0.29,-0.406 0.32,-0.387 0.34,-0.441 0.64,-0.844 0.325,-0.387 0.32,-0.374 0.32,-0.372 0.289,-0.355 0.289,-0.336 0.285,-0.32 0.305,-0.289 0.254,-0.27 0.254,-0.238 0.238,-0.184 0.387,-0.289"
       style="fill:none;stroke:#228b22;stroke-width:0.85;stroke-linecap:round;stroke-linejoin:round;stroke-miterlimit:10;stroke-dasharray:none;stroke-opacity:1"
       transform="scale(1.3333333)" />
    <path
       id="path1014"
       d="m 572.207,198.449 -0.437,-0.168 -0.442,-0.019 -0.441,0.05 -0.539,0.153 -0.477,0.273 -0.473,0.321 -0.441,0.32 -0.422,0.336 -0.32,0.426 -0.238,0.371 -0.153,0.355 -0.051,0.305 0.067,0.351 0.375,0.188 0.305,0.016 0.386,-0.118 0.457,-0.218 0.457,-0.34 0.239,-0.184 0.238,-0.222 0.234,-0.235 0.223,-0.219 0.387,-0.476 0.171,-0.27 0.27,-0.472 0.238,-0.473 0.184,-0.488 0.137,-0.391 0.101,-0.289 -0.137,0.441 -0.05,0.321 -0.032,0.371 -0.019,0.375 -0.031,0.351 v 0.34 l 0.031,0.321 0.019,0.32 0.082,0.574 0.102,0.508 0.168,0.473 0.187,0.355 0.239,0.32 0.234,0.239"
       style="fill:none;stroke:#3333cc;stroke-width:0.85;stroke-linecap:round;stroke-linejoin:round;stroke-miterlimit:10;stroke-dasharray:none;stroke-opacity:1"
       transform="scale(1.3333333)" />
    <path
       id="path1015"
       d="m 573.375,194.359 -0.305,-0.269 -0.304,-0.188 -0.289,-0.132 -0.606,-0.137 -0.355,-0.016 h -0.746 l -0.372,0.051 -0.39,0.082 -0.406,0.102 -0.422,0.152 -0.407,0.238 -0.39,0.27 -0.371,0.269 -0.375,0.321 -0.371,0.39 -0.371,0.488 -0.372,0.493 -0.355,0.558 -0.34,0.59 -0.32,0.574 -0.324,0.559 -0.286,0.59 -0.273,0.609 -0.234,0.609 -0.188,0.61 -0.168,0.625 -0.07,0.605 -0.051,0.575 -0.031,0.558 0.051,0.559 0.132,0.508 0.153,0.472 0.187,0.457 0.27,0.407 0.324,0.371 0.336,0.304 0.375,0.27 0.406,0.219 0.457,0.187 0.473,0.133 0.473,0.07 0.542,0.031 h 0.59 l 0.578,-0.05 0.59,-0.118 0.61,-0.152 0.644,-0.219 0.574,-0.254 0.559,-0.304 0.543,-0.305 0.523,-0.371 0.493,-0.438 0.437,-0.441 0.406,-0.457 0.375,-0.457 0.336,-0.437 0.305,-0.493 0.289,-0.472 0.238,-0.473 0.184,-0.473 0.137,-0.488 0.101,-0.508 0.051,-0.492 v -0.555 l -0.016,-0.558 -0.086,-0.543 -0.101,-0.473 -0.168,-0.472 -0.188,-0.422 -0.238,-0.371 -0.269,-0.305 -0.305,-0.238 -0.356,-0.184 -0.371,-0.102 -0.39,-0.035 h -0.457 l -0.457,0.035 -0.457,0.082"
       style="fill:none;stroke:#3333cc;stroke-width:0.85;stroke-linecap:round;stroke-linejoin:round;stroke-miterlimit:10;stroke-dasharray:none;stroke-opacity:1"
       transform="scale(1.3333333)" />
    <path
       id="path1016"
       d="m 622.301,194.359 0.066,0.34 0.016,0.59 -0.051,0.574 -0.051,0.356 -0.051,0.336 -0.031,0.355 -0.019,0.305 -0.032,0.32 -0.05,0.305 -0.051,0.523 -0.051,0.426 0.016,0.371 0.035,0.336 0.285,0.219 0.32,-0.082 0.34,-0.188 0.457,-0.254 0.473,-0.269 0.543,-0.219 0.523,-0.066 0.305,-0.035 h 0.527 l 0.539,0.152 0.442,0.269 0.355,0.289 0.239,0.321 0.132,0.32 -0.035,0.422 -0.133,0.305 -0.254,0.254 -0.371,0.218 -0.507,0.137 -0.305,0.051 -0.578,0.082 -0.305,0.019 -0.574,0.051 h -0.32 l -0.528,-0.019 -0.488,-0.051 -0.375,-0.067 -0.32,-0.05"
       style="fill:none;stroke:#3333cc;stroke-width:0.85;stroke-linecap:round;stroke-linejoin:round;stroke-miterlimit:10;stroke-dasharray:none;stroke-opacity:1"
       transform="scale(1.3333333)" />
    <path
       id="path1017"
       d="m 627.359,193.902 -0.203,-0.285 -0.218,-0.222 -0.239,-0.184 -0.269,-0.152 -0.578,-0.27 -0.356,-0.137 -0.371,-0.086 -0.391,-0.05 -0.437,-0.051 -0.426,-0.016 h -0.437 l -0.457,0.016 -0.426,0.051 -0.453,0.05 -0.457,0.122 -0.457,0.132 -0.442,0.188 -0.492,0.203 -0.473,0.234 -0.472,0.305 -0.457,0.371 -0.457,0.391 -0.426,0.422 -0.406,0.507 -0.336,0.559 -0.321,0.59 -0.289,0.609 -0.238,0.641 -0.184,0.66 -0.171,0.66 -0.102,0.641 -0.051,0.625 v 0.676 l 0.02,0.66 0.082,0.66 0.172,0.64 0.203,0.575 0.285,0.558 0.355,0.508 0.422,0.457 0.508,0.422 0.559,0.371 0.558,0.285 0.61,0.254 0.66,0.203 0.695,0.137 0.676,0.086 0.695,0.051 0.742,0.015 0.711,-0.015 0.696,-0.051 0.695,-0.086 0.66,-0.137 0.609,-0.183 0.559,-0.203 0.555,-0.27 0.543,-0.289 0.472,-0.355 0.426,-0.372 0.406,-0.39 0.336,-0.438 0.325,-0.422 0.269,-0.441 0.219,-0.453 0.187,-0.457 0.153,-0.473 0.101,-0.508 0.086,-0.523 0.051,-0.594 -0.02,-0.609 -0.05,-0.641 -0.082,-0.609 -0.137,-0.606 -0.168,-0.578 -0.203,-0.539 -0.238,-0.508 -0.27,-0.437 -0.289,-0.406 -0.356,-0.34 -0.371,-0.27 -0.375,-0.234 -0.421,-0.188 -0.422,-0.136 -0.457,-0.082"
       style="fill:none;stroke:#3333cc;stroke-width:0.85;stroke-linecap:round;stroke-linejoin:round;stroke-miterlimit:10;stroke-dasharray:none;stroke-opacity:1"
       transform="scale(1.3333333)" />
    <path
       id="path1018"
       d="m 579.246,200.383 0.387,-0.051 0.629,-0.184 0.347,-0.121 0.387,-0.117 0.371,-0.168 0.348,-0.187 0.406,-0.184 0.441,-0.187 0.461,-0.184 0.461,-0.188 0.496,-0.203 0.575,-0.218 0.644,-0.219 0.625,-0.188 0.68,-0.187 0.684,-0.203 0.738,-0.219 0.719,-0.184 0.753,-0.187 0.809,-0.203 0.832,-0.188 0.828,-0.133 0.828,-0.136 0.848,-0.133 0.812,-0.102 0.754,-0.05 0.664,-0.051 0.7,-0.035 0.683,-0.016 h 0.735 l 0.718,0.051 0.758,0.051 0.699,0.05 0.625,0.051 0.59,0.082 0.571,0.102 0.515,0.101 0.481,0.121 0.406,0.118 0.406,0.132 0.367,0.137 0.387,0.102 0.406,0.117 0.422,0.101 0.442,0.086 0.425,0.067 0.442,0.066 0.441,0.07 0.426,0.051 0.402,0.067 0.391,0.05 0.367,0.051 0.606,0.102 0.519,0.101 0.442,0.118"
       style="fill:none;stroke:#4b0082;stroke-width:0.886901;stroke-linecap:round;stroke-linejoin:round;stroke-miterlimit:10;stroke-dasharray:none;stroke-opacity:1"
       transform="scale(1.3333333)" />
    <path
       id="path1019"
       d="m 685.34,163.34 0.398,0.156 0.297,0.035 0.375,-0.058 0.445,-0.075 0.469,-0.082 0.504,-0.086 0.527,-0.117 0.555,-0.097 0.504,-0.106 0.481,-0.062 0.394,-0.036 h 0.363 l 0.407,0.036 0.289,0.097"
       style="fill:none;stroke:#808080;stroke-width:0.85;stroke-linecap:round;stroke-linejoin:round;stroke-miterlimit:10;stroke-dasharray:none;stroke-opacity:1"
       transform="scale(1.3333333)" />
    <path
       id="path1020"
       d="m 685.375,165.453 0.324,0.133 0.399,0.035 h 0.312 l 0.422,-0.023 0.465,-0.039 0.531,-0.071 0.492,-0.035 0.516,-0.062 0.41,-0.036 0.434,-0.035 0.359,-0.023 0.348,0.047 0.301,0.011"
       style="fill:none;stroke:#808080;stroke-width:0.85;stroke-linecap:round;stroke-linejoin:round;stroke-miterlimit:10;stroke-dasharray:none;stroke-opacity:1"
       transform="scale(1.3333333)" />
    <path
       id="path1021"
       d="m 699.629,158.312 -0.063,-0.324 -0.058,0.899 -0.035,0.422 -0.047,0.429 -0.086,0.434 -0.098,0.433 -0.082,0.43 -0.121,0.457 -0.133,0.457 -0.105,0.442 -0.121,0.457 -0.11,0.457 -0.121,0.433 -0.105,0.395 -0.074,0.371 -0.082,0.359 -0.075,0.325 -0.133,0.539 -0.093,0.48 -0.098,0.363 -0.07,0.348 0.289,-0.109 0.394,-0.457 0.203,-0.239 0.231,-0.254 0.203,-0.238 0.387,-0.433 0.347,-0.395 0.313,-0.336 0.238,-0.23 0.301,-0.192 0.156,0.289 -0.25,0.336 -0.183,0.266 -0.18,0.238 -0.168,0.313 -0.047,0.312 0.07,0.383 0.196,0.336 0.203,0.301 0.238,0.289 0.352,0.273 0.3,0.168 0.336,0.195 0.36,0.153 0.359,0.133 0.375,0.132 0.348,0.11"
       style="fill:none;stroke:#00c0ff;stroke-width:0.85;stroke-linecap:round;stroke-linejoin:round;stroke-miterlimit:10;stroke-dasharray:none;stroke-opacity:1"
       transform="scale(1.3333333)" />
    <path
       id="path1022"
       d="m 686.723,176.852 0.468,0.023 0.457,0.039 h 1.848 l 0.434,-0.023 0.398,0.023 0.336,0.035 0.422,0.133"
       style="fill:none;stroke:#808080;stroke-width:0.85;stroke-linecap:round;stroke-linejoin:round;stroke-miterlimit:10;stroke-dasharray:none;stroke-opacity:1"
       transform="scale(1.3333333)" />
    <path
       id="path1023"
       d="m 686.277,179.457 0.399,-0.098 0.383,-0.07 0.371,-0.035 0.386,-0.035 h 0.372 l 0.359,-0.028 0.363,-0.023 h 0.395 l 0.363,-0.012 h 0.336 l 0.324,0.035 0.324,0.028"
       style="fill:none;stroke:#808080;stroke-width:0.85;stroke-linecap:round;stroke-linejoin:round;stroke-miterlimit:10;stroke-dasharray:none;stroke-opacity:1"
       transform="scale(1.3333333)" />
    <path
       id="path1024"
       d="m 561.773,221.426 -0.394,0.035 -0.399,0.156 -0.238,0.18 -0.359,0.312 -0.387,0.348 -0.336,0.398 -0.324,0.418 -0.266,0.411 -0.203,0.382 -0.133,0.325 v 0.394 l 0.243,0.242 0.359,-0.074 0.348,-0.215 0.398,-0.3 0.395,-0.395 0.41,-0.445 0.215,-0.25 0.179,-0.266 0.192,-0.262 0.195,-0.3 0.168,-0.325 0.168,-0.312 0.168,-0.348 0.168,-0.336 0.18,-0.324 0.132,-0.313 0.133,-0.324 0.106,-0.289 0.195,-0.527 0.144,-0.504 0.094,-0.406 0.098,-0.313 -0.242,0.25 -0.215,0.543 -0.11,0.285 -0.093,0.336 -0.074,0.36 -0.083,0.375 -0.05,0.359 -0.035,0.359 -0.047,0.36 -0.035,0.324 -0.04,0.301 -0.011,0.301 0.011,0.539 0.04,0.48 0.082,0.43 0.085,0.375 0.133,0.383 0.129,0.312 0.145,0.289"
       style="fill:none;stroke:#808080;stroke-width:0.85;stroke-linecap:round;stroke-linejoin:round;stroke-miterlimit:10;stroke-dasharray:none;stroke-opacity:1"
       transform="scale(1.3333333)" />
    <path
       id="path1025"
       d="m 570.09,216.145 -0.301,-0.141 -0.324,-0.051 -0.301,0.063 -0.336,0.129 -0.226,0.207 0.121,0.312 -0.086,0.297 -0.133,0.312 -0.133,0.399 -0.144,0.394 -0.129,0.446 -0.196,0.406 -0.191,0.504 -0.227,0.551 -0.097,0.324 -0.082,0.363 -0.098,0.348 -0.098,0.359 -0.07,0.383 -0.086,0.359 -0.07,0.336 -0.074,0.336 -0.036,0.336 -0.046,0.324 -0.036,0.325 -0.011,0.3 0.011,0.563 0.059,0.504 0.156,0.445 0.18,0.348 0.266,0.265 0.3,0.215 0.383,0.098 0.399,0.035 0.429,-0.035 0.422,-0.051"
       style="fill:none;stroke:#808080;stroke-width:0.85;stroke-linecap:round;stroke-linejoin:round;stroke-miterlimit:10;stroke-dasharray:none;stroke-opacity:1"
       transform="scale(1.3333333)" />
    <path
       id="path1026"
       d="m 565.129,214.754 -0.195,0.406 -0.129,0.457 -0.121,0.457 -0.11,0.457 -0.07,0.395 -0.086,0.336 -0.012,0.3 v 0.36"
       style="fill:none;stroke:#808080;stroke-width:0.85;stroke-linecap:round;stroke-linejoin:round;stroke-miterlimit:10;stroke-dasharray:none;stroke-opacity:1"
       transform="scale(1.3333333)" />
    <path
       id="path1027"
       d="m 563.047,216.172 0.398,0.203 0.446,0.07 0.527,0.035 0.312,0.028 0.579,0.035 h 1.464"
       style="fill:none;stroke:#808080;stroke-width:0.85;stroke-linecap:round;stroke-linejoin:round;stroke-miterlimit:10;stroke-dasharray:none;stroke-opacity:1"
       transform="scale(1.3333333)" />
    <path
       id="path1028"
       d="m 574.535,221.785 -0.394,-0.156 -0.301,-0.035 -0.36,0.074 -0.421,0.227 -0.446,0.347 -0.25,0.203 -0.23,0.207 -0.203,0.227 -0.336,0.492 -0.313,0.445 -0.179,0.442 -0.086,0.336 0.046,0.301 0.168,0.289 0.301,0.011 0.34,-0.144 0.43,-0.313 0.254,-0.179 0.238,-0.227 0.254,-0.23 0.226,-0.239 0.219,-0.254 0.215,-0.238 0.168,-0.254 0.324,-0.406 0.231,-0.383 0.215,-0.336 -0.012,0.43 -0.035,0.433 -0.024,0.457 0.035,0.418 0.059,0.313 0.109,0.301 0.227,0.285"
       style="fill:none;stroke:#808080;stroke-width:0.85;stroke-linecap:round;stroke-linejoin:round;stroke-miterlimit:10;stroke-dasharray:none;stroke-opacity:1"
       transform="scale(1.3333333)" />
    <path
       id="path1029"
       d="m 575.293,215.246 0.398,0.277 0.262,0.454 0.231,0.554 0.109,0.301 0.129,0.336 0.133,0.394 0.121,0.395 0.109,0.398 0.121,0.407 0.106,0.457 0.074,0.492 0.082,0.492 0.051,0.492 0.058,0.493 0.035,0.441 0.024,0.433 v 0.446 l -0.024,0.406 -0.035,0.398 -0.058,0.395 -0.051,0.395 -0.082,0.398 -0.098,0.371 -0.109,0.359 -0.106,0.36 -0.132,0.336 -0.133,0.312 -0.133,0.278"
       style="fill:none;stroke:#808080;stroke-width:0.85;stroke-linecap:round;stroke-linejoin:round;stroke-miterlimit:10;stroke-dasharray:none;stroke-opacity:1"
       transform="scale(1.3333333)" />
    <path
       id="path1030"
       d="m 582.383,220.105 0.039,0.493 v 2.379 l 0.012,0.406 v 0.66 l -0.012,0.383 -0.063,0.301"
       style="fill:none;stroke:#808080;stroke-width:0.85;stroke-linecap:round;stroke-linejoin:round;stroke-miterlimit:10;stroke-dasharray:none;stroke-opacity:1"
       transform="scale(1.3333333)" />
    <path
       id="path1031"
       d="m 580.535,223.07 0.406,0.098 0.387,0.047 0.492,-0.012 0.575,-0.035 0.324,-0.047 0.328,-0.051 0.336,-0.082 0.359,-0.074 0.371,-0.094 0.387,-0.097 0.395,-0.082"
       style="fill:none;stroke:#808080;stroke-width:0.85;stroke-linecap:round;stroke-linejoin:round;stroke-miterlimit:10;stroke-dasharray:none;stroke-opacity:1"
       transform="scale(1.3333333)" />
    <path
       id="path1032"
       d="m 590.902,222.125 -0.324,0.035 -0.297,0.082 -0.277,0.133 -0.313,0.168 -0.3,0.277 -0.301,0.348 -0.242,0.371 -0.227,0.371 -0.168,0.348 -0.098,0.312 0.012,0.313 0.121,0.336 h 0.36 l 0.312,-0.25 0.387,-0.399 0.226,-0.238 0.231,-0.266 0.203,-0.296 0.203,-0.301 0.231,-0.348 0.203,-0.348 0.215,-0.386 0.207,-0.371 0.203,-0.395 0.168,-0.398 0.156,-0.395 0.156,-0.398 0.168,-0.36 0.145,-0.359 0.121,-0.359 0.109,-0.336 0.094,-0.325 0.074,-0.312 0.082,-0.289 0.145,-0.504 0.086,-0.395 0.035,-0.324 -0.168,0.324 -0.18,0.528 -0.086,0.312 -0.097,0.36 -0.094,0.421 -0.086,0.442 -0.07,0.48 -0.063,0.469 -0.035,0.469 -0.012,0.457 -0.023,0.43 -0.012,0.421 0.012,0.407 0.023,0.398 0.035,0.336 0.063,0.324 0.082,0.325 0.219,0.527 0.273,0.469 0.313,0.336"
       style="fill:none;stroke:#808080;stroke-width:0.85;stroke-linecap:round;stroke-linejoin:round;stroke-miterlimit:10;stroke-dasharray:none;stroke-opacity:1"
       transform="scale(1.3333333)" />
    <path
       id="path1033"
       d="m 598.824,216.41 -0.074,0.301 -0.133,0.394 -0.152,0.481 -0.11,0.48 -0.097,0.481 -0.07,0.469 -0.063,0.371 -0.035,0.398 -0.035,0.348 -0.024,0.394"
       style="fill:none;stroke:#808080;stroke-width:0.85;stroke-linecap:round;stroke-linejoin:round;stroke-miterlimit:10;stroke-dasharray:none;stroke-opacity:1"
       transform="scale(1.3333333)" />
    <path
       id="path1034"
       d="m 595.664,217.863 0.313,0.071 0.394,0.062 0.434,0.059 0.492,0.035 0.469,0.039 0.527,0.035 h 0.496 l 0.504,0.024 h 0.445 l 0.407,0.035 h 0.746"
       style="fill:none;stroke:#808080;stroke-width:0.85;stroke-linecap:round;stroke-linejoin:round;stroke-miterlimit:10;stroke-dasharray:none;stroke-opacity:1"
       transform="scale(1.3333333)" />
    <path
       id="path1035"
       d="m 605.555,216.734 -0.11,-0.394 -0.254,-0.192 -0.371,0.082 -0.433,0.313 -0.266,0.254 -0.285,0.273 -0.602,0.649 -0.324,0.347 -0.324,0.399 -0.301,0.441 -0.289,0.446 -0.242,0.48 -0.203,0.469 -0.215,0.453 -0.18,0.445 -0.156,0.434 -0.109,0.429 -0.098,0.422 -0.082,0.371 -0.012,0.36 0.012,0.359 0.047,0.324 0.144,0.567 0.266,0.492 0.383,0.371 0.492,0.266 0.445,0.152"
       style="fill:none;stroke:#808080;stroke-width:0.85;stroke-linecap:round;stroke-linejoin:round;stroke-miterlimit:10;stroke-dasharray:none;stroke-opacity:1"
       transform="scale(1.3333333)" />
    <path
       id="path1036"
       d="m 607.031,216.148 -0.215,0.215 -0.242,0.469 -0.109,0.324 -0.117,0.336 -0.11,0.36 -0.121,0.406 -0.109,0.457 -0.117,0.469 -0.11,0.492 -0.097,0.469 -0.106,0.48 -0.121,0.441 -0.098,0.434 -0.093,0.418 -0.075,0.375 -0.07,0.348 -0.062,0.3 -0.059,0.528 v 0.359 l 0.227,0.301 0.386,0.012 0.395,-0.075 0.496,-0.07 0.504,-0.098 0.551,-0.023 0.492,-0.012 0.41,0.035 0.301,0.063 0.312,0.168 -0.097,0.336 -0.383,0.238 -0.469,0.313 -0.289,0.132 -0.313,0.106 -0.324,0.109 -0.301,0.098 -0.3,0.082 -0.551,0.086 -0.434,-0.035 -0.386,-0.172"
       style="fill:none;stroke:#808080;stroke-width:0.85;stroke-linecap:round;stroke-linejoin:round;stroke-miterlimit:10;stroke-dasharray:none;stroke-opacity:1"
       transform="scale(1.3333333)" />
    <path
       id="path1037"
       d="m 609.543,215.211 0.289,0.133 0.262,0.144 0.242,0.192 0.266,0.226 0.261,0.242 0.254,0.262 0.238,0.301 0.243,0.359 0.214,0.387 0.18,0.371 0.196,0.418 0.167,0.469 0.133,0.504 0.094,0.527 0.074,0.555 0.059,0.562 v 0.551 l -0.012,0.504 -0.047,0.504 -0.074,0.531 -0.094,0.527 -0.133,0.516 -0.132,0.504 -0.145,0.492 -0.156,0.457 -0.168,0.43 -0.156,0.398 -0.133,0.395 -0.145,0.359 -0.132,0.301"
       style="fill:none;stroke:#808080;stroke-width:0.85;stroke-linecap:round;stroke-linejoin:round;stroke-miterlimit:10;stroke-dasharray:none;stroke-opacity:1"
       transform="scale(1.3333333)" />
    <path
       id="path1038"
       d="m 615.324,221.824 0.324,0.059 0.36,-0.059 0.492,-0.097 0.301,-0.047 0.566,-0.121 0.563,-0.071 0.515,-0.074 0.469,-0.023 0.363,0.023"
       style="fill:none;stroke:#808080;stroke-width:0.85;stroke-linecap:round;stroke-linejoin:round;stroke-miterlimit:10;stroke-dasharray:none;stroke-opacity:1"
       transform="scale(1.3333333)" />
    <path
       id="path1039"
       d="m 615.312,223.43 0.372,-0.153 0.468,-0.195 0.551,-0.129 0.301,-0.051 0.566,-0.082 0.313,-0.035 0.312,-0.012 h 1.25 l 0.602,0.071"
       style="fill:none;stroke:#808080;stroke-width:0.85;stroke-linecap:round;stroke-linejoin:round;stroke-miterlimit:10;stroke-dasharray:none;stroke-opacity:1"
       transform="scale(1.3333333)" />
    <path
       id="path1040"
       d="m 628.688,222.281 -0.497,-0.195 -0.3,-0.059 -0.407,0.024 -0.515,0.109 -0.543,0.215 -0.492,0.301 -0.422,0.406 -0.371,0.434 -0.266,0.515 -0.18,0.469 -0.011,0.434 0.058,0.347 0.278,0.313 0.3,0.058 0.422,-0.132 0.528,-0.29 0.3,-0.179 0.289,-0.227 0.278,-0.254 0.301,-0.273 0.261,-0.301 0.254,-0.301 0.238,-0.324 0.254,-0.359 0.227,-0.36 0.183,-0.371 0.192,-0.398 0.168,-0.395 0.133,-0.422 0.132,-0.406 0.118,-0.422 0.109,-0.394 0.086,-0.371 0.07,-0.387 0.071,-0.371 0.074,-0.36 0.058,-0.335 0.039,-0.301 0.036,-0.481 -0.036,-0.3 -0.339,0.23 -0.262,0.562 -0.156,0.387 -0.133,0.406 -0.11,0.469 -0.121,0.492 -0.105,0.493 -0.074,0.515 -0.024,0.528 -0.011,0.503 v 0.469 l 0.011,0.457 0.074,0.453 0.094,0.41 0.121,0.383 0.145,0.371 0.215,0.375 0.23,0.36 0.262,0.301 0.301,0.285"
       style="fill:none;stroke:#808080;stroke-width:0.85;stroke-linecap:round;stroke-linejoin:round;stroke-miterlimit:10;stroke-dasharray:none;stroke-opacity:1"
       transform="scale(1.3333333)" />
    <path
       id="path1041"
       d="m 631.883,219.242 0.422,-0.058 h 0.394 l 0.399,-0.036 0.394,-0.023 0.457,-0.039 0.469,-0.035 0.457,-0.035"
       style="fill:none;stroke:#808080;stroke-width:0.85;stroke-linecap:round;stroke-linejoin:round;stroke-miterlimit:10;stroke-dasharray:none;stroke-opacity:1"
       transform="scale(1.3333333)" />
    <path
       id="path1042"
       d="m 638.949,216.004 -0.336,0.441 -0.375,0.457 -0.215,0.289 -0.242,0.301 -0.25,0.301 -0.242,0.336 -0.238,0.394 -0.254,0.434 -0.238,0.477 -0.231,0.48 -0.215,0.516 -0.207,0.504 -0.168,0.48 -0.129,0.469 -0.097,0.445 -0.074,0.445 -0.036,0.395 0.012,0.371 0.063,0.359 0.07,0.36 0.121,0.312 0.144,0.313 0.192,0.277 0.203,0.25 0.434,0.387 0.254,0.18 0.492,0.238"
       style="fill:none;stroke:#808080;stroke-width:0.85;stroke-linecap:round;stroke-linejoin:round;stroke-miterlimit:10;stroke-dasharray:none;stroke-opacity:1"
       transform="scale(1.3333333)" />
    <path
       id="path1043"
       d="m 642.203,220.301 -0.418,0.094 -0.433,0.23 -0.469,0.297 -0.254,0.18 -0.238,0.218 -0.231,0.203 -0.359,0.469 -0.168,0.25 -0.301,0.446 -0.156,0.433 -0.071,0.324 0.094,0.36 0.266,0.191 0.398,-0.035 0.36,-0.156 0.394,-0.243 0.399,-0.285 0.359,-0.324 0.277,-0.375 0.254,-0.394 0.168,-0.395 0.145,-0.301 0.117,-0.3 -0.094,0.468 -0.062,0.504 0.023,0.551 0.039,0.504 0.106,0.457 0.218,0.371"
       style="fill:none;stroke:#808080;stroke-width:0.85;stroke-linecap:round;stroke-linejoin:round;stroke-miterlimit:10;stroke-dasharray:none;stroke-opacity:1"
       transform="scale(1.3333333)" />
    <path
       id="path1044"
       d="m 644.129,216.316 0.418,0.118 0.375,0.207 0.359,0.336 0.383,0.418 0.363,0.468 0.168,0.325 0.145,0.324 0.133,0.336 0.129,0.394 0.121,0.434 0.097,0.469 0.047,0.48 0.047,0.441 0.012,0.457 -0.012,0.434 -0.047,0.418 -0.07,0.41 -0.109,0.453 -0.133,0.457 -0.168,0.446 -0.192,0.429 -0.218,0.446 -0.215,0.406 -0.227,0.375 -0.219,0.383 -0.203,0.359 -0.203,0.313 -0.195,0.289"
       style="fill:none;stroke:#808080;stroke-width:0.85;stroke-linecap:round;stroke-linejoin:round;stroke-miterlimit:10;stroke-dasharray:none;stroke-opacity:1"
       transform="scale(1.3333333)" />
    <path
       id="path1045"
       d="m 651.312,220.672 0.157,0.262 0.051,0.492 -0.04,0.531 -0.07,0.551 -0.074,0.562 -0.059,0.492 v 0.434 l 0.012,0.336 0.086,0.301"
       style="fill:none;stroke:#808080;stroke-width:0.85;stroke-linecap:round;stroke-linejoin:round;stroke-miterlimit:10;stroke-dasharray:none;stroke-opacity:1"
       transform="scale(1.3333333)" />
    <path
       id="path1046"
       d="m 650.051,222.316 0.375,0.168 0.336,0.071 0.527,0.023 0.313,-0.023 0.336,-0.012 0.374,-0.023 0.395,-0.036 0.422,-0.035 0.433,-0.039"
       style="fill:none;stroke:#808080;stroke-width:0.85;stroke-linecap:round;stroke-linejoin:round;stroke-miterlimit:10;stroke-dasharray:none;stroke-opacity:1"
       transform="scale(1.3333333)" />
    <path
       id="path1047"
       d="m 660.809,222.184 -0.364,-0.122 -0.3,-0.035 -0.325,-0.011 -0.336,0.046 -0.359,0.133 -0.359,0.254 -0.352,0.274 -0.336,0.347 -0.273,0.36 -0.184,0.34 -0.105,0.406 0.105,0.324 0.289,0.133 0.469,-0.11 0.433,-0.214 0.266,-0.145 0.274,-0.168 0.265,-0.215 0.266,-0.207 0.262,-0.226 0.277,-0.266 0.266,-0.273 0.226,-0.301 0.231,-0.348 0.203,-0.371 0.191,-0.398 0.156,-0.418 0.145,-0.411 0.156,-0.382 0.133,-0.348 0.098,-0.359 0.082,-0.364 0.097,-0.382 0.082,-0.395 0.074,-0.398 0.071,-0.383 0.074,-0.446 0.059,-0.406 0.035,-0.383 0.039,-0.336 0.082,-0.503 v -0.325 l -0.215,0.325 -0.086,0.308 -0.094,0.387 -0.086,0.394 -0.07,0.399 -0.074,0.394 -0.07,0.395 -0.063,0.434 -0.059,0.457 -0.062,0.441 -0.035,0.48 v 0.926 l 0.023,0.406 0.039,0.422 0.071,0.395 0.097,0.336 0.117,0.301 0.133,0.289 0.145,0.273 0.168,0.254 0.363,0.371"
       style="fill:none;stroke:#808080;stroke-width:0.85;stroke-linecap:round;stroke-linejoin:round;stroke-miterlimit:10;stroke-dasharray:none;stroke-opacity:1"
       transform="scale(1.3333333)" />
    <path
       id="path1048"
       d="m 663.812,217.73 0.336,0.036 h 2.836"
       style="fill:none;stroke:#808080;stroke-width:0.85;stroke-linecap:round;stroke-linejoin:round;stroke-miterlimit:10;stroke-dasharray:none;stroke-opacity:1"
       transform="scale(1.3333333)" />
    <path
       id="path1049"
       d="m 672.727,217.289 0.156,-0.363 0.168,-0.324 0.015,0.457 -0.074,0.3 -0.097,0.313 -0.106,0.359 -0.121,0.383 -0.133,0.359 -0.133,0.352 -0.105,0.359 -0.121,0.36 -0.086,0.359 -0.094,0.324 -0.098,0.313 -0.121,0.551 -0.047,0.457 0.012,0.347 0.121,0.36 0.301,0.133 0.395,-0.098 0.433,-0.168 0.469,-0.18 0.516,-0.156 0.457,-0.07 0.41,-0.024 0.347,0.059 0.336,0.133 0.336,0.238 0.086,0.301 -0.144,0.324 -0.243,0.203 -0.394,0.219 -0.469,0.179 -0.527,0.18 -0.555,0.11 -0.527,0.058 -0.457,0.012 -0.375,-0.035 -0.418,-0.145"
       style="fill:none;stroke:#808080;stroke-width:0.85;stroke-linecap:round;stroke-linejoin:round;stroke-miterlimit:10;stroke-dasharray:none;stroke-opacity:1"
       transform="scale(1.3333333)" />
    <path
       id="path1050"
       d="m 672.633,213.496 -0.336,0.227 -0.387,0.41 -0.238,0.262 -0.242,0.324 -0.25,0.371 -0.266,0.422 -0.266,0.457 -0.265,0.465 -0.262,0.492 -0.289,0.504 -0.266,0.531 -0.214,0.562 -0.192,0.602 -0.168,0.609 -0.156,0.578 -0.109,0.586 -0.059,0.567 -0.039,0.551 -0.024,0.504 0.036,0.492 0.086,0.492 0.109,0.469 0.156,0.429 0.203,0.422 0.239,0.371 0.254,0.36 0.265,0.324 0.274,0.301 0.312,0.265 0.301,0.203 0.301,0.168 0.3,0.133"
       style="fill:none;stroke:#808080;stroke-width:0.85;stroke-linecap:round;stroke-linejoin:round;stroke-miterlimit:10;stroke-dasharray:none;stroke-opacity:1"
       transform="scale(1.3333333)" />
    <path
       id="path1051"
       d="m 676.98,215.414 0.434,-0.105 0.359,0.168 0.34,0.359 0.192,0.238 0.168,0.289 0.168,0.313 0.179,0.383 0.145,0.398 0.133,0.395 0.093,0.445 0.075,0.492 0.058,0.527 0.039,0.528 v 0.551 l -0.015,0.566 -0.047,0.539 -0.047,0.516 -0.086,0.504 -0.07,0.515 -0.098,0.504 -0.105,0.469 -0.133,0.48 -0.133,0.446 -0.156,0.429 -0.168,0.399 -0.168,0.359 -0.192,0.336 -0.172,0.313 -0.168,0.261 -0.261,0.469 -0.168,0.324"
       style="fill:none;stroke:#808080;stroke-width:0.85;stroke-linecap:round;stroke-linejoin:round;stroke-miterlimit:10;stroke-dasharray:none;stroke-opacity:1"
       transform="scale(1.3333333)" />
    <path
       id="path1052"
       d="m 684.902,220.133 0.336,-0.098 0.457,0.059 0.336,0.086 0.383,0.047 0.41,0.011 h 0.446 l 0.468,-0.035 h 0.926 l 0.395,0.024 0.3,0.035"
       style="fill:none;stroke:#808080;stroke-width:0.85;stroke-linecap:round;stroke-linejoin:round;stroke-miterlimit:10;stroke-dasharray:none;stroke-opacity:1"
       transform="scale(1.3333333)" />
    <path
       id="path1053"
       d="m 685.035,222.242 0.336,0.039 0.457,0.035 h 0.383 l 0.434,-0.023 0.468,-0.051 0.516,-0.047 0.527,-0.07 0.532,-0.039 0.468,-0.035 0.418,-0.024 h 0.352"
       style="fill:none;stroke:#808080;stroke-width:0.85;stroke-linecap:round;stroke-linejoin:round;stroke-miterlimit:10;stroke-dasharray:none;stroke-opacity:1"
       transform="scale(1.3333333)" />
    <path
       id="path1054"
       d="m 700.762,213.809 0.312,0.129 0.266,0.324 0.047,0.3 -0.047,0.614 -0.047,0.371 -0.063,0.433 -0.058,0.454 -0.07,0.457 -0.11,0.445 -0.121,0.457 -0.094,0.492 -0.109,0.488 -0.133,0.481 -0.133,0.492 -0.121,0.481 -0.105,0.445 -0.11,0.43 -0.121,0.398 -0.07,0.383 -0.086,0.336 -0.144,0.554 -0.094,0.442 -0.074,0.301 0.3,-0.371 0.336,-0.528 0.168,-0.289 0.196,-0.266 0.203,-0.261 0.191,-0.278 0.168,-0.265 0.363,-0.43 0.336,-0.324 0.289,-0.192 0.36,-0.144 0.359,0.059 0.098,0.347 -0.168,0.324 -0.219,0.266 -0.203,0.289 -0.242,0.336 -0.157,0.324 -0.128,0.297 -0.039,0.41 0.109,0.301 0.265,0.25 0.383,0.191 0.336,0.18 0.324,0.168 0.34,0.231 0.297,0.214 0.324,0.266 0.266,0.297 0.266,0.336 0.226,0.324"
       style="fill:none;stroke:#4b0082;stroke-width:0.85;stroke-linecap:round;stroke-linejoin:round;stroke-miterlimit:10;stroke-dasharray:none;stroke-opacity:1"
       transform="scale(1.3333333)" />
    <path
       id="path1055"
       d="m 604.559,232.371 0.293,-0.191 0.418,-0.227 0.332,-0.156 0.347,-0.176 0.383,-0.101 0.383,-0.055 h 0.383 l 0.382,0.055 0.317,0.085 0.242,0.293 0.106,0.418 -0.055,0.403 -0.192,0.519 -0.171,0.278 -0.192,0.296 -0.211,0.297 -0.242,0.313 -0.262,0.262 -0.242,0.257 -0.246,0.262 -0.277,0.242 -0.246,0.246 -0.207,0.227 -0.227,0.242 -0.207,0.227 -0.367,0.398 -0.227,0.434 -0.121,0.383 -0.07,0.312 0.176,0.348 0.398,0.281 0.453,0.102 0.539,0.085 0.559,0.055 0.574,0.051 h 0.906 l 0.348,0.035 0.328,0.02 0.332,0.031 0.348,0.09"
       style="fill:none;stroke:#808080;stroke-width:0.85;stroke-linecap:round;stroke-linejoin:round;stroke-miterlimit:10;stroke-dasharray:none;stroke-opacity:1"
       transform="scale(1.3333333)" />
    <path
       id="path1056"
       d="m 615.871,234.578 0.313,0.051 0.507,0.055 0.52,0.031 h 1.586 l 0.625,-0.031 0.574,-0.071 0.488,-0.035 0.418,-0.019"
       style="fill:none;stroke:#808080;stroke-width:0.85;stroke-linecap:round;stroke-linejoin:round;stroke-miterlimit:10;stroke-dasharray:none;stroke-opacity:1"
       transform="scale(1.3333333)" />
    <path
       id="path1057"
       d="m 616.184,236.785 0.332,0.051 0.523,0.035 h 0.574 l 0.332,-0.035 h 0.348 l 0.398,-0.016 0.348,-0.035 0.348,-0.015 h 0.75 l 0.593,-0.036"
       style="fill:none;stroke:#808080;stroke-width:0.85;stroke-linecap:round;stroke-linejoin:round;stroke-miterlimit:10;stroke-dasharray:none;stroke-opacity:1"
       transform="scale(1.3333333)" />
    <path
       id="path1058"
       d="m 628.895,232.754 0.101,-0.297 0.227,-0.418 0.297,-0.297 0.312,-0.222 0.332,-0.192 0.313,-0.09 0.418,-0.05 0.296,0.085 0.332,0.106 0.293,0.191 0.282,0.192 0.191,0.242 0.121,0.418 -0.121,0.433 -0.191,0.368 -0.297,0.398 -0.227,0.227 -0.433,0.453 -0.246,0.258 -0.278,0.246 -0.262,0.242 -0.277,0.262 -0.297,0.277 -0.312,0.277 -0.262,0.278 -0.277,0.297 -0.246,0.277 -0.262,0.262 -0.192,0.242 -0.156,0.261 -0.297,0.434 -0.121,0.348 0.035,0.383 0.227,0.226 0.348,0.141 0.488,0.066 0.609,0.035 0.332,-0.035 0.348,-0.016 0.363,-0.035 0.403,-0.05 0.418,-0.055 0.398,-0.051 0.453,-0.051 0.453,-0.07 0.453,-0.02 0.399,-0.031 0.418,-0.019 h 0.402 l 0.383,0.019 0.363,0.051 0.352,0.086 0.363,0.105 0.332,0.121 0.297,0.141"
       style="fill:none;stroke:#808080;stroke-width:0.85;stroke-linecap:round;stroke-linejoin:round;stroke-miterlimit:10;stroke-dasharray:none;stroke-opacity:1"
       transform="scale(1.3333333)" />
    <path
       id="path1059"
       d="m 684.266,233.031 0.261,0.157 0.368,0.136 0.328,0.02 h 1.828 l 0.574,-0.055 h 2.004"
       style="fill:none;stroke:#808080;stroke-width:0.85;stroke-linecap:round;stroke-linejoin:round;stroke-miterlimit:10;stroke-dasharray:none;stroke-opacity:1"
       transform="scale(1.3333333)" />
    <path
       id="path1060"
       d="m 685.242,235.535 0.313,0.102 0.488,0.14 0.523,0.051 h 1.477 l 0.594,-0.016 h 0.332 l 0.574,-0.035 0.484,-0.019 h 0.418"
       style="fill:none;stroke:#808080;stroke-width:0.85;stroke-linecap:round;stroke-linejoin:round;stroke-miterlimit:10;stroke-dasharray:none;stroke-opacity:1"
       transform="scale(1.3333333)" />
    <path
       id="path1061"
       d="m 697.672,235.012 0.277,0.176 0.297,0.101 0.383,-0.172 0.312,-0.246 0.332,-0.348 0.348,-0.414 0.348,-0.437 0.418,-0.434 0.383,-0.484 0.191,-0.246 0.191,-0.242 0.157,-0.262 0.332,-0.434 0.328,-0.398 0.246,-0.332 0.226,-0.227 0.329,0.176 -0.086,0.574 -0.051,0.379 -0.086,0.403 -0.07,0.417 -0.122,0.399 -0.14,0.383 -0.121,0.418 -0.282,0.867 -0.136,0.383 -0.141,0.383 -0.105,0.417 -0.137,0.399 -0.105,0.383 -0.122,0.383 -0.07,0.382 -0.086,0.364 -0.09,0.332 -0.05,0.297 0.035,0.519 0.07,0.399 0.227,0.316 0.277,0.187"
       style="fill:none;stroke:#4b0082;stroke-width:0.85;stroke-linecap:round;stroke-linejoin:round;stroke-miterlimit:10;stroke-dasharray:none;stroke-opacity:1"
       transform="scale(1.3333333)" />
    <path
       id="path1062"
       d="m 719.988,211.125 -0.086,0.348 -0.16,0.332 -0.226,0.347 -0.258,0.418 -0.317,0.383 -0.293,0.379 -0.332,0.383 -0.347,0.437 -0.766,0.868 -0.367,0.468 -0.348,0.469 -0.383,0.473 -0.382,0.433 -0.368,0.434 -0.293,0.433 -0.296,0.383 -0.278,0.348 -0.226,0.367 -0.192,0.328 -0.156,0.297 -0.246,0.488 -0.106,0.383 0.02,0.364 0.383,0.07 0.469,-0.07 0.574,-0.192 0.332,-0.141 0.348,-0.136 0.367,-0.176 0.765,-0.313 0.348,-0.171 0.332,-0.157 0.328,-0.191 0.297,-0.176 0.277,-0.156 0.282,-0.137 0.519,-0.226 0.383,-0.157 0.316,-0.089 0.364,-0.016 0.156,0.348 -0.016,0.418 -0.226,0.539 -0.157,0.293 -0.191,0.367 -0.227,0.328 -0.246,0.332 -0.277,0.348 -0.297,0.418 -0.293,0.433 -0.332,0.434 -0.297,0.468 -0.332,0.489 -0.328,0.453 -0.332,0.469 -0.297,0.468 -0.277,0.489 -0.277,0.433 -0.282,0.418 -0.258,0.383 -0.226,0.383 -0.211,0.347 -0.227,0.313 -0.191,0.293 -0.172,0.348 -0.125,0.312 -0.223,0.488 -0.14,0.454 -0.106,0.328"
       style="fill:none;stroke:#ff0000;stroke-width:0.85;stroke-linecap:round;stroke-linejoin:round;stroke-miterlimit:10;stroke-dasharray:none;stroke-opacity:1"
       transform="scale(1.3333333)" />
    <path
       id="path1063"
       d="m 713.633,224.91 -0.207,0.488 -0.227,0.383 -0.105,0.313 -0.172,0.312 -0.16,0.367 -0.192,0.348 -0.156,0.414 -0.172,0.403 -0.191,0.382 -0.156,0.414 -0.141,0.438 -0.141,0.433 -0.136,0.418 -0.106,0.399 -0.086,0.367 -0.055,0.328 v 0.594 l 0.141,0.484 0.207,0.332 0.418,0.227 0.473,0.016 0.293,-0.051 0.297,-0.071 0.332,-0.14 0.382,-0.137 0.434,-0.176 0.473,-0.191 0.468,-0.192 0.489,-0.207 0.488,-0.226 0.504,-0.242 0.433,-0.246 0.438,-0.243 0.418,-0.242 0.383,-0.246 0.328,-0.258 0.312,-0.211 0.368,-0.191 0.332,-0.172 0.519,-0.246"
       style="fill:none;stroke:#ff0000;stroke-width:0.85;stroke-linecap:round;stroke-linejoin:round;stroke-miterlimit:10;stroke-dasharray:none;stroke-opacity:1"
       transform="scale(1.3333333)" />
    <path
       id="path1064"
       d="m 689.715,230.406 -0.121,0.434 -0.207,0.433 -0.317,0.418 -0.191,0.262 -0.242,0.313 -0.242,0.296 -0.247,0.329 -0.242,0.347 -0.281,0.332 -0.277,0.328 -0.297,0.332 -0.278,0.383 -0.296,0.383 -0.293,0.348 -0.317,0.347 -0.293,0.414 -0.281,0.438 -0.262,0.418 -0.258,0.398 -0.211,0.383 -0.242,0.363 -0.226,0.333 -0.156,0.312 -0.141,0.312 -0.242,0.524"
       style="fill:none;stroke:#ff0000;stroke-width:0.85;stroke-linecap:round;stroke-linejoin:round;stroke-miterlimit:10;stroke-dasharray:none;stroke-opacity:1"
       transform="scale(1.3333333)" />
    <path
       id="path1065"
       d="m 689.871,217.68 -0.137,0.297 -0.14,0.277 -0.348,0.488 -0.226,0.278 -0.243,0.257 -0.281,0.282 -0.242,0.277 -0.246,0.297 -0.278,0.293 -0.296,0.312 -0.293,0.297 -0.282,0.332 -0.293,0.328 -0.281,0.297 -0.242,0.328 -0.242,0.348 -0.246,0.367 -0.227,0.313 -0.191,0.312 -0.172,0.297 -0.125,0.293 -0.137,0.277 -0.141,0.282 -0.191,0.519 -0.172,0.434"
       style="fill:none;stroke:#ff0000;stroke-width:0.85;stroke-linecap:round;stroke-linejoin:round;stroke-miterlimit:10;stroke-dasharray:none;stroke-opacity:1"
       transform="scale(1.3333333)" />
    <path
       id="path1066"
       d="m 726.066,156.953 0.332,0.141 0.555,0.051 0.348,-0.036 0.418,-0.05 0.402,-0.071 0.434,-0.086 0.472,-0.086 0.434,-0.105 0.434,-0.086 0.453,-0.09 0.453,-0.066 0.469,-0.125 0.472,-0.067 0.469,-0.089 0.488,-0.051 0.469,-0.051 0.437,-0.055 0.434,-0.035 0.469,-0.031 0.402,-0.02 0.363,-0.035 h 0.332 l 0.348,0.035 h 0.574"
       style="fill:none;stroke:#000000;stroke-width:0.85;stroke-linecap:round;stroke-linejoin:round;stroke-miterlimit:10;stroke-dasharray:none;stroke-opacity:1"
       transform="scale(1.3333333)" />
    <path
       id="path1067"
       d="m 732.941,152.227 0.524,0.035 h 1.48 l 0.348,0.015 0.363,0.035 0.332,0.036 0.313,0.05 0.332,0.071 0.312,0.121 0.489,0.211 0.382,0.363 0.192,0.348 0.051,0.523 -0.102,0.57 -0.09,0.348 -0.137,0.367 -0.191,0.348 -0.211,0.363 -0.242,0.348 -0.313,0.348 -0.332,0.367 -0.347,0.328 -0.367,0.297 -0.348,0.277 -0.348,0.246 -0.367,0.242 -0.293,0.243 -0.281,0.226 -0.469,0.313"
       style="fill:none;stroke:#000000;stroke-width:0.85;stroke-linecap:round;stroke-linejoin:round;stroke-miterlimit:10;stroke-dasharray:none;stroke-opacity:1"
       transform="scale(1.3333333)" />
    <path
       id="path1068"
       d="m 748.367,154.887 -0.367,-0.071 -0.539,0.086 -0.313,0.141 -0.332,0.156 -0.296,0.227 -0.243,0.222 -0.226,0.211 -0.211,0.227 -0.293,0.449 -0.227,0.418 -0.09,0.297 v 0.363 l 0.317,0.157 0.348,-0.157 0.382,-0.242 0.469,-0.332 0.438,-0.363 0.484,-0.297 0.437,-0.277 0.454,-0.157 0.347,-0.035 0.293,0.176 0.246,0.348 0.192,0.625 0.086,0.382 0.086,0.418 0.054,0.399 0.086,0.469 0.071,0.433 0.07,0.383 0.015,0.418 0.036,0.398 -0.036,0.418 -0.085,0.383 -0.106,0.383 -0.137,0.383 -0.16,0.347 -0.226,0.332 -0.243,0.293 -0.277,0.278 -0.297,0.246 -0.297,0.191 -0.328,0.172 -0.297,0.141 -0.312,0.105 -0.297,0.051 -0.523,-0.035 -0.434,-0.192 -0.332,-0.312 -0.242,-0.523 -0.055,-0.329 v -0.332 l 0.02,-0.382 0.07,-0.383 0.101,-0.414"
       style="fill:none;stroke:#000000;stroke-width:0.85;stroke-linecap:round;stroke-linejoin:round;stroke-miterlimit:10;stroke-dasharray:none;stroke-opacity:1"
       transform="scale(1.3333333)" />
    <path
       id="path1069"
       d="m 753.727,155.719 0.296,-0.102 0.383,-0.14 0.278,-0.141 0.332,-0.258 0.242,-0.367 -0.086,-0.297 -0.332,-0.051 -0.52,0.141 -0.316,0.191 -0.363,0.243 -0.348,0.296 -0.316,0.328 -0.258,0.333 -0.262,0.293 -0.211,0.296 -0.172,0.313 -0.121,0.297 -0.125,0.277 -0.101,0.488 v 0.434 l 0.085,0.383 0.157,0.293 0.242,0.226 0.332,0.071 0.418,0.07 0.434,-0.035"
       style="fill:none;stroke:#000000;stroke-width:0.85;stroke-linecap:round;stroke-linejoin:round;stroke-miterlimit:10;stroke-dasharray:none;stroke-opacity:1"
       transform="scale(1.3333333)" />
    <path
       id="path1070"
       d="m 756.703,156.223 v 0.312 l -0.051,0.317 -0.054,0.293 -0.137,0.417 -0.106,0.383 -0.105,0.297 -0.121,0.328 0.176,-0.363 0.257,-0.539 0.141,-0.281 0.192,-0.242 0.312,-0.434 0.297,-0.418 0.277,-0.328 0.246,-0.262 0.297,-0.191 0.293,-0.121 0.317,-0.055"
       style="fill:none;stroke:#000000;stroke-width:0.85;stroke-linecap:round;stroke-linejoin:round;stroke-miterlimit:10;stroke-dasharray:none;stroke-opacity:1"
       transform="scale(1.3333333)" />
    <path
       id="path1071"
       d="m 761.805,154.469 -0.227,0.347 -0.211,0.329 -0.222,0.437 -0.247,0.504 -0.191,0.484 -0.191,0.438 -0.106,0.433 -0.066,0.364 0.031,0.332 0.16,0.383 0.328,0.171"
       style="fill:none;stroke:#000000;stroke-width:0.85;stroke-linecap:round;stroke-linejoin:round;stroke-miterlimit:10;stroke-dasharray:none;stroke-opacity:1"
       transform="scale(1.3333333)" />
    <path
       id="path1072"
       d="m 765.93,155.129 -0.524,0.105 -0.574,0.278 -0.293,0.191 -0.281,0.207 -0.242,0.242 -0.211,0.262 -0.227,0.246 -0.191,0.242 -0.328,0.469 -0.211,0.399 -0.071,0.382 0.071,0.297 0.191,0.242 0.453,0.121 0.469,-0.085"
       style="fill:none;stroke:#000000;stroke-width:0.85;stroke-linecap:round;stroke-linejoin:round;stroke-miterlimit:10;stroke-dasharray:none;stroke-opacity:1"
       transform="scale(1.3333333)" />
    <path
       id="path1073"
       d="m 769.777,148 -0.332,0.523 -0.191,0.243 -0.227,0.242 -0.226,0.297 -0.242,0.332 -0.243,0.347 -0.246,0.383 -0.242,0.363 -0.226,0.348 -0.192,0.383 -0.156,0.363 -0.281,0.594 -0.086,0.312 -0.106,0.504 -0.015,0.504 -0.036,0.453 0.036,0.469 0.015,0.485 0.035,0.472 0.02,0.434 0.051,0.433 0.07,0.418 0.105,0.328 0.192,0.297 0.348,0.157 0.363,0.035"
       style="fill:none;stroke:#000000;stroke-width:0.85;stroke-linecap:round;stroke-linejoin:round;stroke-miterlimit:10;stroke-dasharray:none;stroke-opacity:1"
       transform="scale(1.3333333)" />
    <path
       id="path1074"
       d="m 772.789,148.297 -0.121,0.488 -0.141,0.555 -0.07,0.328 -0.121,0.352 -0.106,0.378 -0.105,0.383 -0.137,0.348 -0.105,0.383 -0.086,0.418 -0.086,0.382 -0.07,0.348 -0.09,0.363 -0.051,0.348 -0.07,0.332 -0.051,0.332 -0.055,0.328 -0.051,0.575 -0.035,0.488"
       style="fill:none;stroke:#000000;stroke-width:0.85;stroke-linecap:round;stroke-linejoin:round;stroke-miterlimit:10;stroke-dasharray:none;stroke-opacity:1"
       transform="scale(1.3333333)" />
    <path
       id="path1075"
       d="m 769.062,153.789 0.333,0.141 0.382,0.121 0.489,0.121 0.293,0.07 0.296,0.086 0.313,0.055 0.574,0.137 0.524,0.085"
       style="fill:none;stroke:#000000;stroke-width:0.85;stroke-linecap:round;stroke-linejoin:round;stroke-miterlimit:10;stroke-dasharray:none;stroke-opacity:1"
       transform="scale(1.3333333)" />
    <path
       id="path1076"
       d="m 774.652,154.746 0.383,-0.051 0.348,-0.14 0.383,-0.192 0.382,-0.226 0.332,-0.278 0.278,-0.297 0.191,-0.277 0.016,-0.312 -0.328,-0.141 -0.489,0.07 -0.277,0.121 -0.297,0.141 -0.277,0.207 -0.262,0.227 -0.281,0.211 -0.277,0.242 -0.207,0.312 -0.211,0.297 -0.157,0.278 -0.105,0.296 -0.051,0.293 -0.086,0.524 0.102,0.484 0.297,0.418 0.503,0.297 0.297,0.121 0.332,0.106 0.348,0.05"
       style="fill:none;stroke:#000000;stroke-width:0.85;stroke-linecap:round;stroke-linejoin:round;stroke-miterlimit:10;stroke-dasharray:none;stroke-opacity:1"
       transform="scale(1.3333333)" />
    <path
       id="path1077"
       d="m 782.117,146.246 -0.277,0.227 -0.192,0.242 -0.156,0.297 -0.14,0.379 -0.102,0.437 -0.125,0.504 -0.102,0.539 -0.105,0.574 -0.121,0.606 -0.07,0.574 -0.086,0.539 -0.09,0.539 -0.016,0.609 -0.035,0.575 -0.016,0.519 v 0.524 l 0.016,0.504 0.051,0.504 0.054,0.433 0.071,0.434 0.101,0.418 0.106,0.347 0.105,0.332 0.121,0.278"
       style="fill:none;stroke:#000000;stroke-width:0.85;stroke-linecap:round;stroke-linejoin:round;stroke-miterlimit:10;stroke-dasharray:none;stroke-opacity:1"
       transform="scale(1.3333333)" />
    <path
       id="path1078"
       d="m 777.766,151.93 0.472,0.14 0.313,0.051 0.332,0.051 0.469,0.055 h 2.191 l 0.352,-0.02 0.363,-0.051 0.383,-0.035 0.347,-0.035 0.332,-0.016 0.297,-0.054"
       style="fill:none;stroke:#000000;stroke-width:0.85;stroke-linecap:round;stroke-linejoin:round;stroke-miterlimit:10;stroke-dasharray:none;stroke-opacity:1"
       transform="scale(1.3333333)" />
    <path
       id="path1079"
       d="m 763.754,150.453 0.262,0.227 0.363,0.347"
       style="fill:none;stroke:#000000;stroke-width:0.85;stroke-linecap:round;stroke-linejoin:round;stroke-miterlimit:10;stroke-dasharray:none;stroke-opacity:1"
       transform="scale(1.3333333)" />
    <path
       id="path1080"
       d="m 727.199,214.426 0.293,0.086 0.473,0.054 0.574,-0.019 0.328,-0.035 0.352,-0.016 0.363,-0.035 0.313,-0.035 0.332,-0.016 0.367,-0.035 0.347,-0.02 0.364,-0.035 0.347,-0.015 0.383,-0.035 0.418,-0.051 0.402,-0.035 0.434,-0.02 h 0.473 l 0.468,-0.031 0.418,-0.02 0.399,-0.035 h 0.437 l 0.383,-0.035 0.363,-0.016"
       style="fill:none;stroke:#000000;stroke-width:0.85;stroke-linecap:round;stroke-linejoin:round;stroke-miterlimit:10;stroke-dasharray:none;stroke-opacity:1"
       transform="scale(1.3333333)" />
    <path
       id="path1081"
       d="m 734.23,210.777 0.332,-0.054 h 0.958 l 0.625,0.019 0.332,0.07 0.574,0.122 0.332,0.136 0.293,0.176 0.281,0.156 0.277,0.192 0.243,0.242 0.211,0.242 0.191,0.246 0.172,0.278 0.156,0.296 0.176,0.555 -0.035,0.574 -0.157,0.539 -0.332,0.52 -0.226,0.281 -0.278,0.242 -0.261,0.243 -0.313,0.277 -0.297,0.281 -0.328,0.207 -0.297,0.227 -0.297,0.242 -0.312,0.207 -0.262,0.191 -0.277,0.176"
       style="fill:none;stroke:#000000;stroke-width:0.85;stroke-linecap:round;stroke-linejoin:round;stroke-miterlimit:10;stroke-dasharray:none;stroke-opacity:1"
       transform="scale(1.3333333)" />
    <path
       id="path1082"
       d="m 749.672,209.957 -0.332,0.191 -0.469,0.297 -0.246,0.227 -0.242,0.242 -0.242,0.246 -0.246,0.242 -0.227,0.293 -0.191,0.317 -0.192,0.258 -0.156,0.281 -0.141,0.277 -0.222,0.449 -0.106,0.418 v 0.348 l 0.278,0.332 0.347,0.086 0.559,-0.106 0.332,-0.136 0.347,-0.176 0.348,-0.191 0.363,-0.192 0.348,-0.207 0.367,-0.226 0.332,-0.262 0.293,-0.277 0.281,-0.297 0.243,-0.278 0.211,-0.277 0.191,-0.277 0.363,-0.434 0.211,-0.348 -0.191,0.485 -0.156,0.367 -0.106,0.383 -0.121,0.347 -0.105,0.348 -0.106,0.363 -0.051,0.332 -0.054,0.293 -0.086,0.539 0.054,0.524 0.086,0.383 0.192,0.312"
       style="fill:none;stroke:#000000;stroke-width:0.85;stroke-linecap:round;stroke-linejoin:round;stroke-miterlimit:10;stroke-dasharray:none;stroke-opacity:1"
       transform="scale(1.3333333)" />
    <path
       id="path1083"
       d="m 755.086,210.914 -0.156,0.488 -0.227,0.434 -0.211,0.367 -0.191,0.258 0.246,0.227 0.277,-0.137 0.297,-0.16 0.293,-0.188 0.664,-0.383 0.277,-0.175 0.469,-0.243 0.297,-0.14 0.332,0.121 v 0.367 l -0.176,0.469 -0.261,0.554 -0.313,0.489 -0.191,0.468 -0.106,0.313 0.192,0.383"
       style="fill:none;stroke:#000000;stroke-width:0.85;stroke-linecap:round;stroke-linejoin:round;stroke-miterlimit:10;stroke-dasharray:none;stroke-opacity:1"
       transform="scale(1.3333333)" />
    <path
       id="path1084"
       d="m 760.621,210.203 -0.086,0.293 -0.07,0.559 -0.055,0.484 0.055,0.574 0.015,0.332 0.036,0.348 0.019,0.418 0.031,0.398 0.036,0.418 0.054,0.469 0.051,0.504 0.086,0.523 0.055,0.52 0.05,0.555 0.051,0.574 v 1.113 l -0.015,0.524 -0.071,0.519 -0.07,0.453 -0.121,0.434 -0.106,0.418 -0.136,0.383 -0.157,0.328 -0.175,0.281 -0.192,0.242 -0.347,0.434 -0.418,0.246 -0.332,0.051 -0.383,-0.141 -0.383,-0.328 -0.191,-0.246 -0.157,-0.258 -0.136,-0.332 -0.106,-0.383 -0.09,-0.418 -0.031,-0.469 0.031,-0.484 0.035,-0.488 0.055,-0.524 0.07,-0.484 0.122,-0.469 0.136,-0.437 0.106,-0.414 0.14,-0.403 0.157,-0.363 0.171,-0.312 0.141,-0.313 0.383,-0.488 0.383,-0.434 0.453,-0.332 0.277,-0.137 0.297,-0.14 0.313,-0.141"
       style="fill:none;stroke:#000000;stroke-width:0.85;stroke-linecap:round;stroke-linejoin:round;stroke-miterlimit:10;stroke-dasharray:none;stroke-opacity:1"
       transform="scale(1.3333333)" />
    <path
       id="path1085"
       d="m 767.844,210.863 -0.207,-0.418 -0.282,-0.14 h -0.382 l -0.293,0.054 -0.368,0.086 -0.347,0.141 -0.332,0.226 -0.297,0.243 -0.313,0.261 -0.261,0.278 -0.242,0.293 -0.227,0.316 -0.191,0.293 -0.141,0.297 -0.086,0.328 -0.051,0.297 -0.019,0.312 0.019,0.575 0.137,0.504 0.281,0.453 0.328,0.347 0.403,0.348 0.433,0.262"
       style="fill:none;stroke:#000000;stroke-width:0.85;stroke-linecap:round;stroke-linejoin:round;stroke-miterlimit:10;stroke-dasharray:none;stroke-opacity:1"
       transform="scale(1.3333333)" />
    <path
       id="path1086"
       d="m 770.367,210.688 0.192,0.281 0.089,0.469 -0.089,0.539 -0.051,0.293 -0.086,0.332 -0.106,0.328 -0.086,0.332 -0.07,0.332 -0.121,0.293 -0.191,0.488 -0.141,0.434 -0.105,0.332 0.175,-0.453 0.106,-0.313 0.156,-0.332 0.172,-0.313 0.141,-0.328 0.121,-0.332 0.175,-0.277 0.137,-0.297 0.141,-0.293 0.121,-0.281 0.332,-0.383 0.277,-0.293 0.278,-0.176"
       style="fill:none;stroke:#000000;stroke-width:0.85;stroke-linecap:round;stroke-linejoin:round;stroke-miterlimit:10;stroke-dasharray:none;stroke-opacity:1"
       transform="scale(1.3333333)" />
    <path
       id="path1087"
       d="m 776.234,210.289 -0.172,0.332 -0.261,0.484 -0.262,0.489 -0.211,0.433 -0.137,0.489 -0.156,0.504 -0.09,0.433 -0.05,0.399 v 0.332 l 0.105,0.382"
       style="fill:none;stroke:#000000;stroke-width:0.85;stroke-linecap:round;stroke-linejoin:round;stroke-miterlimit:10;stroke-dasharray:none;stroke-opacity:1"
       transform="scale(1.3333333)" />
    <path
       id="path1088"
       d="m 781.074,210.586 -0.332,0.086 -0.433,0.14 -0.403,0.243 -0.449,0.347 -0.383,0.434 -0.351,0.434 -0.243,0.503 -0.191,0.489 -0.086,0.468 v 0.383 l 0.137,0.348 0.211,0.277"
       style="fill:none;stroke:#000000;stroke-width:0.85;stroke-linecap:round;stroke-linejoin:round;stroke-miterlimit:10;stroke-dasharray:none;stroke-opacity:1"
       transform="scale(1.3333333)" />
    <path
       id="path1089"
       d="m 785.949,204.848 -0.191,0.332 -0.211,0.347 -0.227,0.414 -0.226,0.438 -0.207,0.414 -0.227,0.383 -0.156,0.383 -0.141,0.402 -0.101,0.383 -0.09,0.363 -0.051,0.313 v 0.332 l 0.016,0.312 0.09,0.484 0.136,0.489 0.106,0.383 0.086,0.328 0.019,0.347 -0.07,0.473 -0.176,0.52 -0.137,0.296 -0.156,0.328 -0.156,0.297 -0.141,0.313 -0.14,0.297 -0.227,0.519 -0.07,0.438 -0.031,0.347"
       style="fill:none;stroke:#000000;stroke-width:0.85;stroke-linecap:round;stroke-linejoin:round;stroke-miterlimit:10;stroke-dasharray:none;stroke-opacity:1"
       transform="scale(1.3333333)" />
    <path
       id="path1090"
       d="m 791.691,204.082 -0.191,0.332 -0.207,0.293 -0.227,0.281 -0.242,0.328 -0.281,0.332 -0.262,0.348 -0.277,0.383 -0.297,0.433 -0.277,0.418 -0.242,0.399 -0.227,0.418 -0.191,0.433 -0.192,0.418 -0.191,0.399 -0.157,0.437 -0.125,0.434 -0.101,0.453 -0.09,0.379 -0.066,0.383 -0.036,0.367 -0.019,0.328 v 0.313"
       style="fill:none;stroke:#000000;stroke-width:0.85;stroke-linecap:round;stroke-linejoin:round;stroke-miterlimit:10;stroke-dasharray:none;stroke-opacity:1"
       transform="scale(1.3333333)" />
    <path
       id="path1091"
       d="m 787.133,209.523 0.262,0.211 0.468,0.243 0.504,0.277 0.297,0.105 0.332,0.121"
       style="fill:none;stroke:#000000;stroke-width:0.85;stroke-linecap:round;stroke-linejoin:round;stroke-miterlimit:10;stroke-dasharray:none;stroke-opacity:1"
       transform="scale(1.3333333)" />
    <path
       id="path1092"
       d="m 792.27,211.75 0.382,-0.02 h 0.313 l 0.328,-0.101 0.437,-0.141 0.348,-0.191 0.313,-0.227 0.246,-0.242 0.191,-0.348 -0.383,-0.277 -0.472,-0.09 -0.328,0.035 -0.352,0.055 -0.363,0.086 -0.383,0.106 -0.348,0.156 -0.367,0.191 -0.297,0.227 -0.277,0.242 -0.207,0.277 -0.192,0.262 -0.175,0.262 -0.157,0.484 -0.035,0.469 0.121,0.437 0.313,0.399 0.472,0.277 0.575,0.141 0.328,0.051"
       style="fill:none;stroke:#000000;stroke-width:0.85;stroke-linecap:round;stroke-linejoin:round;stroke-miterlimit:10;stroke-dasharray:none;stroke-opacity:1"
       transform="scale(1.3333333)" />
    <path
       id="path1093"
       d="m 802.086,200.883 -0.121,0.281 -0.262,0.57 -0.176,0.348 -0.136,0.453 -0.157,0.488 -0.175,0.52 -0.192,0.574 -0.156,0.59 -0.176,0.609 -0.156,0.59 -0.156,0.61 -0.141,0.625 -0.137,0.609 -0.14,0.539 -0.106,0.539 -0.121,0.574 -0.07,0.575 -0.086,0.519 -0.086,0.524 -0.07,0.488 -0.036,0.469 -0.035,0.414 v 0.382"
       style="fill:none;stroke:#000000;stroke-width:0.85;stroke-linecap:round;stroke-linejoin:round;stroke-miterlimit:10;stroke-dasharray:none;stroke-opacity:1"
       transform="scale(1.3333333)" />
    <path
       id="path1094"
       d="m 798.621,205.941 0.277,0.157 0.489,0.226 0.312,0.106 0.297,0.105 0.297,0.086 0.312,0.106 0.313,0.121 0.367,0.105 0.348,0.102 0.418,0.121 0.433,0.105 0.438,0.106 0.433,0.101 0.418,0.09 0.418,0.102 0.383,0.09 0.332,0.05 0.297,0.051"
       style="fill:none;stroke:#000000;stroke-width:0.85;stroke-linecap:round;stroke-linejoin:round;stroke-miterlimit:10;stroke-dasharray:none;stroke-opacity:1"
       transform="scale(1.3333333)" />
    <path
       id="path1095"
       d="m 778.148,206.621 v 0.434 l 0.106,0.383"
       style="fill:none;stroke:#000000;stroke-width:0.85;stroke-linecap:round;stroke-linejoin:round;stroke-miterlimit:10;stroke-dasharray:none;stroke-opacity:1"
       transform="scale(1.3333333)" />
    <path
       id="path1096"
       d="m 633.391,144.496 -0.329,0.039 0.5,0.106 0.54,-0.028 h 1.16 l 0.617,0.028 0.316,0.015 0.578,0.039 0.305,0.063 0.578,0.082 0.305,0.062 0.301,0.082 0.316,0.106 0.289,0.09 0.289,0.093 0.305,0.129 0.277,0.121 0.446,0.25 0.382,0.329 0.25,0.355 0.145,0.473 0.016,0.472 -0.067,0.539 -0.121,0.512 -0.168,0.5 -0.199,0.434 -0.25,0.394 -0.317,0.328 -0.355,0.266 -0.383,0.25 -0.422,0.246 -0.5,0.188 -0.511,0.183 -1.079,0.211 -0.554,0.039 -0.528,0.039 -0.511,0.028 -0.473,0.011 h -0.871 l -0.395,-0.039 -0.433,-0.078 -0.332,-0.105"
       style="fill:none;stroke:#00c0ff;stroke-width:0.85;stroke-linecap:round;stroke-linejoin:round;stroke-miterlimit:10;stroke-dasharray:none;stroke-opacity:1"
       transform="scale(1.3333333)" />
    <path
       id="path1097"
       d="m 631.402,153.688 -0.379,-0.04 -0.343,-0.066 -0.289,-0.133 -0.239,-0.234 -0.105,-0.422 -0.024,-0.328 0.024,-0.371 0.055,-0.352 0.105,-0.316 0.105,-0.289 0.223,-0.328 0.317,-0.305 0.261,-0.172 0.289,-0.144 0.344,-0.118 0.344,-0.105 0.433,-0.106 0.5,-0.078"
       style="fill:none;stroke:#00c0ff;stroke-width:0.85;stroke-linecap:round;stroke-linejoin:round;stroke-miterlimit:10;stroke-dasharray:none;stroke-opacity:1"
       transform="scale(1.3333333)" />
    <path
       id="path1098"
       d="m 698.242,174.762 0.301,-0.395 0.332,-0.277 0.34,-0.195 0.41,-0.211 0.367,-0.118 0.395,-0.027 0.332,0.066 0.312,0.145 0.227,0.367 v 0.356 l -0.145,0.445 -0.121,0.277 -0.168,0.262 -0.199,0.289 -0.25,0.316 -0.277,0.305 -0.289,0.313 -0.305,0.328 -0.328,0.332 -0.34,0.355 -0.305,0.328 -0.289,0.329 -0.277,0.316 -0.25,0.289 -0.223,0.262 -0.183,0.261 -0.266,0.461 -0.129,0.368 v 0.328 l 0.25,0.355 0.262,0.145 0.383,0.082 0.484,0.039 0.543,0.023 h 1.078 l 0.473,-0.039 h 1.332 l 0.367,-0.023"
       style="fill:none;stroke:#00c0ff;stroke-width:0.85;stroke-linecap:round;stroke-linejoin:round;stroke-miterlimit:10;stroke-dasharray:none;stroke-opacity:1"
       transform="scale(1.3333333)" />
    <path
       id="path1099"
       d="m 647.238,125.906 0.391,-0.203 0.285,-0.215 0.313,-0.261 0.324,-0.313 0.324,-0.316 0.313,-0.332 0.285,-0.328 0.261,-0.286 0.254,-0.246 0.274,-0.324 0.277,-0.238 v 0.437 l -0.137,0.41 -0.125,0.477 -0.152,0.445 -0.109,0.477 -0.114,0.422 -0.086,0.41 -0.089,0.351 -0.039,0.372 -0.024,0.351 0.008,0.348 0.016,0.312 0.105,0.403 0.141,0.316"
       style="fill:none;stroke:#808080;stroke-width:0.85;stroke-linecap:round;stroke-linejoin:round;stroke-miterlimit:10;stroke-dasharray:none;stroke-opacity:1"
       transform="scale(1.3333333)" />
    <path
       id="path1100"
       d="m 659.863,133.57 0.262,-0.191 0.391,-0.176 0.613,-0.07 0.324,0.008 0.344,0.078 0.293,0.136 0.262,0.239 0.191,0.301 0.129,0.375 0.031,0.41 -0.047,0.445 -0.129,0.437 -0.222,0.477 -0.278,0.461 -0.312,0.477 -0.309,0.437 -0.261,0.395 -0.231,0.336 -0.137,0.316 -0.07,0.355 0.16,0.352 0.34,0.164 0.336,0.09 0.387,0.023 0.453,-0.015 0.488,-0.047 0.57,-0.051 0.59,-0.055 0.301,-0.023 0.543,-0.063 0.508,-0.046 0.484,-0.016"
       style="fill:none;stroke:#808080;stroke-width:0.85;stroke-linecap:round;stroke-linejoin:round;stroke-miterlimit:10;stroke-dasharray:none;stroke-opacity:1"
       transform="scale(1.3333333)" />
    <path
       id="path1101"
       d="m 601.297,176.809 0.062,-0.329 0.34,-0.312 0.36,-0.242 0.379,-0.196 0.445,-0.152 0.426,-0.062 0.433,-0.036 0.36,0.043 0.273,0.176 0.184,0.391 -0.086,0.359 -0.239,0.446 -0.359,0.5 -0.187,0.269 -0.204,0.305 -0.218,0.304 -0.231,0.293 -0.207,0.293 -0.183,0.286 -0.184,0.281 -0.195,0.25 -0.164,0.262 -0.262,0.457 -0.207,0.359 -0.086,0.293 v 0.324 l 0.293,0.25 0.305,0.024 0.433,-0.024 0.512,-0.043 0.609,-0.086 0.328,-0.054 0.325,-0.055 0.328,-0.043 0.347,-0.024 0.317,-0.031 0.316,-0.055 0.305,-0.031 0.324,-0.023 h 0.305 l 0.59,0.043"
       style="fill:none;stroke:#808080;stroke-width:0.85;stroke-linecap:round;stroke-linejoin:round;stroke-miterlimit:10;stroke-dasharray:none;stroke-opacity:1"
       transform="scale(1.3333333)" />
    <path
       id="path1102"
       d="m 625.594,175.48 0.238,-0.312 0.262,-0.242 0.273,-0.27 0.336,-0.238 0.359,-0.195 0.383,-0.176 0.348,-0.141 0.316,-0.031 0.414,0.063 0.27,0.316 0.109,0.305 v 0.421 l -0.121,0.512 -0.238,0.531 -0.293,0.536 -0.176,0.25 -0.183,0.257 -0.207,0.25 -0.207,0.297 -0.219,0.293 -0.227,0.27 -0.207,0.293 -0.183,0.285 -0.188,0.258 -0.183,0.242 -0.286,0.445 -0.203,0.36 -0.066,0.398 0.14,0.316 0.391,0.184 0.426,0.055 h 0.469 l 0.566,-0.02 0.563,-0.066 0.316,-0.031 0.328,-0.036 0.324,-0.043 0.352,-0.031 0.355,-0.012 0.36,-0.019 0.34,-0.012 0.324,-0.023 0.347,0.023 0.317,0.012 0.59,0.051 0.304,0.054 0.313,0.043 0.578,0.121"
       style="fill:none;stroke:#808080;stroke-width:0.85;stroke-linecap:round;stroke-linejoin:round;stroke-miterlimit:10;stroke-dasharray:none;stroke-opacity:1"
       transform="scale(1.3333333)" />
  </g>
</svg>
